G75*
G70*
%OFA0B0*%
%FSLAX24Y24*%
%IPPOS*%
%LPD*%
%AMOC8*
5,1,8,0,0,1.08239X$1,22.5*
%
%ADD10C,0.0050*%
%ADD11C,0.0000*%
%ADD12C,0.1181*%
%ADD13C,0.0984*%
%ADD14C,0.0827*%
%ADD15C,0.0850*%
%ADD16C,0.0709*%
%ADD17C,0.0787*%
%ADD18C,0.0669*%
%ADD19C,0.0500*%
D10*
X001034Y000534D02*
X023572Y000534D01*
X023572Y000562D01*
X023576Y000590D01*
X023583Y000617D01*
X023594Y000643D01*
X023608Y000667D01*
X023625Y000689D01*
X023645Y000709D01*
X023667Y000726D01*
X023691Y000740D01*
X023717Y000751D01*
X023744Y000758D01*
X023772Y000762D01*
X023922Y000762D01*
X023950Y000758D01*
X023977Y000751D01*
X024003Y000740D01*
X024027Y000726D01*
X024049Y000709D01*
X024069Y000689D01*
X024086Y000667D01*
X024100Y000643D01*
X024111Y000617D01*
X024118Y000590D01*
X024122Y000562D01*
X024122Y000534D01*
X029309Y000534D01*
X029309Y000562D01*
X029313Y000590D01*
X029320Y000617D01*
X029331Y000643D01*
X029345Y000667D01*
X029362Y000689D01*
X029382Y000709D01*
X029404Y000726D01*
X029428Y000740D01*
X029454Y000751D01*
X029481Y000758D01*
X029509Y000762D01*
X029659Y000762D01*
X029688Y000758D01*
X029715Y000751D01*
X029741Y000741D01*
X029766Y000727D01*
X029789Y000710D01*
X029809Y000690D01*
X029827Y000668D01*
X029841Y000643D01*
X029853Y000617D01*
X029860Y000590D01*
X029864Y000562D01*
X029865Y000534D01*
X029864Y000534D02*
X031519Y000534D01*
X031518Y000533D02*
X031563Y000534D01*
X031606Y000540D01*
X031650Y000549D01*
X031692Y000562D01*
X031733Y000578D01*
X031772Y000598D01*
X031810Y000621D01*
X031845Y000648D01*
X031878Y000677D01*
X031908Y000710D01*
X031935Y000744D01*
X031959Y000781D01*
X031980Y000820D01*
X031998Y000861D01*
X032011Y000903D01*
X032021Y000946D01*
X032028Y000989D01*
X032030Y001033D01*
X032030Y001034D02*
X032030Y014435D01*
X032027Y014478D01*
X032021Y014522D01*
X032011Y014565D01*
X031997Y014607D01*
X031980Y014647D01*
X031959Y014686D01*
X031935Y014723D01*
X031908Y014758D01*
X031877Y014790D01*
X031845Y014819D01*
X031809Y014845D01*
X031772Y014869D01*
X031733Y014888D01*
X031692Y014905D01*
X031649Y014917D01*
X031606Y014926D01*
X031563Y014932D01*
X031518Y014933D01*
X031519Y014933D02*
X001034Y014933D01*
X000990Y014931D01*
X000947Y014926D01*
X000905Y014916D01*
X000863Y014903D01*
X000823Y014887D01*
X000784Y014867D01*
X000748Y014843D01*
X000713Y014817D01*
X000681Y014788D01*
X000651Y014756D01*
X000625Y014721D01*
X000601Y014684D01*
X000581Y014646D01*
X000564Y014606D01*
X000551Y014564D01*
X000542Y014522D01*
X000536Y014478D01*
X000534Y014435D01*
X000534Y001034D01*
X000536Y000990D01*
X000542Y000947D01*
X000551Y000905D01*
X000564Y000863D01*
X000581Y000823D01*
X000601Y000784D01*
X000624Y000747D01*
X000651Y000713D01*
X000680Y000680D01*
X000713Y000651D01*
X000747Y000624D01*
X000784Y000601D01*
X000823Y000581D01*
X000863Y000564D01*
X000905Y000551D01*
X000947Y000542D01*
X000990Y000536D01*
X001034Y000534D01*
X003249Y001912D02*
X007340Y001912D01*
X007340Y003486D01*
X004184Y003486D01*
X004150Y003488D01*
X004117Y003493D01*
X004084Y003502D01*
X004053Y003515D01*
X004023Y003531D01*
X003995Y003551D01*
X003970Y003573D01*
X003947Y003598D01*
X003927Y003626D01*
X003911Y003655D01*
X003898Y003687D01*
X003888Y003719D01*
X003882Y003752D01*
X003880Y003786D01*
X003880Y010336D01*
X005130Y011586D01*
X007340Y011586D01*
X007340Y013161D01*
X003175Y013161D01*
X003130Y013155D01*
X003086Y013146D01*
X003043Y013134D01*
X003002Y013117D01*
X002962Y013097D01*
X002923Y013073D01*
X002887Y013047D01*
X002854Y013017D01*
X002823Y012984D01*
X002795Y012949D01*
X002771Y012912D01*
X002749Y012872D01*
X002732Y012831D01*
X002718Y012788D01*
X002707Y012745D01*
X002701Y012700D01*
X002698Y012656D01*
X002699Y012611D01*
X002699Y002387D01*
X002704Y002345D01*
X002712Y002303D01*
X002724Y002262D01*
X002739Y002222D01*
X002757Y002184D01*
X002779Y002147D01*
X002803Y002112D01*
X002830Y002080D01*
X002860Y002049D01*
X002892Y002022D01*
X002926Y001997D01*
X002963Y001974D01*
X003001Y001955D01*
X003040Y001940D01*
X003081Y001927D01*
X003122Y001918D01*
X003164Y001912D01*
X003207Y001910D01*
X003249Y001911D01*
X008521Y001912D02*
X008521Y003486D01*
X010680Y003486D01*
X011980Y004786D01*
X011980Y011286D01*
X011978Y011320D01*
X011972Y011353D01*
X011963Y011385D01*
X011950Y011416D01*
X011934Y011446D01*
X011915Y011473D01*
X011892Y011498D01*
X011867Y011521D01*
X011840Y011540D01*
X011810Y011556D01*
X011779Y011569D01*
X011747Y011578D01*
X011714Y011584D01*
X011680Y011586D01*
X008521Y011586D01*
X008521Y013161D01*
X019741Y013161D01*
X020291Y012686D02*
X020291Y009857D01*
X019373Y009857D01*
X019350Y009861D01*
X019328Y009868D01*
X019307Y009878D01*
X019288Y009891D01*
X019271Y009907D01*
X019257Y009925D01*
X019245Y009945D01*
X019236Y009966D01*
X019230Y009988D01*
X019227Y010011D01*
X019228Y010034D01*
X019228Y010097D01*
X019228Y010120D01*
X019224Y010143D01*
X019218Y010165D01*
X019208Y010186D01*
X019196Y010205D01*
X019181Y010222D01*
X019163Y010237D01*
X019144Y010250D01*
X019123Y010259D01*
X019101Y010265D01*
X019078Y010269D01*
X018938Y010269D01*
X018938Y010270D02*
X018915Y010273D01*
X018893Y010280D01*
X018872Y010290D01*
X018852Y010303D01*
X018835Y010319D01*
X018819Y010336D01*
X018807Y010356D01*
X018798Y010378D01*
X018791Y010400D01*
X018788Y010423D01*
X018789Y010447D01*
X018788Y010447D02*
X018788Y011397D01*
X017688Y011397D01*
X017688Y010897D01*
X017688Y010896D02*
X017670Y010836D01*
X017648Y010777D01*
X017622Y010720D01*
X017593Y010664D01*
X017561Y010611D01*
X017525Y010559D01*
X017487Y010509D01*
X017446Y010462D01*
X017401Y010417D01*
X017355Y010376D01*
X017305Y010337D01*
X017254Y010301D01*
X017200Y010268D01*
X017200Y010269D02*
X017150Y010231D01*
X017102Y010190D01*
X017057Y010146D01*
X017015Y010100D01*
X016975Y010051D01*
X016939Y009999D01*
X016906Y009946D01*
X016876Y009891D01*
X016849Y009834D01*
X016826Y009775D01*
X016807Y009715D01*
X016791Y009654D01*
X016779Y009593D01*
X016770Y009530D01*
X016766Y009467D01*
X016765Y009405D01*
X016768Y009342D01*
X016775Y009279D01*
X016786Y009217D01*
X016800Y009156D01*
X016818Y009096D01*
X016840Y009037D01*
X016865Y008979D01*
X016894Y008923D01*
X016926Y008869D01*
X016961Y008817D01*
X016999Y008767D01*
X017040Y008719D01*
X017085Y008674D01*
X017131Y008632D01*
X017180Y008593D01*
X017232Y008557D01*
X017285Y008524D01*
X017341Y008494D01*
X017398Y008468D01*
X017456Y008445D01*
X017516Y008426D01*
X017577Y008410D01*
X017639Y008398D01*
X017701Y008390D01*
X017764Y008386D01*
X017827Y008385D01*
X017890Y008389D01*
X017952Y008396D01*
X018014Y008407D01*
X018076Y008421D01*
X018136Y008439D01*
X018195Y008461D01*
X018252Y008487D01*
X018253Y008486D02*
X018473Y008486D01*
X018623Y008336D01*
X018623Y008137D01*
X018622Y008137D02*
X018624Y008103D01*
X018630Y008070D01*
X018639Y008037D01*
X018652Y008006D01*
X018668Y007976D01*
X018688Y007948D01*
X018711Y007923D01*
X018736Y007900D01*
X018764Y007880D01*
X018794Y007864D01*
X018825Y007851D01*
X018858Y007842D01*
X018891Y007836D01*
X018925Y007834D01*
X018959Y007836D01*
X018992Y007842D01*
X019025Y007851D01*
X019056Y007864D01*
X019086Y007880D01*
X019114Y007900D01*
X019139Y007923D01*
X019162Y007948D01*
X019182Y007976D01*
X019198Y008006D01*
X019211Y008037D01*
X019220Y008070D01*
X019226Y008103D01*
X019228Y008137D01*
X019228Y008808D01*
X019231Y008831D01*
X019238Y008853D01*
X019248Y008874D01*
X019261Y008894D01*
X019276Y008911D01*
X019294Y008926D01*
X019314Y008938D01*
X019335Y008948D01*
X019358Y008954D01*
X019381Y008957D01*
X019404Y008956D01*
X019404Y008957D02*
X020291Y008957D01*
X020291Y004942D01*
X018913Y004942D01*
X018913Y004998D01*
X018905Y005061D01*
X018893Y005124D01*
X018877Y005187D01*
X018858Y005248D01*
X018835Y005308D01*
X018808Y005366D01*
X018778Y005423D01*
X018744Y005478D01*
X018707Y005531D01*
X018667Y005581D01*
X018624Y005629D01*
X018579Y005674D01*
X018530Y005716D01*
X018480Y005756D01*
X018426Y005792D01*
X018371Y005825D01*
X018314Y005854D01*
X018255Y005880D01*
X018195Y005903D01*
X018134Y005922D01*
X018071Y005937D01*
X018008Y005948D01*
X017944Y005955D01*
X017880Y005959D01*
X017816Y005958D01*
X017751Y005954D01*
X017751Y005955D02*
X016819Y005955D01*
X016795Y005970D01*
X016772Y005988D01*
X016752Y006008D01*
X016734Y006031D01*
X016719Y006055D01*
X016699Y006105D01*
X016676Y006153D01*
X016649Y006200D01*
X016619Y006245D01*
X016585Y006287D01*
X016549Y006327D01*
X016511Y006365D01*
X016469Y006399D01*
X016426Y006431D01*
X016380Y006460D01*
X016332Y006485D01*
X016283Y006507D01*
X016233Y006525D01*
X016181Y006540D01*
X016128Y006551D01*
X016075Y006559D01*
X016021Y006563D01*
X015967Y006563D01*
X015913Y006559D01*
X015860Y006551D01*
X015807Y006540D01*
X015755Y006525D01*
X015705Y006507D01*
X015656Y006485D01*
X015608Y006460D01*
X015562Y006431D01*
X015519Y006399D01*
X015477Y006365D01*
X015439Y006327D01*
X015403Y006287D01*
X015369Y006245D01*
X015339Y006200D01*
X015312Y006153D01*
X015289Y006105D01*
X015269Y006055D01*
X015169Y005955D02*
X014319Y005955D01*
X014319Y005954D02*
X014281Y005950D01*
X014244Y005943D01*
X014208Y005933D01*
X014173Y005919D01*
X014139Y005901D01*
X014108Y005881D01*
X014078Y005857D01*
X014051Y005830D01*
X014027Y005802D01*
X014006Y005770D01*
X013988Y005737D01*
X013973Y005702D01*
X013962Y005666D01*
X013954Y005629D01*
X013950Y005592D01*
X013949Y005554D01*
X013949Y005555D02*
X013949Y003149D01*
X013951Y003119D01*
X013956Y003089D01*
X013965Y003060D01*
X013978Y003033D01*
X013993Y003007D01*
X014012Y002983D01*
X014033Y002962D01*
X014057Y002943D01*
X014083Y002928D01*
X014110Y002915D01*
X014139Y002906D01*
X014169Y002901D01*
X014199Y002899D01*
X018559Y002899D01*
X018913Y003247D02*
X018913Y003367D01*
X020291Y003367D01*
X020291Y002462D01*
X020291Y002461D02*
X020292Y002419D01*
X020290Y002376D01*
X020284Y002334D01*
X020275Y002293D01*
X020262Y002252D01*
X020247Y002213D01*
X020228Y002175D01*
X020205Y002138D01*
X020180Y002104D01*
X020153Y002072D01*
X020122Y002042D01*
X020090Y002015D01*
X020055Y001991D01*
X020018Y001969D01*
X019980Y001951D01*
X019940Y001936D01*
X019899Y001924D01*
X019857Y001916D01*
X019815Y001911D01*
X019815Y001912D02*
X008521Y001912D01*
X015168Y005955D02*
X015192Y005970D01*
X015215Y005988D01*
X015235Y006008D01*
X015253Y006031D01*
X015268Y006055D01*
X018559Y002899D02*
X018596Y002901D01*
X018632Y002906D01*
X018668Y002915D01*
X018702Y002928D01*
X018735Y002945D01*
X018766Y002964D01*
X018795Y002987D01*
X018821Y003013D01*
X018844Y003041D01*
X018865Y003072D01*
X018882Y003105D01*
X018895Y003139D01*
X018905Y003174D01*
X018911Y003211D01*
X018913Y003247D01*
X023047Y003367D02*
X023047Y002275D01*
X023046Y002275D02*
X023051Y002237D01*
X023060Y002199D01*
X023072Y002162D01*
X023088Y002127D01*
X023107Y002093D01*
X023130Y002061D01*
X023155Y002032D01*
X023184Y002005D01*
X023214Y001981D01*
X023247Y001961D01*
X023282Y001943D01*
X023318Y001929D01*
X023356Y001919D01*
X023394Y001913D01*
X023433Y001910D01*
X023472Y001911D01*
X023472Y001912D02*
X023572Y001912D01*
X023572Y001884D01*
X023576Y001856D01*
X023583Y001829D01*
X023594Y001803D01*
X023608Y001779D01*
X023625Y001757D01*
X023645Y001737D01*
X023667Y001720D01*
X023691Y001706D01*
X023717Y001695D01*
X023744Y001688D01*
X023772Y001684D01*
X023922Y001684D01*
X023950Y001688D01*
X023977Y001695D01*
X024003Y001706D01*
X024027Y001720D01*
X024049Y001737D01*
X024069Y001757D01*
X024086Y001779D01*
X024100Y001803D01*
X024111Y001829D01*
X024118Y001856D01*
X024122Y001884D01*
X024122Y001912D01*
X029309Y001912D01*
X029309Y001884D01*
X029313Y001856D01*
X029320Y001829D01*
X029331Y001803D01*
X029345Y001779D01*
X029362Y001757D01*
X029382Y001737D01*
X029404Y001720D01*
X029428Y001706D01*
X029454Y001695D01*
X029481Y001688D01*
X029509Y001684D01*
X029659Y001684D01*
X029659Y001683D02*
X029688Y001687D01*
X029715Y001694D01*
X029741Y001704D01*
X029766Y001718D01*
X029789Y001735D01*
X029809Y001755D01*
X029827Y001777D01*
X029841Y001802D01*
X029853Y001828D01*
X029860Y001855D01*
X029864Y001883D01*
X029865Y001911D01*
X029864Y001912D02*
X029864Y008502D01*
X029865Y008502D02*
X029860Y008544D01*
X029852Y008586D01*
X029840Y008627D01*
X029825Y008667D01*
X029807Y008705D01*
X029785Y008742D01*
X029761Y008777D01*
X029734Y008809D01*
X029704Y008840D01*
X029672Y008867D01*
X029638Y008892D01*
X029601Y008915D01*
X029563Y008934D01*
X029524Y008949D01*
X029483Y008962D01*
X029442Y008971D01*
X029400Y008977D01*
X029357Y008979D01*
X029315Y008978D01*
X029314Y008977D02*
X023522Y008977D01*
X023522Y008978D02*
X023477Y008972D01*
X023433Y008963D01*
X023390Y008951D01*
X023349Y008934D01*
X023309Y008914D01*
X023270Y008890D01*
X023234Y008864D01*
X023201Y008834D01*
X023170Y008801D01*
X023142Y008766D01*
X023118Y008729D01*
X023096Y008689D01*
X023079Y008648D01*
X023065Y008605D01*
X023054Y008562D01*
X023048Y008517D01*
X023045Y008473D01*
X023046Y008428D01*
X023047Y008427D02*
X023047Y004942D01*
X024425Y004942D01*
X024425Y005745D01*
X024431Y005797D01*
X024441Y005849D01*
X024454Y005900D01*
X024471Y005950D01*
X024492Y005998D01*
X024516Y006045D01*
X024544Y006090D01*
X024575Y006132D01*
X024609Y006173D01*
X024646Y006210D01*
X024685Y006245D01*
X024727Y006277D01*
X024771Y006306D01*
X024817Y006331D01*
X024865Y006353D01*
X024915Y006372D01*
X024965Y006386D01*
X025017Y006397D01*
X025069Y006404D01*
X025069Y006405D02*
X025919Y006405D01*
X025942Y006420D01*
X025965Y006438D01*
X025985Y006458D01*
X026003Y006481D01*
X026018Y006505D01*
X026019Y006505D02*
X026039Y006555D01*
X026062Y006603D01*
X026089Y006650D01*
X026119Y006695D01*
X026153Y006737D01*
X026189Y006777D01*
X026227Y006815D01*
X026269Y006849D01*
X026312Y006881D01*
X026358Y006910D01*
X026406Y006935D01*
X026455Y006957D01*
X026505Y006975D01*
X026557Y006990D01*
X026610Y007001D01*
X026663Y007009D01*
X026717Y007013D01*
X026771Y007013D01*
X026825Y007009D01*
X026878Y007001D01*
X026931Y006990D01*
X026983Y006975D01*
X027033Y006957D01*
X027082Y006935D01*
X027130Y006910D01*
X027176Y006881D01*
X027219Y006849D01*
X027261Y006815D01*
X027299Y006777D01*
X027335Y006737D01*
X027369Y006695D01*
X027399Y006650D01*
X027426Y006603D01*
X027449Y006555D01*
X027469Y006505D01*
X027491Y006470D01*
X027515Y006438D01*
X027542Y006407D01*
X027571Y006378D01*
X027602Y006351D01*
X027634Y006327D01*
X027669Y006305D01*
X028601Y006305D01*
X028601Y006304D02*
X028643Y006297D01*
X028684Y006286D01*
X028724Y006272D01*
X028762Y006254D01*
X028799Y006233D01*
X028834Y006208D01*
X028866Y006181D01*
X028896Y006151D01*
X028924Y006119D01*
X028948Y006084D01*
X028969Y006048D01*
X028988Y006009D01*
X029002Y005969D01*
X029013Y005928D01*
X029021Y005887D01*
X029024Y005845D01*
X029025Y005845D02*
X029025Y003231D01*
X029024Y003231D02*
X029004Y003187D01*
X028980Y003145D01*
X028953Y003105D01*
X028923Y003067D01*
X028890Y003032D01*
X028854Y002999D01*
X028816Y002969D01*
X028776Y002942D01*
X028733Y002919D01*
X028689Y002899D01*
X028644Y002882D01*
X028597Y002869D01*
X028550Y002860D01*
X028502Y002855D01*
X028453Y002853D01*
X028405Y002855D01*
X028357Y002861D01*
X028310Y002871D01*
X028263Y002884D01*
X028218Y002901D01*
X028121Y002995D02*
X025331Y002995D01*
X025330Y002995D02*
X025316Y002971D01*
X025299Y002949D01*
X025278Y002930D01*
X025255Y002914D01*
X025231Y002901D01*
X024425Y003231D02*
X024425Y003367D01*
X023047Y003367D01*
X024425Y003231D02*
X024445Y003187D01*
X024469Y003145D01*
X024496Y003105D01*
X024526Y003067D01*
X024559Y003032D01*
X024595Y002999D01*
X024633Y002969D01*
X024673Y002942D01*
X024716Y002919D01*
X024760Y002899D01*
X024805Y002882D01*
X024852Y002869D01*
X024899Y002860D01*
X024947Y002855D01*
X024996Y002853D01*
X025044Y002855D01*
X025092Y002861D01*
X025139Y002871D01*
X025186Y002884D01*
X025231Y002901D01*
X028121Y002995D02*
X028135Y002971D01*
X028152Y002949D01*
X028171Y002930D01*
X028194Y002914D01*
X028218Y002901D01*
X020291Y012685D02*
X020286Y012727D01*
X020278Y012769D01*
X020266Y012810D01*
X020251Y012850D01*
X020233Y012888D01*
X020211Y012925D01*
X020187Y012960D01*
X020160Y012992D01*
X020130Y013023D01*
X020098Y013050D01*
X020064Y013075D01*
X020027Y013098D01*
X019989Y013117D01*
X019950Y013132D01*
X019909Y013145D01*
X019868Y013154D01*
X019826Y013160D01*
X019783Y013162D01*
X019741Y013161D01*
D11*
X030325Y012065D02*
X030327Y012113D01*
X030333Y012161D01*
X030343Y012208D01*
X030356Y012254D01*
X030374Y012299D01*
X030394Y012343D01*
X030419Y012385D01*
X030447Y012424D01*
X030477Y012461D01*
X030511Y012495D01*
X030548Y012527D01*
X030586Y012556D01*
X030627Y012581D01*
X030670Y012603D01*
X030715Y012621D01*
X030761Y012635D01*
X030808Y012646D01*
X030856Y012653D01*
X030904Y012656D01*
X030952Y012655D01*
X031000Y012650D01*
X031048Y012641D01*
X031094Y012629D01*
X031139Y012612D01*
X031183Y012592D01*
X031225Y012569D01*
X031265Y012542D01*
X031303Y012512D01*
X031338Y012479D01*
X031370Y012443D01*
X031400Y012405D01*
X031426Y012364D01*
X031448Y012321D01*
X031468Y012277D01*
X031483Y012232D01*
X031495Y012185D01*
X031503Y012137D01*
X031507Y012089D01*
X031507Y012041D01*
X031503Y011993D01*
X031495Y011945D01*
X031483Y011898D01*
X031468Y011853D01*
X031448Y011809D01*
X031426Y011766D01*
X031400Y011725D01*
X031370Y011687D01*
X031338Y011651D01*
X031303Y011618D01*
X031265Y011588D01*
X031225Y011561D01*
X031183Y011538D01*
X031139Y011518D01*
X031094Y011501D01*
X031048Y011489D01*
X031000Y011480D01*
X030952Y011475D01*
X030904Y011474D01*
X030856Y011477D01*
X030808Y011484D01*
X030761Y011495D01*
X030715Y011509D01*
X030670Y011527D01*
X030627Y011549D01*
X030586Y011574D01*
X030548Y011603D01*
X030511Y011635D01*
X030477Y011669D01*
X030447Y011706D01*
X030419Y011745D01*
X030394Y011787D01*
X030374Y011831D01*
X030356Y011876D01*
X030343Y011922D01*
X030333Y011969D01*
X030327Y012017D01*
X030325Y012065D01*
X030325Y002565D02*
X030327Y002613D01*
X030333Y002661D01*
X030343Y002708D01*
X030356Y002754D01*
X030374Y002799D01*
X030394Y002843D01*
X030419Y002885D01*
X030447Y002924D01*
X030477Y002961D01*
X030511Y002995D01*
X030548Y003027D01*
X030586Y003056D01*
X030627Y003081D01*
X030670Y003103D01*
X030715Y003121D01*
X030761Y003135D01*
X030808Y003146D01*
X030856Y003153D01*
X030904Y003156D01*
X030952Y003155D01*
X031000Y003150D01*
X031048Y003141D01*
X031094Y003129D01*
X031139Y003112D01*
X031183Y003092D01*
X031225Y003069D01*
X031265Y003042D01*
X031303Y003012D01*
X031338Y002979D01*
X031370Y002943D01*
X031400Y002905D01*
X031426Y002864D01*
X031448Y002821D01*
X031468Y002777D01*
X031483Y002732D01*
X031495Y002685D01*
X031503Y002637D01*
X031507Y002589D01*
X031507Y002541D01*
X031503Y002493D01*
X031495Y002445D01*
X031483Y002398D01*
X031468Y002353D01*
X031448Y002309D01*
X031426Y002266D01*
X031400Y002225D01*
X031370Y002187D01*
X031338Y002151D01*
X031303Y002118D01*
X031265Y002088D01*
X031225Y002061D01*
X031183Y002038D01*
X031139Y002018D01*
X031094Y002001D01*
X031048Y001989D01*
X031000Y001980D01*
X030952Y001975D01*
X030904Y001974D01*
X030856Y001977D01*
X030808Y001984D01*
X030761Y001995D01*
X030715Y002009D01*
X030670Y002027D01*
X030627Y002049D01*
X030586Y002074D01*
X030548Y002103D01*
X030511Y002135D01*
X030477Y002169D01*
X030447Y002206D01*
X030419Y002245D01*
X030394Y002287D01*
X030374Y002331D01*
X030356Y002376D01*
X030343Y002422D01*
X030333Y002469D01*
X030327Y002517D01*
X030325Y002565D01*
X001046Y002565D02*
X001048Y002613D01*
X001054Y002661D01*
X001064Y002708D01*
X001077Y002754D01*
X001095Y002799D01*
X001115Y002843D01*
X001140Y002885D01*
X001168Y002924D01*
X001198Y002961D01*
X001232Y002995D01*
X001269Y003027D01*
X001307Y003056D01*
X001348Y003081D01*
X001391Y003103D01*
X001436Y003121D01*
X001482Y003135D01*
X001529Y003146D01*
X001577Y003153D01*
X001625Y003156D01*
X001673Y003155D01*
X001721Y003150D01*
X001769Y003141D01*
X001815Y003129D01*
X001860Y003112D01*
X001904Y003092D01*
X001946Y003069D01*
X001986Y003042D01*
X002024Y003012D01*
X002059Y002979D01*
X002091Y002943D01*
X002121Y002905D01*
X002147Y002864D01*
X002169Y002821D01*
X002189Y002777D01*
X002204Y002732D01*
X002216Y002685D01*
X002224Y002637D01*
X002228Y002589D01*
X002228Y002541D01*
X002224Y002493D01*
X002216Y002445D01*
X002204Y002398D01*
X002189Y002353D01*
X002169Y002309D01*
X002147Y002266D01*
X002121Y002225D01*
X002091Y002187D01*
X002059Y002151D01*
X002024Y002118D01*
X001986Y002088D01*
X001946Y002061D01*
X001904Y002038D01*
X001860Y002018D01*
X001815Y002001D01*
X001769Y001989D01*
X001721Y001980D01*
X001673Y001975D01*
X001625Y001974D01*
X001577Y001977D01*
X001529Y001984D01*
X001482Y001995D01*
X001436Y002009D01*
X001391Y002027D01*
X001348Y002049D01*
X001307Y002074D01*
X001269Y002103D01*
X001232Y002135D01*
X001198Y002169D01*
X001168Y002206D01*
X001140Y002245D01*
X001115Y002287D01*
X001095Y002331D01*
X001077Y002376D01*
X001064Y002422D01*
X001054Y002469D01*
X001048Y002517D01*
X001046Y002565D01*
X001046Y012065D02*
X001048Y012113D01*
X001054Y012161D01*
X001064Y012208D01*
X001077Y012254D01*
X001095Y012299D01*
X001115Y012343D01*
X001140Y012385D01*
X001168Y012424D01*
X001198Y012461D01*
X001232Y012495D01*
X001269Y012527D01*
X001307Y012556D01*
X001348Y012581D01*
X001391Y012603D01*
X001436Y012621D01*
X001482Y012635D01*
X001529Y012646D01*
X001577Y012653D01*
X001625Y012656D01*
X001673Y012655D01*
X001721Y012650D01*
X001769Y012641D01*
X001815Y012629D01*
X001860Y012612D01*
X001904Y012592D01*
X001946Y012569D01*
X001986Y012542D01*
X002024Y012512D01*
X002059Y012479D01*
X002091Y012443D01*
X002121Y012405D01*
X002147Y012364D01*
X002169Y012321D01*
X002189Y012277D01*
X002204Y012232D01*
X002216Y012185D01*
X002224Y012137D01*
X002228Y012089D01*
X002228Y012041D01*
X002224Y011993D01*
X002216Y011945D01*
X002204Y011898D01*
X002189Y011853D01*
X002169Y011809D01*
X002147Y011766D01*
X002121Y011725D01*
X002091Y011687D01*
X002059Y011651D01*
X002024Y011618D01*
X001986Y011588D01*
X001946Y011561D01*
X001904Y011538D01*
X001860Y011518D01*
X001815Y011501D01*
X001769Y011489D01*
X001721Y011480D01*
X001673Y011475D01*
X001625Y011474D01*
X001577Y011477D01*
X001529Y011484D01*
X001482Y011495D01*
X001436Y011509D01*
X001391Y011527D01*
X001348Y011549D01*
X001307Y011574D01*
X001269Y011603D01*
X001232Y011635D01*
X001198Y011669D01*
X001168Y011706D01*
X001140Y011745D01*
X001115Y011787D01*
X001095Y011831D01*
X001077Y011876D01*
X001064Y011922D01*
X001054Y011969D01*
X001048Y012017D01*
X001046Y012065D01*
D12*
X001637Y012065D03*
X001637Y002565D03*
X030916Y002565D03*
X030916Y012065D03*
D13*
X017173Y003916D03*
D14*
X017169Y005955D03*
X015969Y006455D03*
X014819Y005955D03*
X025534Y006384D03*
X026724Y006894D03*
X027984Y006334D03*
D15*
X011380Y005936D03*
X011380Y007936D03*
X004480Y007936D03*
D16*
X004480Y005086D03*
X004480Y004086D03*
X018237Y010886D03*
X018237Y010986D03*
X018237Y011136D03*
X018237Y011286D03*
X018237Y011386D03*
D17*
X025724Y004244D03*
X027724Y004244D03*
D18*
X011384Y004834D03*
X010584Y004034D03*
D19*
X018228Y009399D03*
M02*
