%
M48
M72
T01C0.0120
T02C0.0157
T03C0.0160
T04C0.0180
T05C0.0315
T06C0.0350
T07C0.0394
T08C0.0433
T09C0.1181
%
T01
X5934Y4357
X6634Y4544
X6675Y5055
X5934Y5584
X4784Y5884
X4305Y5729
X6505Y6604
X6805Y6604
X7105Y6604
X7405Y6729
X7055Y7099
X6755Y7099
X6755Y7399
X7055Y7399
X7055Y7699
X6755Y7699
X6755Y7999
X7055Y7999
X5814Y8299
X5584Y8984
X4855Y9229
X4605Y9079
X4605Y9379
X5384Y9984
X8255Y9154
X8555Y9154
X9105Y9029
X9405Y9029
X9705Y9029
X9499Y10512
X9149Y10512
X8799Y10512
X10949Y10562
X10949Y10862
X10949Y11162
X17160Y9655
X17125Y9405
X18234Y9089
X18209Y8729
X20634Y9129
X20634Y9684
X18418Y10555
X18055Y10555
X15535Y5505
X15725Y5305
X15315Y5335
X14625Y5205
X14325Y5205
X15625Y3655
X15925Y3505
X15625Y3355
X18484Y3859
X18484Y4209
X18325Y5405
X18025Y5405
X17725Y5405
X21069Y4259
X21669Y4184
X21669Y4484
X22269Y4259
X22269Y3859
X21069Y3859
X25034Y3859
X25034Y4209
X25825Y3355
X26125Y3355
X26425Y3355
X26725Y3355
X27025Y3355
X27325Y3355
X27625Y3355
X27925Y3355
X10605Y5229
X10305Y5229
X10005Y5229
X9184Y4884
X10024Y4374
X10134Y4009
X8170Y4435
X7930Y4575
X7690Y4435
X5814Y7299
X4855Y7279
T02
X15082Y4779
X15082Y3283
X18482Y3283
X18482Y4779
X25025Y4779
X25025Y3283
X28425Y3283
X28425Y4779
T03
X26934Y6484
X26534Y6484
X16184Y6084
X15784Y6084
X8534Y8684
X8234Y8684
T04
X26725Y4155
X26725Y3805
T05
X4480Y4086
X4480Y5086
T06
X4480Y7936
X11380Y7936
X11380Y5936
T07
X18237Y10886
X18237Y10986
X18237Y11136
X18237Y11286
X18237Y11386
T08
X26724Y6894
X25534Y6384
X27984Y6334
X17169Y5955
X15969Y6455
X14819Y5955
T09
X1637Y2565
X1637Y12065
X30916Y12065
X30916Y2565
M30
