G75*
G70*
%OFA0B0*%
%FSLAX24Y24*%
%IPPOS*%
%LPD*%
%AMOC8*
5,1,8,0,0,1.08239X$1,22.5*
%
%ADD10C,0.0050*%
%ADD11C,0.0000*%
%ADD12C,0.0277*%
%ADD13C,0.0004*%
%ADD14C,0.0984*%
%ADD15C,0.0827*%
%ADD16C,0.0850*%
%ADD17C,0.0709*%
%ADD18C,0.0787*%
%ADD19C,0.0669*%
%ADD20C,0.0500*%
%ADD21C,0.0080*%
%ADD22C,0.0240*%
%ADD23C,0.0100*%
%ADD24C,0.0300*%
%ADD25C,0.0300*%
%ADD26C,0.0280*%
%ADD27C,0.0360*%
%ADD28C,0.0240*%
%ADD29C,0.0320*%
D10*
X001034Y000534D02*
X023572Y000534D01*
X023572Y000562D01*
X023576Y000590D01*
X023583Y000617D01*
X023594Y000643D01*
X023608Y000667D01*
X023625Y000689D01*
X023645Y000709D01*
X023667Y000726D01*
X023691Y000740D01*
X023717Y000751D01*
X023744Y000758D01*
X023772Y000762D01*
X023922Y000762D01*
X023950Y000758D01*
X023977Y000751D01*
X024003Y000740D01*
X024027Y000726D01*
X024049Y000709D01*
X024069Y000689D01*
X024086Y000667D01*
X024100Y000643D01*
X024111Y000617D01*
X024118Y000590D01*
X024122Y000562D01*
X024122Y000534D01*
X029309Y000534D01*
X029309Y000562D01*
X029313Y000590D01*
X029320Y000617D01*
X029331Y000643D01*
X029345Y000667D01*
X029362Y000689D01*
X029382Y000709D01*
X029404Y000726D01*
X029428Y000740D01*
X029454Y000751D01*
X029481Y000758D01*
X029509Y000762D01*
X029659Y000762D01*
X029688Y000758D01*
X029715Y000751D01*
X029741Y000741D01*
X029766Y000727D01*
X029789Y000710D01*
X029809Y000690D01*
X029827Y000668D01*
X029841Y000643D01*
X029853Y000617D01*
X029860Y000590D01*
X029864Y000562D01*
X029865Y000534D01*
X029864Y000534D02*
X031519Y000534D01*
X031518Y000533D02*
X031563Y000534D01*
X031606Y000540D01*
X031650Y000549D01*
X031692Y000562D01*
X031733Y000578D01*
X031772Y000598D01*
X031810Y000621D01*
X031845Y000648D01*
X031878Y000677D01*
X031908Y000710D01*
X031935Y000744D01*
X031959Y000781D01*
X031980Y000820D01*
X031998Y000861D01*
X032011Y000903D01*
X032021Y000946D01*
X032028Y000989D01*
X032030Y001033D01*
X032030Y001034D02*
X032030Y014435D01*
X032027Y014478D01*
X032021Y014522D01*
X032011Y014565D01*
X031997Y014607D01*
X031980Y014647D01*
X031959Y014686D01*
X031935Y014723D01*
X031908Y014758D01*
X031877Y014790D01*
X031845Y014819D01*
X031809Y014845D01*
X031772Y014869D01*
X031733Y014888D01*
X031692Y014905D01*
X031649Y014917D01*
X031606Y014926D01*
X031563Y014932D01*
X031518Y014933D01*
X031519Y014933D02*
X001034Y014933D01*
X000990Y014931D01*
X000947Y014926D01*
X000905Y014916D01*
X000863Y014903D01*
X000823Y014887D01*
X000784Y014867D01*
X000748Y014843D01*
X000713Y014817D01*
X000681Y014788D01*
X000651Y014756D01*
X000625Y014721D01*
X000601Y014684D01*
X000581Y014646D01*
X000564Y014606D01*
X000551Y014564D01*
X000542Y014522D01*
X000536Y014478D01*
X000534Y014435D01*
X000534Y001034D01*
X000536Y000990D01*
X000542Y000947D01*
X000551Y000905D01*
X000564Y000863D01*
X000581Y000823D01*
X000601Y000784D01*
X000624Y000747D01*
X000651Y000713D01*
X000680Y000680D01*
X000713Y000651D01*
X000747Y000624D01*
X000784Y000601D01*
X000823Y000581D01*
X000863Y000564D01*
X000905Y000551D01*
X000947Y000542D01*
X000990Y000536D01*
X001034Y000534D01*
X003249Y001912D02*
X007340Y001912D01*
X007340Y003486D01*
X004184Y003486D01*
X004150Y003488D01*
X004117Y003493D01*
X004084Y003502D01*
X004053Y003515D01*
X004023Y003531D01*
X003995Y003551D01*
X003970Y003573D01*
X003947Y003598D01*
X003927Y003626D01*
X003911Y003655D01*
X003898Y003687D01*
X003888Y003719D01*
X003882Y003752D01*
X003880Y003786D01*
X003880Y010336D01*
X005130Y011586D01*
X007340Y011586D01*
X007340Y013161D01*
X003175Y013161D01*
X003130Y013155D01*
X003086Y013146D01*
X003043Y013134D01*
X003002Y013117D01*
X002962Y013097D01*
X002923Y013073D01*
X002887Y013047D01*
X002854Y013017D01*
X002823Y012984D01*
X002795Y012949D01*
X002771Y012912D01*
X002749Y012872D01*
X002732Y012831D01*
X002718Y012788D01*
X002707Y012745D01*
X002701Y012700D01*
X002698Y012656D01*
X002699Y012611D01*
X002699Y002387D01*
X002704Y002345D01*
X002712Y002303D01*
X002724Y002262D01*
X002739Y002222D01*
X002757Y002184D01*
X002779Y002147D01*
X002803Y002112D01*
X002830Y002080D01*
X002860Y002049D01*
X002892Y002022D01*
X002926Y001997D01*
X002963Y001974D01*
X003001Y001955D01*
X003040Y001940D01*
X003081Y001927D01*
X003122Y001918D01*
X003164Y001912D01*
X003207Y001910D01*
X003249Y001911D01*
X008521Y001912D02*
X008521Y003486D01*
X010680Y003486D01*
X011980Y004786D01*
X011980Y011286D01*
X011978Y011320D01*
X011972Y011353D01*
X011963Y011385D01*
X011950Y011416D01*
X011934Y011446D01*
X011915Y011473D01*
X011892Y011498D01*
X011867Y011521D01*
X011840Y011540D01*
X011810Y011556D01*
X011779Y011569D01*
X011747Y011578D01*
X011714Y011584D01*
X011680Y011586D01*
X008521Y011586D01*
X008521Y013161D01*
X019741Y013161D01*
X020291Y012686D02*
X020291Y009857D01*
X019373Y009857D01*
X019350Y009861D01*
X019328Y009868D01*
X019307Y009878D01*
X019288Y009891D01*
X019271Y009907D01*
X019257Y009925D01*
X019245Y009945D01*
X019236Y009966D01*
X019230Y009988D01*
X019227Y010011D01*
X019228Y010034D01*
X019228Y010097D01*
X019228Y010120D01*
X019224Y010143D01*
X019218Y010165D01*
X019208Y010186D01*
X019196Y010205D01*
X019181Y010222D01*
X019163Y010237D01*
X019144Y010250D01*
X019123Y010259D01*
X019101Y010265D01*
X019078Y010269D01*
X018938Y010269D01*
X018938Y010270D02*
X018915Y010273D01*
X018893Y010280D01*
X018872Y010290D01*
X018852Y010303D01*
X018835Y010319D01*
X018819Y010336D01*
X018807Y010356D01*
X018798Y010378D01*
X018791Y010400D01*
X018788Y010423D01*
X018789Y010447D01*
X018788Y010447D02*
X018788Y011397D01*
X017688Y011397D01*
X017688Y010897D01*
X017688Y010896D02*
X017670Y010836D01*
X017648Y010777D01*
X017622Y010720D01*
X017593Y010664D01*
X017561Y010611D01*
X017525Y010559D01*
X017487Y010509D01*
X017446Y010462D01*
X017401Y010417D01*
X017355Y010376D01*
X017305Y010337D01*
X017254Y010301D01*
X017200Y010268D01*
X017200Y010269D02*
X017150Y010231D01*
X017102Y010190D01*
X017057Y010146D01*
X017015Y010100D01*
X016975Y010051D01*
X016939Y009999D01*
X016906Y009946D01*
X016876Y009891D01*
X016849Y009834D01*
X016826Y009775D01*
X016807Y009715D01*
X016791Y009654D01*
X016779Y009593D01*
X016770Y009530D01*
X016766Y009467D01*
X016765Y009405D01*
X016768Y009342D01*
X016775Y009279D01*
X016786Y009217D01*
X016800Y009156D01*
X016818Y009096D01*
X016840Y009037D01*
X016865Y008979D01*
X016894Y008923D01*
X016926Y008869D01*
X016961Y008817D01*
X016999Y008767D01*
X017040Y008719D01*
X017085Y008674D01*
X017131Y008632D01*
X017180Y008593D01*
X017232Y008557D01*
X017285Y008524D01*
X017341Y008494D01*
X017398Y008468D01*
X017456Y008445D01*
X017516Y008426D01*
X017577Y008410D01*
X017639Y008398D01*
X017701Y008390D01*
X017764Y008386D01*
X017827Y008385D01*
X017890Y008389D01*
X017952Y008396D01*
X018014Y008407D01*
X018076Y008421D01*
X018136Y008439D01*
X018195Y008461D01*
X018252Y008487D01*
X018253Y008486D02*
X018473Y008486D01*
X018623Y008336D01*
X018623Y008137D01*
X018622Y008137D02*
X018624Y008103D01*
X018630Y008070D01*
X018639Y008037D01*
X018652Y008006D01*
X018668Y007976D01*
X018688Y007948D01*
X018711Y007923D01*
X018736Y007900D01*
X018764Y007880D01*
X018794Y007864D01*
X018825Y007851D01*
X018858Y007842D01*
X018891Y007836D01*
X018925Y007834D01*
X018959Y007836D01*
X018992Y007842D01*
X019025Y007851D01*
X019056Y007864D01*
X019086Y007880D01*
X019114Y007900D01*
X019139Y007923D01*
X019162Y007948D01*
X019182Y007976D01*
X019198Y008006D01*
X019211Y008037D01*
X019220Y008070D01*
X019226Y008103D01*
X019228Y008137D01*
X019228Y008808D01*
X019231Y008831D01*
X019238Y008853D01*
X019248Y008874D01*
X019261Y008894D01*
X019276Y008911D01*
X019294Y008926D01*
X019314Y008938D01*
X019335Y008948D01*
X019358Y008954D01*
X019381Y008957D01*
X019404Y008956D01*
X019404Y008957D02*
X020291Y008957D01*
X020291Y004942D01*
X018913Y004942D01*
X018913Y004998D01*
X018905Y005061D01*
X018893Y005124D01*
X018877Y005187D01*
X018858Y005248D01*
X018835Y005308D01*
X018808Y005366D01*
X018778Y005423D01*
X018744Y005478D01*
X018707Y005531D01*
X018667Y005581D01*
X018624Y005629D01*
X018579Y005674D01*
X018530Y005716D01*
X018480Y005756D01*
X018426Y005792D01*
X018371Y005825D01*
X018314Y005854D01*
X018255Y005880D01*
X018195Y005903D01*
X018134Y005922D01*
X018071Y005937D01*
X018008Y005948D01*
X017944Y005955D01*
X017880Y005959D01*
X017816Y005958D01*
X017751Y005954D01*
X017751Y005955D02*
X016819Y005955D01*
X016795Y005970D01*
X016772Y005988D01*
X016752Y006008D01*
X016734Y006031D01*
X016719Y006055D01*
X016699Y006105D01*
X016676Y006153D01*
X016649Y006200D01*
X016619Y006245D01*
X016585Y006287D01*
X016549Y006327D01*
X016511Y006365D01*
X016469Y006399D01*
X016426Y006431D01*
X016380Y006460D01*
X016332Y006485D01*
X016283Y006507D01*
X016233Y006525D01*
X016181Y006540D01*
X016128Y006551D01*
X016075Y006559D01*
X016021Y006563D01*
X015967Y006563D01*
X015913Y006559D01*
X015860Y006551D01*
X015807Y006540D01*
X015755Y006525D01*
X015705Y006507D01*
X015656Y006485D01*
X015608Y006460D01*
X015562Y006431D01*
X015519Y006399D01*
X015477Y006365D01*
X015439Y006327D01*
X015403Y006287D01*
X015369Y006245D01*
X015339Y006200D01*
X015312Y006153D01*
X015289Y006105D01*
X015269Y006055D01*
X015169Y005955D02*
X014319Y005955D01*
X014319Y005954D02*
X014281Y005950D01*
X014244Y005943D01*
X014208Y005933D01*
X014173Y005919D01*
X014139Y005901D01*
X014108Y005881D01*
X014078Y005857D01*
X014051Y005830D01*
X014027Y005802D01*
X014006Y005770D01*
X013988Y005737D01*
X013973Y005702D01*
X013962Y005666D01*
X013954Y005629D01*
X013950Y005592D01*
X013949Y005554D01*
X013949Y005555D02*
X013949Y003149D01*
X013951Y003119D01*
X013956Y003089D01*
X013965Y003060D01*
X013978Y003033D01*
X013993Y003007D01*
X014012Y002983D01*
X014033Y002962D01*
X014057Y002943D01*
X014083Y002928D01*
X014110Y002915D01*
X014139Y002906D01*
X014169Y002901D01*
X014199Y002899D01*
X018559Y002899D01*
X018913Y003247D02*
X018913Y003367D01*
X020291Y003367D01*
X020291Y002462D01*
X020291Y002461D02*
X020292Y002419D01*
X020290Y002376D01*
X020284Y002334D01*
X020275Y002293D01*
X020262Y002252D01*
X020247Y002213D01*
X020228Y002175D01*
X020205Y002138D01*
X020180Y002104D01*
X020153Y002072D01*
X020122Y002042D01*
X020090Y002015D01*
X020055Y001991D01*
X020018Y001969D01*
X019980Y001951D01*
X019940Y001936D01*
X019899Y001924D01*
X019857Y001916D01*
X019815Y001911D01*
X019815Y001912D02*
X008521Y001912D01*
X015168Y005955D02*
X015192Y005970D01*
X015215Y005988D01*
X015235Y006008D01*
X015253Y006031D01*
X015268Y006055D01*
X018559Y002899D02*
X018596Y002901D01*
X018632Y002906D01*
X018668Y002915D01*
X018702Y002928D01*
X018735Y002945D01*
X018766Y002964D01*
X018795Y002987D01*
X018821Y003013D01*
X018844Y003041D01*
X018865Y003072D01*
X018882Y003105D01*
X018895Y003139D01*
X018905Y003174D01*
X018911Y003211D01*
X018913Y003247D01*
X023047Y003367D02*
X023047Y002275D01*
X023046Y002275D02*
X023051Y002237D01*
X023060Y002199D01*
X023072Y002162D01*
X023088Y002127D01*
X023107Y002093D01*
X023130Y002061D01*
X023155Y002032D01*
X023184Y002005D01*
X023214Y001981D01*
X023247Y001961D01*
X023282Y001943D01*
X023318Y001929D01*
X023356Y001919D01*
X023394Y001913D01*
X023433Y001910D01*
X023472Y001911D01*
X023472Y001912D02*
X023572Y001912D01*
X023572Y001884D01*
X023576Y001856D01*
X023583Y001829D01*
X023594Y001803D01*
X023608Y001779D01*
X023625Y001757D01*
X023645Y001737D01*
X023667Y001720D01*
X023691Y001706D01*
X023717Y001695D01*
X023744Y001688D01*
X023772Y001684D01*
X023922Y001684D01*
X023950Y001688D01*
X023977Y001695D01*
X024003Y001706D01*
X024027Y001720D01*
X024049Y001737D01*
X024069Y001757D01*
X024086Y001779D01*
X024100Y001803D01*
X024111Y001829D01*
X024118Y001856D01*
X024122Y001884D01*
X024122Y001912D01*
X029309Y001912D01*
X029309Y001884D01*
X029313Y001856D01*
X029320Y001829D01*
X029331Y001803D01*
X029345Y001779D01*
X029362Y001757D01*
X029382Y001737D01*
X029404Y001720D01*
X029428Y001706D01*
X029454Y001695D01*
X029481Y001688D01*
X029509Y001684D01*
X029659Y001684D01*
X029659Y001683D02*
X029688Y001687D01*
X029715Y001694D01*
X029741Y001704D01*
X029766Y001718D01*
X029789Y001735D01*
X029809Y001755D01*
X029827Y001777D01*
X029841Y001802D01*
X029853Y001828D01*
X029860Y001855D01*
X029864Y001883D01*
X029865Y001911D01*
X029864Y001912D02*
X029864Y008502D01*
X029865Y008502D02*
X029860Y008544D01*
X029852Y008586D01*
X029840Y008627D01*
X029825Y008667D01*
X029807Y008705D01*
X029785Y008742D01*
X029761Y008777D01*
X029734Y008809D01*
X029704Y008840D01*
X029672Y008867D01*
X029638Y008892D01*
X029601Y008915D01*
X029563Y008934D01*
X029524Y008949D01*
X029483Y008962D01*
X029442Y008971D01*
X029400Y008977D01*
X029357Y008979D01*
X029315Y008978D01*
X029314Y008977D02*
X023522Y008977D01*
X023522Y008978D02*
X023477Y008972D01*
X023433Y008963D01*
X023390Y008951D01*
X023349Y008934D01*
X023309Y008914D01*
X023270Y008890D01*
X023234Y008864D01*
X023201Y008834D01*
X023170Y008801D01*
X023142Y008766D01*
X023118Y008729D01*
X023096Y008689D01*
X023079Y008648D01*
X023065Y008605D01*
X023054Y008562D01*
X023048Y008517D01*
X023045Y008473D01*
X023046Y008428D01*
X023047Y008427D02*
X023047Y004942D01*
X024425Y004942D01*
X024425Y005745D01*
X024431Y005797D01*
X024441Y005849D01*
X024454Y005900D01*
X024471Y005950D01*
X024492Y005998D01*
X024516Y006045D01*
X024544Y006090D01*
X024575Y006132D01*
X024609Y006173D01*
X024646Y006210D01*
X024685Y006245D01*
X024727Y006277D01*
X024771Y006306D01*
X024817Y006331D01*
X024865Y006353D01*
X024915Y006372D01*
X024965Y006386D01*
X025017Y006397D01*
X025069Y006404D01*
X025069Y006405D02*
X025919Y006405D01*
X025942Y006420D01*
X025965Y006438D01*
X025985Y006458D01*
X026003Y006481D01*
X026018Y006505D01*
X026019Y006505D02*
X026039Y006555D01*
X026062Y006603D01*
X026089Y006650D01*
X026119Y006695D01*
X026153Y006737D01*
X026189Y006777D01*
X026227Y006815D01*
X026269Y006849D01*
X026312Y006881D01*
X026358Y006910D01*
X026406Y006935D01*
X026455Y006957D01*
X026505Y006975D01*
X026557Y006990D01*
X026610Y007001D01*
X026663Y007009D01*
X026717Y007013D01*
X026771Y007013D01*
X026825Y007009D01*
X026878Y007001D01*
X026931Y006990D01*
X026983Y006975D01*
X027033Y006957D01*
X027082Y006935D01*
X027130Y006910D01*
X027176Y006881D01*
X027219Y006849D01*
X027261Y006815D01*
X027299Y006777D01*
X027335Y006737D01*
X027369Y006695D01*
X027399Y006650D01*
X027426Y006603D01*
X027449Y006555D01*
X027469Y006505D01*
X027491Y006470D01*
X027515Y006438D01*
X027542Y006407D01*
X027571Y006378D01*
X027602Y006351D01*
X027634Y006327D01*
X027669Y006305D01*
X028601Y006305D01*
X028601Y006304D02*
X028643Y006297D01*
X028684Y006286D01*
X028724Y006272D01*
X028762Y006254D01*
X028799Y006233D01*
X028834Y006208D01*
X028866Y006181D01*
X028896Y006151D01*
X028924Y006119D01*
X028948Y006084D01*
X028969Y006048D01*
X028988Y006009D01*
X029002Y005969D01*
X029013Y005928D01*
X029021Y005887D01*
X029024Y005845D01*
X029025Y005845D02*
X029025Y003231D01*
X029024Y003231D02*
X029004Y003187D01*
X028980Y003145D01*
X028953Y003105D01*
X028923Y003067D01*
X028890Y003032D01*
X028854Y002999D01*
X028816Y002969D01*
X028776Y002942D01*
X028733Y002919D01*
X028689Y002899D01*
X028644Y002882D01*
X028597Y002869D01*
X028550Y002860D01*
X028502Y002855D01*
X028453Y002853D01*
X028405Y002855D01*
X028357Y002861D01*
X028310Y002871D01*
X028263Y002884D01*
X028218Y002901D01*
X028121Y002995D02*
X025331Y002995D01*
X025330Y002995D02*
X025316Y002971D01*
X025299Y002949D01*
X025278Y002930D01*
X025255Y002914D01*
X025231Y002901D01*
X024425Y003231D02*
X024425Y003367D01*
X023047Y003367D01*
X024425Y003231D02*
X024445Y003187D01*
X024469Y003145D01*
X024496Y003105D01*
X024526Y003067D01*
X024559Y003032D01*
X024595Y002999D01*
X024633Y002969D01*
X024673Y002942D01*
X024716Y002919D01*
X024760Y002899D01*
X024805Y002882D01*
X024852Y002869D01*
X024899Y002860D01*
X024947Y002855D01*
X024996Y002853D01*
X025044Y002855D01*
X025092Y002861D01*
X025139Y002871D01*
X025186Y002884D01*
X025231Y002901D01*
X028121Y002995D02*
X028135Y002971D01*
X028152Y002949D01*
X028171Y002930D01*
X028194Y002914D01*
X028218Y002901D01*
X020291Y012685D02*
X020286Y012727D01*
X020278Y012769D01*
X020266Y012810D01*
X020251Y012850D01*
X020233Y012888D01*
X020211Y012925D01*
X020187Y012960D01*
X020160Y012992D01*
X020130Y013023D01*
X020098Y013050D01*
X020064Y013075D01*
X020027Y013098D01*
X019989Y013117D01*
X019950Y013132D01*
X019909Y013145D01*
X019868Y013154D01*
X019826Y013160D01*
X019783Y013162D01*
X019741Y013161D01*
D11*
X030325Y012065D02*
X030327Y012113D01*
X030333Y012161D01*
X030343Y012208D01*
X030356Y012254D01*
X030374Y012299D01*
X030394Y012343D01*
X030419Y012385D01*
X030447Y012424D01*
X030477Y012461D01*
X030511Y012495D01*
X030548Y012527D01*
X030586Y012556D01*
X030627Y012581D01*
X030670Y012603D01*
X030715Y012621D01*
X030761Y012635D01*
X030808Y012646D01*
X030856Y012653D01*
X030904Y012656D01*
X030952Y012655D01*
X031000Y012650D01*
X031048Y012641D01*
X031094Y012629D01*
X031139Y012612D01*
X031183Y012592D01*
X031225Y012569D01*
X031265Y012542D01*
X031303Y012512D01*
X031338Y012479D01*
X031370Y012443D01*
X031400Y012405D01*
X031426Y012364D01*
X031448Y012321D01*
X031468Y012277D01*
X031483Y012232D01*
X031495Y012185D01*
X031503Y012137D01*
X031507Y012089D01*
X031507Y012041D01*
X031503Y011993D01*
X031495Y011945D01*
X031483Y011898D01*
X031468Y011853D01*
X031448Y011809D01*
X031426Y011766D01*
X031400Y011725D01*
X031370Y011687D01*
X031338Y011651D01*
X031303Y011618D01*
X031265Y011588D01*
X031225Y011561D01*
X031183Y011538D01*
X031139Y011518D01*
X031094Y011501D01*
X031048Y011489D01*
X031000Y011480D01*
X030952Y011475D01*
X030904Y011474D01*
X030856Y011477D01*
X030808Y011484D01*
X030761Y011495D01*
X030715Y011509D01*
X030670Y011527D01*
X030627Y011549D01*
X030586Y011574D01*
X030548Y011603D01*
X030511Y011635D01*
X030477Y011669D01*
X030447Y011706D01*
X030419Y011745D01*
X030394Y011787D01*
X030374Y011831D01*
X030356Y011876D01*
X030343Y011922D01*
X030333Y011969D01*
X030327Y012017D01*
X030325Y012065D01*
X030325Y002565D02*
X030327Y002613D01*
X030333Y002661D01*
X030343Y002708D01*
X030356Y002754D01*
X030374Y002799D01*
X030394Y002843D01*
X030419Y002885D01*
X030447Y002924D01*
X030477Y002961D01*
X030511Y002995D01*
X030548Y003027D01*
X030586Y003056D01*
X030627Y003081D01*
X030670Y003103D01*
X030715Y003121D01*
X030761Y003135D01*
X030808Y003146D01*
X030856Y003153D01*
X030904Y003156D01*
X030952Y003155D01*
X031000Y003150D01*
X031048Y003141D01*
X031094Y003129D01*
X031139Y003112D01*
X031183Y003092D01*
X031225Y003069D01*
X031265Y003042D01*
X031303Y003012D01*
X031338Y002979D01*
X031370Y002943D01*
X031400Y002905D01*
X031426Y002864D01*
X031448Y002821D01*
X031468Y002777D01*
X031483Y002732D01*
X031495Y002685D01*
X031503Y002637D01*
X031507Y002589D01*
X031507Y002541D01*
X031503Y002493D01*
X031495Y002445D01*
X031483Y002398D01*
X031468Y002353D01*
X031448Y002309D01*
X031426Y002266D01*
X031400Y002225D01*
X031370Y002187D01*
X031338Y002151D01*
X031303Y002118D01*
X031265Y002088D01*
X031225Y002061D01*
X031183Y002038D01*
X031139Y002018D01*
X031094Y002001D01*
X031048Y001989D01*
X031000Y001980D01*
X030952Y001975D01*
X030904Y001974D01*
X030856Y001977D01*
X030808Y001984D01*
X030761Y001995D01*
X030715Y002009D01*
X030670Y002027D01*
X030627Y002049D01*
X030586Y002074D01*
X030548Y002103D01*
X030511Y002135D01*
X030477Y002169D01*
X030447Y002206D01*
X030419Y002245D01*
X030394Y002287D01*
X030374Y002331D01*
X030356Y002376D01*
X030343Y002422D01*
X030333Y002469D01*
X030327Y002517D01*
X030325Y002565D01*
X001046Y002565D02*
X001048Y002613D01*
X001054Y002661D01*
X001064Y002708D01*
X001077Y002754D01*
X001095Y002799D01*
X001115Y002843D01*
X001140Y002885D01*
X001168Y002924D01*
X001198Y002961D01*
X001232Y002995D01*
X001269Y003027D01*
X001307Y003056D01*
X001348Y003081D01*
X001391Y003103D01*
X001436Y003121D01*
X001482Y003135D01*
X001529Y003146D01*
X001577Y003153D01*
X001625Y003156D01*
X001673Y003155D01*
X001721Y003150D01*
X001769Y003141D01*
X001815Y003129D01*
X001860Y003112D01*
X001904Y003092D01*
X001946Y003069D01*
X001986Y003042D01*
X002024Y003012D01*
X002059Y002979D01*
X002091Y002943D01*
X002121Y002905D01*
X002147Y002864D01*
X002169Y002821D01*
X002189Y002777D01*
X002204Y002732D01*
X002216Y002685D01*
X002224Y002637D01*
X002228Y002589D01*
X002228Y002541D01*
X002224Y002493D01*
X002216Y002445D01*
X002204Y002398D01*
X002189Y002353D01*
X002169Y002309D01*
X002147Y002266D01*
X002121Y002225D01*
X002091Y002187D01*
X002059Y002151D01*
X002024Y002118D01*
X001986Y002088D01*
X001946Y002061D01*
X001904Y002038D01*
X001860Y002018D01*
X001815Y002001D01*
X001769Y001989D01*
X001721Y001980D01*
X001673Y001975D01*
X001625Y001974D01*
X001577Y001977D01*
X001529Y001984D01*
X001482Y001995D01*
X001436Y002009D01*
X001391Y002027D01*
X001348Y002049D01*
X001307Y002074D01*
X001269Y002103D01*
X001232Y002135D01*
X001198Y002169D01*
X001168Y002206D01*
X001140Y002245D01*
X001115Y002287D01*
X001095Y002331D01*
X001077Y002376D01*
X001064Y002422D01*
X001054Y002469D01*
X001048Y002517D01*
X001046Y002565D01*
X001046Y012065D02*
X001048Y012113D01*
X001054Y012161D01*
X001064Y012208D01*
X001077Y012254D01*
X001095Y012299D01*
X001115Y012343D01*
X001140Y012385D01*
X001168Y012424D01*
X001198Y012461D01*
X001232Y012495D01*
X001269Y012527D01*
X001307Y012556D01*
X001348Y012581D01*
X001391Y012603D01*
X001436Y012621D01*
X001482Y012635D01*
X001529Y012646D01*
X001577Y012653D01*
X001625Y012656D01*
X001673Y012655D01*
X001721Y012650D01*
X001769Y012641D01*
X001815Y012629D01*
X001860Y012612D01*
X001904Y012592D01*
X001946Y012569D01*
X001986Y012542D01*
X002024Y012512D01*
X002059Y012479D01*
X002091Y012443D01*
X002121Y012405D01*
X002147Y012364D01*
X002169Y012321D01*
X002189Y012277D01*
X002204Y012232D01*
X002216Y012185D01*
X002224Y012137D01*
X002228Y012089D01*
X002228Y012041D01*
X002224Y011993D01*
X002216Y011945D01*
X002204Y011898D01*
X002189Y011853D01*
X002169Y011809D01*
X002147Y011766D01*
X002121Y011725D01*
X002091Y011687D01*
X002059Y011651D01*
X002024Y011618D01*
X001986Y011588D01*
X001946Y011561D01*
X001904Y011538D01*
X001860Y011518D01*
X001815Y011501D01*
X001769Y011489D01*
X001721Y011480D01*
X001673Y011475D01*
X001625Y011474D01*
X001577Y011477D01*
X001529Y011484D01*
X001482Y011495D01*
X001436Y011509D01*
X001391Y011527D01*
X001348Y011549D01*
X001307Y011574D01*
X001269Y011603D01*
X001232Y011635D01*
X001198Y011669D01*
X001168Y011706D01*
X001140Y011745D01*
X001115Y011787D01*
X001095Y011831D01*
X001077Y011876D01*
X001064Y011922D01*
X001054Y011969D01*
X001048Y012017D01*
X001046Y012065D01*
D12*
X015082Y004779D03*
X015082Y003283D03*
X018482Y003283D03*
X018482Y004779D03*
X025025Y004779D03*
X025025Y003283D03*
X028425Y003283D03*
X028425Y004779D03*
D13*
X028211Y004779D02*
X028641Y004779D01*
X028641Y004777D02*
X028211Y004777D01*
X028211Y004775D02*
X028641Y004775D01*
X028641Y004772D02*
X028211Y004772D01*
X028211Y004770D02*
X028641Y004770D01*
X028641Y004767D02*
X028211Y004767D01*
X028211Y004765D02*
X028641Y004765D01*
X028641Y004762D02*
X028211Y004762D01*
X028211Y004760D02*
X028641Y004760D01*
X028641Y004757D02*
X028211Y004757D01*
X028211Y004755D02*
X028641Y004755D01*
X028641Y004753D02*
X028211Y004753D01*
X028211Y004750D02*
X028641Y004750D01*
X028641Y004748D02*
X028211Y004748D01*
X028211Y004745D02*
X028641Y004745D01*
X028641Y004743D02*
X028211Y004743D01*
X028211Y004740D02*
X028641Y004740D01*
X028641Y004738D02*
X028211Y004738D01*
X028211Y004736D02*
X028641Y004736D01*
X028641Y004733D02*
X028211Y004733D01*
X028211Y004731D02*
X028641Y004731D01*
X028641Y004728D02*
X028211Y004728D01*
X028211Y004726D02*
X028641Y004726D01*
X028641Y004723D02*
X028211Y004723D01*
X028211Y004721D02*
X028641Y004721D01*
X028641Y004718D02*
X028211Y004718D01*
X028211Y004716D02*
X028641Y004716D01*
X028641Y004714D02*
X028211Y004714D01*
X028211Y004711D02*
X028641Y004711D01*
X028641Y004709D02*
X028211Y004709D01*
X028211Y004706D02*
X028641Y004706D01*
X028641Y004704D02*
X028211Y004704D01*
X028211Y004701D02*
X028641Y004701D01*
X028641Y004699D02*
X028211Y004699D01*
X028211Y004697D02*
X028641Y004697D01*
X028641Y004694D02*
X028211Y004694D01*
X028211Y004692D02*
X028641Y004692D01*
X028641Y004689D02*
X028211Y004689D01*
X028211Y004687D02*
X028641Y004687D01*
X028641Y004684D02*
X028211Y004684D01*
X028211Y004682D02*
X028641Y004682D01*
X028641Y004679D02*
X028211Y004679D01*
X028211Y004677D02*
X028641Y004677D01*
X028641Y004675D02*
X028211Y004675D01*
X028211Y004672D02*
X028641Y004672D01*
X028641Y004670D02*
X028211Y004670D01*
X028211Y004667D02*
X028641Y004667D01*
X028641Y004665D02*
X028211Y004665D01*
X028211Y004662D02*
X028641Y004662D01*
X028641Y004661D02*
X028641Y004897D01*
X028636Y004945D01*
X028217Y004945D01*
X028211Y004897D01*
X028211Y004661D01*
X028217Y004613D01*
X028233Y004568D01*
X028258Y004527D01*
X028292Y004493D01*
X028333Y004468D01*
X028378Y004452D01*
X028426Y004446D01*
X028474Y004452D01*
X028519Y004468D01*
X028560Y004493D01*
X028594Y004527D01*
X028620Y004568D01*
X028636Y004613D01*
X028641Y004661D01*
X028641Y004660D02*
X028212Y004660D01*
X028212Y004658D02*
X028641Y004658D01*
X028640Y004655D02*
X028212Y004655D01*
X028212Y004653D02*
X028640Y004653D01*
X028640Y004650D02*
X028213Y004650D01*
X028213Y004648D02*
X028640Y004648D01*
X028639Y004645D02*
X028213Y004645D01*
X028213Y004643D02*
X028639Y004643D01*
X028639Y004640D02*
X028214Y004640D01*
X028214Y004638D02*
X028638Y004638D01*
X028638Y004636D02*
X028214Y004636D01*
X028215Y004633D02*
X028638Y004633D01*
X028638Y004631D02*
X028215Y004631D01*
X028215Y004628D02*
X028637Y004628D01*
X028637Y004626D02*
X028215Y004626D01*
X028216Y004623D02*
X028637Y004623D01*
X028637Y004621D02*
X028216Y004621D01*
X028216Y004619D02*
X028636Y004619D01*
X028636Y004616D02*
X028216Y004616D01*
X028217Y004614D02*
X028636Y004614D01*
X028635Y004611D02*
X028218Y004611D01*
X028218Y004609D02*
X028634Y004609D01*
X028633Y004606D02*
X028219Y004606D01*
X028220Y004604D02*
X028632Y004604D01*
X028631Y004601D02*
X028221Y004601D01*
X028222Y004599D02*
X028631Y004599D01*
X028630Y004597D02*
X028223Y004597D01*
X028224Y004594D02*
X028629Y004594D01*
X028628Y004592D02*
X028224Y004592D01*
X028225Y004589D02*
X028627Y004589D01*
X028626Y004587D02*
X028226Y004587D01*
X028227Y004584D02*
X028626Y004584D01*
X028625Y004582D02*
X028228Y004582D01*
X028229Y004580D02*
X028624Y004580D01*
X028623Y004577D02*
X028229Y004577D01*
X028230Y004575D02*
X028622Y004575D01*
X028621Y004572D02*
X028231Y004572D01*
X028232Y004570D02*
X028620Y004570D01*
X028619Y004567D02*
X028233Y004567D01*
X028235Y004565D02*
X028618Y004565D01*
X028616Y004562D02*
X028236Y004562D01*
X028238Y004560D02*
X028615Y004560D01*
X028613Y004558D02*
X028239Y004558D01*
X028241Y004555D02*
X028612Y004555D01*
X028610Y004553D02*
X028242Y004553D01*
X028244Y004550D02*
X028609Y004550D01*
X028607Y004548D02*
X028245Y004548D01*
X028247Y004545D02*
X028606Y004545D01*
X028604Y004543D02*
X028248Y004543D01*
X028250Y004541D02*
X028603Y004541D01*
X028601Y004538D02*
X028251Y004538D01*
X028253Y004536D02*
X028599Y004536D01*
X028598Y004533D02*
X028255Y004533D01*
X028256Y004531D02*
X028596Y004531D01*
X028595Y004528D02*
X028258Y004528D01*
X028260Y004526D02*
X028593Y004526D01*
X028590Y004523D02*
X028262Y004523D01*
X028264Y004521D02*
X028588Y004521D01*
X028586Y004519D02*
X028267Y004519D01*
X028269Y004516D02*
X028583Y004516D01*
X028581Y004514D02*
X028272Y004514D01*
X028274Y004511D02*
X028578Y004511D01*
X028576Y004509D02*
X028277Y004509D01*
X028279Y004506D02*
X028573Y004506D01*
X028571Y004504D02*
X028282Y004504D01*
X028284Y004502D02*
X028568Y004502D01*
X028566Y004499D02*
X028286Y004499D01*
X028289Y004497D02*
X028564Y004497D01*
X028561Y004494D02*
X028291Y004494D01*
X028295Y004492D02*
X028558Y004492D01*
X028554Y004489D02*
X028298Y004489D01*
X028302Y004487D02*
X028550Y004487D01*
X028546Y004484D02*
X028306Y004484D01*
X028310Y004482D02*
X028542Y004482D01*
X028538Y004480D02*
X028314Y004480D01*
X028318Y004477D02*
X028535Y004477D01*
X028531Y004475D02*
X028322Y004475D01*
X028326Y004472D02*
X028527Y004472D01*
X028523Y004470D02*
X028330Y004470D01*
X028334Y004467D02*
X028519Y004467D01*
X028512Y004465D02*
X028341Y004465D01*
X028348Y004463D02*
X028505Y004463D01*
X028498Y004460D02*
X028355Y004460D01*
X028362Y004458D02*
X028491Y004458D01*
X028484Y004455D02*
X028369Y004455D01*
X028376Y004453D02*
X028477Y004453D01*
X028461Y004450D02*
X028391Y004450D01*
X028413Y004448D02*
X028440Y004448D01*
X028641Y004782D02*
X028211Y004782D01*
X028211Y004784D02*
X028641Y004784D01*
X028641Y004787D02*
X028211Y004787D01*
X028211Y004789D02*
X028641Y004789D01*
X028641Y004792D02*
X028211Y004792D01*
X028211Y004794D02*
X028641Y004794D01*
X028641Y004796D02*
X028211Y004796D01*
X028211Y004799D02*
X028641Y004799D01*
X028641Y004801D02*
X028211Y004801D01*
X028211Y004804D02*
X028641Y004804D01*
X028641Y004806D02*
X028211Y004806D01*
X028211Y004809D02*
X028641Y004809D01*
X028641Y004811D02*
X028211Y004811D01*
X028211Y004814D02*
X028641Y004814D01*
X028641Y004816D02*
X028211Y004816D01*
X028211Y004818D02*
X028641Y004818D01*
X028641Y004821D02*
X028211Y004821D01*
X028211Y004823D02*
X028641Y004823D01*
X028641Y004826D02*
X028211Y004826D01*
X028211Y004828D02*
X028641Y004828D01*
X028641Y004831D02*
X028211Y004831D01*
X028211Y004833D02*
X028641Y004833D01*
X028641Y004835D02*
X028211Y004835D01*
X028211Y004838D02*
X028641Y004838D01*
X028641Y004840D02*
X028211Y004840D01*
X028211Y004843D02*
X028641Y004843D01*
X028641Y004845D02*
X028211Y004845D01*
X028211Y004848D02*
X028641Y004848D01*
X028641Y004850D02*
X028211Y004850D01*
X028211Y004853D02*
X028641Y004853D01*
X028641Y004855D02*
X028211Y004855D01*
X028211Y004857D02*
X028641Y004857D01*
X028641Y004860D02*
X028211Y004860D01*
X028211Y004862D02*
X028641Y004862D01*
X028641Y004865D02*
X028211Y004865D01*
X028211Y004867D02*
X028641Y004867D01*
X028641Y004870D02*
X028211Y004870D01*
X028211Y004872D02*
X028641Y004872D01*
X028641Y004874D02*
X028211Y004874D01*
X028211Y004877D02*
X028641Y004877D01*
X028641Y004879D02*
X028211Y004879D01*
X028211Y004882D02*
X028641Y004882D01*
X028641Y004884D02*
X028211Y004884D01*
X028211Y004887D02*
X028641Y004887D01*
X028641Y004889D02*
X028211Y004889D01*
X028211Y004892D02*
X028641Y004892D01*
X028641Y004894D02*
X028211Y004894D01*
X028211Y004896D02*
X028641Y004896D01*
X028641Y004899D02*
X028212Y004899D01*
X028212Y004901D02*
X028641Y004901D01*
X028640Y004904D02*
X028212Y004904D01*
X028212Y004906D02*
X028640Y004906D01*
X028640Y004909D02*
X028213Y004909D01*
X028213Y004911D02*
X028640Y004911D01*
X028639Y004913D02*
X028213Y004913D01*
X028213Y004916D02*
X028639Y004916D01*
X028639Y004918D02*
X028214Y004918D01*
X028214Y004921D02*
X028638Y004921D01*
X028638Y004923D02*
X028214Y004923D01*
X028215Y004926D02*
X028638Y004926D01*
X028638Y004928D02*
X028215Y004928D01*
X028215Y004931D02*
X028637Y004931D01*
X028637Y004933D02*
X028215Y004933D01*
X028216Y004935D02*
X028637Y004935D01*
X028637Y004938D02*
X028216Y004938D01*
X028216Y004940D02*
X028636Y004940D01*
X028636Y004943D02*
X028216Y004943D01*
X028217Y004945D02*
X028233Y004991D01*
X028619Y004991D01*
X028620Y004991D02*
X028594Y005031D01*
X028560Y005065D01*
X028519Y005091D01*
X028474Y005107D01*
X028426Y005112D01*
X028378Y005107D01*
X028333Y005091D01*
X028292Y005065D01*
X028258Y005031D01*
X028233Y004991D01*
X028232Y004989D02*
X028620Y004989D01*
X028620Y004991D02*
X028636Y004945D01*
X028635Y004948D02*
X028218Y004948D01*
X028218Y004950D02*
X028634Y004950D01*
X028633Y004952D02*
X028219Y004952D01*
X028220Y004955D02*
X028632Y004955D01*
X028631Y004957D02*
X028221Y004957D01*
X028222Y004960D02*
X028631Y004960D01*
X028630Y004962D02*
X028223Y004962D01*
X028224Y004965D02*
X028629Y004965D01*
X028628Y004967D02*
X028224Y004967D01*
X028225Y004970D02*
X028627Y004970D01*
X028626Y004972D02*
X028226Y004972D01*
X028227Y004974D02*
X028626Y004974D01*
X028625Y004977D02*
X028228Y004977D01*
X028229Y004979D02*
X028624Y004979D01*
X028623Y004982D02*
X028229Y004982D01*
X028230Y004984D02*
X028622Y004984D01*
X028621Y004987D02*
X028231Y004987D01*
X028235Y004994D02*
X028618Y004994D01*
X028616Y004996D02*
X028236Y004996D01*
X028238Y004999D02*
X028615Y004999D01*
X028613Y005001D02*
X028239Y005001D01*
X028241Y005004D02*
X028612Y005004D01*
X028610Y005006D02*
X028242Y005006D01*
X028244Y005008D02*
X028609Y005008D01*
X028607Y005011D02*
X028245Y005011D01*
X028247Y005013D02*
X028606Y005013D01*
X028604Y005016D02*
X028248Y005016D01*
X028250Y005018D02*
X028602Y005018D01*
X028601Y005021D02*
X028251Y005021D01*
X028253Y005023D02*
X028599Y005023D01*
X028598Y005026D02*
X028255Y005026D01*
X028256Y005028D02*
X028596Y005028D01*
X028595Y005030D02*
X028258Y005030D01*
X028260Y005033D02*
X028593Y005033D01*
X028590Y005035D02*
X028262Y005035D01*
X028265Y005038D02*
X028588Y005038D01*
X028585Y005040D02*
X028267Y005040D01*
X028269Y005043D02*
X028583Y005043D01*
X028581Y005045D02*
X028272Y005045D01*
X028274Y005047D02*
X028578Y005047D01*
X028576Y005050D02*
X028277Y005050D01*
X028279Y005052D02*
X028573Y005052D01*
X028571Y005055D02*
X028282Y005055D01*
X028284Y005057D02*
X028568Y005057D01*
X028566Y005060D02*
X028286Y005060D01*
X028289Y005062D02*
X028564Y005062D01*
X028561Y005065D02*
X028291Y005065D01*
X028295Y005067D02*
X028558Y005067D01*
X028554Y005069D02*
X028299Y005069D01*
X028302Y005072D02*
X028550Y005072D01*
X028546Y005074D02*
X028306Y005074D01*
X028310Y005077D02*
X028542Y005077D01*
X028538Y005079D02*
X028314Y005079D01*
X028318Y005082D02*
X028534Y005082D01*
X028531Y005084D02*
X028322Y005084D01*
X028326Y005086D02*
X028527Y005086D01*
X028523Y005089D02*
X028330Y005089D01*
X028334Y005091D02*
X028519Y005091D01*
X028512Y005094D02*
X028341Y005094D01*
X028348Y005096D02*
X028505Y005096D01*
X028498Y005099D02*
X028355Y005099D01*
X028362Y005101D02*
X028491Y005101D01*
X028484Y005104D02*
X028369Y005104D01*
X028376Y005106D02*
X028477Y005106D01*
X028461Y005108D02*
X028392Y005108D01*
X028413Y005111D02*
X028439Y005111D01*
X028426Y003616D02*
X028378Y003611D01*
X028333Y003595D01*
X028292Y003569D01*
X028258Y003535D01*
X028233Y003495D01*
X028620Y003495D01*
X028594Y003535D01*
X028560Y003569D01*
X028519Y003595D01*
X028474Y003611D01*
X028426Y003616D01*
X028410Y003614D02*
X028443Y003614D01*
X028465Y003612D02*
X028388Y003612D01*
X028375Y003610D02*
X028478Y003610D01*
X028485Y003607D02*
X028368Y003607D01*
X028361Y003605D02*
X028492Y003605D01*
X028499Y003602D02*
X028354Y003602D01*
X028347Y003600D02*
X028506Y003600D01*
X028513Y003597D02*
X028340Y003597D01*
X028333Y003595D02*
X028520Y003595D01*
X028523Y003592D02*
X028329Y003592D01*
X028325Y003590D02*
X028527Y003590D01*
X028531Y003588D02*
X028321Y003588D01*
X028317Y003585D02*
X028535Y003585D01*
X028539Y003583D02*
X028313Y003583D01*
X028310Y003580D02*
X028543Y003580D01*
X028547Y003578D02*
X028306Y003578D01*
X028302Y003575D02*
X028551Y003575D01*
X028555Y003573D02*
X028298Y003573D01*
X028294Y003571D02*
X028558Y003571D01*
X028561Y003568D02*
X028291Y003568D01*
X028289Y003566D02*
X028564Y003566D01*
X028566Y003563D02*
X028286Y003563D01*
X028284Y003561D02*
X028569Y003561D01*
X028571Y003558D02*
X028281Y003558D01*
X028279Y003556D02*
X028574Y003556D01*
X028576Y003553D02*
X028276Y003553D01*
X028274Y003551D02*
X028579Y003551D01*
X028581Y003549D02*
X028271Y003549D01*
X028269Y003546D02*
X028583Y003546D01*
X028586Y003544D02*
X028267Y003544D01*
X028264Y003541D02*
X028588Y003541D01*
X028591Y003539D02*
X028262Y003539D01*
X028259Y003536D02*
X028593Y003536D01*
X028595Y003534D02*
X028257Y003534D01*
X028256Y003532D02*
X028597Y003532D01*
X028598Y003529D02*
X028254Y003529D01*
X028253Y003527D02*
X028600Y003527D01*
X028601Y003524D02*
X028251Y003524D01*
X028250Y003522D02*
X028603Y003522D01*
X028604Y003519D02*
X028248Y003519D01*
X028247Y003517D02*
X028606Y003517D01*
X028607Y003514D02*
X028245Y003514D01*
X028244Y003512D02*
X028609Y003512D01*
X028610Y003510D02*
X028242Y003510D01*
X028241Y003507D02*
X028612Y003507D01*
X028613Y003505D02*
X028239Y003505D01*
X028237Y003502D02*
X028615Y003502D01*
X028617Y003500D02*
X028236Y003500D01*
X028234Y003497D02*
X028618Y003497D01*
X028620Y003495D02*
X028636Y003449D01*
X028641Y003401D01*
X028641Y003165D01*
X028636Y003117D01*
X028217Y003117D01*
X028233Y003072D01*
X028258Y003031D01*
X028292Y002997D01*
X028333Y002972D01*
X028378Y002956D01*
X028426Y002950D01*
X028474Y002956D01*
X028519Y002972D01*
X028560Y002997D01*
X028594Y003031D01*
X028620Y003072D01*
X028636Y003117D01*
X028635Y003115D02*
X028218Y003115D01*
X028217Y003117D02*
X028211Y003165D01*
X028211Y003401D01*
X028217Y003449D01*
X028233Y003495D01*
X028232Y003493D02*
X028621Y003493D01*
X028621Y003490D02*
X028231Y003490D01*
X028230Y003488D02*
X028622Y003488D01*
X028623Y003485D02*
X028229Y003485D01*
X028228Y003483D02*
X028624Y003483D01*
X028625Y003480D02*
X028228Y003480D01*
X028227Y003478D02*
X028626Y003478D01*
X028627Y003475D02*
X028226Y003475D01*
X028225Y003473D02*
X028627Y003473D01*
X028628Y003471D02*
X028224Y003471D01*
X028223Y003468D02*
X028629Y003468D01*
X028630Y003466D02*
X028223Y003466D01*
X028222Y003463D02*
X028631Y003463D01*
X028632Y003461D02*
X028221Y003461D01*
X028220Y003458D02*
X028632Y003458D01*
X028633Y003456D02*
X028219Y003456D01*
X028218Y003454D02*
X028634Y003454D01*
X028635Y003451D02*
X028217Y003451D01*
X028217Y003449D02*
X028636Y003449D01*
X028636Y003446D02*
X028216Y003446D01*
X028216Y003444D02*
X028636Y003444D01*
X028637Y003441D02*
X028216Y003441D01*
X028216Y003439D02*
X028637Y003439D01*
X028637Y003436D02*
X028215Y003436D01*
X028215Y003434D02*
X028637Y003434D01*
X028638Y003432D02*
X028215Y003432D01*
X028214Y003429D02*
X028638Y003429D01*
X028638Y003427D02*
X028214Y003427D01*
X028214Y003424D02*
X028638Y003424D01*
X028639Y003422D02*
X028214Y003422D01*
X028213Y003419D02*
X028639Y003419D01*
X028639Y003417D02*
X028213Y003417D01*
X028213Y003415D02*
X028640Y003415D01*
X028640Y003412D02*
X028213Y003412D01*
X028212Y003410D02*
X028640Y003410D01*
X028640Y003407D02*
X028212Y003407D01*
X028212Y003405D02*
X028641Y003405D01*
X028641Y003402D02*
X028211Y003402D01*
X028211Y003400D02*
X028641Y003400D01*
X028641Y003397D02*
X028211Y003397D01*
X028211Y003395D02*
X028641Y003395D01*
X028641Y003393D02*
X028211Y003393D01*
X028211Y003390D02*
X028641Y003390D01*
X028641Y003388D02*
X028211Y003388D01*
X028211Y003385D02*
X028641Y003385D01*
X028641Y003383D02*
X028211Y003383D01*
X028211Y003380D02*
X028641Y003380D01*
X028641Y003378D02*
X028211Y003378D01*
X028211Y003376D02*
X028641Y003376D01*
X028641Y003373D02*
X028211Y003373D01*
X028211Y003371D02*
X028641Y003371D01*
X028641Y003368D02*
X028211Y003368D01*
X028211Y003366D02*
X028641Y003366D01*
X028641Y003363D02*
X028211Y003363D01*
X028211Y003361D02*
X028641Y003361D01*
X028641Y003358D02*
X028211Y003358D01*
X028211Y003356D02*
X028641Y003356D01*
X028641Y003354D02*
X028211Y003354D01*
X028211Y003351D02*
X028641Y003351D01*
X028641Y003349D02*
X028211Y003349D01*
X028211Y003346D02*
X028641Y003346D01*
X028641Y003344D02*
X028211Y003344D01*
X028211Y003341D02*
X028641Y003341D01*
X028641Y003339D02*
X028211Y003339D01*
X028211Y003337D02*
X028641Y003337D01*
X028641Y003334D02*
X028211Y003334D01*
X028211Y003332D02*
X028641Y003332D01*
X028641Y003329D02*
X028211Y003329D01*
X028211Y003327D02*
X028641Y003327D01*
X028641Y003324D02*
X028211Y003324D01*
X028211Y003322D02*
X028641Y003322D01*
X028641Y003319D02*
X028211Y003319D01*
X028211Y003317D02*
X028641Y003317D01*
X028641Y003315D02*
X028211Y003315D01*
X028211Y003312D02*
X028641Y003312D01*
X028641Y003310D02*
X028211Y003310D01*
X028211Y003307D02*
X028641Y003307D01*
X028641Y003305D02*
X028211Y003305D01*
X028211Y003302D02*
X028641Y003302D01*
X028641Y003300D02*
X028211Y003300D01*
X028211Y003298D02*
X028641Y003298D01*
X028641Y003295D02*
X028211Y003295D01*
X028211Y003293D02*
X028641Y003293D01*
X028641Y003290D02*
X028211Y003290D01*
X028211Y003288D02*
X028641Y003288D01*
X028641Y003285D02*
X028211Y003285D01*
X028211Y003283D02*
X028641Y003283D01*
X028641Y003280D02*
X028211Y003280D01*
X028211Y003278D02*
X028641Y003278D01*
X028641Y003276D02*
X028211Y003276D01*
X028211Y003273D02*
X028641Y003273D01*
X028641Y003271D02*
X028211Y003271D01*
X028211Y003268D02*
X028641Y003268D01*
X028641Y003266D02*
X028211Y003266D01*
X028211Y003263D02*
X028641Y003263D01*
X028641Y003261D02*
X028211Y003261D01*
X028211Y003259D02*
X028641Y003259D01*
X028641Y003256D02*
X028211Y003256D01*
X028211Y003254D02*
X028641Y003254D01*
X028641Y003251D02*
X028211Y003251D01*
X028211Y003249D02*
X028641Y003249D01*
X028641Y003246D02*
X028211Y003246D01*
X028211Y003244D02*
X028641Y003244D01*
X028641Y003241D02*
X028211Y003241D01*
X028211Y003239D02*
X028641Y003239D01*
X028641Y003237D02*
X028211Y003237D01*
X028211Y003234D02*
X028641Y003234D01*
X028641Y003232D02*
X028211Y003232D01*
X028211Y003229D02*
X028641Y003229D01*
X028641Y003227D02*
X028211Y003227D01*
X028211Y003224D02*
X028641Y003224D01*
X028641Y003222D02*
X028211Y003222D01*
X028211Y003220D02*
X028641Y003220D01*
X028641Y003217D02*
X028211Y003217D01*
X028211Y003215D02*
X028641Y003215D01*
X028641Y003212D02*
X028211Y003212D01*
X028211Y003210D02*
X028641Y003210D01*
X028641Y003207D02*
X028211Y003207D01*
X028211Y003205D02*
X028641Y003205D01*
X028641Y003202D02*
X028211Y003202D01*
X028211Y003200D02*
X028641Y003200D01*
X028641Y003198D02*
X028211Y003198D01*
X028211Y003195D02*
X028641Y003195D01*
X028641Y003193D02*
X028211Y003193D01*
X028211Y003190D02*
X028641Y003190D01*
X028641Y003188D02*
X028211Y003188D01*
X028211Y003185D02*
X028641Y003185D01*
X028641Y003183D02*
X028211Y003183D01*
X028211Y003181D02*
X028641Y003181D01*
X028641Y003178D02*
X028211Y003178D01*
X028211Y003176D02*
X028641Y003176D01*
X028641Y003173D02*
X028211Y003173D01*
X028211Y003171D02*
X028641Y003171D01*
X028641Y003168D02*
X028211Y003168D01*
X028211Y003166D02*
X028641Y003166D01*
X028641Y003163D02*
X028212Y003163D01*
X028212Y003161D02*
X028641Y003161D01*
X028640Y003159D02*
X028212Y003159D01*
X028212Y003156D02*
X028640Y003156D01*
X028640Y003154D02*
X028213Y003154D01*
X028213Y003151D02*
X028640Y003151D01*
X028639Y003149D02*
X028213Y003149D01*
X028213Y003146D02*
X028639Y003146D01*
X028639Y003144D02*
X028214Y003144D01*
X028214Y003142D02*
X028638Y003142D01*
X028638Y003139D02*
X028214Y003139D01*
X028215Y003137D02*
X028638Y003137D01*
X028638Y003134D02*
X028215Y003134D01*
X028215Y003132D02*
X028637Y003132D01*
X028637Y003129D02*
X028215Y003129D01*
X028216Y003127D02*
X028637Y003127D01*
X028636Y003125D02*
X028216Y003125D01*
X028216Y003122D02*
X028636Y003122D01*
X028636Y003120D02*
X028217Y003120D01*
X028219Y003112D02*
X028634Y003112D01*
X028633Y003110D02*
X028219Y003110D01*
X028220Y003107D02*
X028632Y003107D01*
X028631Y003105D02*
X028221Y003105D01*
X028222Y003103D02*
X028630Y003103D01*
X028630Y003100D02*
X028223Y003100D01*
X028224Y003098D02*
X028629Y003098D01*
X028628Y003095D02*
X028225Y003095D01*
X028225Y003093D02*
X028627Y003093D01*
X028626Y003090D02*
X028226Y003090D01*
X028227Y003088D02*
X028625Y003088D01*
X028625Y003086D02*
X028228Y003086D01*
X028229Y003083D02*
X028624Y003083D01*
X028623Y003081D02*
X028230Y003081D01*
X028230Y003078D02*
X028622Y003078D01*
X028621Y003076D02*
X028231Y003076D01*
X028232Y003073D02*
X028620Y003073D01*
X028619Y003071D02*
X028233Y003071D01*
X028235Y003068D02*
X028618Y003068D01*
X028616Y003066D02*
X028236Y003066D01*
X028238Y003064D02*
X028615Y003064D01*
X028613Y003061D02*
X028239Y003061D01*
X028241Y003059D02*
X028611Y003059D01*
X028610Y003056D02*
X028243Y003056D01*
X028244Y003054D02*
X028608Y003054D01*
X028607Y003051D02*
X028246Y003051D01*
X028247Y003049D02*
X028605Y003049D01*
X028604Y003047D02*
X028249Y003047D01*
X028250Y003044D02*
X028602Y003044D01*
X028601Y003042D02*
X028252Y003042D01*
X028253Y003039D02*
X028599Y003039D01*
X028598Y003037D02*
X028255Y003037D01*
X028256Y003034D02*
X028596Y003034D01*
X028595Y003032D02*
X028258Y003032D01*
X028260Y003029D02*
X028592Y003029D01*
X028590Y003027D02*
X028262Y003027D01*
X028265Y003025D02*
X028588Y003025D01*
X028585Y003022D02*
X028267Y003022D01*
X028270Y003020D02*
X028583Y003020D01*
X028580Y003017D02*
X028272Y003017D01*
X028275Y003015D02*
X028578Y003015D01*
X028575Y003012D02*
X028277Y003012D01*
X028280Y003010D02*
X028573Y003010D01*
X028570Y003008D02*
X028282Y003008D01*
X028284Y003005D02*
X028568Y003005D01*
X028566Y003003D02*
X028287Y003003D01*
X028289Y003000D02*
X028563Y003000D01*
X028561Y002998D02*
X028292Y002998D01*
X028295Y002995D02*
X028557Y002995D01*
X028553Y002993D02*
X028299Y002993D01*
X028303Y002990D02*
X028549Y002990D01*
X028546Y002988D02*
X028307Y002988D01*
X028311Y002986D02*
X028542Y002986D01*
X028538Y002983D02*
X028315Y002983D01*
X028319Y002981D02*
X028534Y002981D01*
X028530Y002978D02*
X028322Y002978D01*
X028326Y002976D02*
X028526Y002976D01*
X028522Y002973D02*
X028330Y002973D01*
X028335Y002971D02*
X028518Y002971D01*
X028511Y002969D02*
X028342Y002969D01*
X028349Y002966D02*
X028504Y002966D01*
X028497Y002964D02*
X028356Y002964D01*
X028363Y002961D02*
X028490Y002961D01*
X028483Y002959D02*
X028370Y002959D01*
X028377Y002956D02*
X028476Y002956D01*
X028458Y002954D02*
X028395Y002954D01*
X028416Y002951D02*
X028436Y002951D01*
X025240Y003165D02*
X025240Y003401D01*
X025235Y003449D01*
X025219Y003495D01*
X024832Y003495D01*
X024816Y003449D01*
X024811Y003401D01*
X024811Y003165D01*
X024816Y003117D01*
X025235Y003117D01*
X025240Y003165D01*
X025240Y003166D02*
X024811Y003166D01*
X024811Y003168D02*
X025240Y003168D01*
X025240Y003171D02*
X024811Y003171D01*
X024811Y003173D02*
X025240Y003173D01*
X025240Y003176D02*
X024811Y003176D01*
X024811Y003178D02*
X025240Y003178D01*
X025240Y003181D02*
X024811Y003181D01*
X024811Y003183D02*
X025240Y003183D01*
X025240Y003185D02*
X024811Y003185D01*
X024811Y003188D02*
X025240Y003188D01*
X025240Y003190D02*
X024811Y003190D01*
X024811Y003193D02*
X025240Y003193D01*
X025240Y003195D02*
X024811Y003195D01*
X024811Y003198D02*
X025240Y003198D01*
X025240Y003200D02*
X024811Y003200D01*
X024811Y003202D02*
X025240Y003202D01*
X025240Y003205D02*
X024811Y003205D01*
X024811Y003207D02*
X025240Y003207D01*
X025240Y003210D02*
X024811Y003210D01*
X024811Y003212D02*
X025240Y003212D01*
X025240Y003215D02*
X024811Y003215D01*
X024811Y003217D02*
X025240Y003217D01*
X025240Y003220D02*
X024811Y003220D01*
X024811Y003222D02*
X025240Y003222D01*
X025240Y003224D02*
X024811Y003224D01*
X024811Y003227D02*
X025240Y003227D01*
X025240Y003229D02*
X024811Y003229D01*
X024811Y003232D02*
X025240Y003232D01*
X025240Y003234D02*
X024811Y003234D01*
X024811Y003237D02*
X025240Y003237D01*
X025240Y003239D02*
X024811Y003239D01*
X024811Y003241D02*
X025240Y003241D01*
X025240Y003244D02*
X024811Y003244D01*
X024811Y003246D02*
X025240Y003246D01*
X025240Y003249D02*
X024811Y003249D01*
X024811Y003251D02*
X025240Y003251D01*
X025240Y003254D02*
X024811Y003254D01*
X024811Y003256D02*
X025240Y003256D01*
X025240Y003259D02*
X024811Y003259D01*
X024811Y003261D02*
X025240Y003261D01*
X025240Y003263D02*
X024811Y003263D01*
X024811Y003266D02*
X025240Y003266D01*
X025240Y003268D02*
X024811Y003268D01*
X024811Y003271D02*
X025240Y003271D01*
X025240Y003273D02*
X024811Y003273D01*
X024811Y003276D02*
X025240Y003276D01*
X025240Y003278D02*
X024811Y003278D01*
X024811Y003280D02*
X025240Y003280D01*
X025240Y003283D02*
X024811Y003283D01*
X024811Y003285D02*
X025240Y003285D01*
X025240Y003288D02*
X024811Y003288D01*
X024811Y003290D02*
X025240Y003290D01*
X025240Y003293D02*
X024811Y003293D01*
X024811Y003295D02*
X025240Y003295D01*
X025240Y003298D02*
X024811Y003298D01*
X024811Y003300D02*
X025240Y003300D01*
X025240Y003302D02*
X024811Y003302D01*
X024811Y003305D02*
X025240Y003305D01*
X025240Y003307D02*
X024811Y003307D01*
X024811Y003310D02*
X025240Y003310D01*
X025240Y003312D02*
X024811Y003312D01*
X024811Y003315D02*
X025240Y003315D01*
X025240Y003317D02*
X024811Y003317D01*
X024811Y003319D02*
X025240Y003319D01*
X025240Y003322D02*
X024811Y003322D01*
X024811Y003324D02*
X025240Y003324D01*
X025240Y003327D02*
X024811Y003327D01*
X024811Y003329D02*
X025240Y003329D01*
X025240Y003332D02*
X024811Y003332D01*
X024811Y003334D02*
X025240Y003334D01*
X025240Y003337D02*
X024811Y003337D01*
X024811Y003339D02*
X025240Y003339D01*
X025240Y003341D02*
X024811Y003341D01*
X024811Y003344D02*
X025240Y003344D01*
X025240Y003346D02*
X024811Y003346D01*
X024811Y003349D02*
X025240Y003349D01*
X025240Y003351D02*
X024811Y003351D01*
X024811Y003354D02*
X025240Y003354D01*
X025240Y003356D02*
X024811Y003356D01*
X024811Y003358D02*
X025240Y003358D01*
X025240Y003361D02*
X024811Y003361D01*
X024811Y003363D02*
X025240Y003363D01*
X025240Y003366D02*
X024811Y003366D01*
X024811Y003368D02*
X025240Y003368D01*
X025240Y003371D02*
X024811Y003371D01*
X024811Y003373D02*
X025240Y003373D01*
X025240Y003376D02*
X024811Y003376D01*
X024811Y003378D02*
X025240Y003378D01*
X025240Y003380D02*
X024811Y003380D01*
X024811Y003383D02*
X025240Y003383D01*
X025240Y003385D02*
X024811Y003385D01*
X024811Y003388D02*
X025240Y003388D01*
X025240Y003390D02*
X024811Y003390D01*
X024811Y003393D02*
X025240Y003393D01*
X025240Y003395D02*
X024811Y003395D01*
X024811Y003397D02*
X025240Y003397D01*
X025240Y003400D02*
X024811Y003400D01*
X024811Y003402D02*
X025240Y003402D01*
X025240Y003405D02*
X024811Y003405D01*
X024811Y003407D02*
X025240Y003407D01*
X025239Y003410D02*
X024812Y003410D01*
X024812Y003412D02*
X025239Y003412D01*
X025239Y003415D02*
X024812Y003415D01*
X024812Y003417D02*
X025239Y003417D01*
X025238Y003419D02*
X024813Y003419D01*
X024813Y003422D02*
X025238Y003422D01*
X025238Y003424D02*
X024813Y003424D01*
X024813Y003427D02*
X025237Y003427D01*
X025237Y003429D02*
X024814Y003429D01*
X024814Y003432D02*
X025237Y003432D01*
X025237Y003434D02*
X024814Y003434D01*
X024815Y003436D02*
X025236Y003436D01*
X025236Y003439D02*
X024815Y003439D01*
X024815Y003441D02*
X025236Y003441D01*
X025236Y003444D02*
X024815Y003444D01*
X024816Y003446D02*
X025235Y003446D01*
X025235Y003449D02*
X024816Y003449D01*
X024817Y003451D02*
X025234Y003451D01*
X025233Y003454D02*
X024817Y003454D01*
X024818Y003456D02*
X025233Y003456D01*
X025232Y003458D02*
X024819Y003458D01*
X024820Y003461D02*
X025231Y003461D01*
X025230Y003463D02*
X024821Y003463D01*
X024822Y003466D02*
X025229Y003466D01*
X025228Y003468D02*
X024823Y003468D01*
X024823Y003471D02*
X025227Y003471D01*
X025227Y003473D02*
X024824Y003473D01*
X024825Y003475D02*
X025226Y003475D01*
X025225Y003478D02*
X024826Y003478D01*
X024827Y003480D02*
X025224Y003480D01*
X025223Y003483D02*
X024828Y003483D01*
X024829Y003485D02*
X025222Y003485D01*
X025221Y003488D02*
X024829Y003488D01*
X024830Y003490D02*
X025221Y003490D01*
X025220Y003493D02*
X024831Y003493D01*
X024832Y003495D02*
X024857Y003535D01*
X024891Y003569D01*
X024932Y003595D01*
X025119Y003595D01*
X025073Y003611D01*
X025025Y003616D01*
X024978Y003611D01*
X024932Y003595D01*
X024928Y003592D02*
X025123Y003592D01*
X025127Y003590D02*
X024924Y003590D01*
X024920Y003588D02*
X025130Y003588D01*
X025134Y003585D02*
X024917Y003585D01*
X024913Y003583D02*
X025138Y003583D01*
X025142Y003580D02*
X024909Y003580D01*
X024905Y003578D02*
X025146Y003578D01*
X025150Y003575D02*
X024901Y003575D01*
X024897Y003573D02*
X025154Y003573D01*
X025158Y003571D02*
X024893Y003571D01*
X024890Y003568D02*
X025161Y003568D01*
X025159Y003569D02*
X025119Y003595D01*
X025112Y003597D02*
X024939Y003597D01*
X024946Y003600D02*
X025105Y003600D01*
X025098Y003602D02*
X024953Y003602D01*
X024960Y003605D02*
X025091Y003605D01*
X025084Y003607D02*
X024967Y003607D01*
X024974Y003610D02*
X025077Y003610D01*
X025064Y003612D02*
X024987Y003612D01*
X025009Y003614D02*
X025042Y003614D01*
X025159Y003569D02*
X025193Y003535D01*
X025219Y003495D01*
X025217Y003497D02*
X024834Y003497D01*
X024835Y003500D02*
X025216Y003500D01*
X025214Y003502D02*
X024837Y003502D01*
X024838Y003505D02*
X025213Y003505D01*
X025211Y003507D02*
X024840Y003507D01*
X024841Y003510D02*
X025210Y003510D01*
X025208Y003512D02*
X024843Y003512D01*
X024844Y003514D02*
X025207Y003514D01*
X025205Y003517D02*
X024846Y003517D01*
X024847Y003519D02*
X025203Y003519D01*
X025202Y003522D02*
X024849Y003522D01*
X024850Y003524D02*
X025200Y003524D01*
X025199Y003527D02*
X024852Y003527D01*
X024854Y003529D02*
X025197Y003529D01*
X025196Y003532D02*
X024855Y003532D01*
X024857Y003534D02*
X025194Y003534D01*
X025192Y003536D02*
X024858Y003536D01*
X024861Y003539D02*
X025190Y003539D01*
X025188Y003541D02*
X024863Y003541D01*
X024866Y003544D02*
X025185Y003544D01*
X025183Y003546D02*
X024868Y003546D01*
X024871Y003549D02*
X025180Y003549D01*
X025178Y003551D02*
X024873Y003551D01*
X024876Y003553D02*
X025175Y003553D01*
X025173Y003556D02*
X024878Y003556D01*
X024880Y003558D02*
X025170Y003558D01*
X025168Y003561D02*
X024883Y003561D01*
X024885Y003563D02*
X025166Y003563D01*
X025163Y003566D02*
X024888Y003566D01*
X024811Y003163D02*
X025240Y003163D01*
X025240Y003161D02*
X024811Y003161D01*
X024811Y003159D02*
X025240Y003159D01*
X025239Y003156D02*
X024812Y003156D01*
X024812Y003154D02*
X025239Y003154D01*
X025239Y003151D02*
X024812Y003151D01*
X024812Y003149D02*
X025238Y003149D01*
X025238Y003146D02*
X024813Y003146D01*
X024813Y003144D02*
X025238Y003144D01*
X025238Y003142D02*
X024813Y003142D01*
X024814Y003139D02*
X025237Y003139D01*
X025237Y003137D02*
X024814Y003137D01*
X024814Y003134D02*
X025237Y003134D01*
X025237Y003132D02*
X024814Y003132D01*
X024815Y003129D02*
X025236Y003129D01*
X025236Y003127D02*
X024815Y003127D01*
X024815Y003125D02*
X025236Y003125D01*
X025235Y003122D02*
X024815Y003122D01*
X024816Y003120D02*
X025235Y003120D01*
X025235Y003117D02*
X025219Y003072D01*
X025193Y003031D01*
X025159Y002997D01*
X025119Y002972D01*
X025073Y002956D01*
X025025Y002950D01*
X024978Y002956D01*
X024932Y002972D01*
X024891Y002997D01*
X024857Y003031D01*
X024832Y003072D01*
X024816Y003117D01*
X024817Y003115D02*
X025234Y003115D01*
X025233Y003112D02*
X024818Y003112D01*
X024819Y003110D02*
X025232Y003110D01*
X025231Y003107D02*
X024819Y003107D01*
X024820Y003105D02*
X025231Y003105D01*
X025230Y003103D02*
X024821Y003103D01*
X024822Y003100D02*
X025229Y003100D01*
X025228Y003098D02*
X024823Y003098D01*
X024824Y003095D02*
X025227Y003095D01*
X025226Y003093D02*
X024825Y003093D01*
X024825Y003090D02*
X025225Y003090D01*
X025225Y003088D02*
X024826Y003088D01*
X024827Y003086D02*
X025224Y003086D01*
X025223Y003083D02*
X024828Y003083D01*
X024829Y003081D02*
X025222Y003081D01*
X025221Y003078D02*
X024830Y003078D01*
X024831Y003076D02*
X025220Y003076D01*
X025219Y003073D02*
X024831Y003073D01*
X024833Y003071D02*
X025218Y003071D01*
X025217Y003068D02*
X024834Y003068D01*
X024836Y003066D02*
X025215Y003066D01*
X025214Y003064D02*
X024837Y003064D01*
X024839Y003061D02*
X025212Y003061D01*
X025211Y003059D02*
X024840Y003059D01*
X024842Y003056D02*
X025209Y003056D01*
X025208Y003054D02*
X024843Y003054D01*
X024845Y003051D02*
X025206Y003051D01*
X025205Y003049D02*
X024846Y003049D01*
X024848Y003047D02*
X025203Y003047D01*
X025201Y003044D02*
X024849Y003044D01*
X024851Y003042D02*
X025200Y003042D01*
X025198Y003039D02*
X024852Y003039D01*
X024854Y003037D02*
X025197Y003037D01*
X025195Y003034D02*
X024856Y003034D01*
X024857Y003032D02*
X025194Y003032D01*
X025192Y003029D02*
X024859Y003029D01*
X024862Y003027D02*
X025189Y003027D01*
X025187Y003025D02*
X024864Y003025D01*
X024867Y003022D02*
X025184Y003022D01*
X025182Y003020D02*
X024869Y003020D01*
X024871Y003017D02*
X025179Y003017D01*
X025177Y003015D02*
X024874Y003015D01*
X024876Y003012D02*
X025175Y003012D01*
X025172Y003010D02*
X024879Y003010D01*
X024881Y003008D02*
X025170Y003008D01*
X025167Y003005D02*
X024884Y003005D01*
X024886Y003003D02*
X025165Y003003D01*
X025162Y003000D02*
X024888Y003000D01*
X024891Y002998D02*
X025160Y002998D01*
X025156Y002995D02*
X024894Y002995D01*
X024898Y002993D02*
X025153Y002993D01*
X025149Y002990D02*
X024902Y002990D01*
X024906Y002988D02*
X025145Y002988D01*
X025141Y002986D02*
X024910Y002986D01*
X024914Y002983D02*
X025137Y002983D01*
X025133Y002981D02*
X024918Y002981D01*
X024922Y002978D02*
X025129Y002978D01*
X025125Y002976D02*
X024926Y002976D01*
X024929Y002973D02*
X025121Y002973D01*
X025117Y002971D02*
X024934Y002971D01*
X024941Y002969D02*
X025110Y002969D01*
X025103Y002966D02*
X024948Y002966D01*
X024955Y002964D02*
X025096Y002964D01*
X025089Y002961D02*
X024962Y002961D01*
X024969Y002959D02*
X025082Y002959D01*
X025075Y002956D02*
X024976Y002956D01*
X024994Y002954D02*
X025057Y002954D01*
X025035Y002951D02*
X025016Y002951D01*
X025025Y004446D02*
X024978Y004452D01*
X024932Y004468D01*
X024891Y004493D01*
X024857Y004527D01*
X024832Y004568D01*
X024816Y004613D01*
X024811Y004661D01*
X024811Y004897D01*
X024816Y004945D01*
X025235Y004945D01*
X025219Y004991D01*
X025193Y005031D01*
X025159Y005065D01*
X025119Y005091D01*
X025073Y005107D01*
X025025Y005112D01*
X024978Y005107D01*
X024932Y005091D01*
X024891Y005065D01*
X025160Y005065D01*
X025157Y005067D02*
X024894Y005067D01*
X024891Y005065D02*
X024857Y005031D01*
X024857Y005030D02*
X025194Y005030D01*
X025196Y005028D02*
X024855Y005028D01*
X024854Y005026D02*
X025197Y005026D01*
X025199Y005023D02*
X024852Y005023D01*
X024851Y005021D02*
X025200Y005021D01*
X025202Y005018D02*
X024849Y005018D01*
X024848Y005016D02*
X025203Y005016D01*
X025205Y005013D02*
X024846Y005013D01*
X024845Y005011D02*
X025206Y005011D01*
X025208Y005008D02*
X024843Y005008D01*
X024842Y005006D02*
X025209Y005006D01*
X025211Y005004D02*
X024840Y005004D01*
X024838Y005001D02*
X025212Y005001D01*
X025214Y004999D02*
X024837Y004999D01*
X024835Y004996D02*
X025215Y004996D01*
X025217Y004994D02*
X024834Y004994D01*
X024832Y004991D02*
X025219Y004991D01*
X025220Y004989D02*
X024831Y004989D01*
X024832Y004991D02*
X024816Y004945D01*
X024816Y004943D02*
X025235Y004943D01*
X025235Y004945D02*
X025240Y004897D01*
X025240Y004661D01*
X025235Y004613D01*
X025219Y004568D01*
X025193Y004527D01*
X025159Y004493D01*
X025119Y004468D01*
X025073Y004452D01*
X025025Y004446D01*
X025012Y004448D02*
X025039Y004448D01*
X025061Y004450D02*
X024990Y004450D01*
X024975Y004453D02*
X025076Y004453D01*
X025083Y004455D02*
X024968Y004455D01*
X024961Y004458D02*
X025090Y004458D01*
X025097Y004460D02*
X024954Y004460D01*
X024947Y004463D02*
X025104Y004463D01*
X025111Y004465D02*
X024940Y004465D01*
X024933Y004467D02*
X025118Y004467D01*
X025122Y004470D02*
X024929Y004470D01*
X024925Y004472D02*
X025126Y004472D01*
X025130Y004475D02*
X024921Y004475D01*
X024917Y004477D02*
X025134Y004477D01*
X025138Y004480D02*
X024913Y004480D01*
X024909Y004482D02*
X025142Y004482D01*
X025145Y004484D02*
X024905Y004484D01*
X024902Y004487D02*
X025149Y004487D01*
X025153Y004489D02*
X024898Y004489D01*
X024894Y004492D02*
X025157Y004492D01*
X025160Y004494D02*
X024891Y004494D01*
X024888Y004497D02*
X025163Y004497D01*
X025165Y004499D02*
X024886Y004499D01*
X024883Y004502D02*
X025168Y004502D01*
X025170Y004504D02*
X024881Y004504D01*
X024878Y004506D02*
X025173Y004506D01*
X025175Y004509D02*
X024876Y004509D01*
X024873Y004511D02*
X025177Y004511D01*
X025180Y004514D02*
X024871Y004514D01*
X024869Y004516D02*
X025182Y004516D01*
X025185Y004519D02*
X024866Y004519D01*
X024864Y004521D02*
X025187Y004521D01*
X025190Y004523D02*
X024861Y004523D01*
X024859Y004526D02*
X025192Y004526D01*
X025194Y004528D02*
X024857Y004528D01*
X024855Y004531D02*
X025196Y004531D01*
X025197Y004533D02*
X024854Y004533D01*
X024852Y004536D02*
X025199Y004536D01*
X025200Y004538D02*
X024851Y004538D01*
X024849Y004541D02*
X025202Y004541D01*
X025203Y004543D02*
X024848Y004543D01*
X024846Y004545D02*
X025205Y004545D01*
X025206Y004548D02*
X024845Y004548D01*
X024843Y004550D02*
X025208Y004550D01*
X025209Y004553D02*
X024841Y004553D01*
X024840Y004555D02*
X025211Y004555D01*
X025212Y004558D02*
X024838Y004558D01*
X024837Y004560D02*
X025214Y004560D01*
X025216Y004562D02*
X024835Y004562D01*
X024834Y004565D02*
X025217Y004565D01*
X025219Y004567D02*
X024832Y004567D01*
X024831Y004570D02*
X025220Y004570D01*
X025220Y004572D02*
X024830Y004572D01*
X024830Y004575D02*
X025221Y004575D01*
X025222Y004577D02*
X024829Y004577D01*
X024828Y004580D02*
X025223Y004580D01*
X025224Y004582D02*
X024827Y004582D01*
X024826Y004584D02*
X025225Y004584D01*
X025226Y004587D02*
X024825Y004587D01*
X024824Y004589D02*
X025226Y004589D01*
X025227Y004592D02*
X024824Y004592D01*
X024823Y004594D02*
X025228Y004594D01*
X025229Y004597D02*
X024822Y004597D01*
X024821Y004599D02*
X025230Y004599D01*
X025231Y004601D02*
X024820Y004601D01*
X024819Y004604D02*
X025232Y004604D01*
X025232Y004606D02*
X024818Y004606D01*
X024818Y004609D02*
X025233Y004609D01*
X025234Y004611D02*
X024817Y004611D01*
X024816Y004614D02*
X025235Y004614D01*
X025235Y004616D02*
X024816Y004616D01*
X024815Y004619D02*
X025235Y004619D01*
X025236Y004621D02*
X024815Y004621D01*
X024815Y004623D02*
X025236Y004623D01*
X025236Y004626D02*
X024815Y004626D01*
X024814Y004628D02*
X025237Y004628D01*
X025237Y004631D02*
X024814Y004631D01*
X024814Y004633D02*
X025237Y004633D01*
X025237Y004636D02*
X024813Y004636D01*
X024813Y004638D02*
X025238Y004638D01*
X025238Y004640D02*
X024813Y004640D01*
X024813Y004643D02*
X025238Y004643D01*
X025238Y004645D02*
X024812Y004645D01*
X024812Y004648D02*
X025239Y004648D01*
X025239Y004650D02*
X024812Y004650D01*
X024812Y004653D02*
X025239Y004653D01*
X025240Y004655D02*
X024811Y004655D01*
X024811Y004658D02*
X025240Y004658D01*
X025240Y004660D02*
X024811Y004660D01*
X024811Y004662D02*
X025240Y004662D01*
X025240Y004665D02*
X024811Y004665D01*
X024811Y004667D02*
X025240Y004667D01*
X025240Y004670D02*
X024811Y004670D01*
X024811Y004672D02*
X025240Y004672D01*
X025240Y004675D02*
X024811Y004675D01*
X024811Y004677D02*
X025240Y004677D01*
X025240Y004679D02*
X024811Y004679D01*
X024811Y004682D02*
X025240Y004682D01*
X025240Y004684D02*
X024811Y004684D01*
X024811Y004687D02*
X025240Y004687D01*
X025240Y004689D02*
X024811Y004689D01*
X024811Y004692D02*
X025240Y004692D01*
X025240Y004694D02*
X024811Y004694D01*
X024811Y004697D02*
X025240Y004697D01*
X025240Y004699D02*
X024811Y004699D01*
X024811Y004701D02*
X025240Y004701D01*
X025240Y004704D02*
X024811Y004704D01*
X024811Y004706D02*
X025240Y004706D01*
X025240Y004709D02*
X024811Y004709D01*
X024811Y004711D02*
X025240Y004711D01*
X025240Y004714D02*
X024811Y004714D01*
X024811Y004716D02*
X025240Y004716D01*
X025240Y004718D02*
X024811Y004718D01*
X024811Y004721D02*
X025240Y004721D01*
X025240Y004723D02*
X024811Y004723D01*
X024811Y004726D02*
X025240Y004726D01*
X025240Y004728D02*
X024811Y004728D01*
X024811Y004731D02*
X025240Y004731D01*
X025240Y004733D02*
X024811Y004733D01*
X024811Y004736D02*
X025240Y004736D01*
X025240Y004738D02*
X024811Y004738D01*
X024811Y004740D02*
X025240Y004740D01*
X025240Y004743D02*
X024811Y004743D01*
X024811Y004745D02*
X025240Y004745D01*
X025240Y004748D02*
X024811Y004748D01*
X024811Y004750D02*
X025240Y004750D01*
X025240Y004753D02*
X024811Y004753D01*
X024811Y004755D02*
X025240Y004755D01*
X025240Y004757D02*
X024811Y004757D01*
X024811Y004760D02*
X025240Y004760D01*
X025240Y004762D02*
X024811Y004762D01*
X024811Y004765D02*
X025240Y004765D01*
X025240Y004767D02*
X024811Y004767D01*
X024811Y004770D02*
X025240Y004770D01*
X025240Y004772D02*
X024811Y004772D01*
X024811Y004775D02*
X025240Y004775D01*
X025240Y004777D02*
X024811Y004777D01*
X024811Y004779D02*
X025240Y004779D01*
X025240Y004782D02*
X024811Y004782D01*
X024811Y004784D02*
X025240Y004784D01*
X025240Y004787D02*
X024811Y004787D01*
X024811Y004789D02*
X025240Y004789D01*
X025240Y004792D02*
X024811Y004792D01*
X024811Y004794D02*
X025240Y004794D01*
X025240Y004796D02*
X024811Y004796D01*
X024811Y004799D02*
X025240Y004799D01*
X025240Y004801D02*
X024811Y004801D01*
X024811Y004804D02*
X025240Y004804D01*
X025240Y004806D02*
X024811Y004806D01*
X024811Y004809D02*
X025240Y004809D01*
X025240Y004811D02*
X024811Y004811D01*
X024811Y004814D02*
X025240Y004814D01*
X025240Y004816D02*
X024811Y004816D01*
X024811Y004818D02*
X025240Y004818D01*
X025240Y004821D02*
X024811Y004821D01*
X024811Y004823D02*
X025240Y004823D01*
X025240Y004826D02*
X024811Y004826D01*
X024811Y004828D02*
X025240Y004828D01*
X025240Y004831D02*
X024811Y004831D01*
X024811Y004833D02*
X025240Y004833D01*
X025240Y004835D02*
X024811Y004835D01*
X024811Y004838D02*
X025240Y004838D01*
X025240Y004840D02*
X024811Y004840D01*
X024811Y004843D02*
X025240Y004843D01*
X025240Y004845D02*
X024811Y004845D01*
X024811Y004848D02*
X025240Y004848D01*
X025240Y004850D02*
X024811Y004850D01*
X024811Y004853D02*
X025240Y004853D01*
X025240Y004855D02*
X024811Y004855D01*
X024811Y004857D02*
X025240Y004857D01*
X025240Y004860D02*
X024811Y004860D01*
X024811Y004862D02*
X025240Y004862D01*
X025240Y004865D02*
X024811Y004865D01*
X024811Y004867D02*
X025240Y004867D01*
X025240Y004870D02*
X024811Y004870D01*
X024811Y004872D02*
X025240Y004872D01*
X025240Y004874D02*
X024811Y004874D01*
X024811Y004877D02*
X025240Y004877D01*
X025240Y004879D02*
X024811Y004879D01*
X024811Y004882D02*
X025240Y004882D01*
X025240Y004884D02*
X024811Y004884D01*
X024811Y004887D02*
X025240Y004887D01*
X025240Y004889D02*
X024811Y004889D01*
X024811Y004892D02*
X025240Y004892D01*
X025240Y004894D02*
X024811Y004894D01*
X024811Y004896D02*
X025240Y004896D01*
X025240Y004899D02*
X024811Y004899D01*
X024811Y004901D02*
X025240Y004901D01*
X025240Y004904D02*
X024811Y004904D01*
X024812Y004906D02*
X025239Y004906D01*
X025239Y004909D02*
X024812Y004909D01*
X024812Y004911D02*
X025239Y004911D01*
X025238Y004913D02*
X024812Y004913D01*
X024813Y004916D02*
X025238Y004916D01*
X025238Y004918D02*
X024813Y004918D01*
X024813Y004921D02*
X025238Y004921D01*
X025237Y004923D02*
X024813Y004923D01*
X024814Y004926D02*
X025237Y004926D01*
X025237Y004928D02*
X024814Y004928D01*
X024814Y004931D02*
X025237Y004931D01*
X025236Y004933D02*
X024815Y004933D01*
X024815Y004935D02*
X025236Y004935D01*
X025236Y004938D02*
X024815Y004938D01*
X024815Y004940D02*
X025235Y004940D01*
X025234Y004948D02*
X024817Y004948D01*
X024818Y004950D02*
X025233Y004950D01*
X025232Y004952D02*
X024818Y004952D01*
X024819Y004955D02*
X025232Y004955D01*
X025231Y004957D02*
X024820Y004957D01*
X024821Y004960D02*
X025230Y004960D01*
X025229Y004962D02*
X024822Y004962D01*
X024823Y004965D02*
X025228Y004965D01*
X025227Y004967D02*
X024824Y004967D01*
X024824Y004970D02*
X025226Y004970D01*
X025226Y004972D02*
X024825Y004972D01*
X024826Y004974D02*
X025225Y004974D01*
X025224Y004977D02*
X024827Y004977D01*
X024828Y004979D02*
X025223Y004979D01*
X025222Y004982D02*
X024829Y004982D01*
X024830Y004984D02*
X025221Y004984D01*
X025220Y004987D02*
X024830Y004987D01*
X024832Y004991D02*
X024857Y005031D01*
X024859Y005033D02*
X025192Y005033D01*
X025190Y005035D02*
X024861Y005035D01*
X024864Y005038D02*
X025187Y005038D01*
X025185Y005040D02*
X024866Y005040D01*
X024869Y005043D02*
X025182Y005043D01*
X025180Y005045D02*
X024871Y005045D01*
X024874Y005047D02*
X025177Y005047D01*
X025175Y005050D02*
X024876Y005050D01*
X024878Y005052D02*
X025172Y005052D01*
X025170Y005055D02*
X024881Y005055D01*
X024883Y005057D02*
X025168Y005057D01*
X025165Y005060D02*
X024886Y005060D01*
X024888Y005062D02*
X025163Y005062D01*
X025153Y005069D02*
X024898Y005069D01*
X024902Y005072D02*
X025149Y005072D01*
X025145Y005074D02*
X024906Y005074D01*
X024909Y005077D02*
X025141Y005077D01*
X025138Y005079D02*
X024913Y005079D01*
X024917Y005082D02*
X025134Y005082D01*
X025130Y005084D02*
X024921Y005084D01*
X024925Y005086D02*
X025126Y005086D01*
X025122Y005089D02*
X024929Y005089D01*
X024933Y005091D02*
X025118Y005091D01*
X025111Y005094D02*
X024940Y005094D01*
X024947Y005096D02*
X025104Y005096D01*
X025097Y005099D02*
X024954Y005099D01*
X024961Y005101D02*
X025090Y005101D01*
X025083Y005104D02*
X024968Y005104D01*
X024975Y005106D02*
X025076Y005106D01*
X025060Y005108D02*
X024991Y005108D01*
X025012Y005111D02*
X025038Y005111D01*
X018698Y004897D02*
X018698Y004661D01*
X018693Y004613D01*
X018677Y004568D01*
X018651Y004527D01*
X018617Y004493D01*
X018576Y004468D01*
X018531Y004452D01*
X018483Y004446D01*
X018435Y004452D01*
X018390Y004468D01*
X018349Y004493D01*
X018315Y004527D01*
X018290Y004568D01*
X018274Y004613D01*
X018268Y004661D01*
X018268Y004897D01*
X018274Y004945D01*
X018693Y004945D01*
X018677Y004991D01*
X018651Y005031D01*
X018617Y005065D01*
X018576Y005091D01*
X018531Y005107D01*
X018483Y005112D01*
X018435Y005107D01*
X018390Y005091D01*
X018349Y005065D01*
X018315Y005031D01*
X018290Y004991D01*
X018676Y004991D01*
X018677Y004989D02*
X018289Y004989D01*
X018290Y004991D02*
X018274Y004945D01*
X018273Y004943D02*
X018693Y004943D01*
X018693Y004945D02*
X018698Y004897D01*
X018698Y004896D02*
X018268Y004896D01*
X018268Y004894D02*
X018698Y004894D01*
X018698Y004892D02*
X018268Y004892D01*
X018268Y004889D02*
X018698Y004889D01*
X018698Y004887D02*
X018268Y004887D01*
X018268Y004884D02*
X018698Y004884D01*
X018698Y004882D02*
X018268Y004882D01*
X018268Y004879D02*
X018698Y004879D01*
X018698Y004877D02*
X018268Y004877D01*
X018268Y004874D02*
X018698Y004874D01*
X018698Y004872D02*
X018268Y004872D01*
X018268Y004870D02*
X018698Y004870D01*
X018698Y004867D02*
X018268Y004867D01*
X018268Y004865D02*
X018698Y004865D01*
X018698Y004862D02*
X018268Y004862D01*
X018268Y004860D02*
X018698Y004860D01*
X018698Y004857D02*
X018268Y004857D01*
X018268Y004855D02*
X018698Y004855D01*
X018698Y004853D02*
X018268Y004853D01*
X018268Y004850D02*
X018698Y004850D01*
X018698Y004848D02*
X018268Y004848D01*
X018268Y004845D02*
X018698Y004845D01*
X018698Y004843D02*
X018268Y004843D01*
X018268Y004840D02*
X018698Y004840D01*
X018698Y004838D02*
X018268Y004838D01*
X018268Y004835D02*
X018698Y004835D01*
X018698Y004833D02*
X018268Y004833D01*
X018268Y004831D02*
X018698Y004831D01*
X018698Y004828D02*
X018268Y004828D01*
X018268Y004826D02*
X018698Y004826D01*
X018698Y004823D02*
X018268Y004823D01*
X018268Y004821D02*
X018698Y004821D01*
X018698Y004818D02*
X018268Y004818D01*
X018268Y004816D02*
X018698Y004816D01*
X018698Y004814D02*
X018268Y004814D01*
X018268Y004811D02*
X018698Y004811D01*
X018698Y004809D02*
X018268Y004809D01*
X018268Y004806D02*
X018698Y004806D01*
X018698Y004804D02*
X018268Y004804D01*
X018268Y004801D02*
X018698Y004801D01*
X018698Y004799D02*
X018268Y004799D01*
X018268Y004796D02*
X018698Y004796D01*
X018698Y004794D02*
X018268Y004794D01*
X018268Y004792D02*
X018698Y004792D01*
X018698Y004789D02*
X018268Y004789D01*
X018268Y004787D02*
X018698Y004787D01*
X018698Y004784D02*
X018268Y004784D01*
X018268Y004782D02*
X018698Y004782D01*
X018698Y004779D02*
X018268Y004779D01*
X018268Y004777D02*
X018698Y004777D01*
X018698Y004775D02*
X018268Y004775D01*
X018268Y004772D02*
X018698Y004772D01*
X018698Y004770D02*
X018268Y004770D01*
X018268Y004767D02*
X018698Y004767D01*
X018698Y004765D02*
X018268Y004765D01*
X018268Y004762D02*
X018698Y004762D01*
X018698Y004760D02*
X018268Y004760D01*
X018268Y004757D02*
X018698Y004757D01*
X018698Y004755D02*
X018268Y004755D01*
X018268Y004753D02*
X018698Y004753D01*
X018698Y004750D02*
X018268Y004750D01*
X018268Y004748D02*
X018698Y004748D01*
X018698Y004745D02*
X018268Y004745D01*
X018268Y004743D02*
X018698Y004743D01*
X018698Y004740D02*
X018268Y004740D01*
X018268Y004738D02*
X018698Y004738D01*
X018698Y004736D02*
X018268Y004736D01*
X018268Y004733D02*
X018698Y004733D01*
X018698Y004731D02*
X018268Y004731D01*
X018268Y004728D02*
X018698Y004728D01*
X018698Y004726D02*
X018268Y004726D01*
X018268Y004723D02*
X018698Y004723D01*
X018698Y004721D02*
X018268Y004721D01*
X018268Y004718D02*
X018698Y004718D01*
X018698Y004716D02*
X018268Y004716D01*
X018268Y004714D02*
X018698Y004714D01*
X018698Y004711D02*
X018268Y004711D01*
X018268Y004709D02*
X018698Y004709D01*
X018698Y004706D02*
X018268Y004706D01*
X018268Y004704D02*
X018698Y004704D01*
X018698Y004701D02*
X018268Y004701D01*
X018268Y004699D02*
X018698Y004699D01*
X018698Y004697D02*
X018268Y004697D01*
X018268Y004694D02*
X018698Y004694D01*
X018698Y004692D02*
X018268Y004692D01*
X018268Y004689D02*
X018698Y004689D01*
X018698Y004687D02*
X018268Y004687D01*
X018268Y004684D02*
X018698Y004684D01*
X018698Y004682D02*
X018268Y004682D01*
X018268Y004679D02*
X018698Y004679D01*
X018698Y004677D02*
X018268Y004677D01*
X018268Y004675D02*
X018698Y004675D01*
X018698Y004672D02*
X018268Y004672D01*
X018268Y004670D02*
X018698Y004670D01*
X018698Y004667D02*
X018268Y004667D01*
X018268Y004665D02*
X018698Y004665D01*
X018698Y004662D02*
X018268Y004662D01*
X018269Y004660D02*
X018698Y004660D01*
X018698Y004658D02*
X018269Y004658D01*
X018269Y004655D02*
X018697Y004655D01*
X018697Y004653D02*
X018269Y004653D01*
X018270Y004650D02*
X018697Y004650D01*
X018697Y004648D02*
X018270Y004648D01*
X018270Y004645D02*
X018696Y004645D01*
X018696Y004643D02*
X018270Y004643D01*
X018271Y004640D02*
X018696Y004640D01*
X018695Y004638D02*
X018271Y004638D01*
X018271Y004636D02*
X018695Y004636D01*
X018695Y004633D02*
X018272Y004633D01*
X018272Y004631D02*
X018695Y004631D01*
X018694Y004628D02*
X018272Y004628D01*
X018272Y004626D02*
X018694Y004626D01*
X018694Y004623D02*
X018273Y004623D01*
X018273Y004621D02*
X018694Y004621D01*
X018693Y004619D02*
X018273Y004619D01*
X018273Y004616D02*
X018693Y004616D01*
X018693Y004614D02*
X018274Y004614D01*
X018275Y004611D02*
X018692Y004611D01*
X018691Y004609D02*
X018275Y004609D01*
X018276Y004606D02*
X018690Y004606D01*
X018689Y004604D02*
X018277Y004604D01*
X018278Y004601D02*
X018689Y004601D01*
X018688Y004599D02*
X018279Y004599D01*
X018280Y004597D02*
X018687Y004597D01*
X018686Y004594D02*
X018281Y004594D01*
X018281Y004592D02*
X018685Y004592D01*
X018684Y004589D02*
X018282Y004589D01*
X018283Y004587D02*
X018683Y004587D01*
X018683Y004584D02*
X018284Y004584D01*
X018285Y004582D02*
X018682Y004582D01*
X018681Y004580D02*
X018286Y004580D01*
X018286Y004577D02*
X018680Y004577D01*
X018679Y004575D02*
X018287Y004575D01*
X018288Y004572D02*
X018678Y004572D01*
X018677Y004570D02*
X018289Y004570D01*
X018290Y004567D02*
X018676Y004567D01*
X018675Y004565D02*
X018292Y004565D01*
X018293Y004562D02*
X018673Y004562D01*
X018672Y004560D02*
X018295Y004560D01*
X018296Y004558D02*
X018670Y004558D01*
X018669Y004555D02*
X018298Y004555D01*
X018299Y004553D02*
X018667Y004553D01*
X018666Y004550D02*
X018301Y004550D01*
X018302Y004548D02*
X018664Y004548D01*
X018663Y004545D02*
X018304Y004545D01*
X018305Y004543D02*
X018661Y004543D01*
X018660Y004541D02*
X018307Y004541D01*
X018308Y004538D02*
X018658Y004538D01*
X018656Y004536D02*
X018310Y004536D01*
X018312Y004533D02*
X018655Y004533D01*
X018653Y004531D02*
X018313Y004531D01*
X018315Y004528D02*
X018652Y004528D01*
X018650Y004526D02*
X018317Y004526D01*
X018319Y004523D02*
X018647Y004523D01*
X018645Y004521D02*
X018322Y004521D01*
X018324Y004519D02*
X018643Y004519D01*
X018640Y004516D02*
X018326Y004516D01*
X018329Y004514D02*
X018638Y004514D01*
X018635Y004511D02*
X018331Y004511D01*
X018334Y004509D02*
X018633Y004509D01*
X018630Y004506D02*
X018336Y004506D01*
X018339Y004504D02*
X018628Y004504D01*
X018625Y004502D02*
X018341Y004502D01*
X018343Y004499D02*
X018623Y004499D01*
X018621Y004497D02*
X018346Y004497D01*
X018348Y004494D02*
X018618Y004494D01*
X018615Y004492D02*
X018352Y004492D01*
X018356Y004489D02*
X018611Y004489D01*
X018607Y004487D02*
X018359Y004487D01*
X018363Y004484D02*
X018603Y004484D01*
X018599Y004482D02*
X018367Y004482D01*
X018371Y004480D02*
X018595Y004480D01*
X018592Y004477D02*
X018375Y004477D01*
X018379Y004475D02*
X018588Y004475D01*
X018584Y004472D02*
X018383Y004472D01*
X018387Y004470D02*
X018580Y004470D01*
X018576Y004467D02*
X018391Y004467D01*
X018398Y004465D02*
X018569Y004465D01*
X018562Y004463D02*
X018405Y004463D01*
X018412Y004460D02*
X018555Y004460D01*
X018548Y004458D02*
X018419Y004458D01*
X018426Y004455D02*
X018541Y004455D01*
X018534Y004453D02*
X018433Y004453D01*
X018448Y004450D02*
X018518Y004450D01*
X018497Y004448D02*
X018470Y004448D01*
X018269Y004899D02*
X018698Y004899D01*
X018698Y004901D02*
X018269Y004901D01*
X018269Y004904D02*
X018697Y004904D01*
X018697Y004906D02*
X018269Y004906D01*
X018270Y004909D02*
X018697Y004909D01*
X018697Y004911D02*
X018270Y004911D01*
X018270Y004913D02*
X018696Y004913D01*
X018696Y004916D02*
X018270Y004916D01*
X018271Y004918D02*
X018696Y004918D01*
X018695Y004921D02*
X018271Y004921D01*
X018271Y004923D02*
X018695Y004923D01*
X018695Y004926D02*
X018272Y004926D01*
X018272Y004928D02*
X018695Y004928D01*
X018694Y004931D02*
X018272Y004931D01*
X018272Y004933D02*
X018694Y004933D01*
X018694Y004935D02*
X018273Y004935D01*
X018273Y004938D02*
X018694Y004938D01*
X018693Y004940D02*
X018273Y004940D01*
X018275Y004948D02*
X018692Y004948D01*
X018691Y004950D02*
X018275Y004950D01*
X018276Y004952D02*
X018690Y004952D01*
X018689Y004955D02*
X018277Y004955D01*
X018278Y004957D02*
X018688Y004957D01*
X018688Y004960D02*
X018279Y004960D01*
X018280Y004962D02*
X018687Y004962D01*
X018686Y004965D02*
X018281Y004965D01*
X018281Y004967D02*
X018685Y004967D01*
X018684Y004970D02*
X018282Y004970D01*
X018283Y004972D02*
X018683Y004972D01*
X018683Y004974D02*
X018284Y004974D01*
X018285Y004977D02*
X018682Y004977D01*
X018681Y004979D02*
X018286Y004979D01*
X018287Y004982D02*
X018680Y004982D01*
X018679Y004984D02*
X018287Y004984D01*
X018288Y004987D02*
X018678Y004987D01*
X018675Y004994D02*
X018292Y004994D01*
X018293Y004996D02*
X018673Y004996D01*
X018672Y004999D02*
X018295Y004999D01*
X018296Y005001D02*
X018670Y005001D01*
X018669Y005004D02*
X018298Y005004D01*
X018299Y005006D02*
X018667Y005006D01*
X018666Y005008D02*
X018301Y005008D01*
X018302Y005011D02*
X018664Y005011D01*
X018663Y005013D02*
X018304Y005013D01*
X018305Y005016D02*
X018661Y005016D01*
X018659Y005018D02*
X018307Y005018D01*
X018308Y005021D02*
X018658Y005021D01*
X018656Y005023D02*
X018310Y005023D01*
X018312Y005026D02*
X018655Y005026D01*
X018653Y005028D02*
X018313Y005028D01*
X018315Y005030D02*
X018652Y005030D01*
X018650Y005033D02*
X018317Y005033D01*
X018319Y005035D02*
X018647Y005035D01*
X018645Y005038D02*
X018322Y005038D01*
X018324Y005040D02*
X018642Y005040D01*
X018640Y005043D02*
X018326Y005043D01*
X018329Y005045D02*
X018638Y005045D01*
X018635Y005047D02*
X018331Y005047D01*
X018334Y005050D02*
X018633Y005050D01*
X018630Y005052D02*
X018336Y005052D01*
X018339Y005055D02*
X018628Y005055D01*
X018625Y005057D02*
X018341Y005057D01*
X018343Y005060D02*
X018623Y005060D01*
X018621Y005062D02*
X018346Y005062D01*
X018348Y005065D02*
X018618Y005065D01*
X018615Y005067D02*
X018352Y005067D01*
X018356Y005069D02*
X018611Y005069D01*
X018607Y005072D02*
X018359Y005072D01*
X018363Y005074D02*
X018603Y005074D01*
X018599Y005077D02*
X018367Y005077D01*
X018371Y005079D02*
X018595Y005079D01*
X018591Y005082D02*
X018375Y005082D01*
X018379Y005084D02*
X018588Y005084D01*
X018584Y005086D02*
X018383Y005086D01*
X018387Y005089D02*
X018580Y005089D01*
X018576Y005091D02*
X018391Y005091D01*
X018398Y005094D02*
X018569Y005094D01*
X018562Y005096D02*
X018405Y005096D01*
X018412Y005099D02*
X018555Y005099D01*
X018548Y005101D02*
X018419Y005101D01*
X018426Y005104D02*
X018541Y005104D01*
X018534Y005106D02*
X018433Y005106D01*
X018449Y005108D02*
X018518Y005108D01*
X018496Y005111D02*
X018470Y005111D01*
X018483Y003616D02*
X018435Y003611D01*
X018390Y003595D01*
X018349Y003569D01*
X018315Y003535D01*
X018290Y003495D01*
X018677Y003495D01*
X018651Y003535D01*
X018617Y003569D01*
X018576Y003595D01*
X018531Y003611D01*
X018483Y003616D01*
X018467Y003614D02*
X018500Y003614D01*
X018522Y003612D02*
X018445Y003612D01*
X018432Y003610D02*
X018535Y003610D01*
X018542Y003607D02*
X018425Y003607D01*
X018418Y003605D02*
X018549Y003605D01*
X018556Y003602D02*
X018411Y003602D01*
X018404Y003600D02*
X018563Y003600D01*
X018570Y003597D02*
X018397Y003597D01*
X018390Y003595D02*
X018577Y003595D01*
X018580Y003592D02*
X018386Y003592D01*
X018382Y003590D02*
X018584Y003590D01*
X018588Y003588D02*
X018378Y003588D01*
X018374Y003585D02*
X018592Y003585D01*
X018596Y003583D02*
X018370Y003583D01*
X018367Y003580D02*
X018600Y003580D01*
X018604Y003578D02*
X018363Y003578D01*
X018359Y003575D02*
X018608Y003575D01*
X018612Y003573D02*
X018355Y003573D01*
X018351Y003571D02*
X018615Y003571D01*
X018618Y003568D02*
X018348Y003568D01*
X018346Y003566D02*
X018621Y003566D01*
X018623Y003563D02*
X018343Y003563D01*
X018341Y003561D02*
X018626Y003561D01*
X018628Y003558D02*
X018338Y003558D01*
X018336Y003556D02*
X018631Y003556D01*
X018633Y003553D02*
X018333Y003553D01*
X018331Y003551D02*
X018636Y003551D01*
X018638Y003549D02*
X018328Y003549D01*
X018326Y003546D02*
X018640Y003546D01*
X018643Y003544D02*
X018324Y003544D01*
X018321Y003541D02*
X018645Y003541D01*
X018648Y003539D02*
X018319Y003539D01*
X018316Y003536D02*
X018650Y003536D01*
X018652Y003534D02*
X018314Y003534D01*
X018313Y003532D02*
X018654Y003532D01*
X018655Y003529D02*
X018311Y003529D01*
X018310Y003527D02*
X018657Y003527D01*
X018658Y003524D02*
X018308Y003524D01*
X018307Y003522D02*
X018660Y003522D01*
X018661Y003519D02*
X018305Y003519D01*
X018304Y003517D02*
X018663Y003517D01*
X018664Y003514D02*
X018302Y003514D01*
X018301Y003512D02*
X018666Y003512D01*
X018667Y003510D02*
X018299Y003510D01*
X018298Y003507D02*
X018669Y003507D01*
X018670Y003505D02*
X018296Y003505D01*
X018294Y003502D02*
X018672Y003502D01*
X018674Y003500D02*
X018293Y003500D01*
X018291Y003497D02*
X018675Y003497D01*
X018677Y003495D02*
X018693Y003449D01*
X018698Y003401D01*
X018698Y003165D01*
X018693Y003117D01*
X018274Y003117D01*
X018290Y003072D01*
X018315Y003031D01*
X018349Y002997D01*
X018390Y002972D01*
X018435Y002956D01*
X018483Y002950D01*
X018531Y002956D01*
X018576Y002972D01*
X018617Y002997D01*
X018651Y003031D01*
X018677Y003072D01*
X018693Y003117D01*
X018692Y003115D02*
X018275Y003115D01*
X018274Y003117D02*
X018268Y003165D01*
X018268Y003401D01*
X018274Y003449D01*
X018290Y003495D01*
X018289Y003493D02*
X018678Y003493D01*
X018678Y003490D02*
X018288Y003490D01*
X018287Y003488D02*
X018679Y003488D01*
X018680Y003485D02*
X018286Y003485D01*
X018286Y003483D02*
X018681Y003483D01*
X018682Y003480D02*
X018285Y003480D01*
X018284Y003478D02*
X018683Y003478D01*
X018684Y003475D02*
X018283Y003475D01*
X018282Y003473D02*
X018684Y003473D01*
X018685Y003471D02*
X018281Y003471D01*
X018280Y003468D02*
X018686Y003468D01*
X018687Y003466D02*
X018280Y003466D01*
X018279Y003463D02*
X018688Y003463D01*
X018689Y003461D02*
X018278Y003461D01*
X018277Y003458D02*
X018689Y003458D01*
X018690Y003456D02*
X018276Y003456D01*
X018275Y003454D02*
X018691Y003454D01*
X018692Y003451D02*
X018274Y003451D01*
X018274Y003449D02*
X018693Y003449D01*
X018693Y003446D02*
X018273Y003446D01*
X018273Y003444D02*
X018693Y003444D01*
X018694Y003441D02*
X018273Y003441D01*
X018273Y003439D02*
X018694Y003439D01*
X018694Y003436D02*
X018272Y003436D01*
X018272Y003434D02*
X018694Y003434D01*
X018695Y003432D02*
X018272Y003432D01*
X018272Y003429D02*
X018695Y003429D01*
X018695Y003427D02*
X018271Y003427D01*
X018271Y003424D02*
X018696Y003424D01*
X018696Y003422D02*
X018271Y003422D01*
X018270Y003419D02*
X018696Y003419D01*
X018696Y003417D02*
X018270Y003417D01*
X018270Y003415D02*
X018697Y003415D01*
X018697Y003412D02*
X018270Y003412D01*
X018269Y003410D02*
X018697Y003410D01*
X018697Y003407D02*
X018269Y003407D01*
X018269Y003405D02*
X018698Y003405D01*
X018698Y003402D02*
X018268Y003402D01*
X018268Y003400D02*
X018698Y003400D01*
X018698Y003397D02*
X018268Y003397D01*
X018268Y003395D02*
X018698Y003395D01*
X018698Y003393D02*
X018268Y003393D01*
X018268Y003390D02*
X018698Y003390D01*
X018698Y003388D02*
X018268Y003388D01*
X018268Y003385D02*
X018698Y003385D01*
X018698Y003383D02*
X018268Y003383D01*
X018268Y003380D02*
X018698Y003380D01*
X018698Y003378D02*
X018268Y003378D01*
X018268Y003376D02*
X018698Y003376D01*
X018698Y003373D02*
X018268Y003373D01*
X018268Y003371D02*
X018698Y003371D01*
X018698Y003368D02*
X018268Y003368D01*
X018268Y003366D02*
X018698Y003366D01*
X018698Y003363D02*
X018268Y003363D01*
X018268Y003361D02*
X018698Y003361D01*
X018698Y003358D02*
X018268Y003358D01*
X018268Y003356D02*
X018698Y003356D01*
X018698Y003354D02*
X018268Y003354D01*
X018268Y003351D02*
X018698Y003351D01*
X018698Y003349D02*
X018268Y003349D01*
X018268Y003346D02*
X018698Y003346D01*
X018698Y003344D02*
X018268Y003344D01*
X018268Y003341D02*
X018698Y003341D01*
X018698Y003339D02*
X018268Y003339D01*
X018268Y003337D02*
X018698Y003337D01*
X018698Y003334D02*
X018268Y003334D01*
X018268Y003332D02*
X018698Y003332D01*
X018698Y003329D02*
X018268Y003329D01*
X018268Y003327D02*
X018698Y003327D01*
X018698Y003324D02*
X018268Y003324D01*
X018268Y003322D02*
X018698Y003322D01*
X018698Y003319D02*
X018268Y003319D01*
X018268Y003317D02*
X018698Y003317D01*
X018698Y003315D02*
X018268Y003315D01*
X018268Y003312D02*
X018698Y003312D01*
X018698Y003310D02*
X018268Y003310D01*
X018268Y003307D02*
X018698Y003307D01*
X018698Y003305D02*
X018268Y003305D01*
X018268Y003302D02*
X018698Y003302D01*
X018698Y003300D02*
X018268Y003300D01*
X018268Y003298D02*
X018698Y003298D01*
X018698Y003295D02*
X018268Y003295D01*
X018268Y003293D02*
X018698Y003293D01*
X018698Y003290D02*
X018268Y003290D01*
X018268Y003288D02*
X018698Y003288D01*
X018698Y003285D02*
X018268Y003285D01*
X018268Y003283D02*
X018698Y003283D01*
X018698Y003280D02*
X018268Y003280D01*
X018268Y003278D02*
X018698Y003278D01*
X018698Y003276D02*
X018268Y003276D01*
X018268Y003273D02*
X018698Y003273D01*
X018698Y003271D02*
X018268Y003271D01*
X018268Y003268D02*
X018698Y003268D01*
X018698Y003266D02*
X018268Y003266D01*
X018268Y003263D02*
X018698Y003263D01*
X018698Y003261D02*
X018268Y003261D01*
X018268Y003259D02*
X018698Y003259D01*
X018698Y003256D02*
X018268Y003256D01*
X018268Y003254D02*
X018698Y003254D01*
X018698Y003251D02*
X018268Y003251D01*
X018268Y003249D02*
X018698Y003249D01*
X018698Y003246D02*
X018268Y003246D01*
X018268Y003244D02*
X018698Y003244D01*
X018698Y003241D02*
X018268Y003241D01*
X018268Y003239D02*
X018698Y003239D01*
X018698Y003237D02*
X018268Y003237D01*
X018268Y003234D02*
X018698Y003234D01*
X018698Y003232D02*
X018268Y003232D01*
X018268Y003229D02*
X018698Y003229D01*
X018698Y003227D02*
X018268Y003227D01*
X018268Y003224D02*
X018698Y003224D01*
X018698Y003222D02*
X018268Y003222D01*
X018268Y003220D02*
X018698Y003220D01*
X018698Y003217D02*
X018268Y003217D01*
X018268Y003215D02*
X018698Y003215D01*
X018698Y003212D02*
X018268Y003212D01*
X018268Y003210D02*
X018698Y003210D01*
X018698Y003207D02*
X018268Y003207D01*
X018268Y003205D02*
X018698Y003205D01*
X018698Y003202D02*
X018268Y003202D01*
X018268Y003200D02*
X018698Y003200D01*
X018698Y003198D02*
X018268Y003198D01*
X018268Y003195D02*
X018698Y003195D01*
X018698Y003193D02*
X018268Y003193D01*
X018268Y003190D02*
X018698Y003190D01*
X018698Y003188D02*
X018268Y003188D01*
X018268Y003185D02*
X018698Y003185D01*
X018698Y003183D02*
X018268Y003183D01*
X018268Y003181D02*
X018698Y003181D01*
X018698Y003178D02*
X018268Y003178D01*
X018268Y003176D02*
X018698Y003176D01*
X018698Y003173D02*
X018268Y003173D01*
X018268Y003171D02*
X018698Y003171D01*
X018698Y003168D02*
X018268Y003168D01*
X018268Y003166D02*
X018698Y003166D01*
X018698Y003163D02*
X018269Y003163D01*
X018269Y003161D02*
X018698Y003161D01*
X018697Y003159D02*
X018269Y003159D01*
X018269Y003156D02*
X018697Y003156D01*
X018697Y003154D02*
X018270Y003154D01*
X018270Y003151D02*
X018697Y003151D01*
X018696Y003149D02*
X018270Y003149D01*
X018270Y003146D02*
X018696Y003146D01*
X018696Y003144D02*
X018271Y003144D01*
X018271Y003142D02*
X018695Y003142D01*
X018695Y003139D02*
X018271Y003139D01*
X018272Y003137D02*
X018695Y003137D01*
X018695Y003134D02*
X018272Y003134D01*
X018272Y003132D02*
X018694Y003132D01*
X018694Y003129D02*
X018272Y003129D01*
X018273Y003127D02*
X018694Y003127D01*
X018693Y003125D02*
X018273Y003125D01*
X018273Y003122D02*
X018693Y003122D01*
X018693Y003120D02*
X018274Y003120D01*
X018276Y003112D02*
X018691Y003112D01*
X018690Y003110D02*
X018276Y003110D01*
X018277Y003107D02*
X018689Y003107D01*
X018688Y003105D02*
X018278Y003105D01*
X018279Y003103D02*
X018688Y003103D01*
X018687Y003100D02*
X018280Y003100D01*
X018281Y003098D02*
X018686Y003098D01*
X018685Y003095D02*
X018282Y003095D01*
X018282Y003093D02*
X018684Y003093D01*
X018683Y003090D02*
X018283Y003090D01*
X018284Y003088D02*
X018682Y003088D01*
X018682Y003086D02*
X018285Y003086D01*
X018286Y003083D02*
X018681Y003083D01*
X018680Y003081D02*
X018287Y003081D01*
X018287Y003078D02*
X018679Y003078D01*
X018678Y003076D02*
X018288Y003076D01*
X018289Y003073D02*
X018677Y003073D01*
X018676Y003071D02*
X018290Y003071D01*
X018292Y003068D02*
X018675Y003068D01*
X018673Y003066D02*
X018293Y003066D01*
X018295Y003064D02*
X018672Y003064D01*
X018670Y003061D02*
X018296Y003061D01*
X018298Y003059D02*
X018668Y003059D01*
X018667Y003056D02*
X018300Y003056D01*
X018301Y003054D02*
X018665Y003054D01*
X018664Y003051D02*
X018303Y003051D01*
X018304Y003049D02*
X018662Y003049D01*
X018661Y003047D02*
X018306Y003047D01*
X018307Y003044D02*
X018659Y003044D01*
X018658Y003042D02*
X018309Y003042D01*
X018310Y003039D02*
X018656Y003039D01*
X018655Y003037D02*
X018312Y003037D01*
X018313Y003034D02*
X018653Y003034D01*
X018652Y003032D02*
X018315Y003032D01*
X018317Y003029D02*
X018649Y003029D01*
X018647Y003027D02*
X018319Y003027D01*
X018322Y003025D02*
X018645Y003025D01*
X018642Y003022D02*
X018324Y003022D01*
X018327Y003020D02*
X018640Y003020D01*
X018637Y003017D02*
X018329Y003017D01*
X018332Y003015D02*
X018635Y003015D01*
X018632Y003012D02*
X018334Y003012D01*
X018337Y003010D02*
X018630Y003010D01*
X018627Y003008D02*
X018339Y003008D01*
X018341Y003005D02*
X018625Y003005D01*
X018623Y003003D02*
X018344Y003003D01*
X018346Y003000D02*
X018620Y003000D01*
X018618Y002998D02*
X018349Y002998D01*
X018352Y002995D02*
X018614Y002995D01*
X018610Y002993D02*
X018356Y002993D01*
X018360Y002990D02*
X018606Y002990D01*
X018603Y002988D02*
X018364Y002988D01*
X018368Y002986D02*
X018599Y002986D01*
X018595Y002983D02*
X018372Y002983D01*
X018376Y002981D02*
X018591Y002981D01*
X018587Y002978D02*
X018379Y002978D01*
X018383Y002976D02*
X018583Y002976D01*
X018579Y002973D02*
X018387Y002973D01*
X018392Y002971D02*
X018575Y002971D01*
X018568Y002969D02*
X018399Y002969D01*
X018406Y002966D02*
X018561Y002966D01*
X018554Y002964D02*
X018413Y002964D01*
X018420Y002961D02*
X018547Y002961D01*
X018540Y002959D02*
X018427Y002959D01*
X018434Y002956D02*
X018533Y002956D01*
X018515Y002954D02*
X018452Y002954D01*
X018473Y002951D02*
X018493Y002951D01*
X015297Y003165D02*
X015297Y003401D01*
X015292Y003449D01*
X015276Y003495D01*
X014889Y003495D01*
X014873Y003449D01*
X014868Y003401D01*
X014868Y003165D01*
X014873Y003117D01*
X015292Y003117D01*
X015297Y003165D01*
X015297Y003166D02*
X014868Y003166D01*
X014868Y003168D02*
X015297Y003168D01*
X015297Y003171D02*
X014868Y003171D01*
X014868Y003173D02*
X015297Y003173D01*
X015297Y003176D02*
X014868Y003176D01*
X014868Y003178D02*
X015297Y003178D01*
X015297Y003181D02*
X014868Y003181D01*
X014868Y003183D02*
X015297Y003183D01*
X015297Y003185D02*
X014868Y003185D01*
X014868Y003188D02*
X015297Y003188D01*
X015297Y003190D02*
X014868Y003190D01*
X014868Y003193D02*
X015297Y003193D01*
X015297Y003195D02*
X014868Y003195D01*
X014868Y003198D02*
X015297Y003198D01*
X015297Y003200D02*
X014868Y003200D01*
X014868Y003202D02*
X015297Y003202D01*
X015297Y003205D02*
X014868Y003205D01*
X014868Y003207D02*
X015297Y003207D01*
X015297Y003210D02*
X014868Y003210D01*
X014868Y003212D02*
X015297Y003212D01*
X015297Y003215D02*
X014868Y003215D01*
X014868Y003217D02*
X015297Y003217D01*
X015297Y003220D02*
X014868Y003220D01*
X014868Y003222D02*
X015297Y003222D01*
X015297Y003224D02*
X014868Y003224D01*
X014868Y003227D02*
X015297Y003227D01*
X015297Y003229D02*
X014868Y003229D01*
X014868Y003232D02*
X015297Y003232D01*
X015297Y003234D02*
X014868Y003234D01*
X014868Y003237D02*
X015297Y003237D01*
X015297Y003239D02*
X014868Y003239D01*
X014868Y003241D02*
X015297Y003241D01*
X015297Y003244D02*
X014868Y003244D01*
X014868Y003246D02*
X015297Y003246D01*
X015297Y003249D02*
X014868Y003249D01*
X014868Y003251D02*
X015297Y003251D01*
X015297Y003254D02*
X014868Y003254D01*
X014868Y003256D02*
X015297Y003256D01*
X015297Y003259D02*
X014868Y003259D01*
X014868Y003261D02*
X015297Y003261D01*
X015297Y003263D02*
X014868Y003263D01*
X014868Y003266D02*
X015297Y003266D01*
X015297Y003268D02*
X014868Y003268D01*
X014868Y003271D02*
X015297Y003271D01*
X015297Y003273D02*
X014868Y003273D01*
X014868Y003276D02*
X015297Y003276D01*
X015297Y003278D02*
X014868Y003278D01*
X014868Y003280D02*
X015297Y003280D01*
X015297Y003283D02*
X014868Y003283D01*
X014868Y003285D02*
X015297Y003285D01*
X015297Y003288D02*
X014868Y003288D01*
X014868Y003290D02*
X015297Y003290D01*
X015297Y003293D02*
X014868Y003293D01*
X014868Y003295D02*
X015297Y003295D01*
X015297Y003298D02*
X014868Y003298D01*
X014868Y003300D02*
X015297Y003300D01*
X015297Y003302D02*
X014868Y003302D01*
X014868Y003305D02*
X015297Y003305D01*
X015297Y003307D02*
X014868Y003307D01*
X014868Y003310D02*
X015297Y003310D01*
X015297Y003312D02*
X014868Y003312D01*
X014868Y003315D02*
X015297Y003315D01*
X015297Y003317D02*
X014868Y003317D01*
X014868Y003319D02*
X015297Y003319D01*
X015297Y003322D02*
X014868Y003322D01*
X014868Y003324D02*
X015297Y003324D01*
X015297Y003327D02*
X014868Y003327D01*
X014868Y003329D02*
X015297Y003329D01*
X015297Y003332D02*
X014868Y003332D01*
X014868Y003334D02*
X015297Y003334D01*
X015297Y003337D02*
X014868Y003337D01*
X014868Y003339D02*
X015297Y003339D01*
X015297Y003341D02*
X014868Y003341D01*
X014868Y003344D02*
X015297Y003344D01*
X015297Y003346D02*
X014868Y003346D01*
X014868Y003349D02*
X015297Y003349D01*
X015297Y003351D02*
X014868Y003351D01*
X014868Y003354D02*
X015297Y003354D01*
X015297Y003356D02*
X014868Y003356D01*
X014868Y003358D02*
X015297Y003358D01*
X015297Y003361D02*
X014868Y003361D01*
X014868Y003363D02*
X015297Y003363D01*
X015297Y003366D02*
X014868Y003366D01*
X014868Y003368D02*
X015297Y003368D01*
X015297Y003371D02*
X014868Y003371D01*
X014868Y003373D02*
X015297Y003373D01*
X015297Y003376D02*
X014868Y003376D01*
X014868Y003378D02*
X015297Y003378D01*
X015297Y003380D02*
X014868Y003380D01*
X014868Y003383D02*
X015297Y003383D01*
X015297Y003385D02*
X014868Y003385D01*
X014868Y003388D02*
X015297Y003388D01*
X015297Y003390D02*
X014868Y003390D01*
X014868Y003393D02*
X015297Y003393D01*
X015297Y003395D02*
X014868Y003395D01*
X014868Y003397D02*
X015297Y003397D01*
X015297Y003400D02*
X014868Y003400D01*
X014868Y003402D02*
X015297Y003402D01*
X015297Y003405D02*
X014868Y003405D01*
X014868Y003407D02*
X015297Y003407D01*
X015296Y003410D02*
X014869Y003410D01*
X014869Y003412D02*
X015296Y003412D01*
X015296Y003415D02*
X014869Y003415D01*
X014869Y003417D02*
X015296Y003417D01*
X015295Y003419D02*
X014870Y003419D01*
X014870Y003422D02*
X015295Y003422D01*
X015295Y003424D02*
X014870Y003424D01*
X014870Y003427D02*
X015294Y003427D01*
X015294Y003429D02*
X014871Y003429D01*
X014871Y003432D02*
X015294Y003432D01*
X015294Y003434D02*
X014871Y003434D01*
X014872Y003436D02*
X015293Y003436D01*
X015293Y003439D02*
X014872Y003439D01*
X014872Y003441D02*
X015293Y003441D01*
X015293Y003444D02*
X014872Y003444D01*
X014873Y003446D02*
X015292Y003446D01*
X015292Y003449D02*
X014873Y003449D01*
X014874Y003451D02*
X015291Y003451D01*
X015290Y003454D02*
X014874Y003454D01*
X014875Y003456D02*
X015290Y003456D01*
X015289Y003458D02*
X014876Y003458D01*
X014877Y003461D02*
X015288Y003461D01*
X015287Y003463D02*
X014878Y003463D01*
X014879Y003466D02*
X015286Y003466D01*
X015285Y003468D02*
X014880Y003468D01*
X014880Y003471D02*
X015284Y003471D01*
X015284Y003473D02*
X014881Y003473D01*
X014882Y003475D02*
X015283Y003475D01*
X015282Y003478D02*
X014883Y003478D01*
X014884Y003480D02*
X015281Y003480D01*
X015280Y003483D02*
X014885Y003483D01*
X014886Y003485D02*
X015279Y003485D01*
X015278Y003488D02*
X014886Y003488D01*
X014887Y003490D02*
X015278Y003490D01*
X015277Y003493D02*
X014888Y003493D01*
X014889Y003495D02*
X014914Y003535D01*
X014948Y003569D01*
X014989Y003595D01*
X015176Y003595D01*
X015130Y003611D01*
X015082Y003616D01*
X015035Y003611D01*
X014989Y003595D01*
X014985Y003592D02*
X015180Y003592D01*
X015184Y003590D02*
X014981Y003590D01*
X014977Y003588D02*
X015187Y003588D01*
X015191Y003585D02*
X014974Y003585D01*
X014970Y003583D02*
X015195Y003583D01*
X015199Y003580D02*
X014966Y003580D01*
X014962Y003578D02*
X015203Y003578D01*
X015207Y003575D02*
X014958Y003575D01*
X014954Y003573D02*
X015211Y003573D01*
X015215Y003571D02*
X014950Y003571D01*
X014947Y003568D02*
X015218Y003568D01*
X015216Y003569D02*
X015176Y003595D01*
X015169Y003597D02*
X014996Y003597D01*
X015003Y003600D02*
X015162Y003600D01*
X015155Y003602D02*
X015010Y003602D01*
X015017Y003605D02*
X015148Y003605D01*
X015141Y003607D02*
X015024Y003607D01*
X015031Y003610D02*
X015134Y003610D01*
X015121Y003612D02*
X015044Y003612D01*
X015066Y003614D02*
X015099Y003614D01*
X015216Y003569D02*
X015250Y003535D01*
X015276Y003495D01*
X015274Y003497D02*
X014891Y003497D01*
X014892Y003500D02*
X015273Y003500D01*
X015271Y003502D02*
X014894Y003502D01*
X014895Y003505D02*
X015270Y003505D01*
X015268Y003507D02*
X014897Y003507D01*
X014898Y003510D02*
X015267Y003510D01*
X015265Y003512D02*
X014900Y003512D01*
X014901Y003514D02*
X015264Y003514D01*
X015262Y003517D02*
X014903Y003517D01*
X014904Y003519D02*
X015260Y003519D01*
X015259Y003522D02*
X014906Y003522D01*
X014907Y003524D02*
X015257Y003524D01*
X015256Y003527D02*
X014909Y003527D01*
X014911Y003529D02*
X015254Y003529D01*
X015253Y003532D02*
X014912Y003532D01*
X014914Y003534D02*
X015251Y003534D01*
X015249Y003536D02*
X014915Y003536D01*
X014918Y003539D02*
X015247Y003539D01*
X015245Y003541D02*
X014920Y003541D01*
X014923Y003544D02*
X015242Y003544D01*
X015240Y003546D02*
X014925Y003546D01*
X014928Y003549D02*
X015237Y003549D01*
X015235Y003551D02*
X014930Y003551D01*
X014933Y003553D02*
X015232Y003553D01*
X015230Y003556D02*
X014935Y003556D01*
X014937Y003558D02*
X015227Y003558D01*
X015225Y003561D02*
X014940Y003561D01*
X014942Y003563D02*
X015223Y003563D01*
X015220Y003566D02*
X014945Y003566D01*
X014868Y003163D02*
X015297Y003163D01*
X015297Y003161D02*
X014868Y003161D01*
X014868Y003159D02*
X015297Y003159D01*
X015296Y003156D02*
X014869Y003156D01*
X014869Y003154D02*
X015296Y003154D01*
X015296Y003151D02*
X014869Y003151D01*
X014869Y003149D02*
X015295Y003149D01*
X015295Y003146D02*
X014870Y003146D01*
X014870Y003144D02*
X015295Y003144D01*
X015295Y003142D02*
X014870Y003142D01*
X014871Y003139D02*
X015294Y003139D01*
X015294Y003137D02*
X014871Y003137D01*
X014871Y003134D02*
X015294Y003134D01*
X015294Y003132D02*
X014871Y003132D01*
X014872Y003129D02*
X015293Y003129D01*
X015293Y003127D02*
X014872Y003127D01*
X014872Y003125D02*
X015293Y003125D01*
X015292Y003122D02*
X014872Y003122D01*
X014873Y003120D02*
X015292Y003120D01*
X015292Y003117D02*
X015276Y003072D01*
X015250Y003031D01*
X015216Y002997D01*
X015176Y002972D01*
X015130Y002956D01*
X015082Y002950D01*
X015035Y002956D01*
X014989Y002972D01*
X014948Y002997D01*
X014914Y003031D01*
X014889Y003072D01*
X014873Y003117D01*
X014874Y003115D02*
X015291Y003115D01*
X015290Y003112D02*
X014875Y003112D01*
X014876Y003110D02*
X015289Y003110D01*
X015288Y003107D02*
X014876Y003107D01*
X014877Y003105D02*
X015288Y003105D01*
X015287Y003103D02*
X014878Y003103D01*
X014879Y003100D02*
X015286Y003100D01*
X015285Y003098D02*
X014880Y003098D01*
X014881Y003095D02*
X015284Y003095D01*
X015283Y003093D02*
X014882Y003093D01*
X014882Y003090D02*
X015282Y003090D01*
X015282Y003088D02*
X014883Y003088D01*
X014884Y003086D02*
X015281Y003086D01*
X015280Y003083D02*
X014885Y003083D01*
X014886Y003081D02*
X015279Y003081D01*
X015278Y003078D02*
X014887Y003078D01*
X014888Y003076D02*
X015277Y003076D01*
X015276Y003073D02*
X014888Y003073D01*
X014890Y003071D02*
X015275Y003071D01*
X015274Y003068D02*
X014891Y003068D01*
X014893Y003066D02*
X015272Y003066D01*
X015271Y003064D02*
X014894Y003064D01*
X014896Y003061D02*
X015269Y003061D01*
X015268Y003059D02*
X014897Y003059D01*
X014899Y003056D02*
X015266Y003056D01*
X015265Y003054D02*
X014900Y003054D01*
X014902Y003051D02*
X015263Y003051D01*
X015262Y003049D02*
X014903Y003049D01*
X014905Y003047D02*
X015260Y003047D01*
X015258Y003044D02*
X014906Y003044D01*
X014908Y003042D02*
X015257Y003042D01*
X015255Y003039D02*
X014909Y003039D01*
X014911Y003037D02*
X015254Y003037D01*
X015252Y003034D02*
X014913Y003034D01*
X014914Y003032D02*
X015251Y003032D01*
X015249Y003029D02*
X014916Y003029D01*
X014919Y003027D02*
X015246Y003027D01*
X015244Y003025D02*
X014921Y003025D01*
X014924Y003022D02*
X015241Y003022D01*
X015239Y003020D02*
X014926Y003020D01*
X014928Y003017D02*
X015236Y003017D01*
X015234Y003015D02*
X014931Y003015D01*
X014933Y003012D02*
X015232Y003012D01*
X015229Y003010D02*
X014936Y003010D01*
X014938Y003008D02*
X015227Y003008D01*
X015224Y003005D02*
X014941Y003005D01*
X014943Y003003D02*
X015222Y003003D01*
X015219Y003000D02*
X014946Y003000D01*
X014948Y002998D02*
X015217Y002998D01*
X015213Y002995D02*
X014951Y002995D01*
X014955Y002993D02*
X015210Y002993D01*
X015206Y002990D02*
X014959Y002990D01*
X014963Y002988D02*
X015202Y002988D01*
X015198Y002986D02*
X014967Y002986D01*
X014971Y002983D02*
X015194Y002983D01*
X015190Y002981D02*
X014975Y002981D01*
X014979Y002978D02*
X015186Y002978D01*
X015182Y002976D02*
X014983Y002976D01*
X014986Y002973D02*
X015178Y002973D01*
X015174Y002971D02*
X014991Y002971D01*
X014998Y002969D02*
X015167Y002969D01*
X015160Y002966D02*
X015005Y002966D01*
X015012Y002964D02*
X015153Y002964D01*
X015146Y002961D02*
X015019Y002961D01*
X015026Y002959D02*
X015139Y002959D01*
X015132Y002956D02*
X015033Y002956D01*
X015051Y002954D02*
X015114Y002954D01*
X015092Y002951D02*
X015073Y002951D01*
X015082Y004446D02*
X015035Y004452D01*
X014989Y004468D01*
X014948Y004493D01*
X014914Y004527D01*
X014889Y004568D01*
X014873Y004613D01*
X014868Y004661D01*
X014868Y004897D01*
X014873Y004945D01*
X015292Y004945D01*
X015276Y004991D01*
X015250Y005031D01*
X015216Y005065D01*
X015176Y005091D01*
X015130Y005107D01*
X015082Y005112D01*
X015035Y005107D01*
X014989Y005091D01*
X014948Y005065D01*
X015217Y005065D01*
X015214Y005067D02*
X014951Y005067D01*
X014948Y005065D02*
X014914Y005031D01*
X014914Y005030D02*
X015251Y005030D01*
X015253Y005028D02*
X014912Y005028D01*
X014911Y005026D02*
X015254Y005026D01*
X015256Y005023D02*
X014909Y005023D01*
X014908Y005021D02*
X015257Y005021D01*
X015259Y005018D02*
X014906Y005018D01*
X014905Y005016D02*
X015260Y005016D01*
X015262Y005013D02*
X014903Y005013D01*
X014902Y005011D02*
X015263Y005011D01*
X015265Y005008D02*
X014900Y005008D01*
X014899Y005006D02*
X015266Y005006D01*
X015268Y005004D02*
X014897Y005004D01*
X014895Y005001D02*
X015269Y005001D01*
X015271Y004999D02*
X014894Y004999D01*
X014892Y004996D02*
X015272Y004996D01*
X015274Y004994D02*
X014891Y004994D01*
X014889Y004991D02*
X015276Y004991D01*
X015277Y004989D02*
X014888Y004989D01*
X014889Y004991D02*
X014873Y004945D01*
X014873Y004943D02*
X015292Y004943D01*
X015292Y004945D02*
X015297Y004897D01*
X015297Y004661D01*
X015292Y004613D01*
X015276Y004568D01*
X015250Y004527D01*
X015216Y004493D01*
X015176Y004468D01*
X015130Y004452D01*
X015082Y004446D01*
X015069Y004448D02*
X015096Y004448D01*
X015118Y004450D02*
X015047Y004450D01*
X015032Y004453D02*
X015133Y004453D01*
X015140Y004455D02*
X015025Y004455D01*
X015018Y004458D02*
X015147Y004458D01*
X015154Y004460D02*
X015011Y004460D01*
X015004Y004463D02*
X015161Y004463D01*
X015168Y004465D02*
X014997Y004465D01*
X014990Y004467D02*
X015175Y004467D01*
X015179Y004470D02*
X014986Y004470D01*
X014982Y004472D02*
X015183Y004472D01*
X015187Y004475D02*
X014978Y004475D01*
X014974Y004477D02*
X015191Y004477D01*
X015195Y004480D02*
X014970Y004480D01*
X014966Y004482D02*
X015199Y004482D01*
X015202Y004484D02*
X014962Y004484D01*
X014959Y004487D02*
X015206Y004487D01*
X015210Y004489D02*
X014955Y004489D01*
X014951Y004492D02*
X015214Y004492D01*
X015217Y004494D02*
X014948Y004494D01*
X014945Y004497D02*
X015220Y004497D01*
X015222Y004499D02*
X014943Y004499D01*
X014940Y004502D02*
X015225Y004502D01*
X015227Y004504D02*
X014938Y004504D01*
X014935Y004506D02*
X015230Y004506D01*
X015232Y004509D02*
X014933Y004509D01*
X014930Y004511D02*
X015234Y004511D01*
X015237Y004514D02*
X014928Y004514D01*
X014926Y004516D02*
X015239Y004516D01*
X015242Y004519D02*
X014923Y004519D01*
X014921Y004521D02*
X015244Y004521D01*
X015247Y004523D02*
X014918Y004523D01*
X014916Y004526D02*
X015249Y004526D01*
X015251Y004528D02*
X014914Y004528D01*
X014912Y004531D02*
X015253Y004531D01*
X015254Y004533D02*
X014911Y004533D01*
X014909Y004536D02*
X015256Y004536D01*
X015257Y004538D02*
X014908Y004538D01*
X014906Y004541D02*
X015259Y004541D01*
X015260Y004543D02*
X014905Y004543D01*
X014903Y004545D02*
X015262Y004545D01*
X015263Y004548D02*
X014902Y004548D01*
X014900Y004550D02*
X015265Y004550D01*
X015266Y004553D02*
X014898Y004553D01*
X014897Y004555D02*
X015268Y004555D01*
X015269Y004558D02*
X014895Y004558D01*
X014894Y004560D02*
X015271Y004560D01*
X015273Y004562D02*
X014892Y004562D01*
X014891Y004565D02*
X015274Y004565D01*
X015276Y004567D02*
X014889Y004567D01*
X014888Y004570D02*
X015277Y004570D01*
X015277Y004572D02*
X014887Y004572D01*
X014887Y004575D02*
X015278Y004575D01*
X015279Y004577D02*
X014886Y004577D01*
X014885Y004580D02*
X015280Y004580D01*
X015281Y004582D02*
X014884Y004582D01*
X014883Y004584D02*
X015282Y004584D01*
X015283Y004587D02*
X014882Y004587D01*
X014881Y004589D02*
X015283Y004589D01*
X015284Y004592D02*
X014881Y004592D01*
X014880Y004594D02*
X015285Y004594D01*
X015286Y004597D02*
X014879Y004597D01*
X014878Y004599D02*
X015287Y004599D01*
X015288Y004601D02*
X014877Y004601D01*
X014876Y004604D02*
X015289Y004604D01*
X015289Y004606D02*
X014875Y004606D01*
X014875Y004609D02*
X015290Y004609D01*
X015291Y004611D02*
X014874Y004611D01*
X014873Y004614D02*
X015292Y004614D01*
X015292Y004616D02*
X014873Y004616D01*
X014872Y004619D02*
X015292Y004619D01*
X015293Y004621D02*
X014872Y004621D01*
X014872Y004623D02*
X015293Y004623D01*
X015293Y004626D02*
X014872Y004626D01*
X014871Y004628D02*
X015294Y004628D01*
X015294Y004631D02*
X014871Y004631D01*
X014871Y004633D02*
X015294Y004633D01*
X015294Y004636D02*
X014870Y004636D01*
X014870Y004638D02*
X015295Y004638D01*
X015295Y004640D02*
X014870Y004640D01*
X014870Y004643D02*
X015295Y004643D01*
X015295Y004645D02*
X014869Y004645D01*
X014869Y004648D02*
X015296Y004648D01*
X015296Y004650D02*
X014869Y004650D01*
X014869Y004653D02*
X015296Y004653D01*
X015297Y004655D02*
X014868Y004655D01*
X014868Y004658D02*
X015297Y004658D01*
X015297Y004660D02*
X014868Y004660D01*
X014868Y004662D02*
X015297Y004662D01*
X015297Y004665D02*
X014868Y004665D01*
X014868Y004667D02*
X015297Y004667D01*
X015297Y004670D02*
X014868Y004670D01*
X014868Y004672D02*
X015297Y004672D01*
X015297Y004675D02*
X014868Y004675D01*
X014868Y004677D02*
X015297Y004677D01*
X015297Y004679D02*
X014868Y004679D01*
X014868Y004682D02*
X015297Y004682D01*
X015297Y004684D02*
X014868Y004684D01*
X014868Y004687D02*
X015297Y004687D01*
X015297Y004689D02*
X014868Y004689D01*
X014868Y004692D02*
X015297Y004692D01*
X015297Y004694D02*
X014868Y004694D01*
X014868Y004697D02*
X015297Y004697D01*
X015297Y004699D02*
X014868Y004699D01*
X014868Y004701D02*
X015297Y004701D01*
X015297Y004704D02*
X014868Y004704D01*
X014868Y004706D02*
X015297Y004706D01*
X015297Y004709D02*
X014868Y004709D01*
X014868Y004711D02*
X015297Y004711D01*
X015297Y004714D02*
X014868Y004714D01*
X014868Y004716D02*
X015297Y004716D01*
X015297Y004718D02*
X014868Y004718D01*
X014868Y004721D02*
X015297Y004721D01*
X015297Y004723D02*
X014868Y004723D01*
X014868Y004726D02*
X015297Y004726D01*
X015297Y004728D02*
X014868Y004728D01*
X014868Y004731D02*
X015297Y004731D01*
X015297Y004733D02*
X014868Y004733D01*
X014868Y004736D02*
X015297Y004736D01*
X015297Y004738D02*
X014868Y004738D01*
X014868Y004740D02*
X015297Y004740D01*
X015297Y004743D02*
X014868Y004743D01*
X014868Y004745D02*
X015297Y004745D01*
X015297Y004748D02*
X014868Y004748D01*
X014868Y004750D02*
X015297Y004750D01*
X015297Y004753D02*
X014868Y004753D01*
X014868Y004755D02*
X015297Y004755D01*
X015297Y004757D02*
X014868Y004757D01*
X014868Y004760D02*
X015297Y004760D01*
X015297Y004762D02*
X014868Y004762D01*
X014868Y004765D02*
X015297Y004765D01*
X015297Y004767D02*
X014868Y004767D01*
X014868Y004770D02*
X015297Y004770D01*
X015297Y004772D02*
X014868Y004772D01*
X014868Y004775D02*
X015297Y004775D01*
X015297Y004777D02*
X014868Y004777D01*
X014868Y004779D02*
X015297Y004779D01*
X015297Y004782D02*
X014868Y004782D01*
X014868Y004784D02*
X015297Y004784D01*
X015297Y004787D02*
X014868Y004787D01*
X014868Y004789D02*
X015297Y004789D01*
X015297Y004792D02*
X014868Y004792D01*
X014868Y004794D02*
X015297Y004794D01*
X015297Y004796D02*
X014868Y004796D01*
X014868Y004799D02*
X015297Y004799D01*
X015297Y004801D02*
X014868Y004801D01*
X014868Y004804D02*
X015297Y004804D01*
X015297Y004806D02*
X014868Y004806D01*
X014868Y004809D02*
X015297Y004809D01*
X015297Y004811D02*
X014868Y004811D01*
X014868Y004814D02*
X015297Y004814D01*
X015297Y004816D02*
X014868Y004816D01*
X014868Y004818D02*
X015297Y004818D01*
X015297Y004821D02*
X014868Y004821D01*
X014868Y004823D02*
X015297Y004823D01*
X015297Y004826D02*
X014868Y004826D01*
X014868Y004828D02*
X015297Y004828D01*
X015297Y004831D02*
X014868Y004831D01*
X014868Y004833D02*
X015297Y004833D01*
X015297Y004835D02*
X014868Y004835D01*
X014868Y004838D02*
X015297Y004838D01*
X015297Y004840D02*
X014868Y004840D01*
X014868Y004843D02*
X015297Y004843D01*
X015297Y004845D02*
X014868Y004845D01*
X014868Y004848D02*
X015297Y004848D01*
X015297Y004850D02*
X014868Y004850D01*
X014868Y004853D02*
X015297Y004853D01*
X015297Y004855D02*
X014868Y004855D01*
X014868Y004857D02*
X015297Y004857D01*
X015297Y004860D02*
X014868Y004860D01*
X014868Y004862D02*
X015297Y004862D01*
X015297Y004865D02*
X014868Y004865D01*
X014868Y004867D02*
X015297Y004867D01*
X015297Y004870D02*
X014868Y004870D01*
X014868Y004872D02*
X015297Y004872D01*
X015297Y004874D02*
X014868Y004874D01*
X014868Y004877D02*
X015297Y004877D01*
X015297Y004879D02*
X014868Y004879D01*
X014868Y004882D02*
X015297Y004882D01*
X015297Y004884D02*
X014868Y004884D01*
X014868Y004887D02*
X015297Y004887D01*
X015297Y004889D02*
X014868Y004889D01*
X014868Y004892D02*
X015297Y004892D01*
X015297Y004894D02*
X014868Y004894D01*
X014868Y004896D02*
X015297Y004896D01*
X015297Y004899D02*
X014868Y004899D01*
X014868Y004901D02*
X015297Y004901D01*
X015297Y004904D02*
X014868Y004904D01*
X014869Y004906D02*
X015296Y004906D01*
X015296Y004909D02*
X014869Y004909D01*
X014869Y004911D02*
X015296Y004911D01*
X015295Y004913D02*
X014869Y004913D01*
X014870Y004916D02*
X015295Y004916D01*
X015295Y004918D02*
X014870Y004918D01*
X014870Y004921D02*
X015295Y004921D01*
X015294Y004923D02*
X014870Y004923D01*
X014871Y004926D02*
X015294Y004926D01*
X015294Y004928D02*
X014871Y004928D01*
X014871Y004931D02*
X015294Y004931D01*
X015293Y004933D02*
X014872Y004933D01*
X014872Y004935D02*
X015293Y004935D01*
X015293Y004938D02*
X014872Y004938D01*
X014872Y004940D02*
X015292Y004940D01*
X015291Y004948D02*
X014874Y004948D01*
X014875Y004950D02*
X015290Y004950D01*
X015289Y004952D02*
X014875Y004952D01*
X014876Y004955D02*
X015289Y004955D01*
X015288Y004957D02*
X014877Y004957D01*
X014878Y004960D02*
X015287Y004960D01*
X015286Y004962D02*
X014879Y004962D01*
X014880Y004965D02*
X015285Y004965D01*
X015284Y004967D02*
X014881Y004967D01*
X014881Y004970D02*
X015283Y004970D01*
X015283Y004972D02*
X014882Y004972D01*
X014883Y004974D02*
X015282Y004974D01*
X015281Y004977D02*
X014884Y004977D01*
X014885Y004979D02*
X015280Y004979D01*
X015279Y004982D02*
X014886Y004982D01*
X014887Y004984D02*
X015278Y004984D01*
X015277Y004987D02*
X014887Y004987D01*
X014889Y004991D02*
X014914Y005031D01*
X014916Y005033D02*
X015249Y005033D01*
X015247Y005035D02*
X014918Y005035D01*
X014921Y005038D02*
X015244Y005038D01*
X015242Y005040D02*
X014923Y005040D01*
X014926Y005043D02*
X015239Y005043D01*
X015237Y005045D02*
X014928Y005045D01*
X014931Y005047D02*
X015234Y005047D01*
X015232Y005050D02*
X014933Y005050D01*
X014935Y005052D02*
X015229Y005052D01*
X015227Y005055D02*
X014938Y005055D01*
X014940Y005057D02*
X015225Y005057D01*
X015222Y005060D02*
X014943Y005060D01*
X014945Y005062D02*
X015220Y005062D01*
X015210Y005069D02*
X014955Y005069D01*
X014959Y005072D02*
X015206Y005072D01*
X015202Y005074D02*
X014963Y005074D01*
X014966Y005077D02*
X015198Y005077D01*
X015195Y005079D02*
X014970Y005079D01*
X014974Y005082D02*
X015191Y005082D01*
X015187Y005084D02*
X014978Y005084D01*
X014982Y005086D02*
X015183Y005086D01*
X015179Y005089D02*
X014986Y005089D01*
X014990Y005091D02*
X015175Y005091D01*
X015168Y005094D02*
X014997Y005094D01*
X015004Y005096D02*
X015161Y005096D01*
X015154Y005099D02*
X015011Y005099D01*
X015018Y005101D02*
X015147Y005101D01*
X015140Y005104D02*
X015025Y005104D01*
X015032Y005106D02*
X015133Y005106D01*
X015117Y005108D02*
X015048Y005108D01*
X015069Y005111D02*
X015095Y005111D01*
D14*
X017173Y003916D03*
D15*
X017169Y005955D03*
X015969Y006455D03*
X014819Y005955D03*
X025534Y006384D03*
X026724Y006894D03*
X027984Y006334D03*
D16*
X011380Y005936D03*
X011380Y007936D03*
X004480Y007936D03*
D17*
X004480Y005086D03*
X004480Y004086D03*
X018237Y010886D03*
X018237Y010986D03*
X018237Y011136D03*
X018237Y011286D03*
X018237Y011386D03*
D18*
X025724Y004244D03*
X027724Y004244D03*
D19*
X011384Y004834D03*
X010584Y004034D03*
D20*
X018228Y009399D03*
D21*
X017830Y009561D02*
X017049Y009561D01*
X017037Y009521D02*
X017109Y009764D01*
X017257Y009971D01*
X017349Y010048D01*
X017481Y010123D01*
X017725Y010365D01*
X017850Y010578D01*
X017860Y010564D01*
X017915Y010509D01*
X017978Y010463D01*
X018047Y010428D01*
X018121Y010404D01*
X018197Y010392D01*
X018197Y010846D01*
X018277Y010846D01*
X018277Y010392D01*
X018353Y010404D01*
X018427Y010428D01*
X018496Y010463D01*
X018523Y010483D01*
X018523Y010458D01*
X018514Y010354D01*
X018612Y010146D01*
X018801Y010014D01*
X018874Y010008D01*
X018885Y010004D01*
X018927Y010004D01*
X018958Y010001D01*
X018953Y009947D01*
X018963Y009925D01*
X018963Y008872D01*
X018966Y008868D01*
X018963Y008861D01*
X018963Y008819D01*
X018959Y008778D01*
X018963Y008767D01*
X018963Y008137D01*
X018962Y008128D01*
X018955Y008113D01*
X018942Y008103D01*
X018925Y008099D01*
X018909Y008103D01*
X018896Y008113D01*
X018889Y008128D01*
X018888Y008137D01*
X018888Y008389D01*
X018847Y008487D01*
X018623Y008711D01*
X018526Y008751D01*
X018298Y008751D01*
X018291Y008754D01*
X018246Y008751D01*
X018200Y008751D01*
X018193Y008749D01*
X018186Y008748D01*
X018145Y008729D01*
X018126Y008721D01*
X018019Y008680D01*
X017767Y008651D01*
X017519Y008704D01*
X017301Y008836D01*
X017138Y009030D01*
X017047Y009267D01*
X017037Y009521D01*
X017038Y009483D02*
X017798Y009483D01*
X017798Y009484D02*
X017863Y009642D01*
X017984Y009763D01*
X018142Y009829D01*
X018313Y009829D01*
X018471Y009763D01*
X018592Y009642D01*
X018658Y009484D01*
X018658Y009313D01*
X018592Y009155D01*
X018534Y009096D01*
X018534Y009029D01*
X018488Y008919D01*
X018404Y008834D01*
X018293Y008789D01*
X018174Y008789D01*
X018064Y008834D01*
X017979Y008919D01*
X017934Y009029D01*
X017934Y009085D01*
X017863Y009155D01*
X017798Y009313D01*
X017798Y009484D01*
X017798Y009404D02*
X017041Y009404D01*
X017044Y009326D02*
X017798Y009326D01*
X017825Y009247D02*
X017054Y009247D01*
X017085Y009169D02*
X017858Y009169D01*
X017928Y009090D02*
X017115Y009090D01*
X017154Y009012D02*
X017941Y009012D01*
X017973Y008933D02*
X017219Y008933D01*
X017285Y008855D02*
X018043Y008855D01*
X018065Y008698D02*
X017550Y008698D01*
X017400Y008776D02*
X018960Y008776D01*
X018963Y008698D02*
X018636Y008698D01*
X018715Y008619D02*
X018963Y008619D01*
X018963Y008541D02*
X018793Y008541D01*
X018858Y008462D02*
X018963Y008462D01*
X018963Y008384D02*
X018888Y008384D01*
X018888Y008305D02*
X018963Y008305D01*
X018963Y008227D02*
X018888Y008227D01*
X018888Y008148D02*
X018963Y008148D01*
X018963Y008855D02*
X018424Y008855D01*
X018494Y008933D02*
X018963Y008933D01*
X018963Y009012D02*
X018527Y009012D01*
X018534Y009090D02*
X018963Y009090D01*
X018963Y009169D02*
X018598Y009169D01*
X018630Y009247D02*
X018963Y009247D01*
X018963Y009326D02*
X018658Y009326D01*
X018658Y009404D02*
X018963Y009404D01*
X018963Y009483D02*
X018658Y009483D01*
X018626Y009561D02*
X018963Y009561D01*
X018963Y009640D02*
X018593Y009640D01*
X018516Y009718D02*
X018963Y009718D01*
X018963Y009797D02*
X018390Y009797D01*
X018065Y009797D02*
X017133Y009797D01*
X017096Y009718D02*
X017939Y009718D01*
X017862Y009640D02*
X017072Y009640D01*
X017189Y009875D02*
X018963Y009875D01*
X018953Y009947D02*
X018953Y009947D01*
X018953Y009954D02*
X017245Y009954D01*
X017330Y010032D02*
X018775Y010032D01*
X018801Y010014D02*
X018801Y010014D01*
X018662Y010111D02*
X017458Y010111D01*
X017481Y010123D02*
X017481Y010123D01*
X017547Y010189D02*
X018592Y010189D01*
X018612Y010146D02*
X018612Y010146D01*
X018612Y010146D01*
X018555Y010268D02*
X017627Y010268D01*
X017706Y010346D02*
X018518Y010346D01*
X018514Y010354D02*
X018514Y010354D01*
X018520Y010425D02*
X018417Y010425D01*
X018277Y010425D02*
X018197Y010425D01*
X018197Y010503D02*
X018277Y010503D01*
X018277Y010582D02*
X018197Y010582D01*
X018197Y010660D02*
X018277Y010660D01*
X018277Y010739D02*
X018197Y010739D01*
X018197Y010817D02*
X018277Y010817D01*
X018277Y010926D02*
X018197Y010926D01*
X018197Y010946D01*
X018277Y010946D01*
X018277Y010926D01*
X018277Y011026D02*
X018197Y011026D01*
X018197Y011096D01*
X018277Y011096D01*
X018277Y011026D01*
X018277Y011053D02*
X018197Y011053D01*
X017923Y010503D02*
X017806Y010503D01*
X017760Y010425D02*
X018057Y010425D01*
X017725Y010365D02*
X017725Y010365D01*
X020556Y010346D02*
X031765Y010346D01*
X031765Y010268D02*
X020556Y010268D01*
X020556Y010189D02*
X031765Y010189D01*
X031765Y010111D02*
X020556Y010111D01*
X020556Y010032D02*
X031765Y010032D01*
X031765Y009954D02*
X020766Y009954D01*
X020804Y009938D02*
X020693Y009984D01*
X020574Y009984D01*
X020556Y009976D01*
X020556Y012643D01*
X020559Y012652D01*
X020556Y012695D01*
X020556Y012738D01*
X020552Y012748D01*
X020544Y012859D01*
X020544Y012859D01*
X020405Y013136D01*
X020405Y013136D01*
X020170Y013339D01*
X019876Y013437D01*
X019731Y013426D01*
X003217Y013426D01*
X003208Y013429D01*
X003165Y013426D01*
X003122Y013426D01*
X003113Y013422D01*
X003001Y013414D01*
X003001Y013414D01*
X002724Y013275D01*
X002521Y013041D01*
X002521Y013041D01*
X002424Y012747D01*
X002434Y012602D01*
X002434Y012311D01*
X002341Y012536D01*
X002107Y012769D01*
X001802Y012896D01*
X001472Y012896D01*
X001166Y012769D01*
X000933Y012536D01*
X000806Y012230D01*
X000799Y012230D01*
X000806Y012230D02*
X000806Y011900D01*
X000933Y011595D01*
X001166Y011361D01*
X001472Y011235D01*
X001802Y011235D01*
X002107Y011361D01*
X002341Y011595D01*
X002434Y011819D01*
X002434Y002811D01*
X002341Y003036D01*
X002107Y003269D01*
X001802Y003396D01*
X001472Y003396D01*
X001166Y003269D01*
X000933Y003036D01*
X000806Y002730D01*
X000806Y002400D01*
X000933Y002095D01*
X001166Y001861D01*
X001472Y001735D01*
X001802Y001735D01*
X002107Y001861D01*
X002341Y002095D01*
X002437Y002327D01*
X002438Y002325D01*
X002446Y002213D01*
X002585Y001936D01*
X002819Y001734D01*
X003114Y001636D01*
X003259Y001647D01*
X007400Y001647D01*
X007400Y001636D01*
X007510Y001298D01*
X007718Y001011D01*
X007718Y001011D01*
X007718Y001011D01*
X008006Y000802D01*
X008017Y000799D01*
X001034Y000799D01*
X000988Y000803D01*
X000903Y000838D01*
X000838Y000903D01*
X000803Y000988D01*
X000799Y001034D01*
X000799Y014434D01*
X000803Y014480D01*
X000838Y014564D01*
X000903Y014629D01*
X000988Y014664D01*
X001033Y014668D01*
X001033Y014668D01*
X001086Y014668D01*
X031468Y014668D01*
X031469Y014667D01*
X031520Y014668D01*
X031522Y014668D01*
X031569Y014664D01*
X031656Y014629D01*
X031723Y014564D01*
X031760Y014478D01*
X031765Y014432D01*
X031765Y001036D01*
X031760Y000990D01*
X031723Y000903D01*
X031656Y000838D01*
X031569Y000803D01*
X031522Y000799D01*
X031520Y000799D01*
X031469Y000799D01*
X031468Y000799D01*
X030129Y000799D01*
X030129Y001817D01*
X030134Y001830D01*
X030129Y001919D01*
X030129Y002293D01*
X030211Y002095D01*
X030445Y001861D01*
X030750Y001735D01*
X031081Y001735D01*
X031386Y001861D01*
X031620Y002095D01*
X031746Y002400D01*
X031746Y002730D01*
X031620Y003036D01*
X031386Y003269D01*
X031081Y003396D01*
X030750Y003396D01*
X030445Y003269D01*
X030211Y003036D01*
X030129Y002838D01*
X030129Y008459D01*
X030133Y008468D01*
X030129Y008511D01*
X030129Y008555D01*
X030126Y008564D01*
X030117Y008676D01*
X029978Y008953D01*
X029744Y009155D01*
X029450Y009253D01*
X029450Y009253D01*
X029305Y009242D01*
X023565Y009242D01*
X023556Y009246D01*
X023513Y009242D01*
X023470Y009242D01*
X023460Y009239D01*
X023349Y009230D01*
X023071Y009091D01*
X022869Y008857D01*
X022771Y008563D01*
X022782Y008418D01*
X022782Y004089D01*
X022463Y004089D01*
X022439Y004113D01*
X022328Y004159D01*
X022209Y004159D01*
X022174Y004144D01*
X022174Y008954D01*
X022062Y009298D01*
X021850Y009590D01*
X021558Y009802D01*
X021558Y009802D01*
X021214Y009914D01*
X020828Y009914D01*
X020804Y009938D01*
X021333Y009875D02*
X031765Y009875D01*
X031765Y009797D02*
X021565Y009797D01*
X021673Y009718D02*
X031765Y009718D01*
X031765Y009640D02*
X021781Y009640D01*
X021850Y009590D02*
X021850Y009590D01*
X021871Y009561D02*
X031765Y009561D01*
X031765Y009483D02*
X021928Y009483D01*
X021985Y009404D02*
X031765Y009404D01*
X031765Y009326D02*
X022042Y009326D01*
X022062Y009298D02*
X022062Y009298D01*
X022079Y009247D02*
X029371Y009247D01*
X029467Y009247D02*
X031765Y009247D01*
X031765Y009169D02*
X029704Y009169D01*
X029744Y009155D02*
X029744Y009155D01*
X029819Y009090D02*
X031765Y009090D01*
X031765Y009012D02*
X029910Y009012D01*
X029978Y008953D02*
X029978Y008953D01*
X029988Y008933D02*
X031765Y008933D01*
X031765Y008855D02*
X030028Y008855D01*
X030067Y008776D02*
X031765Y008776D01*
X031765Y008698D02*
X030106Y008698D01*
X030117Y008676D02*
X030117Y008676D01*
X030122Y008619D02*
X031765Y008619D01*
X031765Y008541D02*
X030129Y008541D01*
X030130Y008462D02*
X031765Y008462D01*
X031765Y008384D02*
X030129Y008384D01*
X030129Y008305D02*
X031765Y008305D01*
X031765Y008227D02*
X030129Y008227D01*
X030129Y008148D02*
X031765Y008148D01*
X031765Y008070D02*
X030129Y008070D01*
X030129Y007991D02*
X031765Y007991D01*
X031765Y007913D02*
X030129Y007913D01*
X030129Y007834D02*
X031765Y007834D01*
X031765Y007756D02*
X030129Y007756D01*
X030129Y007677D02*
X031765Y007677D01*
X031765Y007599D02*
X030129Y007599D01*
X030129Y007520D02*
X031765Y007520D01*
X031765Y007442D02*
X030129Y007442D01*
X030129Y007363D02*
X031765Y007363D01*
X031765Y007285D02*
X030129Y007285D01*
X030129Y007206D02*
X031765Y007206D01*
X031765Y007128D02*
X030129Y007128D01*
X030129Y007049D02*
X031765Y007049D01*
X031765Y006971D02*
X030129Y006971D01*
X030129Y006892D02*
X031765Y006892D01*
X031765Y006814D02*
X030129Y006814D01*
X030129Y006735D02*
X031765Y006735D01*
X031765Y006657D02*
X030129Y006657D01*
X030129Y006578D02*
X031765Y006578D01*
X031765Y006500D02*
X030129Y006500D01*
X030129Y006421D02*
X031765Y006421D01*
X031765Y006343D02*
X030129Y006343D01*
X030129Y006264D02*
X031765Y006264D01*
X031765Y006186D02*
X030129Y006186D01*
X030129Y006107D02*
X031765Y006107D01*
X031765Y006029D02*
X030129Y006029D01*
X030129Y005950D02*
X031765Y005950D01*
X031765Y005872D02*
X030129Y005872D01*
X030129Y005793D02*
X031765Y005793D01*
X031765Y005715D02*
X030129Y005715D01*
X030129Y005636D02*
X031765Y005636D01*
X031765Y005558D02*
X030129Y005558D01*
X030129Y005479D02*
X031765Y005479D01*
X031765Y005401D02*
X030129Y005401D01*
X030129Y005322D02*
X031765Y005322D01*
X031765Y005244D02*
X030129Y005244D01*
X030129Y005165D02*
X031765Y005165D01*
X031765Y005087D02*
X030129Y005087D01*
X030129Y005008D02*
X031765Y005008D01*
X031765Y004930D02*
X030129Y004930D01*
X030129Y004851D02*
X031765Y004851D01*
X031765Y004773D02*
X030129Y004773D01*
X030129Y004694D02*
X031765Y004694D01*
X031765Y004616D02*
X030129Y004616D01*
X030129Y004537D02*
X031765Y004537D01*
X031765Y004459D02*
X030129Y004459D01*
X030129Y004380D02*
X031765Y004380D01*
X031765Y004302D02*
X030129Y004302D01*
X030129Y004223D02*
X031765Y004223D01*
X031765Y004145D02*
X030129Y004145D01*
X030129Y004066D02*
X031765Y004066D01*
X031765Y003988D02*
X030129Y003988D01*
X030129Y003909D02*
X031765Y003909D01*
X031765Y003831D02*
X030129Y003831D01*
X030129Y003752D02*
X031765Y003752D01*
X031765Y003674D02*
X030129Y003674D01*
X030129Y003595D02*
X031765Y003595D01*
X031765Y003517D02*
X030129Y003517D01*
X030129Y003438D02*
X031765Y003438D01*
X031765Y003360D02*
X031168Y003360D01*
X031357Y003281D02*
X031765Y003281D01*
X031765Y003203D02*
X031453Y003203D01*
X031531Y003124D02*
X031765Y003124D01*
X031765Y003046D02*
X031610Y003046D01*
X031648Y002967D02*
X031765Y002967D01*
X031765Y002889D02*
X031681Y002889D01*
X031713Y002810D02*
X031765Y002810D01*
X031765Y002732D02*
X031746Y002732D01*
X031746Y002653D02*
X031765Y002653D01*
X031765Y002575D02*
X031746Y002575D01*
X031746Y002496D02*
X031765Y002496D01*
X031765Y002418D02*
X031746Y002418D01*
X031765Y002339D02*
X031721Y002339D01*
X031688Y002261D02*
X031765Y002261D01*
X031765Y002182D02*
X031656Y002182D01*
X031623Y002104D02*
X031765Y002104D01*
X031765Y002025D02*
X031550Y002025D01*
X031472Y001947D02*
X031765Y001947D01*
X031765Y001868D02*
X031393Y001868D01*
X031214Y001790D02*
X031765Y001790D01*
X031765Y001711D02*
X030129Y001711D01*
X030129Y001633D02*
X031765Y001633D01*
X031765Y001554D02*
X030129Y001554D01*
X030129Y001476D02*
X031765Y001476D01*
X031765Y001397D02*
X030129Y001397D01*
X030129Y001319D02*
X031765Y001319D01*
X031765Y001240D02*
X030129Y001240D01*
X030129Y001162D02*
X031765Y001162D01*
X031765Y001083D02*
X030129Y001083D01*
X030129Y001005D02*
X031761Y001005D01*
X031733Y000926D02*
X030129Y000926D01*
X030129Y000848D02*
X031666Y000848D01*
X030617Y001790D02*
X030129Y001790D01*
X030134Y001830D02*
X030134Y001830D01*
X030132Y001868D02*
X030438Y001868D01*
X030360Y001947D02*
X030129Y001947D01*
X030129Y002025D02*
X030281Y002025D01*
X030208Y002104D02*
X030129Y002104D01*
X030129Y002182D02*
X030175Y002182D01*
X030143Y002261D02*
X030129Y002261D01*
X030129Y002889D02*
X030151Y002889D01*
X030129Y002967D02*
X030183Y002967D01*
X030222Y003046D02*
X030129Y003046D01*
X030129Y003124D02*
X030300Y003124D01*
X030379Y003203D02*
X030129Y003203D01*
X030129Y003281D02*
X030474Y003281D01*
X030663Y003360D02*
X030129Y003360D01*
X028760Y003629D02*
X028756Y003631D01*
X028737Y003650D01*
X028723Y003672D01*
X028721Y003683D01*
X028713Y003688D01*
X028708Y003696D01*
X028696Y003699D01*
X028674Y003713D01*
X028656Y003731D01*
X028651Y003742D01*
X028642Y003745D01*
X028636Y003751D01*
X028624Y003751D01*
X028599Y003760D01*
X028577Y003774D01*
X028569Y003783D01*
X028560Y003784D01*
X028552Y003789D01*
X028541Y003786D01*
X028515Y003789D01*
X028490Y003798D01*
X028481Y003806D01*
X028472Y003805D01*
X028463Y003808D01*
X028452Y003802D01*
X028426Y003799D01*
X028400Y003802D01*
X028389Y003808D01*
X028381Y003805D01*
X028372Y003806D01*
X028362Y003798D01*
X028338Y003789D01*
X028312Y003786D01*
X028300Y003789D01*
X028292Y003784D01*
X028283Y003783D01*
X028276Y003774D01*
X028254Y003760D01*
X028229Y003751D01*
X028217Y003751D01*
X028210Y003745D01*
X028202Y003742D01*
X028197Y003731D01*
X028178Y003713D01*
X028156Y003699D01*
X028144Y003696D01*
X028139Y003688D01*
X028132Y003683D01*
X028129Y003672D01*
X028115Y003650D01*
X028097Y003631D01*
X028086Y003626D01*
X028083Y003617D01*
X028076Y003611D01*
X028076Y003599D01*
X028068Y003574D01*
X028054Y003552D01*
X028044Y003544D01*
X028043Y003535D01*
X028038Y003528D01*
X028041Y003516D01*
X028038Y003490D01*
X028036Y003483D01*
X028029Y003477D01*
X028029Y003465D01*
X028020Y003438D01*
X028029Y003419D01*
X028029Y003412D01*
X028022Y003347D01*
X028029Y003338D01*
X028029Y003260D01*
X025422Y003260D01*
X025422Y003338D01*
X025430Y003347D01*
X025422Y003412D01*
X025422Y003419D01*
X025432Y003438D01*
X025422Y003465D01*
X025422Y003477D01*
X025416Y003483D01*
X025413Y003490D01*
X025411Y003516D01*
X025413Y003528D01*
X025408Y003535D01*
X025407Y003544D01*
X025398Y003552D01*
X025384Y003574D01*
X025375Y003599D01*
X025375Y003611D01*
X025369Y003617D01*
X025366Y003626D01*
X025355Y003631D01*
X025337Y003650D01*
X025323Y003672D01*
X025320Y003683D01*
X025312Y003688D01*
X025307Y003696D01*
X025296Y003699D01*
X025293Y003700D01*
X025334Y003799D01*
X025334Y003879D01*
X025376Y003837D01*
X025444Y003787D01*
X025519Y003749D01*
X025599Y003723D01*
X025682Y003710D01*
X025684Y003710D01*
X025684Y004204D01*
X025190Y004204D01*
X025190Y004202D01*
X025203Y004119D01*
X025206Y004111D01*
X025204Y004113D01*
X025093Y004159D01*
X024974Y004159D01*
X024939Y004144D01*
X024939Y004273D01*
X024961Y004265D01*
X024971Y004257D01*
X024980Y004258D01*
X024989Y004255D01*
X025000Y004260D01*
X025025Y004263D01*
X025051Y004260D01*
X025062Y004255D01*
X025071Y004258D01*
X025080Y004257D01*
X025089Y004265D01*
X025114Y004273D01*
X025140Y004276D01*
X025152Y004274D01*
X025159Y004278D01*
X025169Y004279D01*
X025176Y004289D01*
X025192Y004299D01*
X025190Y004286D01*
X025190Y004284D01*
X025684Y004284D01*
X025684Y004777D01*
X025682Y004777D01*
X025599Y004764D01*
X025519Y004738D01*
X025444Y004700D01*
X025426Y004687D01*
X025430Y004716D01*
X025422Y004725D01*
X025422Y004834D01*
X025430Y004843D01*
X025422Y004908D01*
X025422Y004915D01*
X025432Y004934D01*
X025422Y004961D01*
X025422Y004973D01*
X025416Y004979D01*
X025413Y004986D01*
X025411Y005012D01*
X025413Y005024D01*
X025408Y005031D01*
X025407Y005041D01*
X025398Y005048D01*
X025384Y005070D01*
X025375Y005095D01*
X025375Y005107D01*
X025369Y005113D01*
X025366Y005122D01*
X025355Y005127D01*
X025337Y005146D01*
X025323Y005168D01*
X025320Y005179D01*
X025312Y005184D01*
X025307Y005192D01*
X025296Y005195D01*
X025274Y005209D01*
X025255Y005227D01*
X025250Y005238D01*
X025241Y005241D01*
X025235Y005247D01*
X025223Y005247D01*
X025198Y005256D01*
X025176Y005270D01*
X025169Y005279D01*
X025159Y005280D01*
X025152Y005285D01*
X025140Y005283D01*
X025114Y005285D01*
X025089Y005294D01*
X025080Y005302D01*
X025071Y005301D01*
X025062Y005304D01*
X025051Y005298D01*
X025025Y005295D01*
X025000Y005298D01*
X024989Y005304D01*
X024980Y005301D01*
X024971Y005302D01*
X024961Y005294D01*
X024937Y005285D01*
X024911Y005283D01*
X024899Y005285D01*
X024891Y005280D01*
X024882Y005279D01*
X024875Y005270D01*
X024853Y005256D01*
X024828Y005247D01*
X024816Y005247D01*
X024810Y005241D01*
X024801Y005238D01*
X024796Y005227D01*
X024777Y005209D01*
X024755Y005195D01*
X024743Y005192D01*
X024739Y005184D01*
X024731Y005179D01*
X024728Y005168D01*
X024714Y005146D01*
X024696Y005127D01*
X024690Y005124D01*
X024690Y005729D01*
X024702Y005803D01*
X024766Y005946D01*
X024876Y006058D01*
X025001Y006118D01*
X025031Y006048D01*
X025198Y005881D01*
X025416Y005790D01*
X025652Y005790D01*
X025870Y005881D01*
X026037Y006048D01*
X026102Y006204D01*
X026176Y006247D01*
X026176Y006247D01*
X026176Y006247D01*
X026227Y006335D01*
X026245Y006291D01*
X026341Y006195D01*
X026384Y006178D01*
X026384Y003738D01*
X026435Y003613D01*
X026532Y003516D01*
X026657Y003465D01*
X026792Y003465D01*
X026917Y003516D01*
X027013Y003612D01*
X027065Y003737D01*
X027065Y003872D01*
X027064Y003875D01*
X027064Y006170D01*
X027126Y006195D01*
X027222Y006291D01*
X027248Y006353D01*
X027254Y006347D01*
X027293Y006280D01*
X027293Y006280D01*
X027414Y006158D01*
X027481Y005998D01*
X027648Y005831D01*
X027866Y005740D01*
X028102Y005740D01*
X028320Y005831D01*
X028487Y005998D01*
X028504Y006040D01*
X028577Y006040D01*
X028605Y006033D01*
X028673Y005998D01*
X028725Y005942D01*
X028755Y005871D01*
X028760Y005835D01*
X028760Y005125D01*
X028756Y005127D01*
X028737Y005146D01*
X028723Y005168D01*
X028721Y005179D01*
X028713Y005184D01*
X028708Y005192D01*
X028696Y005195D01*
X028674Y005209D01*
X028656Y005227D01*
X028651Y005238D01*
X028642Y005241D01*
X028636Y005247D01*
X028624Y005247D01*
X028599Y005256D01*
X028577Y005270D01*
X028569Y005279D01*
X028560Y005280D01*
X028552Y005285D01*
X028541Y005283D01*
X028515Y005285D01*
X028490Y005294D01*
X028481Y005302D01*
X028472Y005301D01*
X028463Y005304D01*
X028452Y005298D01*
X028426Y005295D01*
X028400Y005298D01*
X028389Y005304D01*
X028381Y005301D01*
X028372Y005302D01*
X028362Y005294D01*
X028338Y005285D01*
X028312Y005283D01*
X028300Y005285D01*
X028292Y005280D01*
X028283Y005279D01*
X028276Y005270D01*
X028254Y005256D01*
X028229Y005247D01*
X028217Y005247D01*
X028210Y005241D01*
X028202Y005238D01*
X028197Y005227D01*
X028178Y005209D01*
X028156Y005195D01*
X028144Y005192D01*
X028139Y005184D01*
X028132Y005179D01*
X028129Y005168D01*
X028115Y005146D01*
X028097Y005127D01*
X028086Y005122D01*
X028083Y005113D01*
X028076Y005107D01*
X028076Y005095D01*
X028068Y005070D01*
X028054Y005048D01*
X028044Y005041D01*
X028043Y005031D01*
X028038Y005024D01*
X028041Y005012D01*
X028038Y004986D01*
X028036Y004979D01*
X028029Y004973D01*
X028029Y004961D01*
X028020Y004934D01*
X028029Y004915D01*
X028029Y004908D01*
X028022Y004843D01*
X028029Y004834D01*
X028029Y004725D01*
X028022Y004716D01*
X028026Y004684D01*
X028003Y004700D01*
X027929Y004738D01*
X027849Y004764D01*
X027766Y004777D01*
X027764Y004777D01*
X027764Y004284D01*
X027684Y004284D01*
X027684Y004777D01*
X027682Y004777D01*
X027599Y004764D01*
X027519Y004738D01*
X027444Y004700D01*
X027376Y004651D01*
X027317Y004591D01*
X027267Y004523D01*
X027229Y004449D01*
X027203Y004369D01*
X027190Y004286D01*
X027190Y004284D01*
X027684Y004284D01*
X027684Y004204D01*
X027190Y004204D01*
X027190Y004202D01*
X027203Y004119D01*
X027229Y004039D01*
X027267Y003964D01*
X027317Y003896D01*
X027376Y003837D01*
X027444Y003787D01*
X027519Y003749D01*
X027599Y003723D01*
X027682Y003710D01*
X027684Y003710D01*
X027684Y004204D01*
X027764Y004204D01*
X027764Y004284D01*
X028257Y004284D01*
X028257Y004286D01*
X028255Y004302D01*
X028276Y004289D01*
X028283Y004279D01*
X028292Y004278D01*
X028300Y004274D01*
X028312Y004276D01*
X028338Y004273D01*
X028362Y004265D01*
X028372Y004257D01*
X028381Y004258D01*
X028389Y004255D01*
X028400Y004260D01*
X028426Y004263D01*
X028452Y004260D01*
X028463Y004255D01*
X028472Y004258D01*
X028481Y004257D01*
X028490Y004265D01*
X028515Y004273D01*
X028541Y004276D01*
X028552Y004274D01*
X028560Y004278D01*
X028569Y004279D01*
X028577Y004289D01*
X028599Y004303D01*
X028624Y004311D01*
X028636Y004311D01*
X028642Y004318D01*
X028651Y004321D01*
X028656Y004332D01*
X028674Y004350D01*
X028696Y004364D01*
X028708Y004367D01*
X028713Y004374D01*
X028721Y004379D01*
X028723Y004391D01*
X028737Y004413D01*
X028756Y004432D01*
X028760Y004433D01*
X028760Y003629D01*
X028760Y003674D02*
X028723Y003674D01*
X028760Y003752D02*
X028621Y003752D01*
X028760Y003831D02*
X028063Y003831D01*
X028071Y003837D02*
X028131Y003896D01*
X028180Y003964D01*
X028218Y004039D01*
X028244Y004119D01*
X028257Y004202D01*
X028257Y004204D01*
X027764Y004204D01*
X027764Y003710D01*
X027766Y003710D01*
X027849Y003723D01*
X027929Y003749D01*
X028003Y003787D01*
X028071Y003837D01*
X028140Y003909D02*
X028760Y003909D01*
X028760Y003988D02*
X028192Y003988D01*
X028227Y004066D02*
X028760Y004066D01*
X028760Y004145D02*
X028248Y004145D01*
X028255Y004302D02*
X028255Y004302D01*
X028597Y004302D02*
X028760Y004302D01*
X028760Y004380D02*
X028721Y004380D01*
X028760Y004223D02*
X027764Y004223D01*
X027764Y004145D02*
X027684Y004145D01*
X027684Y004223D02*
X027064Y004223D01*
X027064Y004145D02*
X027199Y004145D01*
X027220Y004066D02*
X027064Y004066D01*
X027064Y003988D02*
X027255Y003988D01*
X027307Y003909D02*
X027064Y003909D01*
X027065Y003831D02*
X027384Y003831D01*
X027513Y003752D02*
X027065Y003752D01*
X027038Y003674D02*
X028129Y003674D01*
X028075Y003595D02*
X026996Y003595D01*
X026917Y003517D02*
X028041Y003517D01*
X028020Y003438D02*
X025432Y003438D01*
X025428Y003360D02*
X028024Y003360D01*
X028029Y003281D02*
X025422Y003281D01*
X025411Y003517D02*
X026532Y003517D01*
X026453Y003595D02*
X025377Y003595D01*
X025322Y003674D02*
X026410Y003674D01*
X026384Y003752D02*
X025935Y003752D01*
X025929Y003749D02*
X026003Y003787D01*
X026071Y003837D01*
X026131Y003896D01*
X026180Y003964D01*
X026218Y004039D01*
X026244Y004119D01*
X026257Y004202D01*
X026257Y004204D01*
X025764Y004204D01*
X025764Y004284D01*
X025684Y004284D01*
X025684Y004204D01*
X025764Y004204D01*
X025764Y003710D01*
X025766Y003710D01*
X025849Y003723D01*
X025929Y003749D01*
X026063Y003831D02*
X026384Y003831D01*
X026384Y003909D02*
X026140Y003909D01*
X026192Y003988D02*
X026384Y003988D01*
X026384Y004066D02*
X026227Y004066D01*
X026248Y004145D02*
X026384Y004145D01*
X026384Y004223D02*
X025764Y004223D01*
X025764Y004284D02*
X026257Y004284D01*
X026257Y004286D01*
X026244Y004369D01*
X026218Y004449D01*
X026180Y004523D01*
X026131Y004591D01*
X026071Y004651D01*
X026003Y004700D01*
X025929Y004738D01*
X025849Y004764D01*
X025766Y004777D01*
X025764Y004777D01*
X025764Y004284D01*
X025764Y004302D02*
X025684Y004302D01*
X025684Y004380D02*
X025764Y004380D01*
X025764Y004459D02*
X025684Y004459D01*
X025684Y004537D02*
X025764Y004537D01*
X025764Y004616D02*
X025684Y004616D01*
X025684Y004694D02*
X025764Y004694D01*
X025764Y004773D02*
X025684Y004773D01*
X025652Y004773D02*
X025422Y004773D01*
X025429Y004851D02*
X026384Y004851D01*
X026384Y004773D02*
X025795Y004773D01*
X026012Y004694D02*
X026384Y004694D01*
X026384Y004616D02*
X026106Y004616D01*
X026170Y004537D02*
X026384Y004537D01*
X026384Y004459D02*
X026213Y004459D01*
X026241Y004380D02*
X026384Y004380D01*
X026384Y004302D02*
X026255Y004302D01*
X025764Y004145D02*
X025684Y004145D01*
X025684Y004223D02*
X024939Y004223D01*
X024939Y004145D02*
X024940Y004145D01*
X025127Y004145D02*
X025199Y004145D01*
X025684Y004066D02*
X025764Y004066D01*
X025764Y003988D02*
X025684Y003988D01*
X025684Y003909D02*
X025764Y003909D01*
X025764Y003831D02*
X025684Y003831D01*
X025684Y003752D02*
X025764Y003752D01*
X025513Y003752D02*
X025314Y003752D01*
X025334Y003831D02*
X025384Y003831D01*
X025427Y004694D02*
X025436Y004694D01*
X025429Y004930D02*
X026384Y004930D01*
X026384Y005008D02*
X025411Y005008D01*
X025378Y005087D02*
X026384Y005087D01*
X026384Y005165D02*
X025324Y005165D01*
X025238Y005244D02*
X026384Y005244D01*
X026384Y005322D02*
X024690Y005322D01*
X024690Y005244D02*
X024812Y005244D01*
X024727Y005165D02*
X024690Y005165D01*
X024690Y005401D02*
X026384Y005401D01*
X026384Y005479D02*
X024690Y005479D01*
X024690Y005558D02*
X026384Y005558D01*
X026384Y005636D02*
X024690Y005636D01*
X024690Y005715D02*
X026384Y005715D01*
X026384Y005793D02*
X025659Y005793D01*
X025848Y005872D02*
X026384Y005872D01*
X026384Y005950D02*
X025939Y005950D01*
X026018Y006029D02*
X026384Y006029D01*
X026384Y006107D02*
X026061Y006107D01*
X026094Y006186D02*
X026365Y006186D01*
X026272Y006264D02*
X026186Y006264D01*
X027064Y006107D02*
X027435Y006107D01*
X027468Y006029D02*
X027064Y006029D01*
X027064Y005950D02*
X027528Y005950D01*
X027607Y005872D02*
X027064Y005872D01*
X027064Y005793D02*
X027738Y005793D01*
X028229Y005793D02*
X028760Y005793D01*
X028760Y005715D02*
X027064Y005715D01*
X027064Y005636D02*
X028760Y005636D01*
X028760Y005558D02*
X027064Y005558D01*
X027064Y005479D02*
X028760Y005479D01*
X028760Y005401D02*
X027064Y005401D01*
X027064Y005322D02*
X028760Y005322D01*
X028760Y005244D02*
X028639Y005244D01*
X028725Y005165D02*
X028760Y005165D01*
X028213Y005244D02*
X027064Y005244D01*
X027064Y005165D02*
X028127Y005165D01*
X028073Y005087D02*
X027064Y005087D01*
X027064Y005008D02*
X028041Y005008D01*
X028022Y004930D02*
X027064Y004930D01*
X027064Y004851D02*
X028023Y004851D01*
X028029Y004773D02*
X027795Y004773D01*
X027764Y004773D02*
X027684Y004773D01*
X027652Y004773D02*
X027064Y004773D01*
X027064Y004694D02*
X027436Y004694D01*
X027341Y004616D02*
X027064Y004616D01*
X027064Y004537D02*
X027277Y004537D01*
X027234Y004459D02*
X027064Y004459D01*
X027064Y004380D02*
X027207Y004380D01*
X027193Y004302D02*
X027064Y004302D01*
X027684Y004302D02*
X027764Y004302D01*
X027764Y004380D02*
X027684Y004380D01*
X027684Y004459D02*
X027764Y004459D01*
X027764Y004537D02*
X027684Y004537D01*
X027684Y004616D02*
X027764Y004616D01*
X027764Y004694D02*
X027684Y004694D01*
X028012Y004694D02*
X028025Y004694D01*
X027764Y004066D02*
X027684Y004066D01*
X027684Y003988D02*
X027764Y003988D01*
X027764Y003909D02*
X027684Y003909D01*
X027684Y003831D02*
X027764Y003831D01*
X027764Y003752D02*
X027684Y003752D01*
X027935Y003752D02*
X028231Y003752D01*
X028361Y005872D02*
X028754Y005872D01*
X028717Y005950D02*
X028439Y005950D01*
X028500Y006029D02*
X028614Y006029D01*
X027386Y006186D02*
X027103Y006186D01*
X027195Y006264D02*
X027308Y006264D01*
X027256Y006343D02*
X027243Y006343D01*
X025409Y005793D02*
X024700Y005793D01*
X024733Y005872D02*
X025219Y005872D01*
X025128Y005950D02*
X024771Y005950D01*
X024847Y006029D02*
X025050Y006029D01*
X025006Y006107D02*
X024978Y006107D01*
X022782Y006107D02*
X022174Y006107D01*
X022174Y006029D02*
X022782Y006029D01*
X022782Y005950D02*
X022174Y005950D01*
X022174Y005872D02*
X022782Y005872D01*
X022782Y005793D02*
X022174Y005793D01*
X022174Y005715D02*
X022782Y005715D01*
X022782Y005636D02*
X022174Y005636D01*
X022174Y005558D02*
X022782Y005558D01*
X022782Y005479D02*
X022174Y005479D01*
X022174Y005401D02*
X022782Y005401D01*
X022782Y005322D02*
X022174Y005322D01*
X022174Y005244D02*
X022782Y005244D01*
X022782Y005165D02*
X022174Y005165D01*
X022174Y005087D02*
X022782Y005087D01*
X022782Y005008D02*
X022174Y005008D01*
X022174Y004930D02*
X022782Y004930D01*
X022782Y004851D02*
X022174Y004851D01*
X022174Y004773D02*
X022782Y004773D01*
X022782Y004694D02*
X022174Y004694D01*
X022174Y004616D02*
X022782Y004616D01*
X022782Y004537D02*
X022174Y004537D01*
X022174Y004459D02*
X022782Y004459D01*
X022782Y004380D02*
X022174Y004380D01*
X022174Y004302D02*
X022782Y004302D01*
X022782Y004223D02*
X022174Y004223D01*
X022174Y004145D02*
X022175Y004145D01*
X022362Y004145D02*
X022782Y004145D01*
X021714Y004145D02*
X021624Y004145D01*
X021624Y004223D02*
X021714Y004223D01*
X021714Y004302D02*
X021624Y004302D01*
X021624Y004380D02*
X021714Y004380D01*
X021714Y004459D02*
X021624Y004459D01*
X021624Y004537D02*
X021714Y004537D01*
X021714Y004616D02*
X021624Y004616D01*
X021624Y004694D02*
X021714Y004694D01*
X021714Y004773D02*
X021624Y004773D01*
X021624Y004851D02*
X021714Y004851D01*
X021714Y004930D02*
X021624Y004930D01*
X021624Y005008D02*
X021714Y005008D01*
X021714Y005087D02*
X021624Y005087D01*
X021624Y005165D02*
X021714Y005165D01*
X021714Y005244D02*
X021624Y005244D01*
X021624Y005322D02*
X021714Y005322D01*
X021714Y005401D02*
X021624Y005401D01*
X021624Y005479D02*
X021714Y005479D01*
X021714Y005558D02*
X021624Y005558D01*
X021624Y005636D02*
X021714Y005636D01*
X021714Y005715D02*
X021624Y005715D01*
X021624Y005793D02*
X021714Y005793D01*
X021714Y005872D02*
X021624Y005872D01*
X021624Y005950D02*
X021714Y005950D01*
X021714Y006029D02*
X021624Y006029D01*
X021624Y006107D02*
X021714Y006107D01*
X021714Y006186D02*
X021624Y006186D01*
X021624Y006264D02*
X021714Y006264D01*
X021714Y006343D02*
X021624Y006343D01*
X021624Y006421D02*
X021714Y006421D01*
X021714Y006500D02*
X021624Y006500D01*
X021624Y006578D02*
X021714Y006578D01*
X021714Y006657D02*
X021624Y006657D01*
X021624Y006735D02*
X021714Y006735D01*
X021714Y006814D02*
X021624Y006814D01*
X021624Y006892D02*
X021714Y006892D01*
X021714Y006971D02*
X021624Y006971D01*
X021624Y007049D02*
X021714Y007049D01*
X021714Y007128D02*
X021624Y007128D01*
X021624Y007206D02*
X021714Y007206D01*
X021714Y007285D02*
X021624Y007285D01*
X021624Y007363D02*
X021714Y007363D01*
X021714Y007442D02*
X021624Y007442D01*
X021624Y007520D02*
X021714Y007520D01*
X021714Y007599D02*
X021624Y007599D01*
X021624Y007677D02*
X021714Y007677D01*
X021714Y007756D02*
X021624Y007756D01*
X021624Y007834D02*
X021714Y007834D01*
X021714Y007913D02*
X021624Y007913D01*
X021624Y007991D02*
X021714Y007991D01*
X021714Y008070D02*
X021624Y008070D01*
X021624Y008148D02*
X021714Y008148D01*
X021714Y008227D02*
X021624Y008227D01*
X021624Y008305D02*
X021714Y008305D01*
X021714Y008384D02*
X021624Y008384D01*
X021624Y008462D02*
X021714Y008462D01*
X021714Y008541D02*
X021624Y008541D01*
X021624Y008619D02*
X021714Y008619D01*
X021714Y008698D02*
X021624Y008698D01*
X021624Y008776D02*
X021714Y008776D01*
X021714Y008774D02*
X021714Y002535D01*
X021703Y002382D01*
X021622Y002086D01*
X021467Y001821D01*
X021381Y001736D01*
X021550Y002010D01*
X021637Y002367D01*
X021637Y002367D01*
X021624Y002542D01*
X021624Y008887D01*
X021534Y009104D01*
X021368Y009270D01*
X021151Y009359D01*
X020828Y009359D01*
X020804Y009384D01*
X020749Y009407D01*
X020804Y009429D01*
X020828Y009454D01*
X021034Y009454D01*
X021140Y009445D01*
X021342Y009380D01*
X021515Y009255D01*
X021640Y009082D01*
X021705Y008880D01*
X021714Y008774D01*
X021707Y008855D02*
X021624Y008855D01*
X021604Y008933D02*
X021688Y008933D01*
X021663Y009012D02*
X021572Y009012D01*
X021539Y009090D02*
X021634Y009090D01*
X021577Y009169D02*
X021469Y009169D01*
X021534Y009104D02*
X021534Y009104D01*
X021520Y009247D02*
X021390Y009247D01*
X021368Y009270D02*
X021368Y009270D01*
X021368Y009270D01*
X021417Y009326D02*
X021232Y009326D01*
X021267Y009404D02*
X020754Y009404D01*
X020828Y008899D02*
X021034Y008899D01*
X021059Y008897D01*
X021106Y008877D01*
X021142Y008842D01*
X021161Y008795D01*
X021164Y008769D01*
X021164Y004144D01*
X021128Y004159D01*
X021009Y004159D01*
X020899Y004113D01*
X020874Y004089D01*
X020556Y004089D01*
X020556Y008837D01*
X020574Y008829D01*
X020693Y008829D01*
X020804Y008875D01*
X020828Y008899D01*
X020755Y008855D02*
X021129Y008855D01*
X021163Y008776D02*
X020556Y008776D01*
X020556Y008698D02*
X021164Y008698D01*
X021164Y008619D02*
X020556Y008619D01*
X020556Y008541D02*
X021164Y008541D01*
X021164Y008462D02*
X020556Y008462D01*
X020556Y008384D02*
X021164Y008384D01*
X021164Y008305D02*
X020556Y008305D01*
X020556Y008227D02*
X021164Y008227D01*
X021164Y008148D02*
X020556Y008148D01*
X020556Y008070D02*
X021164Y008070D01*
X021164Y007991D02*
X020556Y007991D01*
X020556Y007913D02*
X021164Y007913D01*
X021164Y007834D02*
X020556Y007834D01*
X020556Y007756D02*
X021164Y007756D01*
X021164Y007677D02*
X020556Y007677D01*
X020556Y007599D02*
X021164Y007599D01*
X021164Y007520D02*
X020556Y007520D01*
X020556Y007442D02*
X021164Y007442D01*
X021164Y007363D02*
X020556Y007363D01*
X020556Y007285D02*
X021164Y007285D01*
X021164Y007206D02*
X020556Y007206D01*
X020556Y007128D02*
X021164Y007128D01*
X021164Y007049D02*
X020556Y007049D01*
X020556Y006971D02*
X021164Y006971D01*
X021164Y006892D02*
X020556Y006892D01*
X020556Y006814D02*
X021164Y006814D01*
X021164Y006735D02*
X020556Y006735D01*
X020556Y006657D02*
X021164Y006657D01*
X021164Y006578D02*
X020556Y006578D01*
X020556Y006500D02*
X021164Y006500D01*
X021164Y006421D02*
X020556Y006421D01*
X020556Y006343D02*
X021164Y006343D01*
X021164Y006264D02*
X020556Y006264D01*
X020556Y006186D02*
X021164Y006186D01*
X021164Y006107D02*
X020556Y006107D01*
X020556Y006029D02*
X021164Y006029D01*
X021164Y005950D02*
X020556Y005950D01*
X020556Y005872D02*
X021164Y005872D01*
X021164Y005793D02*
X020556Y005793D01*
X020556Y005715D02*
X021164Y005715D01*
X021164Y005636D02*
X020556Y005636D01*
X020556Y005558D02*
X021164Y005558D01*
X021164Y005479D02*
X020556Y005479D01*
X020556Y005401D02*
X021164Y005401D01*
X021164Y005322D02*
X020556Y005322D01*
X020556Y005244D02*
X021164Y005244D01*
X021164Y005165D02*
X020556Y005165D01*
X020556Y005087D02*
X021164Y005087D01*
X021164Y005008D02*
X020556Y005008D01*
X020556Y004930D02*
X021164Y004930D01*
X021164Y004851D02*
X020556Y004851D01*
X020556Y004773D02*
X021164Y004773D01*
X021164Y004694D02*
X020556Y004694D01*
X020556Y004616D02*
X021164Y004616D01*
X021164Y004537D02*
X020556Y004537D01*
X020556Y004459D02*
X021164Y004459D01*
X021164Y004380D02*
X020556Y004380D01*
X020556Y004302D02*
X021164Y004302D01*
X021164Y004223D02*
X020556Y004223D01*
X020556Y004145D02*
X020975Y004145D01*
X021162Y004145D02*
X021164Y004145D01*
X021624Y004066D02*
X021714Y004066D01*
X021714Y003988D02*
X021624Y003988D01*
X021624Y003909D02*
X021714Y003909D01*
X021714Y003831D02*
X021624Y003831D01*
X021624Y003752D02*
X021714Y003752D01*
X021714Y003674D02*
X021624Y003674D01*
X021624Y003595D02*
X021714Y003595D01*
X021714Y003517D02*
X021624Y003517D01*
X021624Y003438D02*
X021714Y003438D01*
X021714Y003360D02*
X021624Y003360D01*
X021624Y003281D02*
X021714Y003281D01*
X021714Y003203D02*
X021624Y003203D01*
X021624Y003124D02*
X021714Y003124D01*
X021714Y003046D02*
X021624Y003046D01*
X021624Y002967D02*
X021714Y002967D01*
X021714Y002889D02*
X021624Y002889D01*
X021624Y002810D02*
X021714Y002810D01*
X021714Y002732D02*
X021624Y002732D01*
X021624Y002653D02*
X021714Y002653D01*
X021714Y002575D02*
X021624Y002575D01*
X021627Y002496D02*
X021711Y002496D01*
X021705Y002418D02*
X021633Y002418D01*
X021630Y002339D02*
X021691Y002339D01*
X021669Y002261D02*
X021611Y002261D01*
X021592Y002182D02*
X021648Y002182D01*
X021626Y002104D02*
X021573Y002104D01*
X021586Y002025D02*
X021554Y002025D01*
X021550Y002010D02*
X021550Y002010D01*
X021540Y001947D02*
X021511Y001947D01*
X021494Y001868D02*
X021462Y001868D01*
X021435Y001790D02*
X021414Y001790D01*
X018085Y003164D02*
X015480Y003164D01*
X015487Y003220D01*
X015479Y003229D01*
X015479Y003338D01*
X015487Y003347D01*
X015479Y003412D01*
X015479Y003419D01*
X015489Y003438D01*
X015479Y003465D01*
X015479Y003477D01*
X015473Y003483D01*
X015470Y003490D01*
X015468Y003516D01*
X015470Y003528D01*
X015465Y003535D01*
X015464Y003544D01*
X015455Y003552D01*
X015441Y003574D01*
X015432Y003599D01*
X015432Y003611D01*
X015426Y003617D01*
X015423Y003626D01*
X015412Y003631D01*
X015394Y003650D01*
X015380Y003672D01*
X015377Y003683D01*
X015369Y003688D01*
X015364Y003696D01*
X015353Y003699D01*
X015331Y003713D01*
X015312Y003731D01*
X015307Y003742D01*
X015298Y003745D01*
X015292Y003751D01*
X015280Y003751D01*
X015255Y003760D01*
X015233Y003774D01*
X015226Y003783D01*
X015216Y003784D01*
X015209Y003789D01*
X015197Y003786D01*
X015171Y003789D01*
X015146Y003798D01*
X015137Y003806D01*
X015128Y003805D01*
X015119Y003808D01*
X015108Y003802D01*
X015082Y003799D01*
X015057Y003802D01*
X015046Y003808D01*
X015037Y003805D01*
X015028Y003806D01*
X015019Y003798D01*
X014994Y003789D01*
X014968Y003786D01*
X014956Y003789D01*
X014948Y003784D01*
X014939Y003783D01*
X014932Y003774D01*
X014910Y003760D01*
X014885Y003751D01*
X014873Y003751D01*
X014867Y003745D01*
X014858Y003742D01*
X014853Y003731D01*
X014834Y003713D01*
X014812Y003699D01*
X014800Y003696D01*
X014796Y003688D01*
X014788Y003683D01*
X014785Y003672D01*
X014771Y003650D01*
X014753Y003631D01*
X014742Y003626D01*
X014739Y003617D01*
X014732Y003611D01*
X014732Y003599D01*
X014724Y003574D01*
X014710Y003552D01*
X014701Y003544D01*
X014700Y003535D01*
X014695Y003528D01*
X014697Y003516D01*
X014694Y003490D01*
X014692Y003483D01*
X014686Y003477D01*
X014686Y003465D01*
X014676Y003438D01*
X014686Y003419D01*
X014686Y003412D01*
X014678Y003347D01*
X014686Y003338D01*
X014686Y003229D01*
X014678Y003220D01*
X014685Y003164D01*
X014214Y003164D01*
X014214Y005507D01*
X014216Y005512D01*
X014214Y005560D01*
X014214Y005568D01*
X014215Y005588D01*
X014231Y005632D01*
X014263Y005667D01*
X014290Y005679D01*
X014316Y005618D01*
X014483Y005451D01*
X014701Y005361D01*
X014937Y005361D01*
X015155Y005451D01*
X015322Y005618D01*
X015393Y005791D01*
X015463Y005861D01*
X015477Y005884D01*
X015479Y005880D01*
X015580Y005779D01*
X015712Y005724D01*
X016255Y005724D01*
X016388Y005779D01*
X016489Y005880D01*
X016498Y005903D01*
X016504Y005897D01*
X016525Y005861D01*
X016625Y005760D01*
X016656Y005743D01*
X016656Y005742D01*
X016695Y005664D01*
X016747Y005594D01*
X016808Y005532D01*
X016879Y005481D01*
X016956Y005442D01*
X017039Y005415D01*
X017125Y005401D01*
X017129Y005401D01*
X017129Y005690D01*
X017209Y005690D01*
X017209Y005401D01*
X017212Y005401D01*
X017298Y005415D01*
X017381Y005442D01*
X017459Y005481D01*
X017529Y005532D01*
X017591Y005594D01*
X017642Y005664D01*
X017655Y005690D01*
X017711Y005690D01*
X017724Y005686D01*
X017764Y005690D01*
X017804Y005690D01*
X017808Y005691D01*
X017902Y005693D01*
X018146Y005639D01*
X018362Y005512D01*
X018527Y005325D01*
X018538Y005302D01*
X018529Y005301D01*
X018520Y005304D01*
X018509Y005298D01*
X018483Y005295D01*
X018457Y005298D01*
X018446Y005304D01*
X018438Y005301D01*
X018429Y005302D01*
X018419Y005294D01*
X018395Y005285D01*
X018369Y005283D01*
X018357Y005285D01*
X018349Y005280D01*
X018340Y005279D01*
X018333Y005270D01*
X018311Y005256D01*
X018286Y005247D01*
X018274Y005247D01*
X018267Y005241D01*
X018259Y005238D01*
X018254Y005227D01*
X018235Y005209D01*
X018213Y005195D01*
X018201Y005192D01*
X018196Y005184D01*
X018189Y005179D01*
X018186Y005168D01*
X018172Y005146D01*
X018154Y005127D01*
X018143Y005122D01*
X018140Y005113D01*
X018133Y005107D01*
X018133Y005095D01*
X018125Y005070D01*
X018111Y005048D01*
X018101Y005041D01*
X018100Y005031D01*
X018095Y005024D01*
X018098Y005012D01*
X018095Y004986D01*
X018093Y004979D01*
X018086Y004973D01*
X018086Y004961D01*
X018077Y004934D01*
X018086Y004915D01*
X018086Y004908D01*
X018079Y004843D01*
X018086Y004834D01*
X018086Y004725D01*
X018079Y004716D01*
X018086Y004651D01*
X018086Y004644D01*
X018077Y004624D01*
X018086Y004598D01*
X018086Y004586D01*
X018093Y004579D01*
X018095Y004573D01*
X018098Y004547D01*
X018095Y004535D01*
X018100Y004527D01*
X018101Y004518D01*
X018111Y004511D01*
X018125Y004489D01*
X018133Y004464D01*
X018133Y004452D01*
X018140Y004445D01*
X018143Y004437D01*
X018154Y004432D01*
X018172Y004413D01*
X018186Y004391D01*
X018189Y004379D01*
X018196Y004374D01*
X018201Y004367D01*
X018213Y004364D01*
X018235Y004350D01*
X018254Y004332D01*
X018259Y004321D01*
X018267Y004318D01*
X018274Y004311D01*
X018286Y004311D01*
X018311Y004303D01*
X018333Y004289D01*
X018340Y004279D01*
X018349Y004278D01*
X018357Y004274D01*
X018369Y004276D01*
X018395Y004273D01*
X018419Y004265D01*
X018429Y004257D01*
X018438Y004258D01*
X018446Y004255D01*
X018457Y004260D01*
X018483Y004263D01*
X018509Y004260D01*
X018520Y004255D01*
X018529Y004258D01*
X018538Y004257D01*
X018547Y004265D01*
X018572Y004273D01*
X018579Y004274D01*
X018579Y004144D01*
X018543Y004159D01*
X018424Y004159D01*
X018314Y004113D01*
X018229Y004029D01*
X018184Y003918D01*
X018184Y003799D01*
X018223Y003705D01*
X018213Y003699D01*
X018201Y003696D01*
X018196Y003688D01*
X018189Y003683D01*
X018186Y003672D01*
X018172Y003650D01*
X018154Y003631D01*
X018143Y003626D01*
X018140Y003617D01*
X018133Y003611D01*
X018133Y003599D01*
X018125Y003574D01*
X018111Y003552D01*
X018101Y003544D01*
X018100Y003535D01*
X018095Y003528D01*
X018098Y003516D01*
X018095Y003490D01*
X018093Y003483D01*
X018086Y003477D01*
X018086Y003465D01*
X018077Y003438D01*
X018086Y003419D01*
X018086Y003412D01*
X018079Y003347D01*
X018086Y003338D01*
X018086Y003229D01*
X018079Y003220D01*
X018085Y003164D01*
X018081Y003203D02*
X015485Y003203D01*
X015479Y003281D02*
X016949Y003281D01*
X017039Y003244D02*
X017307Y003244D01*
X017554Y003346D01*
X017743Y003535D01*
X017845Y003782D01*
X017845Y004050D01*
X017743Y004297D01*
X017554Y004486D01*
X017307Y004588D01*
X017039Y004588D01*
X016792Y004486D01*
X016603Y004297D01*
X016501Y004050D01*
X016501Y003782D01*
X016603Y003535D01*
X016792Y003346D01*
X017039Y003244D01*
X016779Y003360D02*
X015485Y003360D01*
X015489Y003438D02*
X016700Y003438D01*
X016622Y003517D02*
X015468Y003517D01*
X015434Y003595D02*
X016578Y003595D01*
X016546Y003674D02*
X015379Y003674D01*
X015277Y003752D02*
X016513Y003752D01*
X016501Y003831D02*
X014214Y003831D01*
X014214Y003909D02*
X016501Y003909D01*
X016501Y003988D02*
X014214Y003988D01*
X014214Y004066D02*
X016508Y004066D01*
X016540Y004145D02*
X014214Y004145D01*
X014214Y004223D02*
X016573Y004223D01*
X016608Y004302D02*
X015254Y004302D01*
X015255Y004303D02*
X015280Y004311D01*
X015292Y004311D01*
X015298Y004318D01*
X015307Y004321D01*
X015312Y004332D01*
X015331Y004350D01*
X015353Y004364D01*
X015364Y004367D01*
X015369Y004374D01*
X015377Y004379D01*
X015380Y004391D01*
X015394Y004413D01*
X015412Y004432D01*
X015423Y004437D01*
X015426Y004445D01*
X015432Y004452D01*
X015432Y004464D01*
X015441Y004489D01*
X015455Y004511D01*
X015464Y004518D01*
X015465Y004527D01*
X015470Y004535D01*
X015468Y004547D01*
X015470Y004573D01*
X015473Y004579D01*
X015479Y004586D01*
X015479Y004598D01*
X015489Y004624D01*
X015479Y004644D01*
X015479Y004651D01*
X015487Y004716D01*
X015479Y004725D01*
X015479Y004834D01*
X015487Y004843D01*
X015479Y004908D01*
X015479Y004915D01*
X015489Y004934D01*
X015479Y004961D01*
X015479Y004973D01*
X015473Y004979D01*
X015470Y004986D01*
X015468Y005012D01*
X015470Y005024D01*
X015465Y005031D01*
X015464Y005041D01*
X015455Y005048D01*
X015441Y005070D01*
X015432Y005095D01*
X015432Y005107D01*
X015426Y005113D01*
X015423Y005122D01*
X015412Y005127D01*
X015394Y005146D01*
X015380Y005168D01*
X015377Y005179D01*
X015369Y005184D01*
X015364Y005192D01*
X015353Y005195D01*
X015331Y005209D01*
X015312Y005227D01*
X015307Y005238D01*
X015298Y005241D01*
X015292Y005247D01*
X015280Y005247D01*
X015255Y005256D01*
X015233Y005270D01*
X015226Y005279D01*
X015216Y005280D01*
X015209Y005285D01*
X015197Y005283D01*
X015171Y005285D01*
X015146Y005294D01*
X015137Y005302D01*
X015128Y005301D01*
X015119Y005304D01*
X015108Y005298D01*
X015082Y005295D01*
X015057Y005298D01*
X015046Y005304D01*
X015037Y005301D01*
X015028Y005302D01*
X015018Y005294D01*
X014994Y005285D01*
X014968Y005283D01*
X014956Y005285D01*
X014948Y005280D01*
X014939Y005279D01*
X014932Y005270D01*
X014910Y005256D01*
X014885Y005247D01*
X014873Y005247D01*
X014867Y005241D01*
X014858Y005238D01*
X014853Y005227D01*
X014834Y005209D01*
X014812Y005195D01*
X014800Y005192D01*
X014796Y005184D01*
X014788Y005179D01*
X014785Y005168D01*
X014771Y005146D01*
X014753Y005127D01*
X014742Y005122D01*
X014739Y005113D01*
X014732Y005107D01*
X014732Y005095D01*
X014724Y005070D01*
X014710Y005048D01*
X014701Y005041D01*
X014700Y005031D01*
X014695Y005024D01*
X014697Y005012D01*
X014694Y004986D01*
X014692Y004979D01*
X014686Y004973D01*
X014686Y004961D01*
X014676Y004934D01*
X014686Y004915D01*
X014686Y004908D01*
X014678Y004843D01*
X014686Y004834D01*
X014686Y004725D01*
X014678Y004716D01*
X014686Y004651D01*
X014686Y004644D01*
X014676Y004624D01*
X014686Y004598D01*
X014686Y004586D01*
X014692Y004579D01*
X014694Y004573D01*
X014697Y004547D01*
X014695Y004535D01*
X014700Y004527D01*
X014701Y004518D01*
X014710Y004511D01*
X014724Y004489D01*
X014732Y004464D01*
X014732Y004452D01*
X014739Y004445D01*
X014742Y004437D01*
X014753Y004432D01*
X014771Y004413D01*
X014785Y004391D01*
X014788Y004379D01*
X014796Y004374D01*
X014800Y004367D01*
X014812Y004364D01*
X014834Y004350D01*
X014853Y004332D01*
X014858Y004321D01*
X014867Y004318D01*
X014873Y004311D01*
X014885Y004311D01*
X014910Y004303D01*
X014932Y004289D01*
X014939Y004279D01*
X014948Y004278D01*
X014956Y004274D01*
X014968Y004276D01*
X014994Y004273D01*
X015018Y004265D01*
X015028Y004257D01*
X015037Y004258D01*
X015046Y004255D01*
X015057Y004260D01*
X015082Y004263D01*
X015108Y004260D01*
X015119Y004255D01*
X015128Y004258D01*
X015137Y004257D01*
X015146Y004265D01*
X015171Y004273D01*
X015197Y004276D01*
X015209Y004274D01*
X015216Y004278D01*
X015226Y004279D01*
X015233Y004289D01*
X015255Y004303D01*
X015377Y004380D02*
X016686Y004380D01*
X016765Y004459D02*
X015432Y004459D01*
X015470Y004537D02*
X016916Y004537D01*
X017429Y004537D02*
X018096Y004537D01*
X018080Y004616D02*
X015485Y004616D01*
X015484Y004694D02*
X018082Y004694D01*
X018086Y004773D02*
X015479Y004773D01*
X015486Y004851D02*
X018080Y004851D01*
X018079Y004930D02*
X015486Y004930D01*
X015468Y005008D02*
X018098Y005008D01*
X018130Y005087D02*
X015435Y005087D01*
X015381Y005165D02*
X018184Y005165D01*
X018270Y005244D02*
X015295Y005244D01*
X015032Y005401D02*
X018460Y005401D01*
X018391Y005479D02*
X017455Y005479D01*
X017555Y005558D02*
X018284Y005558D01*
X018151Y005636D02*
X017621Y005636D01*
X017209Y005636D02*
X017129Y005636D01*
X017129Y005558D02*
X017209Y005558D01*
X017209Y005479D02*
X017129Y005479D01*
X016883Y005479D02*
X015183Y005479D01*
X015261Y005558D02*
X016783Y005558D01*
X016716Y005636D02*
X015329Y005636D01*
X015362Y005715D02*
X016670Y005715D01*
X016625Y005760D02*
X016625Y005760D01*
X016592Y005793D02*
X016402Y005793D01*
X016481Y005872D02*
X016518Y005872D01*
X016525Y005861D02*
X016525Y005861D01*
X015565Y005793D02*
X015395Y005793D01*
X015463Y005861D02*
X015463Y005861D01*
X015469Y005872D02*
X015487Y005872D01*
X014605Y005401D02*
X014214Y005401D01*
X014214Y005479D02*
X014455Y005479D01*
X014376Y005558D02*
X014214Y005558D01*
X014235Y005636D02*
X014308Y005636D01*
X014214Y005322D02*
X018529Y005322D01*
X018133Y004459D02*
X017581Y004459D01*
X017659Y004380D02*
X018188Y004380D01*
X018312Y004302D02*
X017738Y004302D01*
X017773Y004223D02*
X018579Y004223D01*
X018577Y004145D02*
X018579Y004145D01*
X018390Y004145D02*
X017806Y004145D01*
X017838Y004066D02*
X018267Y004066D01*
X018212Y003988D02*
X017845Y003988D01*
X017845Y003909D02*
X018184Y003909D01*
X018184Y003831D02*
X017845Y003831D01*
X017832Y003752D02*
X018203Y003752D01*
X018186Y003674D02*
X017800Y003674D01*
X017767Y003595D02*
X018132Y003595D01*
X018098Y003517D02*
X017724Y003517D01*
X017646Y003438D02*
X018077Y003438D01*
X018081Y003360D02*
X017567Y003360D01*
X017397Y003281D02*
X018086Y003281D01*
X014888Y003752D02*
X014214Y003752D01*
X014214Y003674D02*
X014786Y003674D01*
X014731Y003595D02*
X014214Y003595D01*
X014214Y003517D02*
X014697Y003517D01*
X014676Y003438D02*
X014214Y003438D01*
X014214Y003360D02*
X014680Y003360D01*
X014686Y003281D02*
X014214Y003281D01*
X014214Y003203D02*
X014680Y003203D01*
X014911Y004302D02*
X014214Y004302D01*
X014214Y004380D02*
X014788Y004380D01*
X014732Y004459D02*
X014214Y004459D01*
X014214Y004537D02*
X014695Y004537D01*
X014679Y004616D02*
X014214Y004616D01*
X014214Y004694D02*
X014681Y004694D01*
X014686Y004773D02*
X014214Y004773D01*
X014214Y004851D02*
X014679Y004851D01*
X014679Y004930D02*
X014214Y004930D01*
X014214Y005008D02*
X014697Y005008D01*
X014730Y005087D02*
X014214Y005087D01*
X014214Y005165D02*
X014784Y005165D01*
X014869Y005244D02*
X014214Y005244D01*
X011715Y005244D02*
X011702Y005244D01*
X011715Y005230D02*
X011675Y005270D01*
X011486Y005348D01*
X011281Y005348D01*
X011092Y005270D01*
X010947Y005125D01*
X010880Y004964D01*
X009788Y004964D01*
X009654Y004829D01*
X009138Y004314D01*
X006904Y004314D01*
X006895Y004315D01*
X006879Y004321D01*
X006867Y004333D01*
X006862Y004347D01*
X006888Y004374D01*
X006934Y004484D01*
X006934Y004603D01*
X006888Y004714D01*
X006804Y004798D01*
X006693Y004844D01*
X006574Y004844D01*
X006464Y004798D01*
X006379Y004714D01*
X006334Y004603D01*
X006334Y004484D01*
X006379Y004374D01*
X006400Y004353D01*
X006400Y004257D01*
X006477Y004072D01*
X006618Y003930D01*
X006618Y003930D01*
X006659Y003914D01*
X005194Y003914D01*
X005412Y004132D01*
X005534Y004425D01*
X005534Y005658D01*
X005634Y005558D01*
X005534Y005558D01*
X005534Y005636D02*
X005556Y005636D01*
X005634Y005558D02*
X005634Y005524D01*
X005679Y005414D01*
X005764Y005329D01*
X005792Y005318D01*
X005704Y005229D01*
X005704Y004551D01*
X005679Y004527D01*
X005634Y004417D01*
X005634Y004297D01*
X005679Y004187D01*
X005764Y004103D01*
X005874Y004057D01*
X005993Y004057D01*
X006104Y004103D01*
X006188Y004187D01*
X006234Y004297D01*
X006234Y004417D01*
X006188Y004527D01*
X006164Y004551D01*
X006164Y005038D01*
X006464Y005338D01*
X006464Y005628D01*
X007304Y004788D01*
X007438Y004654D01*
X008989Y004654D01*
X009014Y004629D01*
X009124Y004584D01*
X009243Y004584D01*
X009354Y004629D01*
X009438Y004714D01*
X009484Y004824D01*
X009484Y004943D01*
X009438Y005054D01*
X009354Y005138D01*
X009243Y005184D01*
X009124Y005184D01*
X009014Y005138D01*
X008989Y005114D01*
X007629Y005114D01*
X006314Y006429D01*
X006314Y007529D01*
X006179Y007664D01*
X006044Y007799D01*
X006044Y008105D01*
X006068Y008129D01*
X006114Y008239D01*
X006114Y008359D01*
X006103Y008384D01*
X008096Y008384D01*
X008168Y008354D01*
X008599Y008354D01*
X008721Y008404D01*
X008813Y008497D01*
X008864Y008618D01*
X008864Y008749D01*
X008813Y008871D01*
X008721Y008963D01*
X008599Y009014D01*
X008168Y009014D01*
X008096Y008984D01*
X006234Y008984D01*
X006234Y009132D01*
X006105Y009399D01*
X006105Y009399D01*
X005873Y009584D01*
X005584Y009650D01*
X005394Y009607D01*
X005394Y009684D01*
X005443Y009684D01*
X005554Y009729D01*
X005638Y009814D01*
X005684Y009924D01*
X005684Y010043D01*
X005638Y010154D01*
X005554Y010238D01*
X005443Y010284D01*
X005324Y010284D01*
X005214Y010238D01*
X005129Y010154D01*
X005120Y010131D01*
X005054Y010093D01*
X004934Y009884D01*
X004934Y008944D01*
X004926Y008860D01*
X004934Y008850D01*
X004934Y008339D01*
X004823Y008449D01*
X004600Y008541D01*
X004360Y008541D01*
X004145Y008453D01*
X004145Y010227D01*
X005240Y011321D01*
X011680Y011321D01*
X011687Y011321D01*
X011700Y011316D01*
X011709Y011306D01*
X011714Y011293D01*
X011715Y011286D01*
X011715Y008453D01*
X011500Y008541D01*
X011260Y008541D01*
X011037Y008449D01*
X010867Y008279D01*
X010775Y008057D01*
X010775Y007816D01*
X010867Y007594D01*
X011037Y007424D01*
X011260Y007331D01*
X011500Y007331D01*
X011715Y007420D01*
X011715Y006391D01*
X011676Y006420D01*
X011597Y006460D01*
X011512Y006488D01*
X011425Y006501D01*
X011420Y006501D01*
X011420Y005976D01*
X011340Y005976D01*
X011340Y005896D01*
X011420Y005896D01*
X011420Y005371D01*
X011425Y005371D01*
X011512Y005385D01*
X011597Y005413D01*
X011676Y005453D01*
X011715Y005481D01*
X011715Y005230D01*
X011715Y005322D02*
X011549Y005322D01*
X011560Y005401D02*
X011715Y005401D01*
X011712Y005479D02*
X011715Y005479D01*
X011420Y005479D02*
X011340Y005479D01*
X011340Y005401D02*
X011420Y005401D01*
X011340Y005371D02*
X011340Y005896D01*
X010815Y005896D01*
X010815Y005892D01*
X010829Y005804D01*
X010857Y005720D01*
X010897Y005640D01*
X010949Y005568D01*
X011012Y005505D01*
X011084Y005453D01*
X011163Y005413D01*
X011248Y005385D01*
X011336Y005371D01*
X011340Y005371D01*
X011218Y005322D02*
X007420Y005322D01*
X007342Y005401D02*
X011201Y005401D01*
X011048Y005479D02*
X007263Y005479D01*
X007185Y005558D02*
X010960Y005558D01*
X010900Y005636D02*
X007106Y005636D01*
X007028Y005715D02*
X010859Y005715D01*
X010833Y005793D02*
X006949Y005793D01*
X006871Y005872D02*
X010818Y005872D01*
X010815Y005976D02*
X011340Y005976D01*
X011340Y006501D01*
X011336Y006501D01*
X011248Y006488D01*
X011163Y006460D01*
X011084Y006420D01*
X011012Y006367D01*
X010949Y006305D01*
X010897Y006233D01*
X010857Y006153D01*
X010829Y006069D01*
X010815Y005981D01*
X010815Y005976D01*
X010823Y006029D02*
X006714Y006029D01*
X006635Y006107D02*
X010842Y006107D01*
X010873Y006186D02*
X006557Y006186D01*
X006478Y006264D02*
X010920Y006264D01*
X010987Y006343D02*
X006400Y006343D01*
X006321Y006421D02*
X011087Y006421D01*
X011325Y006500D02*
X006314Y006500D01*
X006314Y006578D02*
X011715Y006578D01*
X011715Y006500D02*
X011436Y006500D01*
X011420Y006500D02*
X011340Y006500D01*
X011340Y006421D02*
X011420Y006421D01*
X011420Y006343D02*
X011340Y006343D01*
X011340Y006264D02*
X011420Y006264D01*
X011420Y006186D02*
X011340Y006186D01*
X011340Y006107D02*
X011420Y006107D01*
X011420Y006029D02*
X011340Y006029D01*
X011340Y005950D02*
X006792Y005950D01*
X006534Y005558D02*
X006464Y005558D01*
X006464Y005479D02*
X006613Y005479D01*
X006691Y005401D02*
X006464Y005401D01*
X006447Y005322D02*
X006770Y005322D01*
X006848Y005244D02*
X006369Y005244D01*
X006290Y005165D02*
X006927Y005165D01*
X007005Y005087D02*
X006212Y005087D01*
X006164Y005008D02*
X007084Y005008D01*
X007162Y004930D02*
X006164Y004930D01*
X006164Y004851D02*
X007241Y004851D01*
X007319Y004773D02*
X006829Y004773D01*
X006896Y004694D02*
X007398Y004694D01*
X006929Y004616D02*
X009047Y004616D01*
X009321Y004616D02*
X009440Y004616D01*
X009418Y004694D02*
X009519Y004694D01*
X009462Y004773D02*
X009597Y004773D01*
X009654Y004829D02*
X009654Y004829D01*
X009676Y004851D02*
X009484Y004851D01*
X009484Y004930D02*
X009754Y004930D01*
X009457Y005008D02*
X010899Y005008D01*
X010931Y005087D02*
X009405Y005087D01*
X009288Y005165D02*
X010987Y005165D01*
X011066Y005244D02*
X007499Y005244D01*
X007577Y005165D02*
X009079Y005165D01*
X009362Y004537D02*
X006934Y004537D01*
X006923Y004459D02*
X009283Y004459D01*
X009205Y004380D02*
X006891Y004380D01*
X006400Y004302D02*
X006234Y004302D01*
X006234Y004380D02*
X006377Y004380D01*
X006344Y004459D02*
X006216Y004459D01*
X006178Y004537D02*
X006334Y004537D01*
X006339Y004616D02*
X006164Y004616D01*
X006164Y004694D02*
X006371Y004694D01*
X006438Y004773D02*
X006164Y004773D01*
X005704Y004773D02*
X005534Y004773D01*
X005534Y004851D02*
X005704Y004851D01*
X005704Y004930D02*
X005534Y004930D01*
X005534Y005008D02*
X005704Y005008D01*
X005704Y005087D02*
X005534Y005087D01*
X005534Y005165D02*
X005704Y005165D01*
X005718Y005244D02*
X005534Y005244D01*
X005534Y005322D02*
X005781Y005322D01*
X005692Y005401D02*
X005534Y005401D01*
X005534Y005479D02*
X005652Y005479D01*
X004934Y005479D02*
X004843Y005479D01*
X004783Y005539D02*
X004586Y005621D01*
X004374Y005621D01*
X004177Y005539D01*
X004145Y005507D01*
X004145Y007420D01*
X004360Y007331D01*
X004600Y007331D01*
X004823Y007424D01*
X004934Y007534D01*
X004934Y006146D01*
X004843Y006184D01*
X004724Y006184D01*
X004614Y006138D01*
X004529Y006054D01*
X004484Y005943D01*
X004484Y005824D01*
X004529Y005714D01*
X004614Y005629D01*
X004724Y005584D01*
X004843Y005584D01*
X004934Y005621D01*
X004934Y005388D01*
X004933Y005389D01*
X004783Y005539D01*
X004739Y005558D02*
X004934Y005558D01*
X004922Y005401D02*
X004934Y005401D01*
X004607Y005636D02*
X004145Y005636D01*
X004145Y005558D02*
X004222Y005558D01*
X004145Y005715D02*
X004529Y005715D01*
X004496Y005793D02*
X004145Y005793D01*
X004145Y005872D02*
X004484Y005872D01*
X004487Y005950D02*
X004145Y005950D01*
X004145Y006029D02*
X004519Y006029D01*
X004583Y006107D02*
X004145Y006107D01*
X004145Y006186D02*
X004934Y006186D01*
X004934Y006264D02*
X004145Y006264D01*
X004145Y006343D02*
X004934Y006343D01*
X004934Y006421D02*
X004145Y006421D01*
X004145Y006500D02*
X004934Y006500D01*
X004934Y006578D02*
X004145Y006578D01*
X004145Y006657D02*
X004934Y006657D01*
X004934Y006735D02*
X004145Y006735D01*
X004145Y006814D02*
X004934Y006814D01*
X004934Y006892D02*
X004145Y006892D01*
X004145Y006971D02*
X004934Y006971D01*
X004934Y007049D02*
X004145Y007049D01*
X004145Y007128D02*
X004934Y007128D01*
X004934Y007206D02*
X004145Y007206D01*
X004145Y007285D02*
X004934Y007285D01*
X004934Y007363D02*
X004677Y007363D01*
X004841Y007442D02*
X004934Y007442D01*
X004934Y007520D02*
X004920Y007520D01*
X004283Y007363D02*
X004145Y007363D01*
X002434Y007363D02*
X000799Y007363D01*
X000799Y007285D02*
X002434Y007285D01*
X002434Y007206D02*
X000799Y007206D01*
X000799Y007128D02*
X002434Y007128D01*
X002434Y007049D02*
X000799Y007049D01*
X000799Y006971D02*
X002434Y006971D01*
X002434Y006892D02*
X000799Y006892D01*
X000799Y006814D02*
X002434Y006814D01*
X002434Y006735D02*
X000799Y006735D01*
X000799Y006657D02*
X002434Y006657D01*
X002434Y006578D02*
X000799Y006578D01*
X000799Y006500D02*
X002434Y006500D01*
X002434Y006421D02*
X000799Y006421D01*
X000799Y006343D02*
X002434Y006343D01*
X002434Y006264D02*
X000799Y006264D01*
X000799Y006186D02*
X002434Y006186D01*
X002434Y006107D02*
X000799Y006107D01*
X000799Y006029D02*
X002434Y006029D01*
X002434Y005950D02*
X000799Y005950D01*
X000799Y005872D02*
X002434Y005872D01*
X002434Y005793D02*
X000799Y005793D01*
X000799Y005715D02*
X002434Y005715D01*
X002434Y005636D02*
X000799Y005636D01*
X000799Y005558D02*
X002434Y005558D01*
X002434Y005479D02*
X000799Y005479D01*
X000799Y005401D02*
X002434Y005401D01*
X002434Y005322D02*
X000799Y005322D01*
X000799Y005244D02*
X002434Y005244D01*
X002434Y005165D02*
X000799Y005165D01*
X000799Y005087D02*
X002434Y005087D01*
X002434Y005008D02*
X000799Y005008D01*
X000799Y004930D02*
X002434Y004930D01*
X002434Y004851D02*
X000799Y004851D01*
X000799Y004773D02*
X002434Y004773D01*
X002434Y004694D02*
X000799Y004694D01*
X000799Y004616D02*
X002434Y004616D01*
X002434Y004537D02*
X000799Y004537D01*
X000799Y004459D02*
X002434Y004459D01*
X002434Y004380D02*
X000799Y004380D01*
X000799Y004302D02*
X002434Y004302D01*
X002434Y004223D02*
X000799Y004223D01*
X000799Y004145D02*
X002434Y004145D01*
X002434Y004066D02*
X000799Y004066D01*
X000799Y003988D02*
X002434Y003988D01*
X002434Y003909D02*
X000799Y003909D01*
X000799Y003831D02*
X002434Y003831D01*
X002434Y003752D02*
X000799Y003752D01*
X000799Y003674D02*
X002434Y003674D01*
X002434Y003595D02*
X000799Y003595D01*
X000799Y003517D02*
X002434Y003517D01*
X002434Y003438D02*
X000799Y003438D01*
X000799Y003360D02*
X001385Y003360D01*
X001195Y003281D02*
X000799Y003281D01*
X000799Y003203D02*
X001100Y003203D01*
X001021Y003124D02*
X000799Y003124D01*
X000799Y003046D02*
X000943Y003046D01*
X000904Y002967D02*
X000799Y002967D01*
X000799Y002889D02*
X000872Y002889D01*
X000839Y002810D02*
X000799Y002810D01*
X000799Y002732D02*
X000807Y002732D01*
X000799Y002653D02*
X000806Y002653D01*
X000799Y002575D02*
X000806Y002575D01*
X000799Y002496D02*
X000806Y002496D01*
X000799Y002418D02*
X000806Y002418D01*
X000799Y002339D02*
X000831Y002339D01*
X000799Y002261D02*
X000864Y002261D01*
X000897Y002182D02*
X000799Y002182D01*
X000799Y002104D02*
X000929Y002104D01*
X001002Y002025D02*
X000799Y002025D01*
X000799Y001947D02*
X001081Y001947D01*
X001159Y001868D02*
X000799Y001868D01*
X000799Y001790D02*
X001339Y001790D01*
X001935Y001790D02*
X002755Y001790D01*
X002819Y001734D02*
X002819Y001734D01*
X002887Y001711D02*
X000799Y001711D01*
X000799Y001633D02*
X007401Y001633D01*
X007427Y001554D02*
X000799Y001554D01*
X000799Y001476D02*
X007452Y001476D01*
X007478Y001397D02*
X000799Y001397D01*
X000799Y001319D02*
X007503Y001319D01*
X007510Y001298D02*
X007510Y001298D01*
X007552Y001240D02*
X000799Y001240D01*
X000799Y001162D02*
X007609Y001162D01*
X007666Y001083D02*
X000799Y001083D01*
X000802Y001005D02*
X007727Y001005D01*
X007835Y000926D02*
X000829Y000926D01*
X000894Y000848D02*
X007943Y000848D01*
X008006Y000802D02*
X008006Y000802D01*
X003114Y001636D02*
X003114Y001636D01*
X002664Y001868D02*
X002114Y001868D01*
X002193Y001947D02*
X002580Y001947D01*
X002585Y001936D02*
X002585Y001936D01*
X002540Y002025D02*
X002271Y002025D01*
X002345Y002104D02*
X002501Y002104D01*
X002462Y002182D02*
X002377Y002182D01*
X002446Y002213D02*
X002446Y002213D01*
X002443Y002261D02*
X002410Y002261D01*
X002402Y002889D02*
X002434Y002889D01*
X002434Y002967D02*
X002369Y002967D01*
X002331Y003046D02*
X002434Y003046D01*
X002434Y003124D02*
X002252Y003124D01*
X002174Y003203D02*
X002434Y003203D01*
X002434Y003281D02*
X002079Y003281D01*
X001889Y003360D02*
X002434Y003360D01*
X005268Y003988D02*
X006561Y003988D01*
X006483Y004066D02*
X006015Y004066D01*
X006146Y004145D02*
X006447Y004145D01*
X006477Y004072D02*
X006477Y004072D01*
X006414Y004223D02*
X006203Y004223D01*
X005852Y004066D02*
X005346Y004066D01*
X005418Y004145D02*
X005722Y004145D01*
X005664Y004223D02*
X005450Y004223D01*
X005483Y004302D02*
X005634Y004302D01*
X005634Y004380D02*
X005515Y004380D01*
X005534Y004459D02*
X005651Y004459D01*
X005690Y004537D02*
X005534Y004537D01*
X005534Y004616D02*
X005704Y004616D01*
X005704Y004694D02*
X005534Y004694D01*
X009389Y003914D02*
X009979Y004504D01*
X010091Y004504D01*
X010185Y004363D01*
X010147Y004325D01*
X010141Y004309D01*
X010074Y004309D01*
X009964Y004263D01*
X009939Y004239D01*
X009833Y004239D01*
X009699Y004104D01*
X009508Y003914D01*
X009389Y003914D01*
X009463Y003988D02*
X009582Y003988D01*
X009541Y004066D02*
X009661Y004066D01*
X009620Y004145D02*
X009739Y004145D01*
X009698Y004223D02*
X009818Y004223D01*
X009777Y004302D02*
X010057Y004302D01*
X010173Y004380D02*
X009855Y004380D01*
X009934Y004459D02*
X010121Y004459D01*
X011340Y005558D02*
X011420Y005558D01*
X011420Y005636D02*
X011340Y005636D01*
X011340Y005715D02*
X011420Y005715D01*
X011420Y005793D02*
X011340Y005793D01*
X011340Y005872D02*
X011420Y005872D01*
X011673Y006421D02*
X011715Y006421D01*
X011715Y006657D02*
X006314Y006657D01*
X006314Y006735D02*
X011715Y006735D01*
X011715Y006814D02*
X006314Y006814D01*
X006314Y006892D02*
X011715Y006892D01*
X011715Y006971D02*
X006314Y006971D01*
X006314Y007049D02*
X011715Y007049D01*
X011715Y007128D02*
X006314Y007128D01*
X006314Y007206D02*
X011715Y007206D01*
X011715Y007285D02*
X006314Y007285D01*
X006314Y007363D02*
X011183Y007363D01*
X011019Y007442D02*
X006314Y007442D01*
X006314Y007520D02*
X010941Y007520D01*
X010865Y007599D02*
X006244Y007599D01*
X006165Y007677D02*
X010833Y007677D01*
X010800Y007756D02*
X006087Y007756D01*
X006044Y007834D02*
X010775Y007834D01*
X010775Y007913D02*
X006044Y007913D01*
X006044Y007991D02*
X010775Y007991D01*
X010781Y008070D02*
X006044Y008070D01*
X006076Y008148D02*
X010813Y008148D01*
X010846Y008227D02*
X006108Y008227D01*
X006114Y008305D02*
X010893Y008305D01*
X010972Y008384D02*
X008672Y008384D01*
X008779Y008462D02*
X011069Y008462D01*
X011258Y008541D02*
X008832Y008541D01*
X008864Y008619D02*
X011715Y008619D01*
X011715Y008541D02*
X011502Y008541D01*
X011692Y008462D02*
X011715Y008462D01*
X011715Y008698D02*
X008864Y008698D01*
X008853Y008776D02*
X011715Y008776D01*
X011715Y008855D02*
X008820Y008855D01*
X008751Y008933D02*
X011715Y008933D01*
X011715Y009012D02*
X008604Y009012D01*
X008163Y009012D02*
X006234Y009012D01*
X006234Y009090D02*
X011715Y009090D01*
X011715Y009169D02*
X006216Y009169D01*
X006178Y009247D02*
X011715Y009247D01*
X011715Y009326D02*
X006140Y009326D01*
X006099Y009404D02*
X011715Y009404D01*
X011715Y009483D02*
X006000Y009483D01*
X005902Y009561D02*
X011715Y009561D01*
X011715Y009640D02*
X005631Y009640D01*
X005584Y009650D02*
X005584Y009650D01*
X005537Y009640D02*
X005394Y009640D01*
X005527Y009718D02*
X011715Y009718D01*
X011715Y009797D02*
X005621Y009797D01*
X005663Y009875D02*
X011715Y009875D01*
X011715Y009954D02*
X005684Y009954D01*
X005684Y010032D02*
X011715Y010032D01*
X011715Y010111D02*
X005656Y010111D01*
X005602Y010189D02*
X011715Y010189D01*
X011715Y010268D02*
X005482Y010268D01*
X005285Y010268D02*
X004186Y010268D01*
X004145Y010189D02*
X005165Y010189D01*
X005085Y010111D02*
X004145Y010111D01*
X004145Y010032D02*
X005019Y010032D01*
X005054Y010093D02*
X005054Y010093D01*
X004974Y009954D02*
X004145Y009954D01*
X004145Y009875D02*
X004934Y009875D01*
X004934Y009797D02*
X004145Y009797D01*
X004145Y009718D02*
X004934Y009718D01*
X004934Y009640D02*
X004145Y009640D01*
X004145Y009561D02*
X004934Y009561D01*
X004934Y009483D02*
X004145Y009483D01*
X004145Y009404D02*
X004934Y009404D01*
X004934Y009326D02*
X004145Y009326D01*
X004145Y009247D02*
X004934Y009247D01*
X004934Y009169D02*
X004145Y009169D01*
X004145Y009090D02*
X004934Y009090D01*
X004934Y009012D02*
X004145Y009012D01*
X004145Y008933D02*
X004933Y008933D01*
X004930Y008855D02*
X004145Y008855D01*
X004145Y008776D02*
X004934Y008776D01*
X004934Y008698D02*
X004145Y008698D01*
X004145Y008619D02*
X004934Y008619D01*
X004934Y008541D02*
X004602Y008541D01*
X004792Y008462D02*
X004934Y008462D01*
X004934Y008384D02*
X004888Y008384D01*
X004358Y008541D02*
X004145Y008541D01*
X004145Y008462D02*
X004169Y008462D01*
X002434Y008462D02*
X000799Y008462D01*
X000799Y008384D02*
X002434Y008384D01*
X002434Y008305D02*
X000799Y008305D01*
X000799Y008227D02*
X002434Y008227D01*
X002434Y008148D02*
X000799Y008148D01*
X000799Y008070D02*
X002434Y008070D01*
X002434Y007991D02*
X000799Y007991D01*
X000799Y007913D02*
X002434Y007913D01*
X002434Y007834D02*
X000799Y007834D01*
X000799Y007756D02*
X002434Y007756D01*
X002434Y007677D02*
X000799Y007677D01*
X000799Y007599D02*
X002434Y007599D01*
X002434Y007520D02*
X000799Y007520D01*
X000799Y007442D02*
X002434Y007442D01*
X002434Y008541D02*
X000799Y008541D01*
X000799Y008619D02*
X002434Y008619D01*
X002434Y008698D02*
X000799Y008698D01*
X000799Y008776D02*
X002434Y008776D01*
X002434Y008855D02*
X000799Y008855D01*
X000799Y008933D02*
X002434Y008933D01*
X002434Y009012D02*
X000799Y009012D01*
X000799Y009090D02*
X002434Y009090D01*
X002434Y009169D02*
X000799Y009169D01*
X000799Y009247D02*
X002434Y009247D01*
X002434Y009326D02*
X000799Y009326D01*
X000799Y009404D02*
X002434Y009404D01*
X002434Y009483D02*
X000799Y009483D01*
X000799Y009561D02*
X002434Y009561D01*
X002434Y009640D02*
X000799Y009640D01*
X000799Y009718D02*
X002434Y009718D01*
X002434Y009797D02*
X000799Y009797D01*
X000799Y009875D02*
X002434Y009875D01*
X002434Y009954D02*
X000799Y009954D01*
X000799Y010032D02*
X002434Y010032D01*
X002434Y010111D02*
X000799Y010111D01*
X000799Y010189D02*
X002434Y010189D01*
X002434Y010268D02*
X000799Y010268D01*
X000799Y010346D02*
X002434Y010346D01*
X002434Y010425D02*
X000799Y010425D01*
X000799Y010503D02*
X002434Y010503D01*
X002434Y010582D02*
X000799Y010582D01*
X000799Y010660D02*
X002434Y010660D01*
X002434Y010739D02*
X000799Y010739D01*
X000799Y010817D02*
X002434Y010817D01*
X002434Y010896D02*
X000799Y010896D01*
X000799Y010974D02*
X002434Y010974D01*
X002434Y011053D02*
X000799Y011053D01*
X000799Y011131D02*
X002434Y011131D01*
X002434Y011210D02*
X000799Y011210D01*
X000799Y011288D02*
X001342Y011288D01*
X001161Y011367D02*
X000799Y011367D01*
X000799Y011445D02*
X001082Y011445D01*
X001004Y011524D02*
X000799Y011524D01*
X000799Y011602D02*
X000930Y011602D01*
X000897Y011681D02*
X000799Y011681D01*
X000799Y011759D02*
X000865Y011759D01*
X000832Y011838D02*
X000799Y011838D01*
X000799Y011916D02*
X000806Y011916D01*
X000799Y011995D02*
X000806Y011995D01*
X000799Y012073D02*
X000806Y012073D01*
X000799Y012152D02*
X000806Y012152D01*
X000799Y012309D02*
X000839Y012309D01*
X000871Y012387D02*
X000799Y012387D01*
X000799Y012466D02*
X000904Y012466D01*
X000941Y012544D02*
X000799Y012544D01*
X000799Y012623D02*
X001020Y012623D01*
X001098Y012701D02*
X000799Y012701D01*
X000799Y012780D02*
X001192Y012780D01*
X001381Y012858D02*
X000799Y012858D01*
X000799Y012937D02*
X002487Y012937D01*
X002513Y013015D02*
X000799Y013015D01*
X000799Y013094D02*
X002567Y013094D01*
X002635Y013172D02*
X000799Y013172D01*
X000799Y013251D02*
X002703Y013251D01*
X002724Y013275D02*
X002724Y013275D01*
X002831Y013329D02*
X000799Y013329D01*
X000799Y013408D02*
X002988Y013408D01*
X002461Y012858D02*
X001893Y012858D01*
X002082Y012780D02*
X002435Y012780D01*
X002424Y012747D02*
X002424Y012747D01*
X002427Y012701D02*
X002175Y012701D01*
X002254Y012623D02*
X002433Y012623D01*
X002434Y012544D02*
X002332Y012544D01*
X002370Y012466D02*
X002434Y012466D01*
X002434Y012387D02*
X002402Y012387D01*
X002409Y011759D02*
X002434Y011759D01*
X002434Y011681D02*
X002377Y011681D01*
X002344Y011602D02*
X002434Y011602D01*
X002434Y011524D02*
X002270Y011524D01*
X002191Y011445D02*
X002434Y011445D01*
X002434Y011367D02*
X002113Y011367D01*
X001931Y011288D02*
X002434Y011288D01*
X004265Y010346D02*
X011715Y010346D01*
X011715Y010425D02*
X004343Y010425D01*
X004422Y010503D02*
X011715Y010503D01*
X011715Y010582D02*
X004500Y010582D01*
X004579Y010660D02*
X011715Y010660D01*
X011715Y010739D02*
X004657Y010739D01*
X004736Y010817D02*
X011715Y010817D01*
X011715Y010896D02*
X004814Y010896D01*
X004893Y010974D02*
X011715Y010974D01*
X011715Y011053D02*
X004971Y011053D01*
X005050Y011131D02*
X011715Y011131D01*
X011715Y011210D02*
X005128Y011210D01*
X005207Y011288D02*
X011715Y011288D01*
X005873Y009584D02*
X005873Y009584D01*
X011577Y007363D02*
X011715Y007363D01*
X020556Y010425D02*
X031765Y010425D01*
X031765Y010503D02*
X020556Y010503D01*
X020556Y010582D02*
X031765Y010582D01*
X031765Y010660D02*
X020556Y010660D01*
X020556Y010739D02*
X031765Y010739D01*
X031765Y010817D02*
X020556Y010817D01*
X020556Y010896D02*
X031765Y010896D01*
X031765Y010974D02*
X020556Y010974D01*
X020556Y011053D02*
X031765Y011053D01*
X031765Y011131D02*
X020556Y011131D01*
X020556Y011210D02*
X031765Y011210D01*
X031765Y011288D02*
X031210Y011288D01*
X031081Y011235D02*
X031386Y011361D01*
X031620Y011595D01*
X031746Y011900D01*
X031746Y012230D01*
X031765Y012230D01*
X031746Y012230D02*
X031620Y012536D01*
X031386Y012769D01*
X031081Y012896D01*
X030750Y012896D01*
X030445Y012769D01*
X030211Y012536D01*
X030085Y012230D01*
X020556Y012230D01*
X020556Y012152D02*
X030085Y012152D01*
X030085Y012230D02*
X030085Y011900D01*
X030211Y011595D01*
X030445Y011361D01*
X030750Y011235D01*
X031081Y011235D01*
X031392Y011367D02*
X031765Y011367D01*
X031765Y011445D02*
X031470Y011445D01*
X031549Y011524D02*
X031765Y011524D01*
X031765Y011602D02*
X031623Y011602D01*
X031655Y011681D02*
X031765Y011681D01*
X031765Y011759D02*
X031688Y011759D01*
X031720Y011838D02*
X031765Y011838D01*
X031765Y011916D02*
X031746Y011916D01*
X031746Y011995D02*
X031765Y011995D01*
X031765Y012073D02*
X031746Y012073D01*
X031746Y012152D02*
X031765Y012152D01*
X031765Y012309D02*
X031714Y012309D01*
X031681Y012387D02*
X031765Y012387D01*
X031765Y012466D02*
X031649Y012466D01*
X031611Y012544D02*
X031765Y012544D01*
X031765Y012623D02*
X031533Y012623D01*
X031454Y012701D02*
X031765Y012701D01*
X031765Y012780D02*
X031361Y012780D01*
X031171Y012858D02*
X031765Y012858D01*
X031765Y012937D02*
X020505Y012937D01*
X020466Y013015D02*
X031765Y013015D01*
X031765Y013094D02*
X020426Y013094D01*
X020363Y013172D02*
X031765Y013172D01*
X031765Y013251D02*
X020273Y013251D01*
X020182Y013329D02*
X031765Y013329D01*
X031765Y013408D02*
X019964Y013408D01*
X019876Y013437D02*
X019876Y013437D01*
X020170Y013339D02*
X020170Y013339D01*
X020544Y012858D02*
X030660Y012858D01*
X030470Y012780D02*
X020550Y012780D01*
X020556Y012701D02*
X030377Y012701D01*
X030299Y012623D02*
X020556Y012623D01*
X020556Y012544D02*
X030220Y012544D01*
X030183Y012466D02*
X020556Y012466D01*
X020556Y012387D02*
X030150Y012387D01*
X030117Y012309D02*
X020556Y012309D01*
X020556Y012073D02*
X030085Y012073D01*
X030085Y011995D02*
X020556Y011995D01*
X020556Y011916D02*
X030085Y011916D01*
X030111Y011838D02*
X020556Y011838D01*
X020556Y011759D02*
X030143Y011759D01*
X030176Y011681D02*
X020556Y011681D01*
X020556Y011602D02*
X030208Y011602D01*
X030282Y011524D02*
X020556Y011524D01*
X020556Y011445D02*
X030361Y011445D01*
X030439Y011367D02*
X020556Y011367D01*
X020556Y011288D02*
X030621Y011288D01*
X031765Y013486D02*
X000799Y013486D01*
X000799Y013565D02*
X031765Y013565D01*
X031765Y013643D02*
X000799Y013643D01*
X000799Y013722D02*
X031765Y013722D01*
X031765Y013800D02*
X000799Y013800D01*
X000799Y013879D02*
X031765Y013879D01*
X031765Y013957D02*
X000799Y013957D01*
X000799Y014036D02*
X031765Y014036D01*
X031765Y014114D02*
X000799Y014114D01*
X000799Y014193D02*
X031765Y014193D01*
X031765Y014271D02*
X000799Y014271D01*
X000799Y014350D02*
X031765Y014350D01*
X031765Y014428D02*
X000799Y014428D01*
X000814Y014507D02*
X031747Y014507D01*
X031701Y014585D02*
X000859Y014585D01*
X000990Y014664D02*
X031569Y014664D01*
X023349Y009230D02*
X023349Y009230D01*
X023225Y009169D02*
X022104Y009169D01*
X022130Y009090D02*
X023070Y009090D01*
X023071Y009091D02*
X023071Y009091D01*
X023003Y009012D02*
X022155Y009012D01*
X022174Y008933D02*
X022935Y008933D01*
X022869Y008857D02*
X022869Y008857D01*
X022868Y008855D02*
X022174Y008855D01*
X022174Y008776D02*
X022842Y008776D01*
X022816Y008698D02*
X022174Y008698D01*
X022174Y008619D02*
X022790Y008619D01*
X022771Y008563D02*
X022771Y008563D01*
X022773Y008541D02*
X022174Y008541D01*
X022174Y008462D02*
X022778Y008462D01*
X022782Y008384D02*
X022174Y008384D01*
X022174Y008305D02*
X022782Y008305D01*
X022782Y008227D02*
X022174Y008227D01*
X022174Y008148D02*
X022782Y008148D01*
X022782Y008070D02*
X022174Y008070D01*
X022174Y007991D02*
X022782Y007991D01*
X022782Y007913D02*
X022174Y007913D01*
X022174Y007834D02*
X022782Y007834D01*
X022782Y007756D02*
X022174Y007756D01*
X022174Y007677D02*
X022782Y007677D01*
X022782Y007599D02*
X022174Y007599D01*
X022174Y007520D02*
X022782Y007520D01*
X022782Y007442D02*
X022174Y007442D01*
X022174Y007363D02*
X022782Y007363D01*
X022782Y007285D02*
X022174Y007285D01*
X022174Y007206D02*
X022782Y007206D01*
X022782Y007128D02*
X022174Y007128D01*
X022174Y007049D02*
X022782Y007049D01*
X022782Y006971D02*
X022174Y006971D01*
X022174Y006892D02*
X022782Y006892D01*
X022782Y006814D02*
X022174Y006814D01*
X022174Y006735D02*
X022782Y006735D01*
X022782Y006657D02*
X022174Y006657D01*
X022174Y006578D02*
X022782Y006578D01*
X022782Y006500D02*
X022174Y006500D01*
X022174Y006421D02*
X022782Y006421D01*
X022782Y006343D02*
X022174Y006343D01*
X022174Y006264D02*
X022782Y006264D01*
X022782Y006186D02*
X022174Y006186D01*
X001086Y014668D02*
X001086Y014668D01*
D22*
X008799Y010512D03*
X009149Y010512D03*
X009499Y010512D03*
X010949Y010562D03*
X010949Y010862D03*
X010949Y011162D03*
X008555Y009154D03*
X008255Y009154D03*
X009105Y009029D03*
X009405Y009029D03*
X009705Y009029D03*
X007055Y007999D03*
X006755Y007999D03*
X006755Y007699D03*
X007055Y007699D03*
X007055Y007399D03*
X006755Y007399D03*
X006755Y007099D03*
X007055Y007099D03*
X007405Y006729D03*
X007105Y006604D03*
X006805Y006604D03*
X006505Y006604D03*
X005814Y007299D03*
X004855Y007279D03*
X005814Y008299D03*
X005584Y008984D03*
X004855Y009229D03*
X004605Y009079D03*
X004605Y009379D03*
X005384Y009984D03*
X004784Y005884D03*
X004305Y005729D03*
X005934Y005584D03*
X006675Y005055D03*
X006634Y004544D03*
X005934Y004357D03*
X007690Y004435D03*
X007930Y004575D03*
X008170Y004435D03*
X009184Y004884D03*
X010005Y005229D03*
X010305Y005229D03*
X010605Y005229D03*
X010024Y004374D03*
X010134Y004009D03*
X014325Y005205D03*
X014625Y005205D03*
X015315Y005335D03*
X015535Y005505D03*
X015725Y005305D03*
X017725Y005405D03*
X018025Y005405D03*
X018325Y005405D03*
X018484Y004209D03*
X018484Y003859D03*
X015925Y003505D03*
X015625Y003655D03*
X015625Y003355D03*
X021069Y003859D03*
X021069Y004259D03*
X021669Y004184D03*
X021669Y004484D03*
X022269Y004259D03*
X022269Y003859D03*
X025034Y003859D03*
X025034Y004209D03*
X025825Y003355D03*
X026125Y003355D03*
X026425Y003355D03*
X026725Y003355D03*
X027025Y003355D03*
X027325Y003355D03*
X027625Y003355D03*
X027925Y003355D03*
X018209Y008729D03*
X018234Y009089D03*
X017125Y009405D03*
X017160Y009655D03*
X018055Y010555D03*
X018418Y010555D03*
X020634Y009684D03*
X020634Y009129D03*
D23*
X021034Y009129D01*
X021034Y009407D02*
X018907Y009407D01*
X018907Y008734D01*
X018214Y008734D01*
X018209Y008729D01*
X017801Y008729D01*
X018234Y009089D02*
X018228Y009245D01*
X018228Y009399D01*
X017801Y008729D02*
X017750Y008731D01*
X017700Y008737D01*
X017651Y008746D01*
X017602Y008759D01*
X017554Y008776D01*
X017508Y008796D01*
X017463Y008820D01*
X017420Y008846D01*
X017380Y008876D01*
X017341Y008909D01*
X017305Y008945D01*
X017272Y008984D01*
X017242Y009024D01*
X017216Y009067D01*
X017192Y009112D01*
X017172Y009158D01*
X017155Y009206D01*
X017142Y009255D01*
X017133Y009304D01*
X017127Y009354D01*
X017125Y009405D01*
X020634Y009684D02*
X021034Y009684D01*
X021094Y009682D01*
X021153Y009676D01*
X021212Y009667D01*
X021270Y009653D01*
X021327Y009636D01*
X021382Y009615D01*
X021436Y009590D01*
X021489Y009562D01*
X021540Y009531D01*
X021588Y009496D01*
X021634Y009458D01*
X021677Y009417D01*
X021718Y009374D01*
X021756Y009328D01*
X021791Y009280D01*
X021822Y009229D01*
X021850Y009176D01*
X021875Y009122D01*
X021896Y009067D01*
X021913Y009010D01*
X021927Y008952D01*
X021936Y008893D01*
X021942Y008834D01*
X021944Y008774D01*
X021944Y002534D01*
X022219Y002534D02*
X022219Y003809D01*
X022269Y003859D01*
X025034Y003859D01*
X025034Y004209D02*
X022319Y004209D01*
X022306Y004211D01*
X022294Y004216D01*
X022284Y004224D01*
X022276Y004234D01*
X022271Y004246D01*
X022269Y004259D01*
X021669Y004484D02*
X021669Y008771D01*
X021394Y008769D02*
X021394Y002534D01*
X021669Y002534D02*
X021669Y004484D01*
X021069Y004259D02*
X021067Y004246D01*
X021062Y004234D01*
X021054Y004224D01*
X021044Y004216D01*
X021032Y004211D01*
X021019Y004209D01*
X018484Y004209D01*
X018484Y003859D02*
X021069Y003859D01*
X022219Y002534D02*
X022217Y002455D01*
X022211Y002376D01*
X022202Y002298D01*
X022188Y002220D01*
X022171Y002143D01*
X022150Y002066D01*
X022125Y001991D01*
X022096Y001917D01*
X022064Y001845D01*
X022029Y001775D01*
X021990Y001706D01*
X021947Y001639D01*
X021902Y001574D01*
X021853Y001512D01*
X021802Y001452D01*
X021747Y001395D01*
X021690Y001340D01*
X021630Y001289D01*
X021568Y001240D01*
X021503Y001195D01*
X021436Y001152D01*
X021367Y001113D01*
X021297Y001078D01*
X021225Y001046D01*
X021151Y001017D01*
X021076Y000992D01*
X020999Y000971D01*
X020922Y000954D01*
X020844Y000940D01*
X020766Y000931D01*
X020687Y000925D01*
X020608Y000923D01*
X008521Y000923D01*
X008484Y001134D02*
X020534Y001134D01*
X020530Y001323D02*
X008521Y001323D01*
X008534Y001534D02*
X020534Y001534D01*
X020530Y001323D02*
X020596Y001325D01*
X020663Y001331D01*
X020729Y001340D01*
X020794Y001354D01*
X020858Y001371D01*
X020921Y001392D01*
X020983Y001417D01*
X021043Y001445D01*
X021101Y001476D01*
X021158Y001511D01*
X021212Y001550D01*
X021265Y001591D01*
X021314Y001635D01*
X021361Y001682D01*
X021405Y001732D01*
X021446Y001784D01*
X021484Y001839D01*
X021519Y001895D01*
X021551Y001954D01*
X021579Y002014D01*
X021603Y002076D01*
X021624Y002139D01*
X021641Y002204D01*
X021654Y002269D01*
X021664Y002335D01*
X021669Y002401D01*
X021671Y002467D01*
X021669Y002534D01*
X021944Y002534D02*
X021942Y002460D01*
X021935Y002387D01*
X021925Y002314D01*
X021911Y002242D01*
X021894Y002171D01*
X021872Y002101D01*
X021848Y002031D01*
X021819Y001964D01*
X021787Y001898D01*
X021752Y001833D01*
X021713Y001771D01*
X021671Y001710D01*
X021626Y001652D01*
X021578Y001597D01*
X021527Y001543D01*
X021474Y001493D01*
X021418Y001445D01*
X021360Y001401D01*
X021299Y001359D01*
X021236Y001321D01*
X021171Y001286D01*
X021105Y001255D01*
X021037Y001227D01*
X020968Y001202D01*
X020897Y001182D01*
X020826Y001165D01*
X020754Y001151D01*
X020681Y001142D01*
X020607Y001136D01*
X020534Y001134D01*
X020534Y001534D02*
X020592Y001540D01*
X020650Y001550D01*
X020707Y001563D01*
X020763Y001580D01*
X020818Y001601D01*
X020872Y001625D01*
X020923Y001652D01*
X020974Y001682D01*
X021022Y001716D01*
X021067Y001752D01*
X021111Y001792D01*
X021152Y001834D01*
X021190Y001878D01*
X021225Y001925D01*
X021258Y001974D01*
X021287Y002025D01*
X021313Y002077D01*
X021336Y002131D01*
X021355Y002187D01*
X021370Y002243D01*
X021383Y002300D01*
X021391Y002358D01*
X021396Y002417D01*
X021397Y002475D01*
X021394Y002534D01*
X011384Y004834D02*
X011284Y004734D01*
X009884Y004734D01*
X009234Y004084D01*
X007834Y004084D01*
X006904Y004084D01*
X006873Y004086D01*
X006843Y004091D01*
X006814Y004099D01*
X006786Y004111D01*
X006759Y004126D01*
X006734Y004144D01*
X006711Y004164D01*
X006691Y004187D01*
X006673Y004212D01*
X006658Y004239D01*
X006646Y004267D01*
X006638Y004296D01*
X006633Y004326D01*
X006631Y004357D01*
X006630Y004357D02*
X006630Y004580D01*
X006634Y004544D01*
X006634Y004543D02*
X006638Y004550D01*
X006640Y004558D01*
X006639Y004567D01*
X006636Y004574D01*
X006631Y004580D01*
X005934Y004357D02*
X005934Y005134D01*
X006234Y005434D01*
X006234Y005734D01*
X005814Y006154D01*
X005814Y007299D01*
X006084Y007434D02*
X006084Y006334D01*
X007534Y004884D01*
X009184Y004884D01*
X009974Y004374D02*
X010024Y004374D01*
X009974Y004374D02*
X009484Y003884D01*
X008434Y003884D01*
X007834Y004084D02*
X007834Y001784D01*
X008030Y001813D02*
X008030Y003480D01*
X008234Y003484D02*
X008234Y001834D01*
X007834Y001784D02*
X007836Y001735D01*
X007841Y001687D01*
X007850Y001639D01*
X007863Y001592D01*
X007879Y001547D01*
X007898Y001502D01*
X007921Y001459D01*
X007947Y001418D01*
X007976Y001379D01*
X008008Y001342D01*
X008042Y001308D01*
X008079Y001276D01*
X008118Y001247D01*
X008159Y001221D01*
X008202Y001198D01*
X008247Y001179D01*
X008292Y001163D01*
X008339Y001150D01*
X008387Y001141D01*
X008435Y001136D01*
X008484Y001134D01*
X008521Y000922D02*
X008463Y000924D01*
X008405Y000930D01*
X008347Y000939D01*
X008290Y000952D01*
X008235Y000969D01*
X008180Y000990D01*
X008127Y001014D01*
X008075Y001041D01*
X008026Y001072D01*
X007979Y001106D01*
X007934Y001143D01*
X007891Y001183D01*
X007851Y001226D01*
X007814Y001271D01*
X007780Y001318D01*
X007749Y001368D01*
X007722Y001419D01*
X007698Y001472D01*
X007677Y001527D01*
X007660Y001582D01*
X007647Y001639D01*
X007638Y001697D01*
X007632Y001755D01*
X007630Y001813D01*
X007630Y003534D01*
X007630Y003533D02*
X007625Y003558D01*
X007617Y003581D01*
X007605Y003603D01*
X007590Y003623D01*
X007573Y003641D01*
X007553Y003656D01*
X007531Y003668D01*
X007508Y003677D01*
X007484Y003683D01*
X007459Y003685D01*
X007434Y003683D01*
X007434Y003684D02*
X004883Y003684D01*
X004883Y003683D02*
X004846Y003685D01*
X004809Y003690D01*
X004773Y003698D01*
X004737Y003710D01*
X004703Y003725D01*
X004671Y003743D01*
X004640Y003764D01*
X004612Y003788D01*
X004585Y003815D01*
X004561Y003843D01*
X004540Y003874D01*
X004522Y003906D01*
X004507Y003940D01*
X004495Y003976D01*
X004487Y004012D01*
X004482Y004049D01*
X004480Y004086D01*
X005934Y005584D02*
X005534Y005984D01*
X005534Y008934D01*
X005584Y008984D01*
X005284Y009034D02*
X005164Y008934D01*
X005164Y009764D01*
X005166Y009793D01*
X005171Y009821D01*
X005181Y009848D01*
X005193Y009874D01*
X005209Y009898D01*
X005228Y009920D01*
X005250Y009939D01*
X005274Y009955D01*
X005300Y009967D01*
X005327Y009977D01*
X005355Y009982D01*
X005384Y009984D01*
X005284Y009034D02*
X005234Y008984D01*
X005814Y008299D02*
X005814Y007704D01*
X006084Y007434D01*
X005234Y005934D02*
X005134Y005884D01*
X004784Y005884D01*
X008434Y003684D02*
X009604Y003684D01*
X009929Y004009D01*
X010134Y004009D01*
X010559Y004009D01*
X010584Y004034D01*
X008434Y003684D02*
X008408Y003682D01*
X008382Y003677D01*
X008357Y003669D01*
X008334Y003657D01*
X008312Y003643D01*
X008293Y003625D01*
X008275Y003606D01*
X008261Y003584D01*
X008249Y003561D01*
X008241Y003536D01*
X008236Y003510D01*
X008234Y003484D01*
X008030Y003480D02*
X008032Y003517D01*
X008037Y003554D01*
X008045Y003591D01*
X008057Y003626D01*
X008072Y003660D01*
X008091Y003693D01*
X008112Y003723D01*
X008135Y003752D01*
X008162Y003779D01*
X008191Y003802D01*
X008221Y003823D01*
X008254Y003842D01*
X008288Y003857D01*
X008323Y003869D01*
X008360Y003877D01*
X008397Y003882D01*
X008434Y003884D01*
X008234Y001834D02*
X008236Y001800D01*
X008242Y001767D01*
X008251Y001735D01*
X008264Y001704D01*
X008280Y001674D01*
X008299Y001647D01*
X008322Y001622D01*
X008347Y001599D01*
X008374Y001580D01*
X008404Y001564D01*
X008435Y001551D01*
X008467Y001542D01*
X008500Y001536D01*
X008534Y001534D01*
X008521Y001322D02*
X008478Y001324D01*
X008436Y001329D01*
X008394Y001339D01*
X008353Y001352D01*
X008313Y001368D01*
X008275Y001388D01*
X008239Y001411D01*
X008205Y001437D01*
X008174Y001466D01*
X008145Y001497D01*
X008119Y001531D01*
X008096Y001568D01*
X008076Y001605D01*
X008060Y001645D01*
X008047Y001686D01*
X008037Y001728D01*
X008032Y001770D01*
X008030Y001813D01*
X021034Y009129D02*
X021072Y009127D01*
X021109Y009121D01*
X021145Y009111D01*
X021180Y009098D01*
X021214Y009081D01*
X021246Y009060D01*
X021275Y009037D01*
X021302Y009010D01*
X021325Y008981D01*
X021346Y008949D01*
X021363Y008915D01*
X021376Y008880D01*
X021386Y008844D01*
X021392Y008807D01*
X021394Y008769D01*
X021669Y008771D02*
X021667Y008818D01*
X021662Y008866D01*
X021653Y008912D01*
X021641Y008958D01*
X021625Y009003D01*
X021606Y009047D01*
X021584Y009089D01*
X021559Y009129D01*
X021530Y009167D01*
X021499Y009203D01*
X021466Y009236D01*
X021430Y009267D01*
X021392Y009296D01*
X021352Y009321D01*
X021310Y009343D01*
X021266Y009362D01*
X021221Y009378D01*
X021175Y009390D01*
X021129Y009399D01*
X021081Y009404D01*
X021034Y009406D01*
D24*
X018418Y010555D02*
X018055Y010555D01*
X018237Y010555D02*
X018418Y010555D01*
X018237Y010555D02*
X018237Y010886D01*
X008534Y008684D02*
X008234Y008684D01*
D25*
X026725Y004155D03*
X026725Y003805D03*
D26*
X026534Y006484D03*
X026934Y006484D03*
X016184Y006084D03*
X015784Y006084D03*
X008534Y008684D03*
X008234Y008684D03*
D27*
X015784Y006084D02*
X015984Y006084D01*
X016184Y006084D01*
D28*
X015984Y006084D02*
X015969Y006099D01*
X015969Y006455D01*
X008234Y008684D02*
X006184Y008684D01*
X006154Y008686D01*
X006124Y008691D01*
X006095Y008700D01*
X006068Y008713D01*
X006042Y008728D01*
X006018Y008747D01*
X005997Y008768D01*
X005978Y008792D01*
X005963Y008818D01*
X005950Y008845D01*
X005941Y008874D01*
X005936Y008904D01*
X005934Y008934D01*
X005934Y008984D01*
X005932Y009021D01*
X005926Y009057D01*
X005917Y009092D01*
X005904Y009126D01*
X005887Y009159D01*
X005867Y009190D01*
X005844Y009218D01*
X005818Y009244D01*
X005790Y009267D01*
X005759Y009287D01*
X005726Y009304D01*
X005692Y009317D01*
X005657Y009326D01*
X005621Y009332D01*
X005584Y009334D01*
X005547Y009332D01*
X005511Y009326D01*
X005476Y009317D01*
X005442Y009304D01*
X005409Y009287D01*
X005378Y009267D01*
X005350Y009244D01*
X005324Y009218D01*
X005301Y009190D01*
X005281Y009159D01*
X005264Y009126D01*
X005251Y009092D01*
X005242Y009057D01*
X005236Y009021D01*
X005234Y008984D01*
X005234Y005934D01*
X005234Y004584D01*
X005233Y004584D02*
X005231Y004541D01*
X005225Y004498D01*
X005216Y004455D01*
X005203Y004414D01*
X005186Y004374D01*
X005166Y004335D01*
X005143Y004299D01*
X005117Y004265D01*
X005087Y004233D01*
X005055Y004203D01*
X005021Y004177D01*
X004984Y004154D01*
X004946Y004134D01*
X004906Y004117D01*
X004865Y004104D01*
X004822Y004095D01*
X004779Y004089D01*
X004736Y004087D01*
X004736Y004086D02*
X004480Y004086D01*
D29*
X026534Y006484D02*
X026934Y006484D01*
X026724Y006894D02*
X026724Y003806D01*
X026725Y003805D01*
M02*
