G75*
G70*
%OFA0B0*%
%FSLAX24Y24*%
%IPPOS*%
%LPD*%
%AMOC8*
5,1,8,0,0,1.08239X$1,22.5*
%
%ADD10C,0.0060*%
%ADD11C,0.0050*%
%ADD12R,0.2750X0.1300*%
%ADD13C,0.0000*%
%ADD14C,0.0100*%
%ADD15C,0.0150*%
%ADD16C,0.0080*%
%ADD17C,0.0040*%
%ADD18C,0.0020*%
%ADD19C,0.0160*%
%ADD20C,0.0010*%
%ADD21C,0.0030*%
%ADD22C,0.0070*%
%ADD23C,0.0039*%
%ADD24C,0.0079*%
%ADD25R,0.0079X0.0800*%
%ADD26R,0.0800X0.0079*%
%ADD27C,0.0120*%
D10*
X005361Y004440D02*
X005518Y004833D01*
X005676Y004440D01*
X005361Y004440D01*
X006158Y005245D02*
X006158Y005565D01*
X006158Y005245D02*
X006628Y005245D01*
X006678Y005645D02*
X006678Y005965D01*
X006158Y006045D02*
X006158Y006365D01*
X006628Y006365D01*
X006196Y006619D02*
X007615Y006619D01*
X008890Y005914D02*
X009834Y005914D01*
X009834Y005422D01*
X008890Y005422D01*
X008890Y005914D01*
X009972Y005483D02*
X010464Y005483D01*
X010464Y006428D01*
X009972Y006428D01*
X009972Y005483D01*
X010858Y005250D02*
X010858Y005023D01*
X010914Y004966D01*
X011028Y004966D01*
X011085Y005023D01*
X011085Y005137D01*
X010971Y005137D01*
X010858Y005250D02*
X010914Y005307D01*
X011028Y005307D01*
X011085Y005250D01*
X011226Y005307D02*
X011226Y004966D01*
X011453Y004966D02*
X011453Y005307D01*
X011594Y005307D02*
X011764Y005307D01*
X011821Y005250D01*
X011821Y005023D01*
X011764Y004966D01*
X011594Y004966D01*
X011594Y005307D01*
X011226Y005307D02*
X011453Y004966D01*
X007615Y008479D02*
X006196Y008479D01*
X006079Y009149D02*
X005879Y009149D01*
X005979Y009149D02*
X005979Y009449D01*
X005879Y009349D01*
X005763Y009199D02*
X005763Y009149D01*
X005713Y009149D01*
X005713Y009199D01*
X005763Y009199D01*
X005582Y009149D02*
X005382Y009149D01*
X005582Y009349D01*
X005582Y009399D01*
X005532Y009449D01*
X005432Y009449D01*
X005382Y009399D01*
X005250Y009449D02*
X005250Y009249D01*
X005150Y009149D01*
X005050Y009249D01*
X005050Y009449D01*
X005133Y009599D02*
X005333Y009799D01*
X005333Y009849D01*
X005283Y009899D01*
X005183Y009899D01*
X005133Y009849D01*
X005002Y009849D02*
X004801Y009649D01*
X004851Y009599D01*
X004952Y009599D01*
X005002Y009649D01*
X005002Y009849D01*
X004952Y009899D01*
X004851Y009899D01*
X004801Y009849D01*
X004801Y009649D01*
X004670Y009599D02*
X004470Y009599D01*
X004670Y009799D01*
X004670Y009849D01*
X004620Y009899D01*
X004520Y009899D01*
X004470Y009849D01*
X005133Y009599D02*
X005333Y009599D01*
X005464Y009649D02*
X005514Y009599D01*
X005615Y009599D01*
X005665Y009649D01*
X005665Y009699D01*
X005615Y009749D01*
X005564Y009749D01*
X005615Y009749D02*
X005665Y009799D01*
X005665Y009849D01*
X005615Y009899D01*
X005514Y009899D01*
X005464Y009849D01*
X005796Y009599D02*
X005996Y009899D01*
X006127Y009849D02*
X006177Y009899D01*
X006278Y009899D01*
X006328Y009849D01*
X006127Y009649D01*
X006177Y009599D01*
X006278Y009599D01*
X006328Y009649D01*
X006328Y009849D01*
X006459Y009849D02*
X006459Y009799D01*
X006509Y009749D01*
X006609Y009749D01*
X006659Y009699D01*
X006659Y009649D01*
X006609Y009599D01*
X006509Y009599D01*
X006459Y009649D01*
X006459Y009699D01*
X006509Y009749D01*
X006609Y009749D02*
X006659Y009799D01*
X006659Y009849D01*
X006609Y009899D01*
X006509Y009899D01*
X006459Y009849D01*
X006127Y009849D02*
X006127Y009649D01*
X006813Y009291D02*
X007386Y009291D01*
X007386Y010532D01*
X006813Y010532D01*
X006813Y009291D01*
X007563Y009291D02*
X008136Y009291D01*
X008136Y010532D01*
X007563Y010532D01*
X007563Y009291D01*
X006134Y010072D02*
X006134Y010564D01*
X005190Y010564D01*
X005190Y010072D01*
X006134Y010072D01*
X006134Y010808D02*
X005190Y010808D01*
X005190Y011300D01*
X006134Y011300D01*
X006134Y010808D01*
X007065Y011054D02*
X007459Y010897D01*
X007459Y011212D01*
X007065Y011054D01*
X004737Y008907D02*
X004737Y008680D01*
X004624Y008566D01*
X004510Y008680D01*
X004510Y008907D01*
X004369Y008907D02*
X004142Y008907D01*
X004142Y008737D01*
X004255Y008793D01*
X004312Y008793D01*
X004369Y008737D01*
X004369Y008623D01*
X004312Y008566D01*
X004199Y008566D01*
X004142Y008623D01*
X010919Y008680D02*
X011033Y008566D01*
X011146Y008680D01*
X011146Y008907D01*
X011287Y008907D02*
X011401Y008907D01*
X011344Y008907D02*
X011344Y008566D01*
X011287Y008566D02*
X011401Y008566D01*
X011533Y008566D02*
X011533Y008907D01*
X011760Y008566D01*
X011760Y008907D01*
X010919Y008907D02*
X010919Y008680D01*
X020810Y005211D02*
X022683Y005207D01*
X022658Y005207D01*
X022525Y006004D01*
X022561Y005987D02*
X022678Y005217D01*
X022415Y005251D02*
X022403Y005374D01*
X022295Y005368D01*
X022227Y005222D01*
X022290Y005241D02*
X022324Y005319D01*
X022381Y005323D01*
X022356Y005283D01*
X022415Y005251D02*
X022290Y005241D01*
X022043Y005294D02*
X022013Y005226D01*
X021952Y005220D02*
X022043Y005294D01*
X021912Y005447D02*
X021863Y005433D01*
X021766Y005436D01*
X021713Y005455D01*
X021662Y005452D01*
X021631Y005433D01*
X021554Y005434D01*
X021472Y005436D01*
X021431Y005436D01*
X021382Y005446D01*
X021614Y005463D01*
X021884Y005479D01*
X021716Y005566D01*
X021698Y005604D01*
X021678Y005522D01*
X021766Y005504D01*
X021648Y005500D01*
X021623Y005495D02*
X021658Y005666D01*
X021692Y005668D01*
X021733Y005600D01*
X021796Y005547D01*
X021878Y005518D01*
X021913Y005495D01*
X021912Y005447D01*
X022118Y005485D02*
X022118Y005606D01*
X022054Y005674D01*
X021981Y005712D01*
X021896Y005746D01*
X021914Y005783D01*
X021957Y005787D01*
X022054Y005774D01*
X022117Y005804D01*
X022128Y005883D01*
X022114Y005959D01*
X022280Y005961D01*
X022246Y005878D01*
X022167Y005919D01*
X022234Y005913D01*
X022234Y005832D01*
X022144Y005632D01*
X021981Y005758D01*
X022082Y005746D01*
X022137Y005687D01*
X022201Y005855D01*
X022169Y005883D01*
X022118Y005750D01*
X022118Y005485D02*
X022336Y005964D01*
X022177Y006048D02*
X022296Y006898D01*
X021777Y005968D02*
X021793Y005956D01*
X021777Y005968D02*
X021734Y005906D01*
X021718Y005973D02*
X021691Y005832D01*
X021673Y005784D02*
X021668Y005728D01*
X021443Y005748D01*
X021438Y005719D01*
X021658Y005704D01*
X021673Y005784D02*
X021440Y005789D01*
X021241Y005806D02*
X021270Y005981D01*
X021396Y005495D02*
X021623Y005495D01*
X021701Y005240D02*
X021711Y005240D01*
X021679Y005232D02*
X021654Y005211D01*
X022357Y005580D02*
X022400Y005573D01*
X022394Y005626D01*
X022386Y005678D02*
X022357Y005580D01*
X021752Y003349D02*
X021802Y003109D01*
X021772Y003099D02*
X021972Y002999D01*
X022172Y003149D01*
X022272Y003049D01*
X022172Y002849D01*
X022272Y002599D01*
X022472Y002599D01*
X022472Y002449D01*
X022222Y002399D01*
X022172Y002149D01*
X022272Y001999D01*
X022172Y001899D01*
X022022Y001999D01*
X021922Y001949D01*
X021822Y002249D01*
X021972Y002449D01*
X021922Y002699D01*
X021722Y002799D01*
X021522Y002799D01*
X021372Y002649D01*
X021372Y002349D01*
X021522Y002249D01*
X021372Y001999D01*
X021322Y001999D01*
X021172Y001899D01*
X021072Y001999D01*
X021172Y002149D01*
X021072Y002399D01*
X020872Y002449D01*
X020872Y002599D01*
X021072Y002599D01*
X021172Y002849D01*
X021022Y003049D01*
X021272Y003049D01*
X021332Y003039D02*
X021142Y003169D01*
X021002Y003029D01*
X021132Y002839D01*
X021158Y002815D02*
X022185Y002815D01*
X022182Y002839D02*
X022322Y003029D01*
X022182Y003169D01*
X021982Y003039D01*
X022039Y003049D02*
X022272Y003049D01*
X022243Y002991D02*
X021065Y002991D01*
X021022Y003049D02*
X021172Y003149D01*
X021322Y002999D01*
X021522Y003099D01*
X021572Y003299D01*
X021722Y003299D01*
X021772Y003099D01*
X021770Y003108D02*
X021524Y003108D01*
X021512Y003109D02*
X021562Y003349D01*
X021752Y003349D01*
X021726Y003283D02*
X021568Y003283D01*
X021553Y003225D02*
X021740Y003225D01*
X021755Y003166D02*
X021538Y003166D01*
X021422Y003049D02*
X021871Y003049D01*
X022117Y003108D02*
X022213Y003108D01*
X022213Y002932D02*
X021109Y002932D01*
X021153Y002874D02*
X022184Y002874D01*
X022209Y002757D02*
X021806Y002757D01*
X021922Y002698D02*
X022232Y002698D01*
X022255Y002640D02*
X021934Y002640D01*
X021945Y002581D02*
X022472Y002581D01*
X022492Y002609D02*
X022492Y002409D01*
X022272Y002369D01*
X022255Y002406D02*
X021939Y002406D01*
X021969Y002464D02*
X022472Y002464D01*
X022472Y002523D02*
X021957Y002523D01*
X021895Y002347D02*
X022211Y002347D01*
X022200Y002289D02*
X021851Y002289D01*
X021828Y002230D02*
X022188Y002230D01*
X022176Y002172D02*
X021847Y002172D01*
X021867Y002113D02*
X022196Y002113D01*
X022192Y002169D02*
X022322Y001989D01*
X022182Y001849D01*
X022002Y001969D01*
X021922Y001929D01*
X021782Y002269D01*
X021886Y002055D02*
X022235Y002055D01*
X022269Y001996D02*
X022026Y001996D01*
X022016Y001996D02*
X021906Y001996D01*
X022114Y001938D02*
X022210Y001938D01*
X022059Y001651D02*
X022059Y001351D01*
X021959Y001351D02*
X022159Y001351D01*
X022076Y001177D02*
X021876Y000877D01*
X021745Y000927D02*
X021745Y000977D01*
X021695Y001027D01*
X021645Y001027D01*
X021695Y001027D02*
X021745Y001077D01*
X021745Y001127D01*
X021695Y001177D01*
X021594Y001177D01*
X021544Y001127D01*
X021413Y001127D02*
X021413Y001077D01*
X021213Y000877D01*
X021413Y000877D01*
X021544Y000927D02*
X021594Y000877D01*
X021695Y000877D01*
X021745Y000927D01*
X021413Y001127D02*
X021363Y001177D01*
X021263Y001177D01*
X021213Y001127D01*
X021082Y001127D02*
X020881Y000927D01*
X020932Y000877D01*
X021032Y000877D01*
X021082Y000927D01*
X021082Y001127D01*
X021032Y001177D01*
X020932Y001177D01*
X020881Y001127D01*
X020881Y000927D01*
X020750Y000877D02*
X020550Y000877D01*
X020750Y001077D01*
X020750Y001127D01*
X020700Y001177D01*
X020600Y001177D01*
X020550Y001127D01*
X021130Y001451D02*
X021230Y001351D01*
X021330Y001451D01*
X021330Y001651D01*
X021462Y001601D02*
X021512Y001651D01*
X021612Y001651D01*
X021662Y001601D01*
X021662Y001551D01*
X021462Y001351D01*
X021662Y001351D01*
X021793Y001351D02*
X021843Y001351D01*
X021843Y001401D01*
X021793Y001401D01*
X021793Y001351D01*
X021959Y001551D02*
X022059Y001651D01*
X021392Y001929D02*
X021322Y001969D01*
X021142Y001849D01*
X021002Y001989D01*
X021122Y002169D01*
X021163Y002172D02*
X021475Y002172D01*
X021510Y002230D02*
X021139Y002230D01*
X021116Y002289D02*
X021462Y002289D01*
X021542Y002269D02*
X021392Y001929D01*
X021317Y001996D02*
X021075Y001996D01*
X021109Y002055D02*
X021405Y002055D01*
X021440Y002113D02*
X021148Y002113D01*
X021133Y001938D02*
X021230Y001938D01*
X021130Y001651D02*
X021130Y001451D01*
X022207Y001127D02*
X022207Y000927D01*
X022408Y001127D01*
X022408Y000927D01*
X022358Y000877D01*
X022257Y000877D01*
X022207Y000927D01*
X022539Y000927D02*
X022539Y000977D01*
X022589Y001027D01*
X022689Y001027D01*
X022739Y000977D01*
X022739Y000927D01*
X022689Y000877D01*
X022589Y000877D01*
X022539Y000927D01*
X022589Y001027D02*
X022539Y001077D01*
X022539Y001127D01*
X022589Y001177D01*
X022689Y001177D01*
X022739Y001127D01*
X022739Y001077D01*
X022689Y001027D01*
X022408Y001127D02*
X022358Y001177D01*
X022257Y001177D01*
X022207Y001127D01*
X021375Y002347D02*
X021092Y002347D01*
X021042Y002369D02*
X020822Y002409D01*
X020822Y002609D01*
X021052Y002649D01*
X021088Y002640D02*
X021372Y002640D01*
X021372Y002581D02*
X020872Y002581D01*
X020872Y002523D02*
X021372Y002523D01*
X021372Y002464D02*
X020872Y002464D01*
X021045Y002406D02*
X021372Y002406D01*
X021044Y002353D02*
X021059Y002306D01*
X021077Y002260D01*
X021099Y002216D01*
X021124Y002174D01*
X021334Y003035D02*
X021376Y003058D01*
X021419Y003077D01*
X021464Y003094D01*
X021510Y003106D01*
X021213Y003108D02*
X021110Y003108D01*
X021135Y002757D02*
X021479Y002757D01*
X021421Y002698D02*
X021111Y002698D01*
X021542Y002269D02*
X021514Y002285D01*
X021487Y002304D01*
X021464Y002326D01*
X021443Y002351D01*
X021425Y002379D01*
X021410Y002408D01*
X021400Y002439D01*
X021392Y002470D01*
X021389Y002503D01*
X021390Y002535D01*
X021394Y002568D01*
X021403Y002599D01*
X021415Y002629D01*
X021430Y002658D01*
X021449Y002685D01*
X021471Y002709D01*
X021495Y002730D01*
X021522Y002749D01*
X021551Y002764D01*
X021582Y002775D01*
X021613Y002783D01*
X021646Y002787D01*
X021678Y002787D01*
X021711Y002783D01*
X021742Y002775D01*
X021773Y002764D01*
X021802Y002749D01*
X021829Y002730D01*
X021853Y002709D01*
X021875Y002685D01*
X021894Y002658D01*
X021909Y002629D01*
X021921Y002599D01*
X021930Y002568D01*
X021934Y002535D01*
X021935Y002503D01*
X021932Y002470D01*
X021924Y002439D01*
X021914Y002408D01*
X021899Y002379D01*
X021881Y002351D01*
X021860Y002326D01*
X021837Y002304D01*
X021810Y002285D01*
X021782Y002269D01*
X022274Y002650D02*
X022262Y002690D01*
X022247Y002729D01*
X022229Y002767D01*
X022209Y002803D01*
X022187Y002838D01*
X022272Y002649D02*
X022492Y002609D01*
X021981Y003039D02*
X021938Y003062D01*
X021894Y003082D01*
X021848Y003098D01*
X021802Y003110D01*
X022271Y002370D02*
X022261Y002328D01*
X022248Y002287D01*
X022232Y002247D01*
X022213Y002208D01*
X022191Y002171D01*
X021050Y002651D02*
X021061Y002691D01*
X021075Y002730D01*
X021091Y002767D01*
X021110Y002804D01*
X021131Y002839D01*
D11*
X023572Y000534D02*
X001034Y000534D01*
X000990Y000536D01*
X000947Y000542D01*
X000905Y000551D01*
X000863Y000564D01*
X000823Y000581D01*
X000784Y000601D01*
X000747Y000624D01*
X000713Y000651D01*
X000680Y000680D01*
X000651Y000713D01*
X000624Y000747D01*
X000601Y000784D01*
X000581Y000823D01*
X000564Y000863D01*
X000551Y000905D01*
X000542Y000947D01*
X000536Y000990D01*
X000534Y001034D01*
X000534Y014435D01*
X000536Y014478D01*
X000542Y014522D01*
X000551Y014564D01*
X000564Y014606D01*
X000581Y014646D01*
X000601Y014684D01*
X000625Y014721D01*
X000651Y014756D01*
X000681Y014788D01*
X000713Y014817D01*
X000748Y014843D01*
X000784Y014867D01*
X000823Y014887D01*
X000863Y014903D01*
X000905Y014916D01*
X000947Y014926D01*
X000990Y014931D01*
X001034Y014933D01*
X031519Y014933D01*
X031518Y014933D02*
X031563Y014932D01*
X031606Y014926D01*
X031649Y014917D01*
X031692Y014905D01*
X031733Y014888D01*
X031772Y014869D01*
X031809Y014845D01*
X031845Y014819D01*
X031877Y014790D01*
X031908Y014758D01*
X031935Y014723D01*
X031959Y014686D01*
X031980Y014647D01*
X031997Y014607D01*
X032011Y014565D01*
X032021Y014522D01*
X032027Y014478D01*
X032030Y014435D01*
X032030Y001034D01*
X032030Y001033D02*
X032028Y000989D01*
X032021Y000946D01*
X032011Y000903D01*
X031998Y000861D01*
X031980Y000820D01*
X031959Y000781D01*
X031935Y000744D01*
X031908Y000710D01*
X031878Y000677D01*
X031845Y000648D01*
X031810Y000621D01*
X031772Y000598D01*
X031733Y000578D01*
X031692Y000562D01*
X031650Y000549D01*
X031606Y000540D01*
X031563Y000534D01*
X031518Y000533D01*
X031519Y000534D02*
X029864Y000534D01*
X029865Y000534D02*
X029864Y000562D01*
X029860Y000590D01*
X029853Y000617D01*
X029841Y000643D01*
X029827Y000668D01*
X029809Y000690D01*
X029789Y000710D01*
X029766Y000727D01*
X029741Y000741D01*
X029715Y000751D01*
X029688Y000758D01*
X029659Y000762D01*
X029509Y000762D01*
X029481Y000758D01*
X029454Y000751D01*
X029428Y000740D01*
X029404Y000726D01*
X029382Y000709D01*
X029362Y000689D01*
X029345Y000667D01*
X029331Y000643D01*
X029320Y000617D01*
X029313Y000590D01*
X029309Y000562D01*
X029309Y000534D01*
X024122Y000534D01*
X024122Y000562D01*
X024118Y000590D01*
X024111Y000617D01*
X024100Y000643D01*
X024086Y000667D01*
X024069Y000689D01*
X024049Y000709D01*
X024027Y000726D01*
X024003Y000740D01*
X023977Y000751D01*
X023950Y000758D01*
X023922Y000762D01*
X023772Y000762D01*
X023744Y000758D01*
X023717Y000751D01*
X023691Y000740D01*
X023667Y000726D01*
X023645Y000709D01*
X023625Y000689D01*
X023608Y000667D01*
X023594Y000643D01*
X023583Y000617D01*
X023576Y000590D01*
X023572Y000562D01*
X023572Y000534D01*
X023772Y001684D02*
X023922Y001684D01*
X023950Y001688D01*
X023977Y001695D01*
X024003Y001706D01*
X024027Y001720D01*
X024049Y001737D01*
X024069Y001757D01*
X024086Y001779D01*
X024100Y001803D01*
X024111Y001829D01*
X024118Y001856D01*
X024122Y001884D01*
X024122Y001912D01*
X029309Y001912D01*
X029309Y001884D01*
X029313Y001856D01*
X029320Y001829D01*
X029331Y001803D01*
X029345Y001779D01*
X029362Y001757D01*
X029382Y001737D01*
X029404Y001720D01*
X029428Y001706D01*
X029454Y001695D01*
X029481Y001688D01*
X029509Y001684D01*
X029659Y001684D01*
X029659Y001683D02*
X029688Y001687D01*
X029715Y001694D01*
X029741Y001704D01*
X029766Y001718D01*
X029789Y001735D01*
X029809Y001755D01*
X029827Y001777D01*
X029841Y001802D01*
X029853Y001828D01*
X029860Y001855D01*
X029864Y001883D01*
X029865Y001911D01*
X029864Y001912D02*
X029864Y008502D01*
X029865Y008502D02*
X029860Y008544D01*
X029852Y008586D01*
X029840Y008627D01*
X029825Y008667D01*
X029807Y008705D01*
X029785Y008742D01*
X029761Y008777D01*
X029734Y008809D01*
X029704Y008840D01*
X029672Y008867D01*
X029638Y008892D01*
X029601Y008915D01*
X029563Y008934D01*
X029524Y008949D01*
X029483Y008962D01*
X029442Y008971D01*
X029400Y008977D01*
X029357Y008979D01*
X029315Y008978D01*
X029314Y008977D02*
X023522Y008977D01*
X023522Y008978D02*
X023477Y008972D01*
X023433Y008963D01*
X023390Y008951D01*
X023349Y008934D01*
X023309Y008914D01*
X023270Y008890D01*
X023234Y008864D01*
X023201Y008834D01*
X023170Y008801D01*
X023142Y008766D01*
X023118Y008729D01*
X023096Y008689D01*
X023079Y008648D01*
X023065Y008605D01*
X023054Y008562D01*
X023048Y008517D01*
X023045Y008473D01*
X023046Y008428D01*
X023047Y008427D02*
X023047Y004942D01*
X024425Y004942D01*
X024425Y005745D01*
X024431Y005797D01*
X024441Y005849D01*
X024454Y005900D01*
X024471Y005950D01*
X024492Y005998D01*
X024516Y006045D01*
X024544Y006090D01*
X024575Y006132D01*
X024609Y006173D01*
X024646Y006210D01*
X024685Y006245D01*
X024727Y006277D01*
X024771Y006306D01*
X024817Y006331D01*
X024865Y006353D01*
X024915Y006372D01*
X024965Y006386D01*
X025017Y006397D01*
X025069Y006404D01*
X025069Y006405D02*
X025919Y006405D01*
X025942Y006420D01*
X025965Y006438D01*
X025985Y006458D01*
X026003Y006481D01*
X026018Y006505D01*
X026019Y006505D02*
X026039Y006555D01*
X026062Y006603D01*
X026089Y006650D01*
X026119Y006695D01*
X026153Y006737D01*
X026189Y006777D01*
X026227Y006815D01*
X026269Y006849D01*
X026312Y006881D01*
X026358Y006910D01*
X026406Y006935D01*
X026455Y006957D01*
X026505Y006975D01*
X026557Y006990D01*
X026610Y007001D01*
X026663Y007009D01*
X026717Y007013D01*
X026771Y007013D01*
X026825Y007009D01*
X026878Y007001D01*
X026931Y006990D01*
X026983Y006975D01*
X027033Y006957D01*
X027082Y006935D01*
X027130Y006910D01*
X027176Y006881D01*
X027219Y006849D01*
X027261Y006815D01*
X027299Y006777D01*
X027335Y006737D01*
X027369Y006695D01*
X027399Y006650D01*
X027426Y006603D01*
X027449Y006555D01*
X027469Y006505D01*
X027491Y006470D01*
X027515Y006438D01*
X027542Y006407D01*
X027571Y006378D01*
X027602Y006351D01*
X027634Y006327D01*
X027669Y006305D01*
X028601Y006305D01*
X028601Y006304D02*
X028643Y006297D01*
X028684Y006286D01*
X028724Y006272D01*
X028762Y006254D01*
X028799Y006233D01*
X028834Y006208D01*
X028866Y006181D01*
X028896Y006151D01*
X028924Y006119D01*
X028948Y006084D01*
X028969Y006048D01*
X028988Y006009D01*
X029002Y005969D01*
X029013Y005928D01*
X029021Y005887D01*
X029024Y005845D01*
X029025Y005845D02*
X029025Y003231D01*
X029024Y003231D02*
X029004Y003187D01*
X028980Y003145D01*
X028953Y003105D01*
X028923Y003067D01*
X028890Y003032D01*
X028854Y002999D01*
X028816Y002969D01*
X028776Y002942D01*
X028733Y002919D01*
X028689Y002899D01*
X028644Y002882D01*
X028597Y002869D01*
X028550Y002860D01*
X028502Y002855D01*
X028453Y002853D01*
X028405Y002855D01*
X028357Y002861D01*
X028310Y002871D01*
X028263Y002884D01*
X028218Y002901D01*
X028121Y002995D02*
X025331Y002995D01*
X025330Y002995D02*
X025316Y002971D01*
X025299Y002949D01*
X025278Y002930D01*
X025255Y002914D01*
X025231Y002901D01*
X024425Y003231D02*
X024425Y003367D01*
X023047Y003367D01*
X023047Y002275D01*
X023046Y002275D02*
X023051Y002237D01*
X023060Y002199D01*
X023072Y002162D01*
X023088Y002127D01*
X023107Y002093D01*
X023130Y002061D01*
X023155Y002032D01*
X023184Y002005D01*
X023214Y001981D01*
X023247Y001961D01*
X023282Y001943D01*
X023318Y001929D01*
X023356Y001919D01*
X023394Y001913D01*
X023433Y001910D01*
X023472Y001911D01*
X023472Y001912D02*
X023572Y001912D01*
X023572Y001884D01*
X023576Y001856D01*
X023583Y001829D01*
X023594Y001803D01*
X023608Y001779D01*
X023625Y001757D01*
X023645Y001737D01*
X023667Y001720D01*
X023691Y001706D01*
X023717Y001695D01*
X023744Y001688D01*
X023772Y001684D01*
X020291Y002462D02*
X020291Y003367D01*
X018913Y003367D01*
X018913Y003247D01*
X018911Y003211D01*
X018905Y003174D01*
X018895Y003139D01*
X018882Y003105D01*
X018865Y003072D01*
X018844Y003041D01*
X018821Y003013D01*
X018795Y002987D01*
X018766Y002964D01*
X018735Y002945D01*
X018702Y002928D01*
X018668Y002915D01*
X018632Y002906D01*
X018596Y002901D01*
X018559Y002899D01*
X014199Y002899D01*
X014169Y002901D01*
X014139Y002906D01*
X014110Y002915D01*
X014083Y002928D01*
X014057Y002943D01*
X014033Y002962D01*
X014012Y002983D01*
X013993Y003007D01*
X013978Y003033D01*
X013965Y003060D01*
X013956Y003089D01*
X013951Y003119D01*
X013949Y003149D01*
X013949Y005555D01*
X013949Y005554D02*
X013950Y005592D01*
X013954Y005629D01*
X013962Y005666D01*
X013973Y005702D01*
X013988Y005737D01*
X014006Y005770D01*
X014027Y005802D01*
X014051Y005830D01*
X014078Y005857D01*
X014108Y005881D01*
X014139Y005901D01*
X014173Y005919D01*
X014208Y005933D01*
X014244Y005943D01*
X014281Y005950D01*
X014319Y005954D01*
X014319Y005955D02*
X015169Y005955D01*
X015168Y005955D02*
X015192Y005970D01*
X015215Y005988D01*
X015235Y006008D01*
X015253Y006031D01*
X015268Y006055D01*
X015269Y006055D02*
X015289Y006105D01*
X015312Y006153D01*
X015339Y006200D01*
X015369Y006245D01*
X015403Y006287D01*
X015439Y006327D01*
X015477Y006365D01*
X015519Y006399D01*
X015562Y006431D01*
X015608Y006460D01*
X015656Y006485D01*
X015705Y006507D01*
X015755Y006525D01*
X015807Y006540D01*
X015860Y006551D01*
X015913Y006559D01*
X015967Y006563D01*
X016021Y006563D01*
X016075Y006559D01*
X016128Y006551D01*
X016181Y006540D01*
X016233Y006525D01*
X016283Y006507D01*
X016332Y006485D01*
X016380Y006460D01*
X016426Y006431D01*
X016469Y006399D01*
X016511Y006365D01*
X016549Y006327D01*
X016585Y006287D01*
X016619Y006245D01*
X016649Y006200D01*
X016676Y006153D01*
X016699Y006105D01*
X016719Y006055D01*
X016819Y005955D02*
X017751Y005955D01*
X016819Y005955D02*
X016795Y005970D01*
X016772Y005988D01*
X016752Y006008D01*
X016734Y006031D01*
X016719Y006055D01*
X018913Y004998D02*
X018913Y004942D01*
X020291Y004942D01*
X020291Y008957D01*
X019404Y008957D01*
X019404Y008956D02*
X019381Y008957D01*
X019358Y008954D01*
X019335Y008948D01*
X019314Y008938D01*
X019294Y008926D01*
X019276Y008911D01*
X019261Y008894D01*
X019248Y008874D01*
X019238Y008853D01*
X019231Y008831D01*
X019228Y008808D01*
X019228Y008137D01*
X019226Y008103D01*
X019220Y008070D01*
X019211Y008037D01*
X019198Y008006D01*
X019182Y007976D01*
X019162Y007948D01*
X019139Y007923D01*
X019114Y007900D01*
X019086Y007880D01*
X019056Y007864D01*
X019025Y007851D01*
X018992Y007842D01*
X018959Y007836D01*
X018925Y007834D01*
X018891Y007836D01*
X018858Y007842D01*
X018825Y007851D01*
X018794Y007864D01*
X018764Y007880D01*
X018736Y007900D01*
X018711Y007923D01*
X018688Y007948D01*
X018668Y007976D01*
X018652Y008006D01*
X018639Y008037D01*
X018630Y008070D01*
X018624Y008103D01*
X018622Y008137D01*
X018623Y008137D02*
X018623Y008336D01*
X018473Y008486D01*
X018253Y008486D01*
X017757Y009010D02*
X017757Y009089D01*
X017678Y009089D01*
X017757Y009089D02*
X017757Y009167D01*
X017757Y009370D02*
X017757Y009449D01*
X017678Y009449D01*
X017757Y009449D02*
X017757Y009527D01*
X017200Y010269D02*
X017150Y010231D01*
X017102Y010190D01*
X017057Y010146D01*
X017015Y010100D01*
X016975Y010051D01*
X016939Y009999D01*
X016906Y009946D01*
X016876Y009891D01*
X016849Y009834D01*
X016826Y009775D01*
X016807Y009715D01*
X016791Y009654D01*
X016779Y009593D01*
X016770Y009530D01*
X016766Y009467D01*
X016765Y009405D01*
X016768Y009342D01*
X016775Y009279D01*
X016786Y009217D01*
X016800Y009156D01*
X016818Y009096D01*
X016840Y009037D01*
X016865Y008979D01*
X016894Y008923D01*
X016926Y008869D01*
X016961Y008817D01*
X016999Y008767D01*
X017040Y008719D01*
X017085Y008674D01*
X017131Y008632D01*
X017180Y008593D01*
X017232Y008557D01*
X017285Y008524D01*
X017341Y008494D01*
X017398Y008468D01*
X017456Y008445D01*
X017516Y008426D01*
X017577Y008410D01*
X017639Y008398D01*
X017701Y008390D01*
X017764Y008386D01*
X017827Y008385D01*
X017890Y008389D01*
X017952Y008396D01*
X018014Y008407D01*
X018076Y008421D01*
X018136Y008439D01*
X018195Y008461D01*
X018252Y008487D01*
X017757Y009730D02*
X017757Y009809D01*
X017678Y009809D01*
X017757Y009809D02*
X017757Y009887D01*
X018788Y010447D02*
X018788Y011397D01*
X017688Y011397D01*
X017688Y010897D01*
X018788Y010897D01*
X018788Y010947D02*
X017688Y010947D01*
X017688Y010997D02*
X018788Y010997D01*
X018788Y011047D02*
X017688Y011047D01*
X017688Y011097D02*
X018788Y011097D01*
X018788Y011147D02*
X017688Y011147D01*
X017688Y011197D02*
X018788Y011197D01*
X018788Y011247D02*
X017688Y011247D01*
X017688Y011297D02*
X018788Y011297D01*
X018788Y011347D02*
X017688Y011347D01*
X017688Y011397D02*
X018788Y011397D01*
X018789Y010447D02*
X018788Y010423D01*
X018791Y010400D01*
X018798Y010378D01*
X018807Y010356D01*
X018819Y010336D01*
X018835Y010319D01*
X018852Y010303D01*
X018872Y010290D01*
X018893Y010280D01*
X018915Y010273D01*
X018938Y010270D01*
X018938Y010269D02*
X019078Y010269D01*
X019101Y010265D01*
X019123Y010259D01*
X019144Y010250D01*
X019163Y010237D01*
X019181Y010222D01*
X019196Y010205D01*
X019208Y010186D01*
X019218Y010165D01*
X019224Y010143D01*
X019228Y010120D01*
X019228Y010097D01*
X019228Y010034D01*
X019227Y010011D01*
X019230Y009988D01*
X019236Y009966D01*
X019245Y009945D01*
X019257Y009925D01*
X019271Y009907D01*
X019288Y009891D01*
X019307Y009878D01*
X019328Y009868D01*
X019350Y009861D01*
X019373Y009857D01*
X020291Y009857D01*
X020291Y012686D01*
X020291Y012685D02*
X020286Y012727D01*
X020278Y012769D01*
X020266Y012810D01*
X020251Y012850D01*
X020233Y012888D01*
X020211Y012925D01*
X020187Y012960D01*
X020160Y012992D01*
X020130Y013023D01*
X020098Y013050D01*
X020064Y013075D01*
X020027Y013098D01*
X019989Y013117D01*
X019950Y013132D01*
X019909Y013145D01*
X019868Y013154D01*
X019826Y013160D01*
X019783Y013162D01*
X019741Y013161D01*
X008521Y013161D01*
X008521Y011586D01*
X011680Y011586D01*
X011714Y011584D01*
X011747Y011578D01*
X011779Y011569D01*
X011810Y011556D01*
X011840Y011540D01*
X011867Y011521D01*
X011892Y011498D01*
X011915Y011473D01*
X011934Y011446D01*
X011950Y011416D01*
X011963Y011385D01*
X011972Y011353D01*
X011978Y011320D01*
X011980Y011286D01*
X011980Y004786D01*
X010680Y003486D01*
X008521Y003486D01*
X008521Y001912D01*
X019815Y001912D01*
X019815Y001911D02*
X019857Y001916D01*
X019899Y001924D01*
X019940Y001936D01*
X019980Y001951D01*
X020018Y001969D01*
X020055Y001991D01*
X020090Y002015D01*
X020122Y002042D01*
X020153Y002072D01*
X020180Y002104D01*
X020205Y002138D01*
X020228Y002175D01*
X020247Y002213D01*
X020262Y002252D01*
X020275Y002293D01*
X020284Y002334D01*
X020290Y002376D01*
X020292Y002419D01*
X020291Y002461D01*
X018163Y003186D02*
X018163Y004436D01*
X015413Y004436D01*
X015413Y003136D01*
X018163Y003186D01*
X018163Y003201D02*
X015413Y003201D01*
X015413Y003153D02*
X016331Y003153D01*
X015413Y003250D02*
X018163Y003250D01*
X018163Y003298D02*
X015413Y003298D01*
X015413Y003347D02*
X018163Y003347D01*
X018163Y003395D02*
X015413Y003395D01*
X015413Y003444D02*
X018163Y003444D01*
X018163Y003492D02*
X015413Y003492D01*
X015413Y003541D02*
X018163Y003541D01*
X018163Y003589D02*
X015413Y003589D01*
X015413Y003638D02*
X018163Y003638D01*
X018163Y003686D02*
X015413Y003686D01*
X015413Y003735D02*
X018163Y003735D01*
X018163Y003783D02*
X015413Y003783D01*
X015413Y003832D02*
X018163Y003832D01*
X018163Y003880D02*
X015413Y003880D01*
X015413Y003929D02*
X018163Y003929D01*
X018163Y003977D02*
X015413Y003977D01*
X015413Y004026D02*
X018163Y004026D01*
X018163Y004074D02*
X015413Y004074D01*
X015413Y004123D02*
X018163Y004123D01*
X018163Y004171D02*
X015413Y004171D01*
X015413Y004220D02*
X018163Y004220D01*
X018163Y004268D02*
X015413Y004268D01*
X015413Y004317D02*
X018163Y004317D01*
X018163Y004365D02*
X015413Y004365D01*
X015413Y004414D02*
X018163Y004414D01*
X018913Y004998D02*
X018905Y005061D01*
X018893Y005124D01*
X018877Y005187D01*
X018858Y005248D01*
X018835Y005308D01*
X018808Y005366D01*
X018778Y005423D01*
X018744Y005478D01*
X018707Y005531D01*
X018667Y005581D01*
X018624Y005629D01*
X018579Y005674D01*
X018530Y005716D01*
X018480Y005756D01*
X018426Y005792D01*
X018371Y005825D01*
X018314Y005854D01*
X018255Y005880D01*
X018195Y005903D01*
X018134Y005922D01*
X018071Y005937D01*
X018008Y005948D01*
X017944Y005955D01*
X017880Y005959D01*
X017816Y005958D01*
X017751Y005954D01*
X020460Y004452D02*
X020490Y004472D01*
X021550Y004632D02*
X021550Y004652D01*
X022363Y004657D02*
X022383Y004620D01*
X022405Y004592D01*
X022438Y004577D01*
X022473Y004570D02*
X022538Y004597D01*
X022570Y004660D01*
X022565Y004732D01*
X022523Y004782D01*
X022500Y004797D01*
X022438Y004797D01*
X022385Y004762D01*
X022363Y004717D01*
X022363Y004657D01*
X024425Y003231D02*
X024445Y003187D01*
X024469Y003145D01*
X024496Y003105D01*
X024526Y003067D01*
X024559Y003032D01*
X024595Y002999D01*
X024633Y002969D01*
X024673Y002942D01*
X024716Y002919D01*
X024760Y002899D01*
X024805Y002882D01*
X024852Y002869D01*
X024899Y002860D01*
X024947Y002855D01*
X024996Y002853D01*
X025044Y002855D01*
X025092Y002861D01*
X025139Y002871D01*
X025186Y002884D01*
X025231Y002901D01*
X028121Y002995D02*
X028135Y002971D01*
X028152Y002949D01*
X028171Y002930D01*
X028194Y002914D01*
X028218Y002901D01*
X010953Y004615D02*
X010826Y004488D01*
X010890Y004552D02*
X010699Y004743D01*
X010699Y004615D01*
X010554Y004598D02*
X010490Y004534D01*
X010522Y004566D02*
X010681Y004407D01*
X010681Y004343D01*
X010650Y004311D01*
X010586Y004311D01*
X010505Y004230D02*
X010505Y004167D01*
X010441Y004103D01*
X010377Y004103D01*
X010346Y004199D02*
X010409Y004262D01*
X010473Y004262D01*
X010505Y004230D01*
X010346Y004199D02*
X010282Y004199D01*
X010250Y004230D01*
X010250Y004294D01*
X010314Y004358D01*
X010377Y004358D01*
X009309Y004163D02*
X009230Y004163D01*
X009230Y004084D01*
X009230Y004163D02*
X009151Y004163D01*
X007340Y003486D02*
X004184Y003486D01*
X004150Y003488D01*
X004117Y003493D01*
X004084Y003502D01*
X004053Y003515D01*
X004023Y003531D01*
X003995Y003551D01*
X003970Y003573D01*
X003947Y003598D01*
X003927Y003626D01*
X003911Y003655D01*
X003898Y003687D01*
X003888Y003719D01*
X003882Y003752D01*
X003880Y003786D01*
X003880Y010336D01*
X005130Y011586D01*
X007340Y011586D01*
X007340Y013161D01*
X003175Y013161D01*
X003130Y013155D01*
X003086Y013146D01*
X003043Y013134D01*
X003002Y013117D01*
X002962Y013097D01*
X002923Y013073D01*
X002887Y013047D01*
X002854Y013017D01*
X002823Y012984D01*
X002795Y012949D01*
X002771Y012912D01*
X002749Y012872D01*
X002732Y012831D01*
X002718Y012788D01*
X002707Y012745D01*
X002701Y012700D01*
X002698Y012656D01*
X002699Y012611D01*
X002699Y002387D01*
X002704Y002345D01*
X002712Y002303D01*
X002724Y002262D01*
X002739Y002222D01*
X002757Y002184D01*
X002779Y002147D01*
X002803Y002112D01*
X002830Y002080D01*
X002860Y002049D01*
X002892Y002022D01*
X002926Y001997D01*
X002963Y001974D01*
X003001Y001955D01*
X003040Y001940D01*
X003081Y001927D01*
X003122Y001918D01*
X003164Y001912D01*
X003207Y001910D01*
X003249Y001911D01*
X003249Y001912D02*
X007340Y001912D01*
X007340Y003486D01*
X006709Y004163D02*
X006630Y004163D01*
X006630Y004084D01*
X006630Y004163D02*
X006551Y004163D01*
X005843Y004105D02*
X005843Y005168D01*
X005194Y005168D02*
X005194Y004105D01*
X005211Y003882D02*
X005211Y003591D01*
X005017Y003882D01*
X005017Y003591D01*
X004905Y003591D02*
X004809Y003591D01*
X004857Y003591D02*
X004857Y003882D01*
X004809Y003882D02*
X004905Y003882D01*
X004932Y005541D02*
X004932Y005832D01*
X005028Y005832D02*
X004835Y005832D01*
X004715Y005832D02*
X004715Y005590D01*
X004667Y005541D01*
X004570Y005541D01*
X004522Y005590D01*
X004522Y005832D01*
X004402Y005783D02*
X004354Y005832D01*
X004257Y005832D01*
X004209Y005783D01*
X004209Y005590D01*
X004257Y005541D01*
X004354Y005541D01*
X004402Y005590D01*
X004402Y005783D01*
X007551Y005829D02*
X007551Y005559D01*
X007686Y005559D01*
X007731Y005604D01*
X007731Y005649D01*
X007686Y005694D01*
X007551Y005694D01*
X007686Y005694D02*
X007731Y005739D01*
X007731Y005784D01*
X007686Y005829D01*
X007551Y005829D01*
X007845Y005739D02*
X007935Y005829D01*
X008025Y005739D01*
X008025Y005559D01*
X008025Y005694D02*
X007845Y005694D01*
X007845Y005739D02*
X007845Y005559D01*
X008230Y005559D02*
X008230Y005829D01*
X008140Y005829D02*
X008320Y005829D01*
X008502Y006786D02*
X008749Y006786D01*
X008502Y006786D02*
X008502Y008538D01*
X008749Y008538D01*
X009849Y008538D02*
X010096Y008538D01*
X010096Y006786D01*
X009849Y006786D01*
X009946Y009529D02*
X009699Y009529D01*
X009946Y009529D02*
X009946Y011281D01*
X009699Y011281D01*
X008599Y011281D02*
X008352Y011281D01*
X008352Y009529D01*
X008599Y009529D01*
X007794Y010729D02*
X006731Y010729D01*
X006731Y011379D02*
X007794Y011379D01*
X017200Y010268D02*
X017254Y010301D01*
X017305Y010337D01*
X017355Y010376D01*
X017401Y010417D01*
X017446Y010462D01*
X017487Y010509D01*
X017525Y010559D01*
X017561Y010611D01*
X017593Y010664D01*
X017622Y010720D01*
X017648Y010777D01*
X017670Y010836D01*
X017688Y010896D01*
X019755Y013735D02*
X019820Y013768D01*
D12*
X026740Y003855D03*
D13*
X030325Y002565D02*
X030327Y002613D01*
X030333Y002661D01*
X030343Y002708D01*
X030356Y002754D01*
X030374Y002799D01*
X030394Y002843D01*
X030419Y002885D01*
X030447Y002924D01*
X030477Y002961D01*
X030511Y002995D01*
X030548Y003027D01*
X030586Y003056D01*
X030627Y003081D01*
X030670Y003103D01*
X030715Y003121D01*
X030761Y003135D01*
X030808Y003146D01*
X030856Y003153D01*
X030904Y003156D01*
X030952Y003155D01*
X031000Y003150D01*
X031048Y003141D01*
X031094Y003129D01*
X031139Y003112D01*
X031183Y003092D01*
X031225Y003069D01*
X031265Y003042D01*
X031303Y003012D01*
X031338Y002979D01*
X031370Y002943D01*
X031400Y002905D01*
X031426Y002864D01*
X031448Y002821D01*
X031468Y002777D01*
X031483Y002732D01*
X031495Y002685D01*
X031503Y002637D01*
X031507Y002589D01*
X031507Y002541D01*
X031503Y002493D01*
X031495Y002445D01*
X031483Y002398D01*
X031468Y002353D01*
X031448Y002309D01*
X031426Y002266D01*
X031400Y002225D01*
X031370Y002187D01*
X031338Y002151D01*
X031303Y002118D01*
X031265Y002088D01*
X031225Y002061D01*
X031183Y002038D01*
X031139Y002018D01*
X031094Y002001D01*
X031048Y001989D01*
X031000Y001980D01*
X030952Y001975D01*
X030904Y001974D01*
X030856Y001977D01*
X030808Y001984D01*
X030761Y001995D01*
X030715Y002009D01*
X030670Y002027D01*
X030627Y002049D01*
X030586Y002074D01*
X030548Y002103D01*
X030511Y002135D01*
X030477Y002169D01*
X030447Y002206D01*
X030419Y002245D01*
X030394Y002287D01*
X030374Y002331D01*
X030356Y002376D01*
X030343Y002422D01*
X030333Y002469D01*
X030327Y002517D01*
X030325Y002565D01*
X030325Y012065D02*
X030327Y012113D01*
X030333Y012161D01*
X030343Y012208D01*
X030356Y012254D01*
X030374Y012299D01*
X030394Y012343D01*
X030419Y012385D01*
X030447Y012424D01*
X030477Y012461D01*
X030511Y012495D01*
X030548Y012527D01*
X030586Y012556D01*
X030627Y012581D01*
X030670Y012603D01*
X030715Y012621D01*
X030761Y012635D01*
X030808Y012646D01*
X030856Y012653D01*
X030904Y012656D01*
X030952Y012655D01*
X031000Y012650D01*
X031048Y012641D01*
X031094Y012629D01*
X031139Y012612D01*
X031183Y012592D01*
X031225Y012569D01*
X031265Y012542D01*
X031303Y012512D01*
X031338Y012479D01*
X031370Y012443D01*
X031400Y012405D01*
X031426Y012364D01*
X031448Y012321D01*
X031468Y012277D01*
X031483Y012232D01*
X031495Y012185D01*
X031503Y012137D01*
X031507Y012089D01*
X031507Y012041D01*
X031503Y011993D01*
X031495Y011945D01*
X031483Y011898D01*
X031468Y011853D01*
X031448Y011809D01*
X031426Y011766D01*
X031400Y011725D01*
X031370Y011687D01*
X031338Y011651D01*
X031303Y011618D01*
X031265Y011588D01*
X031225Y011561D01*
X031183Y011538D01*
X031139Y011518D01*
X031094Y011501D01*
X031048Y011489D01*
X031000Y011480D01*
X030952Y011475D01*
X030904Y011474D01*
X030856Y011477D01*
X030808Y011484D01*
X030761Y011495D01*
X030715Y011509D01*
X030670Y011527D01*
X030627Y011549D01*
X030586Y011574D01*
X030548Y011603D01*
X030511Y011635D01*
X030477Y011669D01*
X030447Y011706D01*
X030419Y011745D01*
X030394Y011787D01*
X030374Y011831D01*
X030356Y011876D01*
X030343Y011922D01*
X030333Y011969D01*
X030327Y012017D01*
X030325Y012065D01*
X001046Y012065D02*
X001048Y012113D01*
X001054Y012161D01*
X001064Y012208D01*
X001077Y012254D01*
X001095Y012299D01*
X001115Y012343D01*
X001140Y012385D01*
X001168Y012424D01*
X001198Y012461D01*
X001232Y012495D01*
X001269Y012527D01*
X001307Y012556D01*
X001348Y012581D01*
X001391Y012603D01*
X001436Y012621D01*
X001482Y012635D01*
X001529Y012646D01*
X001577Y012653D01*
X001625Y012656D01*
X001673Y012655D01*
X001721Y012650D01*
X001769Y012641D01*
X001815Y012629D01*
X001860Y012612D01*
X001904Y012592D01*
X001946Y012569D01*
X001986Y012542D01*
X002024Y012512D01*
X002059Y012479D01*
X002091Y012443D01*
X002121Y012405D01*
X002147Y012364D01*
X002169Y012321D01*
X002189Y012277D01*
X002204Y012232D01*
X002216Y012185D01*
X002224Y012137D01*
X002228Y012089D01*
X002228Y012041D01*
X002224Y011993D01*
X002216Y011945D01*
X002204Y011898D01*
X002189Y011853D01*
X002169Y011809D01*
X002147Y011766D01*
X002121Y011725D01*
X002091Y011687D01*
X002059Y011651D01*
X002024Y011618D01*
X001986Y011588D01*
X001946Y011561D01*
X001904Y011538D01*
X001860Y011518D01*
X001815Y011501D01*
X001769Y011489D01*
X001721Y011480D01*
X001673Y011475D01*
X001625Y011474D01*
X001577Y011477D01*
X001529Y011484D01*
X001482Y011495D01*
X001436Y011509D01*
X001391Y011527D01*
X001348Y011549D01*
X001307Y011574D01*
X001269Y011603D01*
X001232Y011635D01*
X001198Y011669D01*
X001168Y011706D01*
X001140Y011745D01*
X001115Y011787D01*
X001095Y011831D01*
X001077Y011876D01*
X001064Y011922D01*
X001054Y011969D01*
X001048Y012017D01*
X001046Y012065D01*
X001046Y002565D02*
X001048Y002613D01*
X001054Y002661D01*
X001064Y002708D01*
X001077Y002754D01*
X001095Y002799D01*
X001115Y002843D01*
X001140Y002885D01*
X001168Y002924D01*
X001198Y002961D01*
X001232Y002995D01*
X001269Y003027D01*
X001307Y003056D01*
X001348Y003081D01*
X001391Y003103D01*
X001436Y003121D01*
X001482Y003135D01*
X001529Y003146D01*
X001577Y003153D01*
X001625Y003156D01*
X001673Y003155D01*
X001721Y003150D01*
X001769Y003141D01*
X001815Y003129D01*
X001860Y003112D01*
X001904Y003092D01*
X001946Y003069D01*
X001986Y003042D01*
X002024Y003012D01*
X002059Y002979D01*
X002091Y002943D01*
X002121Y002905D01*
X002147Y002864D01*
X002169Y002821D01*
X002189Y002777D01*
X002204Y002732D01*
X002216Y002685D01*
X002224Y002637D01*
X002228Y002589D01*
X002228Y002541D01*
X002224Y002493D01*
X002216Y002445D01*
X002204Y002398D01*
X002189Y002353D01*
X002169Y002309D01*
X002147Y002266D01*
X002121Y002225D01*
X002091Y002187D01*
X002059Y002151D01*
X002024Y002118D01*
X001986Y002088D01*
X001946Y002061D01*
X001904Y002038D01*
X001860Y002018D01*
X001815Y002001D01*
X001769Y001989D01*
X001721Y001980D01*
X001673Y001975D01*
X001625Y001974D01*
X001577Y001977D01*
X001529Y001984D01*
X001482Y001995D01*
X001436Y002009D01*
X001391Y002027D01*
X001348Y002049D01*
X001307Y002074D01*
X001269Y002103D01*
X001232Y002135D01*
X001198Y002169D01*
X001168Y002206D01*
X001140Y002245D01*
X001115Y002287D01*
X001095Y002331D01*
X001077Y002376D01*
X001064Y002422D01*
X001054Y002469D01*
X001048Y002517D01*
X001046Y002565D01*
D14*
X014084Y005505D02*
X014234Y005355D01*
X014234Y005655D01*
X014084Y005505D01*
X016780Y001634D02*
X016680Y001534D01*
X016880Y001534D01*
X016780Y001634D01*
X016806Y001373D02*
X016555Y001373D01*
X016555Y000873D01*
X016806Y000873D01*
X016889Y000956D01*
X016889Y001039D01*
X016806Y001123D01*
X016555Y001123D01*
X016337Y001123D02*
X016170Y001123D01*
X016337Y001123D02*
X016337Y000956D01*
X016253Y000873D01*
X016086Y000873D01*
X016003Y000956D01*
X016003Y001290D01*
X016086Y001373D01*
X016253Y001373D01*
X016337Y001290D01*
X016806Y001373D02*
X016889Y001290D01*
X016889Y001206D01*
X016806Y001123D01*
X017108Y001290D02*
X017108Y000956D01*
X017191Y000873D01*
X017358Y000873D01*
X017442Y000956D01*
X017442Y001290D02*
X017358Y001373D01*
X017191Y001373D01*
X017108Y001290D01*
X025946Y001290D02*
X025946Y000956D01*
X026029Y000873D01*
X026196Y000873D01*
X026280Y000956D01*
X026280Y001123D01*
X026113Y001123D01*
X026280Y001290D02*
X026196Y001373D01*
X026029Y001373D01*
X025946Y001290D01*
X026498Y001373D02*
X026749Y001373D01*
X026832Y001290D01*
X026832Y001206D01*
X026749Y001123D01*
X026498Y001123D01*
X026498Y000873D02*
X026498Y001373D01*
X026630Y001534D02*
X026830Y001534D01*
X026730Y001634D01*
X026630Y001534D01*
X026749Y001123D02*
X026832Y001039D01*
X026832Y000956D01*
X026749Y000873D01*
X026498Y000873D01*
X027051Y000873D02*
X027051Y001373D01*
X027301Y001373D01*
X027384Y001290D01*
X027384Y001123D01*
X027301Y001039D01*
X027051Y001039D01*
X028684Y005713D02*
X028684Y006013D01*
X028834Y005863D01*
X028684Y005713D01*
D15*
X028759Y005859D02*
X028459Y005859D01*
X014459Y005509D02*
X014159Y005509D01*
D16*
X015081Y004311D02*
X015081Y003714D01*
X018482Y003714D02*
X018482Y004311D01*
X020784Y005226D02*
X020847Y005780D01*
X020706Y005791D01*
X020719Y005988D01*
X020749Y006001D01*
X022546Y006006D01*
X022686Y006027D02*
X022711Y006154D01*
X022715Y006245D01*
X022447Y006264D01*
X022533Y006879D01*
X022474Y006884D01*
X022110Y006886D01*
X022064Y006873D02*
X021962Y006070D01*
X021913Y006033D01*
X022083Y006025D01*
X022180Y006025D01*
X022174Y006034D01*
X022686Y006027D01*
X021795Y006181D02*
X021763Y006254D01*
X021742Y006201D01*
X021771Y006156D01*
X021708Y006163D01*
X020819Y006164D01*
X020689Y006167D01*
X020677Y006212D01*
X020800Y006200D01*
X020699Y006261D01*
X020709Y006310D01*
X020903Y007742D01*
X021985Y007746D01*
X021992Y007686D01*
X021960Y007296D01*
X021917Y007294D01*
X021920Y007686D01*
X020959Y007704D01*
X020938Y007682D01*
X020946Y007627D02*
X020768Y006320D01*
X020806Y006246D01*
X020876Y006229D01*
X021603Y006214D01*
X021675Y006228D01*
X021732Y006298D01*
X021769Y006351D01*
X021813Y006814D01*
X021803Y006854D01*
X021435Y006864D01*
X021431Y006848D01*
X021896Y006876D01*
X021875Y006803D01*
X021795Y006181D01*
X021218Y005794D02*
X021100Y005777D01*
X021014Y005212D01*
X021064Y005219D02*
X021150Y005734D01*
X021218Y005794D02*
X021140Y005222D01*
X021064Y005219D01*
X025024Y004311D02*
X025024Y003714D01*
X028425Y003714D02*
X028425Y004311D01*
X021877Y007294D02*
X021920Y007612D01*
X021862Y007682D01*
X021793Y007694D01*
X021047Y007689D01*
X020946Y007627D01*
X021389Y009578D02*
X021389Y009998D01*
X021599Y009998D01*
X021669Y009928D01*
X021669Y009788D01*
X021599Y009718D01*
X021389Y009718D01*
X021849Y009648D02*
X021849Y009928D01*
X021919Y009998D01*
X022059Y009998D01*
X022129Y009928D01*
X022129Y009648D01*
X022059Y009578D01*
X021919Y009578D01*
X021849Y009648D01*
X022310Y009578D02*
X022450Y009718D01*
X022590Y009578D01*
X022590Y009998D01*
X022770Y009998D02*
X022770Y009578D01*
X023050Y009578D01*
X023230Y009578D02*
X023230Y009998D01*
X023441Y009998D01*
X023511Y009928D01*
X023511Y009788D01*
X023441Y009718D01*
X023230Y009718D01*
X023371Y009718D02*
X023511Y009578D01*
X023691Y009578D02*
X023971Y009578D01*
X024151Y009578D02*
X024361Y009578D01*
X024431Y009648D01*
X024431Y009928D01*
X024361Y009998D01*
X024151Y009998D01*
X024151Y009578D01*
X023831Y009788D02*
X023691Y009788D01*
X023691Y009998D02*
X023691Y009578D01*
X022910Y009788D02*
X022770Y009788D01*
X022770Y009998D02*
X023050Y009998D01*
X023691Y009998D02*
X023971Y009998D01*
X024151Y010365D02*
X024431Y010365D01*
X024291Y010576D02*
X024151Y010576D01*
X024151Y010786D02*
X024151Y010365D01*
X023831Y010576D02*
X023691Y010576D01*
X023511Y010576D02*
X023230Y010576D01*
X023230Y010646D02*
X023371Y010786D01*
X023511Y010646D01*
X023511Y010365D01*
X023691Y010365D02*
X023691Y010786D01*
X023971Y010786D01*
X024151Y010786D02*
X024431Y010786D01*
X025072Y010716D02*
X025072Y010435D01*
X025142Y010365D01*
X025282Y010365D01*
X025352Y010435D01*
X025532Y010365D02*
X025532Y010786D01*
X025352Y010716D02*
X025282Y010786D01*
X025142Y010786D01*
X025072Y010716D01*
X025532Y010576D02*
X025813Y010576D01*
X025993Y010576D02*
X026273Y010576D01*
X026273Y010646D02*
X026273Y010365D01*
X026453Y010365D02*
X026453Y010786D01*
X026663Y010786D01*
X026733Y010716D01*
X026733Y010576D01*
X026663Y010506D01*
X026453Y010506D01*
X026593Y010506D02*
X026733Y010365D01*
X026914Y010435D02*
X026984Y010365D01*
X027124Y010365D01*
X027194Y010435D01*
X027194Y010576D01*
X027054Y010576D01*
X027194Y010716D02*
X027124Y010786D01*
X026984Y010786D01*
X026914Y010716D01*
X026914Y010435D01*
X027374Y010365D02*
X027374Y010786D01*
X027654Y010786D01*
X027514Y010576D02*
X027374Y010576D01*
X027374Y010365D02*
X027654Y010365D01*
X027834Y010576D02*
X028115Y010576D01*
X028295Y010506D02*
X028505Y010506D01*
X028575Y010576D01*
X028575Y010716D01*
X028505Y010786D01*
X028295Y010786D01*
X028295Y010365D01*
X028755Y010365D02*
X028755Y010786D01*
X029215Y010646D02*
X029356Y010786D01*
X029496Y010646D01*
X029496Y010365D01*
X029496Y010576D02*
X029215Y010576D01*
X029215Y010646D02*
X029215Y010365D01*
X029035Y010365D02*
X028755Y010365D01*
X028755Y009998D02*
X028755Y009648D01*
X028825Y009578D01*
X028965Y009578D01*
X029035Y009648D01*
X029035Y009998D01*
X029215Y009928D02*
X029215Y009858D01*
X029286Y009788D01*
X029426Y009788D01*
X029496Y009718D01*
X029496Y009648D01*
X029426Y009578D01*
X029286Y009578D01*
X029215Y009648D01*
X029215Y009928D02*
X029286Y009998D01*
X029426Y009998D01*
X029496Y009928D01*
X029676Y009998D02*
X029886Y009998D01*
X029956Y009928D01*
X029956Y009858D01*
X029886Y009788D01*
X029676Y009788D01*
X029676Y009578D02*
X029676Y009998D01*
X029886Y009788D02*
X029956Y009718D01*
X029956Y009648D01*
X029886Y009578D01*
X029676Y009578D01*
X028575Y009998D02*
X028295Y009578D01*
X028115Y009578D02*
X027904Y009788D01*
X027834Y009718D02*
X028115Y009998D01*
X027834Y009998D02*
X027834Y009578D01*
X027654Y009648D02*
X027584Y009578D01*
X027444Y009578D01*
X027374Y009648D01*
X027374Y009928D01*
X027444Y009998D01*
X027584Y009998D01*
X027654Y009928D01*
X027194Y009858D02*
X027194Y009578D01*
X026914Y009578D02*
X026914Y009858D01*
X027054Y009998D01*
X027194Y009858D01*
X027194Y009788D02*
X026914Y009788D01*
X026733Y009998D02*
X026593Y009998D01*
X026663Y009998D02*
X026663Y009648D01*
X026593Y009578D01*
X026523Y009578D01*
X026453Y009648D01*
X025813Y009928D02*
X025813Y009998D01*
X025813Y009928D02*
X025672Y009788D01*
X025672Y009578D01*
X025352Y009648D02*
X025282Y009578D01*
X025072Y009578D01*
X025072Y009998D01*
X025282Y009998D01*
X025352Y009928D01*
X025352Y009858D01*
X025282Y009788D01*
X025072Y009788D01*
X025282Y009788D02*
X025352Y009718D01*
X025352Y009648D01*
X025532Y009928D02*
X025672Y009788D01*
X025532Y009928D02*
X025532Y009998D01*
X025813Y010365D02*
X025813Y010786D01*
X025993Y010646D02*
X026133Y010786D01*
X026273Y010646D01*
X025993Y010646D02*
X025993Y010365D01*
X026063Y011153D02*
X025993Y011223D01*
X025993Y011503D01*
X026063Y011573D01*
X026203Y011573D01*
X026273Y011503D01*
X026453Y011503D02*
X026453Y011223D01*
X026523Y011153D01*
X026663Y011153D01*
X026733Y011223D01*
X026733Y011503D01*
X026663Y011573D01*
X026523Y011573D01*
X026453Y011503D01*
X026914Y011573D02*
X027194Y011153D01*
X027194Y011573D01*
X027374Y011573D02*
X027374Y011293D01*
X027514Y011153D01*
X027654Y011293D01*
X027654Y011573D01*
X027834Y011573D02*
X027834Y011153D01*
X028115Y011153D01*
X028295Y011153D02*
X028295Y011573D01*
X028505Y011573D01*
X028575Y011503D01*
X028575Y011363D01*
X028505Y011293D01*
X028295Y011293D01*
X028435Y011293D02*
X028575Y011153D01*
X028895Y011153D02*
X028895Y011573D01*
X028755Y011573D02*
X029035Y011573D01*
X029215Y011573D02*
X029215Y011153D01*
X029496Y011153D01*
X029676Y011153D02*
X029676Y011573D01*
X029886Y011573D01*
X029956Y011503D01*
X029956Y011363D01*
X029886Y011293D01*
X029676Y011293D01*
X029816Y011293D02*
X029956Y011153D01*
X029356Y011363D02*
X029215Y011363D01*
X029215Y011573D02*
X029496Y011573D01*
X029496Y011940D02*
X029215Y011940D01*
X029215Y012361D01*
X029496Y012361D01*
X029676Y012361D02*
X029886Y012361D01*
X029956Y012291D01*
X029956Y012150D01*
X029886Y012080D01*
X029676Y012080D01*
X029676Y011940D02*
X029676Y012361D01*
X029816Y012080D02*
X029956Y011940D01*
X029356Y012150D02*
X029215Y012150D01*
X029035Y012150D02*
X028895Y012150D01*
X029035Y012150D02*
X029035Y012010D01*
X028965Y011940D01*
X028825Y011940D01*
X028755Y012010D01*
X028755Y012291D01*
X028825Y012361D01*
X028965Y012361D01*
X029035Y012291D01*
X028575Y012291D02*
X028575Y012150D01*
X028505Y012080D01*
X028295Y012080D01*
X028295Y011940D02*
X028295Y012361D01*
X028505Y012361D01*
X028575Y012291D01*
X028435Y012080D02*
X028575Y011940D01*
X028115Y011940D02*
X028115Y012220D01*
X027974Y012361D01*
X027834Y012220D01*
X027834Y011940D01*
X027654Y011940D02*
X027654Y012361D01*
X027654Y012150D02*
X027374Y012150D01*
X027374Y011940D02*
X027374Y012361D01*
X027194Y012291D02*
X027124Y012361D01*
X026984Y012361D01*
X026914Y012291D01*
X026914Y012010D01*
X026984Y011940D01*
X027124Y011940D01*
X027194Y012010D01*
X027834Y012150D02*
X028115Y012150D01*
X028115Y011573D02*
X027834Y011573D01*
X027834Y011363D02*
X027974Y011363D01*
X026914Y011153D02*
X026914Y011573D01*
X026273Y011223D02*
X026203Y011153D01*
X026063Y011153D01*
X025352Y011573D02*
X025072Y011573D01*
X025212Y011573D02*
X025212Y011153D01*
X024892Y011223D02*
X024892Y011293D01*
X024822Y011363D01*
X024682Y011363D01*
X024612Y011433D01*
X024612Y011503D01*
X024682Y011573D01*
X024822Y011573D01*
X024892Y011503D01*
X024431Y011503D02*
X024361Y011573D01*
X024221Y011573D01*
X024151Y011503D01*
X024151Y011223D01*
X024221Y011153D01*
X024361Y011153D01*
X024431Y011223D01*
X024431Y011503D01*
X024612Y011223D02*
X024682Y011153D01*
X024822Y011153D01*
X024892Y011223D01*
X023971Y011223D02*
X023971Y011503D01*
X023901Y011573D01*
X023761Y011573D01*
X023691Y011503D01*
X023691Y011223D01*
X023761Y011153D01*
X023901Y011153D01*
X023971Y011223D01*
X023511Y011223D02*
X023511Y011293D01*
X023441Y011363D01*
X023230Y011363D01*
X023230Y011153D02*
X023441Y011153D01*
X023511Y011223D01*
X023441Y011363D02*
X023511Y011433D01*
X023511Y011503D01*
X023441Y011573D01*
X023230Y011573D01*
X023230Y011153D01*
X022980Y010786D02*
X022840Y010786D01*
X022770Y010716D01*
X022770Y010646D01*
X022840Y010576D01*
X022980Y010576D01*
X023050Y010506D01*
X023050Y010435D01*
X022980Y010365D01*
X022840Y010365D01*
X022770Y010435D01*
X023050Y010716D02*
X022980Y010786D01*
X023230Y010646D02*
X023230Y010365D01*
X022310Y009998D02*
X022310Y009578D01*
X023230Y011940D02*
X023441Y011940D01*
X023511Y012010D01*
X023511Y012080D01*
X023441Y012150D01*
X023230Y012150D01*
X023230Y011940D02*
X023230Y012361D01*
X023441Y012361D01*
X023511Y012291D01*
X023511Y012220D01*
X023441Y012150D01*
X023691Y012150D02*
X023971Y012150D01*
X023971Y012220D02*
X023971Y011940D01*
X023691Y011940D02*
X023691Y012220D01*
X023831Y012361D01*
X023971Y012220D01*
X024151Y012361D02*
X024431Y012361D01*
X024291Y012361D02*
X024291Y011940D01*
X024752Y011940D02*
X024752Y012361D01*
X024612Y012361D02*
X024892Y012361D01*
X025072Y012361D02*
X025072Y011940D01*
X025352Y011940D01*
X025532Y011940D02*
X025532Y012361D01*
X025743Y012361D01*
X025813Y012291D01*
X025813Y012150D01*
X025743Y012080D01*
X025532Y012080D01*
X025672Y012080D02*
X025813Y011940D01*
X026133Y011940D02*
X026133Y012150D01*
X026273Y012291D01*
X026273Y012361D01*
X026133Y012150D02*
X025993Y012291D01*
X025993Y012361D01*
X025352Y012361D02*
X025072Y012361D01*
X025072Y012150D02*
X025212Y012150D01*
X025072Y012728D02*
X025072Y013148D01*
X025352Y013148D01*
X025532Y013078D02*
X025532Y012798D01*
X025602Y012728D01*
X025743Y012728D01*
X025813Y012798D01*
X025813Y013078D01*
X025743Y013148D01*
X025602Y013148D01*
X025532Y013078D01*
X025212Y012938D02*
X025072Y012938D01*
X025993Y012868D02*
X026203Y012868D01*
X026273Y012938D01*
X026273Y013078D01*
X026203Y013148D01*
X025993Y013148D01*
X025993Y012728D01*
X026133Y012868D02*
X026273Y012728D01*
X026914Y012798D02*
X026914Y013078D01*
X026984Y013148D01*
X027124Y013148D01*
X027194Y013078D01*
X027194Y012938D02*
X027054Y012938D01*
X027194Y012938D02*
X027194Y012798D01*
X027124Y012728D01*
X026984Y012728D01*
X026914Y012798D01*
X027374Y012728D02*
X027584Y012728D01*
X027654Y012798D01*
X027654Y012868D01*
X027584Y012938D01*
X027374Y012938D01*
X027374Y012728D02*
X027374Y013148D01*
X027584Y013148D01*
X027654Y013078D01*
X027654Y013008D01*
X027584Y012938D01*
X027834Y012868D02*
X028045Y012868D01*
X028115Y012938D01*
X028115Y013078D01*
X028045Y013148D01*
X027834Y013148D01*
X027834Y012728D01*
X028295Y012728D02*
X028575Y013148D01*
X028755Y013078D02*
X028755Y012798D01*
X028825Y012728D01*
X028965Y012728D01*
X029035Y012798D01*
X029035Y012938D01*
X028895Y012938D01*
X028755Y013078D02*
X028825Y013148D01*
X028965Y013148D01*
X029035Y013078D01*
X029216Y013148D02*
X029426Y013148D01*
X029496Y013078D01*
X029496Y013008D01*
X029426Y012938D01*
X029216Y012938D01*
X029426Y012938D02*
X029496Y012868D01*
X029496Y012798D01*
X029426Y012728D01*
X029216Y012728D01*
X029216Y013148D01*
X029676Y013078D02*
X029676Y012798D01*
X029746Y012728D01*
X029886Y012728D01*
X029956Y012798D01*
X029956Y013078D02*
X029886Y013148D01*
X029746Y013148D01*
X029676Y013078D01*
X029940Y013749D02*
X030047Y014483D01*
X030063Y014527D02*
X030053Y014537D01*
X030125Y014540D01*
X030011Y013752D01*
X029940Y013749D01*
X029446Y013837D02*
X029359Y013781D01*
X029251Y013755D01*
X029137Y013762D01*
X029036Y013806D01*
X028946Y013891D01*
X028921Y013967D01*
X028917Y014232D01*
X028975Y014357D01*
X029053Y014443D01*
X029165Y014509D01*
X029271Y014542D01*
X029484Y014549D01*
X029528Y014544D02*
X029541Y014547D01*
X029541Y014488D01*
X029453Y014498D01*
X029335Y014493D01*
X029220Y014464D01*
X029140Y014424D01*
X029079Y014390D01*
X029010Y014300D01*
X028975Y014220D01*
X028959Y014128D01*
X028963Y014021D01*
X028987Y013933D01*
X029031Y013880D01*
X029097Y013830D01*
X029156Y013811D01*
X029256Y013820D01*
X029322Y013823D01*
X029379Y013852D01*
X029393Y013891D01*
X029405Y014008D01*
X029358Y014044D01*
X029322Y014033D01*
X029285Y014030D01*
X029288Y014088D01*
X029480Y014089D01*
X029450Y014045D01*
X029468Y014032D01*
X029446Y013837D01*
X030117Y014129D02*
X030335Y013750D01*
X030407Y013748D01*
X030144Y014233D01*
X030123Y014182D01*
X030145Y014206D02*
X030382Y014532D01*
X030477Y014541D01*
X030208Y014192D01*
X030912Y014490D02*
X030916Y014538D01*
X030938Y014543D02*
X031416Y014541D01*
X031404Y014488D01*
X031183Y014490D01*
X031188Y014429D01*
X031089Y013749D01*
X031056Y013753D01*
X031025Y013764D02*
X031127Y014458D01*
X031102Y014484D01*
X031143Y014482D02*
X030912Y014490D01*
X030763Y014546D02*
X030726Y014544D01*
X030756Y014540D02*
X030763Y014546D01*
X030756Y014540D02*
X030644Y013749D01*
X030578Y013753D01*
X030688Y014545D01*
X031025Y013764D02*
X031016Y013745D01*
X031416Y013552D02*
X018505Y013552D01*
X018643Y013797D02*
X018744Y013753D01*
X018858Y013746D01*
X018966Y013772D01*
X019053Y013828D01*
X019075Y014023D01*
X019057Y014036D01*
X019087Y014080D01*
X018895Y014079D01*
X018892Y014021D01*
X018929Y014024D01*
X018965Y014035D01*
X019012Y013999D01*
X019000Y013882D01*
X018986Y013843D01*
X018929Y013814D01*
X018863Y013811D01*
X018763Y013802D01*
X018704Y013821D01*
X018638Y013871D01*
X018594Y013924D01*
X018570Y014012D01*
X018566Y014119D01*
X018582Y014211D01*
X018617Y014291D01*
X018686Y014381D01*
X018747Y014415D01*
X018827Y014455D01*
X018942Y014484D01*
X019060Y014489D01*
X019148Y014479D01*
X019148Y014538D01*
X019135Y014535D01*
X019091Y014540D02*
X018878Y014533D01*
X018772Y014500D01*
X018660Y014434D01*
X018582Y014348D01*
X018524Y014223D01*
X018528Y013958D01*
X018553Y013882D01*
X018643Y013797D01*
X019208Y013750D02*
X019328Y014535D01*
X019545Y014539D01*
X019618Y014485D01*
X019655Y014418D01*
X019657Y014338D01*
X019646Y014285D01*
X019590Y014204D01*
X019601Y014165D01*
X019652Y014105D01*
X019693Y014008D01*
X019689Y013911D01*
X019635Y013819D01*
X019573Y013770D01*
X019506Y013754D01*
X019256Y013755D01*
X019295Y013826D01*
X019379Y014477D01*
X019465Y014481D01*
X019545Y014476D01*
X019563Y014442D01*
X019600Y014374D01*
X019595Y014307D01*
X019553Y014249D01*
X019494Y014208D01*
X019431Y014205D01*
X019392Y014205D01*
X019382Y014147D01*
X019449Y014143D01*
X019496Y014139D01*
X019550Y014189D01*
X019535Y014127D01*
X019588Y014090D01*
X019627Y014026D01*
X019631Y013929D01*
X019595Y013858D01*
X019508Y013800D01*
X019349Y013801D01*
X019779Y013746D02*
X020204Y014297D01*
X020220Y014353D01*
X020205Y014412D01*
X020178Y014455D01*
X020153Y014478D01*
X020104Y014485D01*
X020051Y014486D01*
X020008Y014487D01*
X019967Y014473D01*
X019929Y014458D01*
X019940Y014521D01*
X020010Y014533D01*
X020136Y014536D01*
X020192Y014522D01*
X020234Y014483D01*
X020269Y014415D01*
X020276Y014347D01*
X020266Y014298D01*
X019963Y013874D01*
X019893Y013788D01*
X019975Y013821D01*
X020056Y013804D01*
X020269Y013802D01*
X020273Y013813D01*
X020261Y013750D02*
X019779Y013746D01*
X019678Y014078D02*
X019652Y014096D01*
X020892Y013932D02*
X020902Y013866D01*
X020946Y013805D01*
X021007Y013758D01*
X021081Y013742D01*
X021203Y013739D01*
X021270Y013762D01*
X021348Y013828D01*
X021391Y013909D01*
X021484Y014541D01*
X021418Y014544D01*
X021312Y013880D01*
X021278Y013867D01*
X021235Y013807D01*
X021081Y013794D01*
X020983Y013837D01*
X020958Y013945D01*
X021024Y014529D01*
X021035Y014539D01*
X021009Y014541D01*
X020960Y014536D02*
X020892Y013932D01*
X021564Y013846D02*
X021568Y013787D01*
X021564Y013781D01*
X021706Y013745D01*
X021802Y013745D01*
X021891Y013776D01*
X021966Y013836D01*
X022010Y013911D01*
X022022Y014028D01*
X021972Y014126D01*
X021891Y014181D01*
X021746Y014231D01*
X021743Y014253D01*
X021702Y014344D01*
X021740Y014429D01*
X021798Y014470D01*
X021870Y014487D01*
X021997Y014475D01*
X022003Y014534D02*
X021824Y014537D01*
X021746Y014502D01*
X021678Y014434D01*
X021642Y014334D01*
X021684Y014228D01*
X021755Y014175D01*
X021852Y014128D01*
X021910Y014096D01*
X021953Y014026D01*
X021963Y013942D01*
X021905Y013848D01*
X021851Y013812D01*
X021775Y013805D01*
X021656Y013812D01*
X021564Y013846D01*
X022147Y013748D02*
X022267Y014533D01*
X022484Y014537D01*
X022557Y014483D01*
X022594Y014416D01*
X022596Y014336D01*
X022585Y014283D01*
X022529Y014202D01*
X022540Y014163D01*
X022591Y014103D01*
X022632Y014006D01*
X022628Y013909D01*
X022574Y013817D01*
X022512Y013768D01*
X022445Y013752D01*
X022195Y013753D01*
X022234Y013824D01*
X022318Y014475D01*
X022404Y014479D01*
X022484Y014474D01*
X022502Y014440D01*
X022539Y014372D01*
X022534Y014305D01*
X022492Y014247D01*
X022433Y014206D01*
X022370Y014203D01*
X022331Y014203D01*
X022321Y014145D01*
X022388Y014141D01*
X022435Y014137D01*
X022489Y014187D01*
X022474Y014125D01*
X022527Y014088D01*
X022566Y014024D01*
X022570Y013927D01*
X022534Y013856D01*
X022447Y013798D01*
X022288Y013799D01*
X022594Y014093D02*
X022622Y014079D01*
X022812Y014118D02*
X022821Y014153D01*
X022812Y014118D02*
X023115Y014125D01*
X023126Y014193D01*
X022831Y014193D01*
X023282Y014138D02*
X023279Y014001D01*
X023341Y013868D01*
X023431Y013791D01*
X023495Y013759D01*
X023564Y013747D01*
X023651Y013750D01*
X023741Y013761D01*
X023811Y013782D01*
X023840Y013874D01*
X023821Y013850D01*
X023766Y013828D01*
X023710Y013816D01*
X023628Y013805D01*
X023545Y013811D01*
X023478Y013822D01*
X023418Y013858D01*
X023374Y013936D01*
X023340Y014010D01*
X023344Y014110D01*
X023357Y014195D01*
X023381Y014261D01*
X023417Y014331D01*
X023465Y014385D01*
X023561Y014435D01*
X023645Y014475D01*
X023784Y014483D01*
X023922Y014483D01*
X023927Y014542D01*
X023927Y014543D01*
X023893Y014541D02*
X023636Y014534D01*
X023567Y014505D01*
X023473Y014455D01*
X023382Y014376D01*
X023307Y014267D01*
X023282Y014138D01*
X024327Y014142D02*
X024324Y014005D01*
X024386Y013872D01*
X024476Y013795D01*
X024540Y013763D01*
X024609Y013751D01*
X024696Y013754D01*
X024786Y013765D01*
X024856Y013786D01*
X024885Y013878D01*
X024866Y013854D01*
X024811Y013832D01*
X024755Y013820D01*
X024673Y013809D01*
X024590Y013815D01*
X024523Y013826D01*
X024463Y013862D01*
X024419Y013940D01*
X024385Y014014D01*
X024389Y014114D01*
X024402Y014199D01*
X024426Y014265D01*
X024462Y014335D01*
X024510Y014389D01*
X024606Y014439D01*
X024690Y014479D01*
X024829Y014487D01*
X024967Y014487D01*
X024972Y014546D01*
X024972Y014547D01*
X024938Y014545D02*
X024681Y014538D01*
X024612Y014509D01*
X024518Y014459D01*
X024427Y014380D01*
X024352Y014271D01*
X024327Y014142D01*
X025032Y013749D02*
X025145Y014477D01*
X025150Y014525D02*
X025144Y014537D01*
X025225Y014537D01*
X025107Y013754D01*
X025032Y013749D01*
X025532Y013743D02*
X025649Y014506D01*
X025657Y014532D02*
X025652Y014539D01*
X025727Y014537D01*
X025613Y013744D01*
X025532Y013743D01*
X025777Y013744D02*
X026142Y014535D01*
X026211Y014543D01*
X026350Y013738D01*
X026281Y013740D01*
X026167Y014471D01*
X026131Y014323D01*
X026105Y014292D01*
X025854Y013750D01*
X025847Y013747D01*
X025790Y013747D02*
X025777Y013744D01*
X025967Y013981D02*
X026189Y013978D01*
X026181Y014037D01*
X026043Y014037D01*
X025543Y014123D02*
X025218Y014126D01*
X025209Y014184D02*
X025555Y014180D01*
X025543Y014123D01*
X026513Y013759D02*
X026532Y013785D01*
X026511Y013750D01*
X026628Y014541D01*
X026852Y014541D01*
X026920Y014515D01*
X026982Y014465D01*
X027011Y014414D01*
X027020Y014343D01*
X027020Y014290D01*
X026990Y014223D01*
X026934Y014177D01*
X026871Y014134D01*
X026829Y014123D01*
X026823Y014083D01*
X026991Y013747D01*
X027003Y013743D01*
X026911Y013753D01*
X026748Y014069D01*
X026726Y014111D01*
X026682Y014121D01*
X026647Y014099D01*
X026631Y014062D01*
X026580Y013751D01*
X026570Y013782D01*
X026554Y013745D01*
X026684Y014479D01*
X026729Y014485D01*
X026838Y014476D01*
X026909Y014460D01*
X026944Y014411D01*
X026964Y014320D01*
X026930Y014264D01*
X026884Y014203D01*
X026835Y014184D01*
X026796Y014137D01*
X026784Y014104D01*
X026799Y014187D01*
X026686Y014196D01*
X026681Y014177D01*
X026755Y014143D01*
X026668Y014207D01*
X026664Y014242D01*
X026694Y014424D01*
X027164Y014218D02*
X027222Y014343D01*
X027300Y014429D01*
X027412Y014495D01*
X027518Y014528D01*
X027731Y014535D01*
X027775Y014530D02*
X027788Y014533D01*
X027788Y014474D01*
X027700Y014484D01*
X027582Y014479D01*
X027467Y014450D01*
X027387Y014410D01*
X027326Y014376D01*
X027257Y014286D01*
X027222Y014206D01*
X027206Y014114D01*
X027210Y014007D01*
X027234Y013919D01*
X027278Y013866D01*
X027344Y013816D01*
X027403Y013797D01*
X027503Y013806D01*
X027569Y013809D01*
X027626Y013838D01*
X027640Y013877D01*
X027652Y013994D01*
X027605Y014030D01*
X027569Y014019D01*
X027532Y014016D01*
X027535Y014074D01*
X027727Y014075D01*
X027697Y014031D01*
X027715Y014018D01*
X027693Y013823D01*
X027606Y013767D01*
X027498Y013741D01*
X027384Y013748D01*
X027283Y013792D01*
X027193Y013877D01*
X027168Y013953D01*
X027164Y014218D01*
X027852Y013751D02*
X027918Y013747D01*
X028030Y014538D01*
X028037Y014544D01*
X028000Y014542D01*
X027962Y014543D02*
X027852Y013751D01*
X028109Y013753D02*
X028223Y014542D01*
X028313Y014535D01*
X028675Y013744D01*
X028788Y014539D01*
X028721Y014543D01*
X028608Y013746D01*
X028265Y014468D01*
X028173Y013748D01*
X028160Y013748D01*
X028256Y014281D02*
X028289Y014300D01*
X028264Y014348D01*
X022003Y014534D02*
X021991Y014534D01*
X029676Y010786D02*
X029676Y010716D01*
X029816Y010576D01*
X029816Y010365D01*
X029816Y010576D02*
X029956Y010716D01*
X029956Y010786D01*
X011118Y011322D02*
X010780Y011322D01*
X010780Y010202D02*
X011118Y010202D01*
X004184Y005484D02*
X004184Y005334D01*
X004234Y005284D01*
X004584Y003734D02*
X004634Y003684D01*
X004734Y003684D01*
X007534Y003874D02*
X008327Y003874D01*
X010792Y004252D02*
X010976Y004068D01*
D17*
X011248Y004298D02*
X010746Y003796D01*
X010745Y003797D02*
X010735Y003789D01*
X010723Y003784D01*
X010710Y003782D01*
X010697Y003784D01*
X010685Y003789D01*
X010675Y003797D01*
X010675Y003796D02*
X010520Y003952D01*
X010512Y003962D01*
X010507Y003974D01*
X010505Y003987D01*
X010507Y004000D01*
X010512Y004012D01*
X010520Y004022D01*
X011022Y004525D01*
X011022Y004524D02*
X011032Y004532D01*
X011044Y004537D01*
X011057Y004539D01*
X011070Y004537D01*
X011082Y004532D01*
X011092Y004524D01*
X011092Y004525D02*
X011248Y004369D01*
X011256Y004359D01*
X011261Y004347D01*
X011263Y004334D01*
X011261Y004321D01*
X011256Y004309D01*
X011248Y004299D01*
X009814Y004528D02*
X009814Y003739D01*
X009496Y003739D01*
X009496Y004528D01*
X009814Y004528D01*
X008056Y006021D02*
X007268Y006021D01*
X007268Y006338D01*
X008056Y006338D01*
X008056Y006021D01*
X008968Y006070D02*
X008968Y006387D01*
X009756Y006387D01*
X009756Y006070D01*
X008968Y006070D01*
X006812Y005027D02*
X006812Y004709D01*
X006023Y004709D01*
X006023Y005027D01*
X006812Y005027D01*
X006364Y004528D02*
X006046Y004528D01*
X006046Y003739D01*
X006364Y003739D01*
X006364Y004528D01*
X004956Y005960D02*
X004168Y005960D01*
X004168Y006277D01*
X004956Y006277D01*
X004956Y005960D01*
X004956Y006360D02*
X004168Y006360D01*
X004168Y006677D01*
X004956Y006677D01*
X004956Y006360D01*
X004956Y006740D02*
X004956Y007057D01*
X004168Y007057D01*
X004168Y006740D01*
X004956Y006740D01*
X005411Y008641D02*
X005411Y008958D01*
X006200Y008958D01*
X006200Y008641D01*
X005411Y008641D01*
X006311Y008640D02*
X006311Y008957D01*
X007100Y008957D01*
X007100Y008640D01*
X006311Y008640D01*
X007211Y008641D02*
X007211Y008958D01*
X008000Y008958D01*
X008000Y008641D01*
X007211Y008641D01*
X010318Y009241D02*
X010318Y009558D01*
X011106Y009558D01*
X011106Y009241D01*
X010318Y009241D01*
X010318Y009660D02*
X010318Y009977D01*
X011106Y009977D01*
X011106Y009660D01*
X010318Y009660D01*
X017333Y008887D02*
X017333Y008570D01*
X018122Y008570D01*
X018122Y008887D01*
X017333Y008887D01*
X014554Y004995D02*
X014237Y004995D01*
X014237Y004206D01*
X014554Y004206D01*
X014554Y004995D01*
X014554Y004045D02*
X014237Y004045D01*
X014237Y003256D01*
X014554Y003256D01*
X014554Y004045D01*
X022680Y004580D02*
X022678Y004730D01*
X022713Y004785D01*
X022750Y004800D01*
X022803Y004785D01*
X022835Y004760D01*
X022840Y004572D01*
X023000Y004580D02*
X022998Y004735D01*
X022970Y004780D01*
X022920Y004795D01*
X022883Y004792D01*
X022850Y004765D01*
X025780Y005446D02*
X025780Y005763D01*
X026569Y005763D01*
X026569Y005446D01*
X025780Y005446D01*
X026880Y005446D02*
X026880Y005764D01*
X027669Y005764D01*
X027669Y005446D01*
X026880Y005446D01*
X030368Y013733D02*
X030443Y013727D01*
X030387Y014525D02*
X030511Y014563D01*
D18*
X030523Y014578D02*
X030530Y014573D01*
X030532Y014557D01*
X030227Y014152D01*
X030239Y014147D01*
X030467Y013721D01*
X030464Y013714D01*
X030305Y013715D01*
X030104Y014094D01*
X030133Y014270D02*
X030147Y014279D01*
X030365Y014574D01*
X030369Y014577D02*
X030523Y014578D01*
X030660Y014580D02*
X030537Y013721D01*
X030544Y013714D01*
X030679Y013716D01*
X030801Y014579D01*
X030660Y014580D01*
X030887Y014576D02*
X031457Y014579D01*
X031436Y014450D01*
X031435Y014447D01*
X030885Y014448D01*
X030873Y014458D01*
X030888Y014577D01*
X031086Y014443D02*
X030983Y013720D01*
X030989Y013714D01*
X031122Y013713D01*
X031128Y013718D01*
X031231Y014449D01*
X030162Y014569D02*
X030152Y014578D01*
X030023Y014578D01*
X030023Y014575D02*
X029900Y013727D01*
X029908Y013715D01*
X030039Y013715D01*
X030044Y013718D01*
X030162Y014569D01*
X029585Y014575D02*
X029577Y014463D01*
X029571Y014446D01*
X029560Y014445D01*
X029530Y014451D01*
X029486Y014460D01*
X029383Y014460D01*
X029336Y014457D01*
X029302Y014449D01*
X029234Y014425D01*
X029186Y014408D01*
X029136Y014375D01*
X029088Y014336D01*
X029050Y014284D01*
X029016Y014222D01*
X028999Y014155D01*
X028993Y014111D01*
X028997Y014050D01*
X029009Y013988D01*
X029029Y013949D01*
X029056Y013911D01*
X029091Y013885D01*
X029125Y013865D01*
X029165Y013854D01*
X029224Y013852D01*
X029262Y013853D01*
X029296Y013859D01*
X029326Y013870D01*
X029355Y013888D01*
X029360Y013973D01*
X029361Y013995D01*
X029254Y013997D01*
X029241Y014009D01*
X029256Y014117D01*
X029266Y014132D01*
X029521Y014129D01*
X029487Y013819D01*
X029445Y013781D01*
X029394Y013748D01*
X029337Y013728D01*
X029278Y013716D01*
X029204Y013716D01*
X029201Y013717D02*
X029151Y013718D01*
X029114Y013725D01*
X029073Y013739D01*
X029023Y013764D01*
X028983Y013794D01*
X028954Y013820D01*
X028925Y013855D01*
X028896Y013904D01*
X028876Y013952D01*
X028878Y014240D01*
X028882Y014253D01*
X028905Y014313D01*
X028934Y014367D01*
X028982Y014427D01*
X029031Y014469D01*
X029071Y014502D01*
X029114Y014527D01*
X029176Y014556D01*
X029228Y014575D01*
X029275Y014586D01*
X029560Y014587D01*
X029585Y014575D01*
X028830Y014569D02*
X028713Y013712D01*
X028575Y013712D01*
X028307Y014276D01*
X028299Y014274D01*
X028291Y014269D01*
X028206Y013714D01*
X028079Y013715D01*
X028079Y013715D01*
X028068Y013723D01*
X028189Y014577D01*
X028328Y014580D01*
X028592Y014009D01*
X028604Y014006D01*
X028694Y014576D01*
X028820Y014578D01*
X028830Y014569D01*
X028874Y014233D02*
X028853Y014092D01*
X028865Y014026D01*
X028871Y014094D01*
X028871Y014109D01*
X028851Y014086D02*
X028859Y014184D01*
X028874Y014233D01*
X028851Y014086D02*
X028856Y014018D01*
X028875Y013957D01*
X028871Y013970D02*
X028880Y013942D01*
X027953Y013714D02*
X027818Y013712D01*
X027811Y013719D01*
X027934Y014578D01*
X028075Y014577D01*
X027953Y013714D01*
X027734Y013805D02*
X027768Y014115D01*
X027513Y014118D01*
X027503Y014103D01*
X027488Y013995D01*
X027501Y013983D01*
X027608Y013981D01*
X027607Y013959D01*
X027602Y013874D01*
X027573Y013856D01*
X027543Y013845D01*
X027509Y013839D01*
X027471Y013838D01*
X027412Y013840D01*
X027372Y013851D01*
X027338Y013871D01*
X027303Y013897D01*
X027276Y013935D01*
X027256Y013974D01*
X027244Y014036D01*
X027240Y014097D01*
X027246Y014141D01*
X027263Y014208D01*
X027297Y014270D01*
X027335Y014322D01*
X027383Y014361D01*
X027433Y014394D01*
X027481Y014411D01*
X027549Y014435D01*
X027583Y014443D01*
X027630Y014446D01*
X027733Y014446D01*
X027777Y014437D01*
X027807Y014431D01*
X027818Y014432D01*
X027824Y014449D01*
X027832Y014561D01*
X027807Y014573D01*
X027522Y014572D01*
X027475Y014561D01*
X027423Y014542D01*
X027361Y014513D01*
X027318Y014488D01*
X027278Y014455D01*
X027229Y014413D01*
X027181Y014353D01*
X027152Y014299D01*
X027129Y014239D01*
X027125Y014226D01*
X027123Y013938D01*
X027143Y013890D01*
X027172Y013841D01*
X027201Y013806D01*
X027230Y013780D01*
X027270Y013750D01*
X027320Y013725D01*
X027361Y013711D01*
X027398Y013704D01*
X027448Y013703D01*
X027451Y013702D02*
X027525Y013702D01*
X027584Y013714D01*
X027641Y013734D01*
X027692Y013767D01*
X027734Y013805D01*
X027127Y013928D02*
X027118Y013956D01*
X027122Y013943D02*
X027103Y014004D01*
X027098Y014072D01*
X027106Y014170D01*
X027121Y014219D01*
X027100Y014078D01*
X027112Y014012D01*
X027118Y014080D01*
X027118Y014095D01*
X027007Y014181D02*
X027036Y014227D01*
X027065Y014317D01*
X027057Y014417D01*
X027028Y014471D01*
X026975Y014527D01*
X026928Y014558D01*
X026871Y014578D01*
X026591Y014577D01*
X026474Y013724D01*
X026488Y013713D01*
X026487Y013713D02*
X026616Y013716D01*
X026674Y014071D01*
X026674Y014079D01*
X026683Y014094D01*
X026886Y013713D01*
X027043Y013713D01*
X027043Y013735D01*
X026858Y014089D01*
X026888Y014099D01*
X026957Y014138D01*
X027007Y014181D01*
X026899Y014277D02*
X026915Y014310D01*
X026922Y014345D01*
X026919Y014378D01*
X026902Y014403D01*
X026876Y014430D01*
X026858Y014439D01*
X026736Y014447D01*
X026729Y014445D02*
X026697Y014235D01*
X026839Y014228D01*
X026876Y014251D01*
X026899Y014277D01*
X026243Y014580D02*
X026391Y013726D01*
X026384Y013710D01*
X026264Y013708D01*
X026247Y013710D01*
X026208Y013936D01*
X026149Y014283D01*
X026125Y014265D01*
X026129Y014264D01*
X026050Y014083D01*
X026075Y014073D01*
X026176Y014077D01*
X026200Y013943D02*
X025986Y013943D01*
X025877Y013713D01*
X025749Y013714D01*
X025748Y013714D02*
X025733Y013727D01*
X026123Y014576D01*
X026243Y014580D01*
X025766Y014567D02*
X025643Y013715D01*
X025506Y013714D01*
X025498Y013724D01*
X025541Y014079D01*
X025529Y014086D01*
X025200Y014087D01*
X025191Y014081D01*
X025136Y013715D01*
X025010Y013714D01*
X025004Y013714D02*
X024992Y013725D01*
X025118Y014575D01*
X025253Y014577D01*
X025261Y014567D01*
X025210Y014233D01*
X025221Y014226D01*
X025559Y014221D01*
X025623Y014580D01*
X025752Y014578D01*
X025766Y014567D01*
X025010Y014572D02*
X024996Y014446D01*
X024946Y014448D01*
X024916Y014453D01*
X024779Y014453D01*
X024717Y014444D01*
X024668Y014427D01*
X024611Y014402D01*
X024566Y014377D01*
X024530Y014345D01*
X024484Y014297D01*
X024461Y014254D01*
X024442Y014208D01*
X024431Y014174D01*
X024423Y014138D01*
X024422Y014049D01*
X024434Y013993D01*
X024451Y013952D01*
X024469Y013921D01*
X024499Y013892D01*
X024531Y013872D01*
X024574Y013856D01*
X024610Y013848D01*
X024666Y013848D01*
X024716Y013849D01*
X024749Y013857D01*
X024787Y013868D01*
X024830Y013884D01*
X024868Y013902D01*
X024896Y013916D01*
X024920Y013918D01*
X024920Y013913D02*
X024901Y013770D01*
X024845Y013746D01*
X024776Y013728D01*
X024726Y013715D01*
X024696Y013713D01*
X024591Y013713D01*
X024530Y013724D01*
X024461Y013756D01*
X024405Y013794D01*
X024350Y013850D01*
X024318Y013905D01*
X024291Y013977D01*
X024285Y014005D01*
X024286Y014161D01*
X024308Y014258D01*
X024333Y014321D01*
X024402Y014416D01*
X024439Y014455D01*
X024512Y014511D01*
X024583Y014546D01*
X024627Y014564D01*
X024694Y014581D01*
X024992Y014582D01*
X025010Y014572D01*
X023965Y014568D02*
X023951Y014442D01*
X023901Y014444D01*
X023871Y014449D01*
X023734Y014449D01*
X023672Y014440D01*
X023623Y014423D01*
X023566Y014398D01*
X023521Y014373D01*
X023485Y014341D01*
X023439Y014293D01*
X023416Y014250D01*
X023397Y014204D01*
X023386Y014170D01*
X023378Y014134D01*
X023377Y014045D01*
X023389Y013989D01*
X023406Y013948D01*
X023424Y013917D01*
X023454Y013888D01*
X023486Y013868D01*
X023529Y013852D01*
X023565Y013844D01*
X023621Y013844D01*
X023671Y013845D01*
X023704Y013853D01*
X023742Y013864D01*
X023785Y013880D01*
X023823Y013898D01*
X023851Y013912D01*
X023875Y013914D01*
X023875Y013909D02*
X023856Y013766D01*
X023800Y013742D01*
X023731Y013724D01*
X023681Y013711D01*
X023651Y013709D01*
X023546Y013709D01*
X023485Y013720D01*
X023416Y013752D01*
X023360Y013790D01*
X023305Y013846D01*
X023273Y013901D01*
X023246Y013973D01*
X023240Y014001D01*
X023241Y014157D01*
X023263Y014254D01*
X023288Y014317D01*
X023357Y014412D01*
X023394Y014451D01*
X023467Y014507D01*
X023538Y014542D01*
X023582Y014560D01*
X023649Y014577D01*
X023947Y014578D01*
X023965Y014568D01*
X023164Y014217D02*
X023142Y014085D01*
X022782Y014085D01*
X022778Y014099D01*
X022799Y014226D01*
X022798Y014226D02*
X023155Y014227D01*
X023164Y014217D01*
X022675Y014025D02*
X022649Y014098D01*
X022619Y014140D01*
X022572Y014183D01*
X022578Y014199D01*
X022616Y014253D01*
X022631Y014295D01*
X022637Y014384D01*
X022625Y014445D01*
X022587Y014510D01*
X022551Y014543D01*
X022523Y014561D01*
X022482Y014576D01*
X022234Y014576D01*
X022108Y013712D01*
X022109Y013712D02*
X022455Y013711D01*
X022526Y013734D01*
X022575Y013765D01*
X022606Y013799D01*
X022634Y013832D01*
X022662Y013886D01*
X022673Y013925D01*
X022675Y014025D01*
X022533Y013994D02*
X022527Y014020D01*
X022510Y014048D01*
X022480Y014080D01*
X022449Y014095D01*
X022430Y014101D01*
X022389Y014106D01*
X022320Y014109D01*
X022306Y014105D01*
X022269Y013844D01*
X022279Y013844D02*
X022284Y013842D01*
X022412Y013842D01*
X022442Y013850D01*
X022462Y013860D01*
X022492Y013878D01*
X022514Y013903D01*
X022528Y013931D01*
X022535Y013954D01*
X022533Y013994D01*
X022428Y014255D02*
X022403Y014248D01*
X022380Y014244D01*
X022332Y014242D01*
X022352Y014446D01*
X022363Y014445D02*
X022438Y014445D01*
X022452Y014439D01*
X022471Y014426D01*
X022486Y014407D01*
X022497Y014380D01*
X022499Y014353D01*
X022492Y014322D01*
X022472Y014290D01*
X022451Y014270D01*
X022428Y014255D01*
X022051Y014073D02*
X022024Y014127D01*
X021979Y014180D01*
X021917Y014217D01*
X021853Y014240D01*
X021804Y014253D01*
X021761Y014293D01*
X021751Y014330D01*
X021751Y014365D01*
X021770Y014402D01*
X021799Y014428D01*
X021837Y014445D01*
X021895Y014447D01*
X021965Y014438D01*
X022024Y014429D01*
X022049Y014563D01*
X022049Y014562D02*
X021970Y014577D01*
X021805Y014578D01*
X021764Y014566D01*
X021707Y014529D01*
X021651Y014469D01*
X021617Y014398D01*
X021605Y014347D01*
X021610Y014302D01*
X021619Y014258D01*
X021654Y014195D01*
X021690Y014163D01*
X021720Y014145D01*
X021783Y014116D01*
X021842Y014095D01*
X021871Y014080D01*
X021904Y014045D01*
X021918Y014006D01*
X021919Y013951D01*
X021901Y013912D01*
X021872Y013877D01*
X021846Y013853D01*
X021817Y013846D01*
X021718Y013846D01*
X021681Y013850D01*
X021615Y013868D01*
X021572Y013886D01*
X021536Y013893D01*
X021524Y013756D01*
X021654Y013713D01*
X021707Y013704D01*
X021798Y013704D01*
X021828Y013709D01*
X021868Y013722D01*
X021920Y013745D01*
X021978Y013792D01*
X022012Y013830D01*
X022041Y013878D01*
X022063Y013954D01*
X022064Y014017D01*
X022051Y014073D01*
X021428Y013901D02*
X021406Y013848D01*
X021368Y013789D01*
X021321Y013744D01*
X021275Y013719D01*
X021239Y013707D01*
X021203Y013699D01*
X021088Y013699D01*
X020996Y013717D01*
X020934Y013757D01*
X020889Y013809D01*
X020861Y013872D01*
X020852Y013903D01*
X020846Y013938D01*
X020933Y014571D01*
X020936Y014571D02*
X021076Y014572D01*
X020992Y013958D01*
X020998Y013922D01*
X021017Y013873D01*
X021051Y013852D01*
X021090Y013836D01*
X021158Y013834D01*
X021192Y013841D01*
X021230Y013860D01*
X021260Y013899D01*
X021284Y013941D01*
X021385Y014580D01*
X021527Y014577D01*
X021428Y013901D01*
X020312Y013846D02*
X020291Y013715D01*
X019731Y013714D01*
X019724Y013720D01*
X019724Y013726D01*
X020163Y014313D01*
X020169Y014330D01*
X020173Y014343D01*
X020175Y014389D01*
X020166Y014405D01*
X020157Y014422D01*
X020145Y014432D01*
X020130Y014442D01*
X020121Y014446D01*
X020005Y014448D01*
X019985Y014441D01*
X019953Y014434D01*
X019926Y014424D01*
X019912Y014418D01*
X019907Y014417D01*
X019901Y014420D01*
X019893Y014428D01*
X019909Y014555D01*
X019931Y014563D01*
X019965Y014571D01*
X019996Y014577D01*
X020157Y014578D01*
X020203Y014561D01*
X020239Y014539D01*
X020265Y014511D01*
X020286Y014479D01*
X020310Y014421D01*
X020317Y014364D01*
X020315Y014319D01*
X020297Y014276D01*
X020269Y014217D01*
X020005Y013866D01*
X020006Y013846D01*
X020312Y013846D01*
X019734Y013927D02*
X019723Y013888D01*
X019695Y013834D01*
X019667Y013801D01*
X019636Y013767D01*
X019587Y013736D01*
X019516Y013713D01*
X019170Y013714D01*
X019169Y013714D02*
X019295Y014578D01*
X019543Y014578D01*
X019584Y014563D01*
X019612Y014545D01*
X019648Y014512D01*
X019686Y014447D01*
X019698Y014386D01*
X019692Y014297D01*
X019677Y014255D01*
X019639Y014201D01*
X019633Y014185D01*
X019680Y014142D01*
X019710Y014100D01*
X019736Y014027D01*
X019734Y013927D01*
X019596Y013956D02*
X019594Y013996D01*
X019588Y014022D01*
X019571Y014050D01*
X019541Y014082D01*
X019510Y014097D01*
X019491Y014103D01*
X019450Y014108D01*
X019381Y014111D01*
X019367Y014107D01*
X019330Y013846D01*
X019340Y013846D02*
X019345Y013844D01*
X019473Y013844D01*
X019503Y013852D01*
X019523Y013862D01*
X019553Y013880D01*
X019575Y013905D01*
X019589Y013933D01*
X019596Y013956D01*
X019489Y014257D02*
X019464Y014250D01*
X019441Y014246D01*
X019393Y014244D01*
X019413Y014448D01*
X019424Y014447D02*
X019499Y014447D01*
X019513Y014441D01*
X019532Y014428D01*
X019547Y014409D01*
X019558Y014382D01*
X019560Y014355D01*
X019553Y014324D01*
X019533Y014292D01*
X019512Y014272D01*
X019489Y014257D01*
X019178Y014437D02*
X019184Y014454D01*
X019192Y014566D01*
X019167Y014578D01*
X018882Y014577D01*
X018835Y014566D01*
X018783Y014547D01*
X018721Y014518D01*
X018678Y014493D01*
X018638Y014460D01*
X018589Y014418D01*
X018541Y014358D01*
X018512Y014304D01*
X018489Y014244D01*
X018485Y014231D01*
X018483Y013943D01*
X018503Y013895D01*
X018532Y013846D01*
X018561Y013811D01*
X018590Y013785D01*
X018630Y013755D01*
X018680Y013730D01*
X018721Y013716D01*
X018758Y013709D01*
X018808Y013708D01*
X018811Y013707D02*
X018885Y013707D01*
X018944Y013719D01*
X019001Y013739D01*
X019052Y013772D01*
X019094Y013810D01*
X019128Y014120D01*
X018873Y014123D01*
X018863Y014108D01*
X018848Y014000D01*
X018861Y013988D01*
X018968Y013986D01*
X018967Y013964D01*
X018962Y013879D01*
X018933Y013861D01*
X018903Y013850D01*
X018869Y013844D01*
X018831Y013843D01*
X018772Y013845D01*
X018732Y013856D01*
X018698Y013876D01*
X018663Y013902D01*
X018636Y013940D01*
X018616Y013979D01*
X018604Y014041D01*
X018600Y014102D01*
X018606Y014146D01*
X018623Y014213D01*
X018657Y014275D01*
X018695Y014327D01*
X018743Y014366D01*
X018793Y014399D01*
X018841Y014416D01*
X018909Y014440D01*
X018943Y014448D01*
X018990Y014451D01*
X019093Y014451D01*
X019137Y014442D01*
X019167Y014436D01*
X019178Y014437D01*
X018481Y014224D02*
X018460Y014083D01*
X018472Y014017D01*
X018478Y014085D01*
X018478Y014100D01*
X018458Y014077D02*
X018466Y014175D01*
X018481Y014224D01*
X018458Y014077D02*
X018463Y014009D01*
X018482Y013948D01*
X018478Y013961D02*
X018487Y013933D01*
X020665Y004917D02*
X020655Y004910D01*
X020648Y004897D01*
X020648Y004882D01*
X020653Y004872D01*
X020663Y004862D01*
X020673Y004862D01*
X020683Y004892D01*
X020673Y004902D01*
X020663Y004895D01*
X020665Y004877D01*
X020673Y004865D02*
X020680Y004862D01*
X020690Y004867D01*
X020695Y004875D01*
X020700Y004885D01*
X020700Y004892D01*
X020698Y004902D01*
X020688Y004912D01*
X020680Y004917D01*
X020665Y004917D01*
X020650Y004815D02*
X020650Y004560D01*
X020695Y004560D01*
X020695Y004815D01*
X020650Y004815D01*
X020663Y004802D02*
X020668Y004572D01*
X020683Y004572D01*
X020678Y004802D01*
X020563Y004747D02*
X020548Y004770D01*
X020528Y004792D01*
X020508Y004805D01*
X020480Y004817D01*
X020465Y004820D01*
X020423Y004820D01*
X020390Y004810D01*
X020368Y004797D01*
X020350Y004780D01*
X020335Y004760D01*
X020325Y004742D01*
X020318Y004710D01*
X020318Y004665D01*
X020323Y004645D01*
X020333Y004620D01*
X020348Y004597D01*
X020370Y004575D01*
X020420Y004555D01*
X020463Y004555D01*
X020510Y004570D01*
X020528Y004575D01*
X020528Y004530D01*
X020513Y004512D01*
X020493Y004495D01*
X020473Y004485D01*
X020453Y004480D01*
X020423Y004480D01*
X020373Y004492D01*
X020363Y004452D01*
X020425Y004435D01*
X020455Y004435D01*
X020490Y004440D01*
X020513Y004452D01*
X020538Y004470D01*
X020558Y004495D01*
X020568Y004520D01*
X020575Y004547D01*
X020575Y004705D01*
X020570Y004725D01*
X020563Y004747D01*
X020555Y004725D02*
X020520Y004780D01*
X020478Y004800D01*
X020433Y004805D01*
X020380Y004785D01*
X020338Y004735D01*
X020335Y004660D01*
X020348Y004627D01*
X020380Y004582D01*
X020448Y004562D01*
X020528Y004585D01*
X020528Y004607D01*
X020463Y004577D01*
X020405Y004585D01*
X020365Y004620D01*
X020350Y004672D01*
X020358Y004740D01*
X020388Y004775D01*
X020423Y004790D01*
X020475Y004785D01*
X020515Y004772D01*
X020540Y004725D01*
X020540Y004717D02*
X020543Y004522D01*
X020495Y004472D01*
X020438Y004465D01*
X020383Y004477D01*
X020370Y004467D02*
X020438Y004450D01*
X020498Y004457D01*
X020540Y004497D01*
X020558Y004535D01*
X020558Y004715D01*
X020540Y004717D01*
X020528Y004717D02*
X020528Y004625D01*
X020533Y004627D02*
X020505Y004610D01*
X020473Y004597D01*
X020465Y004595D01*
X020423Y004595D01*
X020400Y004605D01*
X020383Y004625D01*
X020365Y004657D01*
X020363Y004722D01*
X020365Y004720D02*
X020373Y004735D01*
X020385Y004750D01*
X020398Y004762D01*
X020415Y004775D01*
X020433Y004777D01*
X020470Y004777D01*
X020490Y004767D01*
X020510Y004752D01*
X020523Y004732D01*
X020528Y004717D01*
X020778Y004562D02*
X020778Y004932D01*
X020823Y004932D01*
X020823Y004560D01*
X020778Y004560D01*
X020793Y004570D02*
X020790Y004920D01*
X020810Y004920D01*
X020810Y004570D01*
X020910Y004602D02*
X020925Y004580D01*
X020948Y004567D01*
X020970Y004562D01*
X020990Y004557D01*
X021008Y004570D01*
X020970Y004577D01*
X020938Y004587D01*
X020923Y004615D01*
X020910Y004645D01*
X020910Y004870D01*
X020930Y004872D01*
X020928Y004642D01*
X020950Y004597D01*
X021010Y004580D01*
X021020Y004597D02*
X020985Y004597D01*
X020970Y004605D01*
X020960Y004612D01*
X020953Y004620D01*
X020945Y004635D01*
X020945Y004772D01*
X020953Y004775D01*
X021023Y004775D01*
X021023Y004817D01*
X020943Y004817D01*
X020945Y004825D01*
X020945Y004885D01*
X020898Y004885D01*
X020898Y004637D01*
X020910Y004602D01*
X020995Y004557D02*
X021020Y004557D01*
X021020Y004597D01*
X021080Y004635D02*
X021073Y004660D01*
X021070Y004685D01*
X021075Y004715D01*
X021083Y004742D01*
X021108Y004780D01*
X021133Y004800D01*
X021160Y004815D01*
X021178Y004820D01*
X021225Y004820D01*
X021253Y004812D01*
X021275Y004800D01*
X021293Y004785D01*
X021310Y004765D01*
X021325Y004742D01*
X021170Y004654D01*
X021150Y004684D01*
X021253Y004745D01*
X021250Y004757D01*
X021243Y004770D01*
X021230Y004777D01*
X021178Y004777D01*
X021155Y004765D01*
X021135Y004745D01*
X021128Y004732D01*
X021120Y004722D01*
X021118Y004692D01*
X021118Y004670D01*
X021128Y004645D01*
X021140Y004620D01*
X021160Y004607D01*
X021175Y004600D01*
X021183Y004595D01*
X021223Y004595D01*
X021238Y004602D01*
X021255Y004615D01*
X021270Y004630D01*
X021280Y004647D01*
X021288Y004677D01*
X021333Y004670D01*
X021323Y004637D01*
X021308Y004605D01*
X021290Y004585D01*
X021273Y004572D01*
X021253Y004562D01*
X021230Y004555D01*
X021180Y004555D01*
X021160Y004560D01*
X021135Y004570D01*
X021115Y004585D01*
X021098Y004605D01*
X021080Y004635D01*
X021088Y004660D02*
X021118Y004597D01*
X021178Y004567D01*
X021233Y004567D01*
X021290Y004605D01*
X021315Y004662D01*
X021298Y004660D02*
X021283Y004617D01*
X021235Y004587D01*
X021220Y004580D01*
X021178Y004580D01*
X021130Y004605D01*
X021103Y004667D01*
X021108Y004727D01*
X021128Y004762D01*
X021170Y004787D01*
X021223Y004790D01*
X021250Y004777D01*
X021263Y004760D01*
X021268Y004742D01*
X021155Y004677D01*
X021164Y004666D01*
X021305Y004747D01*
X021270Y004787D01*
X021283Y004747D01*
X021270Y004770D02*
X021230Y004807D01*
X021213Y004807D01*
X021175Y004807D02*
X021113Y004770D01*
X021095Y004727D01*
X021088Y004660D01*
X021010Y004785D02*
X021010Y004802D01*
X020940Y004802D01*
X020938Y004787D02*
X021010Y004785D01*
X021175Y004805D02*
X021263Y004792D01*
X021388Y004772D02*
X021385Y004755D01*
X021385Y004740D01*
X021393Y004722D01*
X021405Y004705D01*
X021443Y004680D01*
X021520Y004647D01*
X021530Y004635D01*
X021535Y004622D01*
X021525Y004610D01*
X021513Y004600D01*
X021385Y004600D01*
X021385Y004560D01*
X021500Y004560D01*
X021540Y004567D01*
X021560Y004580D01*
X021575Y004602D01*
X021575Y004645D01*
X021568Y004665D01*
X021550Y004680D01*
X021443Y004727D01*
X021433Y004737D01*
X021430Y004742D01*
X021430Y004760D01*
X021435Y004770D01*
X021438Y004772D01*
X021445Y004775D01*
X021563Y004775D01*
X021563Y004815D01*
X021450Y004815D01*
X021428Y004810D01*
X021413Y004802D01*
X021398Y004787D01*
X021388Y004772D01*
X021408Y004782D02*
X021403Y004735D01*
X021428Y004705D01*
X021533Y004657D01*
X021543Y004627D01*
X021548Y004607D01*
X021523Y004590D01*
X021513Y004585D02*
X021398Y004585D01*
X021393Y004582D01*
X021420Y004580D01*
X021395Y004572D02*
X021523Y004575D01*
X021513Y004585D01*
X021530Y004575D02*
X021560Y004605D01*
X021553Y004655D01*
X021530Y004677D01*
X021425Y004722D01*
X021413Y004742D01*
X021423Y004772D01*
X021438Y004787D01*
X021548Y004790D01*
X021550Y004800D01*
X021438Y004797D01*
X021408Y004782D01*
X021388Y004562D02*
X021385Y004560D01*
X021633Y004662D02*
X021645Y004625D01*
X021665Y004595D01*
X021683Y004577D01*
X021705Y004567D01*
X021735Y004555D01*
X021778Y004555D01*
X021825Y004570D01*
X021830Y004572D01*
X021838Y004572D01*
X021848Y004560D01*
X021855Y004560D01*
X021860Y004560D02*
X021890Y004560D01*
X021890Y004700D01*
X021885Y004725D01*
X021878Y004745D01*
X021863Y004772D01*
X021843Y004792D01*
X021813Y004810D01*
X021793Y004817D01*
X021778Y004820D01*
X021738Y004820D01*
X021713Y004812D01*
X021690Y004802D01*
X021668Y004782D01*
X021650Y004760D01*
X021640Y004737D01*
X021633Y004712D01*
X021633Y004662D01*
X021650Y004652D02*
X021690Y004590D01*
X021738Y004567D01*
X021780Y004572D01*
X021823Y004590D01*
X021843Y004582D01*
X021858Y004572D01*
X021858Y004582D01*
X021828Y004600D01*
X021863Y004590D01*
X021853Y004612D01*
X021863Y004612D01*
X021855Y004712D01*
X021828Y004770D01*
X021770Y004790D01*
X021713Y004782D01*
X021673Y004745D01*
X021663Y004670D01*
X021678Y004627D01*
X021708Y004592D01*
X021780Y004577D01*
X021785Y004592D02*
X021805Y004600D01*
X021823Y004612D01*
X021825Y004615D01*
X021833Y004607D01*
X021840Y004612D02*
X021843Y004615D01*
X021845Y004620D01*
X021843Y004715D01*
X021838Y004727D01*
X021828Y004747D01*
X021810Y004765D01*
X021790Y004775D01*
X021783Y004777D01*
X021740Y004777D01*
X021718Y004770D01*
X021700Y004757D01*
X021688Y004740D01*
X021678Y004722D01*
X021678Y004652D01*
X021688Y004637D01*
X021705Y004612D01*
X021725Y004597D01*
X021743Y004592D01*
X021785Y004592D01*
X021878Y004567D02*
X021873Y004705D01*
X021850Y004765D01*
X021820Y004787D01*
X021775Y004802D01*
X021730Y004802D01*
X021690Y004785D01*
X021655Y004737D01*
X021648Y004705D01*
X021650Y004652D01*
X021978Y004595D02*
X021978Y004575D01*
X021980Y004567D01*
X021990Y004557D01*
X022000Y004555D01*
X022018Y004572D01*
X022020Y004590D01*
X022008Y004600D01*
X021995Y004590D01*
X021998Y004575D01*
X022005Y004582D01*
X022005Y004555D02*
X022015Y004555D01*
X022023Y004557D01*
X022033Y004565D01*
X022035Y004572D01*
X022035Y004590D01*
X022030Y004600D01*
X022018Y004612D01*
X021995Y004612D01*
X021985Y004605D01*
X021978Y004595D01*
X022118Y004645D02*
X022130Y004620D01*
X022143Y004605D01*
X022158Y004590D01*
X022178Y004575D01*
X022195Y004567D01*
X022215Y004562D01*
X022243Y004557D01*
X022285Y004557D01*
X022285Y004600D01*
X022235Y004600D01*
X022218Y004605D01*
X022195Y004615D01*
X022178Y004632D01*
X022165Y004650D01*
X022160Y004662D01*
X022158Y004667D01*
X022158Y004707D01*
X022168Y004722D01*
X022180Y004745D01*
X022203Y004760D01*
X022218Y004767D01*
X022243Y004772D01*
X022285Y004772D01*
X022285Y004815D01*
X022235Y004815D01*
X022213Y004812D01*
X022190Y004805D01*
X022165Y004790D01*
X022148Y004772D01*
X022135Y004757D01*
X022125Y004737D01*
X022118Y004717D01*
X022113Y004700D01*
X022113Y004670D01*
X022118Y004645D01*
X022130Y004655D02*
X022130Y004722D01*
X022168Y004772D01*
X022215Y004800D01*
X022270Y004802D01*
X022270Y004787D01*
X022215Y004785D01*
X022170Y004752D01*
X022145Y004717D01*
X022148Y004652D01*
X022178Y004610D01*
X022215Y004590D01*
X022270Y004585D01*
X022275Y004570D02*
X022208Y004575D01*
X022158Y004607D01*
X022130Y004655D01*
X022240Y004557D02*
X022243Y004557D01*
X022350Y004625D02*
X022360Y004607D01*
X022378Y004590D01*
X022398Y004572D01*
X022418Y004562D01*
X022443Y004555D01*
X022453Y004555D01*
X022455Y004555D02*
X022488Y004555D01*
X022510Y004560D01*
X022535Y004570D01*
X022558Y004590D01*
X022575Y004615D01*
X022588Y004632D01*
X022593Y004657D01*
X022593Y004715D01*
X022585Y004742D01*
X022575Y004762D01*
X022538Y004800D01*
X022510Y004815D01*
X022483Y004820D01*
X022440Y004820D01*
X022413Y004810D01*
X022385Y004792D01*
X022363Y004770D01*
X022348Y004747D01*
X022338Y004710D01*
X022338Y004662D01*
X022343Y004645D01*
X022350Y004625D01*
X022393Y004640D02*
X022405Y004620D01*
X022423Y004605D01*
X022440Y004595D01*
X022480Y004595D01*
X022473Y004592D02*
X022493Y004597D01*
X022513Y004607D01*
X022525Y004620D01*
X022538Y004637D01*
X022543Y004650D01*
X022545Y004660D01*
X022545Y004712D01*
X022538Y004732D01*
X022525Y004752D01*
X022510Y004767D01*
X022495Y004775D01*
X022488Y004777D01*
X022448Y004777D01*
X022430Y004772D01*
X022410Y004760D01*
X022400Y004747D01*
X022388Y004727D01*
X022383Y004712D01*
X022383Y004662D01*
X022393Y004640D01*
X022658Y004557D02*
X022700Y004557D01*
X022700Y004732D01*
X022708Y004747D01*
X022715Y004760D01*
X022725Y004770D01*
X022743Y004777D01*
X022773Y004777D01*
X022793Y004767D01*
X022805Y004757D01*
X022818Y004740D01*
X022818Y004560D01*
X022863Y004560D01*
X022863Y004740D01*
X022865Y004745D01*
X022875Y004760D01*
X022893Y004775D01*
X022933Y004775D01*
X022943Y004770D01*
X022958Y004765D01*
X022968Y004750D01*
X022975Y004732D01*
X022975Y004560D01*
X023020Y004560D01*
X023020Y004715D01*
X023018Y004737D01*
X023013Y004752D01*
X023003Y004775D01*
X022990Y004790D01*
X022973Y004805D01*
X022953Y004815D01*
X022935Y004820D01*
X022900Y004820D01*
X022888Y004817D01*
X022870Y004807D01*
X022855Y004795D01*
X022843Y004787D01*
X022833Y004787D01*
X022823Y004797D01*
X022798Y004812D01*
X022778Y004820D01*
X022738Y004820D01*
X022705Y004807D01*
X022683Y004790D01*
X022668Y004765D01*
X022658Y004730D01*
X022658Y004557D01*
D19*
X008451Y005223D02*
X008453Y005233D01*
X008458Y005242D01*
X008466Y005249D01*
X008476Y005253D01*
X008486Y005253D01*
X008496Y005249D01*
X008504Y005242D01*
X008509Y005233D01*
X008511Y005223D01*
X008509Y005213D01*
X008504Y005204D01*
X008496Y005197D01*
X008486Y005193D01*
X008476Y005193D01*
X008466Y005197D01*
X008458Y005204D01*
X008453Y005213D01*
X008451Y005223D01*
D20*
X020645Y005743D02*
X020791Y005744D01*
X020726Y005173D01*
X022722Y005173D01*
X022722Y005175D01*
X022588Y005987D01*
X022738Y005987D01*
X022778Y006305D01*
X022512Y006305D01*
X022593Y006925D01*
X022029Y006924D01*
X021914Y006130D01*
X021856Y006184D02*
X021957Y006925D01*
X021397Y006926D01*
X021376Y006803D01*
X021756Y006801D01*
X021705Y006359D01*
X021686Y006319D01*
X021660Y006295D01*
X021618Y006273D01*
X020872Y006287D01*
X020850Y006303D01*
X020830Y006327D01*
X020994Y007581D01*
X021026Y007616D01*
X021066Y007636D01*
X021813Y007634D01*
X021840Y007610D01*
X021857Y007582D01*
X021818Y007243D01*
X022005Y007244D01*
X022054Y007755D01*
X022004Y007804D01*
X022004Y007805D01*
X020918Y007805D01*
X020902Y007803D01*
X020887Y007797D01*
X020873Y007789D01*
X020861Y007778D01*
X020851Y007765D01*
X020845Y007750D01*
X020841Y007734D01*
X020627Y006167D01*
X020627Y006168D02*
X020629Y006153D01*
X020634Y006140D01*
X020642Y006127D01*
X020652Y006117D01*
X020665Y006109D01*
X020678Y006105D01*
X020693Y006103D01*
X021770Y006101D01*
X021822Y006044D02*
X021841Y006047D01*
X021859Y006054D01*
X021876Y006064D01*
X021890Y006078D01*
X021901Y006093D01*
X021909Y006111D01*
X021914Y006130D01*
X022012Y006082D02*
X022111Y006849D01*
X022109Y006846D02*
X022256Y006845D01*
X022142Y006082D01*
X022012Y006082D01*
X022044Y005952D02*
X022064Y005945D01*
X022077Y005931D01*
X022076Y005836D01*
X022064Y005819D01*
X022010Y005816D01*
X021956Y005817D01*
X021937Y005831D01*
X021900Y005833D01*
X021881Y005818D01*
X021861Y005801D01*
X021850Y005781D01*
X021848Y005726D01*
X021866Y005707D01*
X021882Y005694D01*
X021934Y005679D01*
X021974Y005670D01*
X022011Y005649D01*
X022042Y005618D01*
X022067Y005584D01*
X022087Y005527D01*
X022088Y005432D01*
X022076Y005393D01*
X022053Y005360D01*
X022024Y005322D01*
X021997Y005299D01*
X021951Y005275D01*
X021905Y005252D01*
X021766Y005251D01*
X021745Y005263D01*
X021695Y005277D01*
X021666Y005279D01*
X021650Y005275D01*
X021634Y005250D01*
X021194Y005249D01*
X021293Y005953D01*
X021671Y005955D01*
X021662Y005831D01*
X021411Y005830D01*
X021398Y005679D01*
X021605Y005678D01*
X021587Y005538D01*
X021365Y005538D01*
X021348Y005384D01*
X021645Y005384D01*
X021657Y005400D01*
X021663Y005405D01*
X021665Y005409D01*
X021675Y005417D01*
X021716Y005418D01*
X021734Y005404D01*
X021769Y005386D01*
X021907Y005384D01*
X021924Y005395D01*
X021931Y005404D01*
X021940Y005412D01*
X021947Y005420D01*
X021954Y005430D01*
X021957Y005506D01*
X021944Y005530D01*
X021935Y005541D01*
X021910Y005553D01*
X021860Y005571D01*
X021824Y005588D01*
X021783Y005614D01*
X021752Y005642D01*
X021730Y005671D01*
X021714Y005696D01*
X021714Y005806D01*
X021730Y005851D01*
X021751Y005871D01*
X021771Y005889D01*
X021792Y005909D01*
X021810Y005926D01*
X021823Y005937D01*
X021863Y005949D01*
X022044Y005952D01*
X022220Y006080D02*
X022659Y006082D01*
X022677Y006210D01*
X022387Y006215D01*
X022467Y006848D01*
X022327Y006847D01*
X022326Y006846D02*
X022220Y006080D01*
X022370Y005954D02*
X022056Y005245D01*
X022061Y005245D02*
X022194Y005245D01*
X022275Y005424D01*
X022445Y005425D01*
X022467Y005249D01*
X022601Y005247D01*
X022484Y005954D01*
X022370Y005954D01*
X021822Y006044D02*
X020677Y006044D01*
X020676Y006044D01*
X020645Y005743D01*
X020753Y005831D02*
X020769Y005955D01*
X020770Y005955D02*
X021229Y005955D01*
X021215Y005834D01*
X021050Y005834D01*
X020969Y005244D01*
X020832Y005244D01*
X020914Y005832D01*
X020753Y005831D01*
X021770Y006101D02*
X021788Y006104D01*
X021805Y006112D01*
X021821Y006122D01*
X021834Y006135D01*
X021844Y006150D01*
X021852Y006167D01*
X021856Y006185D01*
X022383Y005691D02*
X022399Y005690D01*
X022415Y005562D01*
X022337Y005563D01*
X022338Y005563D02*
X022383Y005691D01*
X021140Y006607D02*
X021147Y006696D01*
X020950Y006696D01*
X020940Y006606D01*
X020939Y006606D02*
X021128Y006606D01*
X021140Y006607D01*
X021075Y006541D02*
X021094Y006763D01*
X021020Y006763D01*
X021021Y006763D02*
X021003Y006542D01*
X021075Y006541D01*
X021062Y007163D02*
X021120Y007163D01*
X021149Y007420D01*
X021164Y007439D01*
X021654Y007438D01*
X021663Y007426D01*
X021639Y007161D01*
X021693Y007163D01*
X021722Y007444D01*
X021714Y007461D01*
X021695Y007478D01*
X021136Y007479D01*
X021109Y007460D01*
X021096Y007430D01*
X021062Y007163D01*
D21*
X021078Y007176D02*
X021104Y007176D01*
X021135Y007428D01*
X021151Y007453D01*
X021661Y007450D01*
X021680Y007437D01*
X021657Y007191D01*
X021653Y007174D01*
X021681Y007177D01*
X021706Y007443D01*
X021690Y007461D01*
X021144Y007465D01*
X021130Y007459D01*
X021116Y007441D01*
X021081Y007177D01*
X021408Y006909D02*
X021392Y006817D01*
X021768Y006816D01*
X021769Y006793D01*
X021722Y006357D01*
X021698Y006310D01*
X021665Y006281D01*
X021628Y006260D01*
X020864Y006271D01*
X020827Y006296D01*
X020832Y006298D01*
X020816Y006322D01*
X020977Y007585D01*
X021006Y007619D01*
X021038Y007642D01*
X021071Y007651D01*
X021815Y007651D01*
X021842Y007631D01*
X021864Y007606D01*
X021874Y007590D01*
X021836Y007256D01*
X021989Y007256D01*
X022036Y007749D01*
X022000Y007791D01*
X020907Y007787D01*
X020885Y007778D01*
X020865Y007762D01*
X020858Y007735D01*
X020644Y006164D01*
X020650Y006141D01*
X020666Y006127D01*
X020693Y006118D01*
X021180Y006120D01*
X021192Y006118D02*
X021764Y006116D01*
X021800Y006126D01*
X021817Y006139D01*
X021832Y006163D01*
X021838Y006181D01*
X021940Y006912D01*
X021408Y006909D01*
X021135Y006681D02*
X021128Y006622D01*
X020954Y006621D01*
X020959Y006665D01*
X021113Y006664D01*
X021110Y006643D01*
X020975Y006644D01*
X020962Y006684D02*
X021135Y006681D01*
X021069Y006723D02*
X021059Y006736D01*
X021050Y006722D02*
X021045Y006571D01*
X021018Y006555D01*
X021063Y006556D01*
X021078Y006748D01*
X021034Y006746D01*
X021021Y006557D01*
X021832Y006029D02*
X021857Y006038D01*
X021891Y006063D01*
X021913Y006084D01*
X021928Y006108D01*
X022039Y006907D01*
X022576Y006913D01*
X022497Y006293D01*
X022762Y006292D01*
X022725Y006000D01*
X022724Y006006D01*
X022570Y005998D01*
X022708Y005187D01*
X020741Y005185D01*
X020744Y005191D02*
X020809Y005756D01*
X020662Y005755D01*
X020686Y006026D01*
X021832Y006029D01*
X021862Y005965D02*
X021811Y005946D01*
X021729Y005875D01*
X021718Y005855D01*
X021701Y005802D01*
X021698Y005689D01*
X021745Y005624D01*
X021793Y005586D01*
X021861Y005556D01*
X021931Y005523D01*
X021940Y005499D01*
X021941Y005437D01*
X021905Y005402D01*
X021768Y005404D01*
X021728Y005427D01*
X021694Y005432D01*
X021662Y005425D01*
X021639Y005399D01*
X021364Y005401D01*
X021379Y005522D01*
X021598Y005523D01*
X021622Y005686D01*
X021613Y005691D01*
X021412Y005692D01*
X021423Y005815D01*
X021673Y005817D01*
X021688Y005959D01*
X021677Y005966D01*
X021288Y005967D01*
X021179Y005231D01*
X021193Y005231D02*
X021203Y005232D01*
X021639Y005234D01*
X021658Y005261D01*
X021729Y005253D01*
X021758Y005236D01*
X021907Y005235D01*
X022012Y005286D01*
X022061Y005344D01*
X022096Y005398D01*
X022104Y005463D01*
X022100Y005552D01*
X022070Y005620D01*
X022064Y005612D01*
X022026Y005659D01*
X021982Y005683D01*
X021934Y005696D01*
X021887Y005712D01*
X021864Y005736D01*
X021867Y005777D01*
X021900Y005816D01*
X021932Y005817D01*
X021944Y005806D01*
X022068Y005805D01*
X022088Y005825D01*
X022093Y005930D01*
X022081Y005956D01*
X022049Y005965D01*
X021862Y005965D01*
X021997Y006064D02*
X022096Y006861D01*
X022109Y006861D02*
X022273Y006858D01*
X022156Y006071D01*
X022145Y006063D01*
X021997Y006064D01*
X022205Y006069D02*
X022314Y006864D01*
X022326Y006864D02*
X022488Y006862D01*
X022405Y006226D01*
X022682Y006223D01*
X022691Y006209D01*
X022672Y006066D01*
X022215Y006064D01*
X022205Y006069D01*
X022364Y005969D02*
X022037Y005232D01*
X022055Y005232D02*
X022199Y005229D01*
X022284Y005410D01*
X022432Y005411D01*
X022451Y005242D01*
X022460Y005236D01*
X022606Y005233D01*
X022616Y005239D01*
X022500Y005959D01*
X022492Y005966D01*
X022364Y005969D01*
X022376Y005704D02*
X022406Y005704D01*
X022409Y005697D02*
X022434Y005549D01*
X022394Y005549D01*
X022322Y005549D01*
X022360Y005661D01*
X022376Y005704D01*
X021226Y005824D02*
X021245Y005966D01*
X020767Y005968D01*
X020752Y005954D01*
X020738Y005827D01*
X020751Y005819D01*
X020897Y005818D01*
X020816Y005228D01*
X020831Y005226D02*
X020976Y005228D01*
X021063Y005819D01*
X021220Y005819D01*
X021226Y005824D01*
D22*
X018503Y008833D02*
X018559Y008888D01*
X018559Y009109D01*
X018503Y009164D01*
X018393Y009164D01*
X018338Y009109D01*
X018338Y008888D02*
X018393Y008833D01*
X018503Y008833D01*
X018559Y009633D02*
X018393Y009633D01*
X018338Y009688D01*
X018338Y009909D01*
X018393Y009964D01*
X018559Y009964D01*
X018559Y009633D01*
D23*
X018122Y009651D02*
X018122Y009966D01*
X017333Y009966D01*
X017333Y009651D01*
X018122Y009651D01*
X018122Y009606D02*
X017333Y009606D01*
X017333Y009291D01*
X018122Y009291D01*
X018122Y009606D01*
X017333Y009601D02*
X017333Y010016D01*
X017333Y009656D02*
X017333Y009241D01*
X017333Y009246D02*
X017333Y008931D01*
X018122Y008931D01*
X018122Y009246D01*
X017333Y009246D01*
X017333Y009296D02*
X017333Y008881D01*
X009388Y004528D02*
X009073Y004528D01*
X009073Y003739D01*
X009388Y003739D01*
X009388Y004528D01*
X009438Y003739D02*
X009023Y003739D01*
X006838Y003739D02*
X006423Y003739D01*
X006473Y003739D02*
X006788Y003739D01*
X006788Y004528D01*
X006473Y004528D01*
X006473Y003739D01*
D24*
X010044Y011136D02*
X010046Y011148D01*
X010051Y011159D01*
X010060Y011168D01*
X010071Y011173D01*
X010083Y011175D01*
X010095Y011173D01*
X010106Y011168D01*
X010115Y011159D01*
X010120Y011148D01*
X010122Y011136D01*
X010120Y011124D01*
X010115Y011113D01*
X010106Y011104D01*
X010095Y011099D01*
X010083Y011097D01*
X010071Y011099D01*
X010060Y011104D01*
X010051Y011113D01*
X010046Y011124D01*
X010044Y011136D01*
D25*
X007026Y011054D03*
D26*
X005518Y004873D03*
D27*
X005325Y008309D02*
X005327Y008321D01*
X005333Y008333D01*
X005341Y008341D01*
X005353Y008347D01*
X005365Y008349D01*
X005377Y008347D01*
X005389Y008341D01*
X005397Y008333D01*
X005403Y008321D01*
X005405Y008309D01*
X005403Y008297D01*
X005397Y008285D01*
X005389Y008277D01*
X005377Y008271D01*
X005365Y008269D01*
X005353Y008271D01*
X005341Y008277D01*
X005333Y008285D01*
X005327Y008297D01*
X005325Y008309D01*
M02*
