G75*
G70*
%OFA0B0*%
%FSLAX24Y24*%
%IPPOS*%
%LPD*%
%AMOC8*
5,1,8,0,0,1.08239X$1,22.5*
%
%ADD10C,0.0050*%
%ADD11C,0.0000*%
%ADD12C,0.1181*%
%ADD13R,0.1150X0.1550*%
%ADD14R,0.1400X0.1550*%
%ADD15R,0.1350X0.1550*%
%ADD16R,0.0550X0.1400*%
%ADD17R,0.0197X0.0220*%
%ADD18R,0.0315X0.0472*%
%ADD19R,0.0250X0.0472*%
%ADD20C,0.0004*%
%ADD21C,0.0827*%
%ADD22C,0.0850*%
%ADD23R,0.0220X0.0197*%
%ADD24C,0.0709*%
%ADD25R,0.0236X0.0600*%
%ADD26R,0.0300X0.1040*%
%ADD27C,0.0450*%
%ADD28C,0.0120*%
%ADD29C,0.0250*%
%ADD30R,0.0433X0.0394*%
%ADD31R,0.0250X0.0197*%
%ADD32R,0.0472X0.0217*%
%ADD33R,0.0358X0.0480*%
%ADD34R,0.0906X0.0551*%
%ADD35R,0.0250X0.0354*%
%ADD36R,0.0354X0.0315*%
%ADD37R,0.0480X0.0358*%
%ADD38R,0.0551X0.0236*%
%ADD39R,0.0551X0.1181*%
%ADD40R,0.0354X0.0250*%
D10*
X001034Y000534D02*
X023572Y000534D01*
X023572Y000562D01*
X023576Y000590D01*
X023583Y000617D01*
X023594Y000643D01*
X023608Y000667D01*
X023625Y000689D01*
X023645Y000709D01*
X023667Y000726D01*
X023691Y000740D01*
X023717Y000751D01*
X023744Y000758D01*
X023772Y000762D01*
X023922Y000762D01*
X023950Y000758D01*
X023977Y000751D01*
X024003Y000740D01*
X024027Y000726D01*
X024049Y000709D01*
X024069Y000689D01*
X024086Y000667D01*
X024100Y000643D01*
X024111Y000617D01*
X024118Y000590D01*
X024122Y000562D01*
X024122Y000534D01*
X029309Y000534D01*
X029309Y000562D01*
X029313Y000590D01*
X029320Y000617D01*
X029331Y000643D01*
X029345Y000667D01*
X029362Y000689D01*
X029382Y000709D01*
X029404Y000726D01*
X029428Y000740D01*
X029454Y000751D01*
X029481Y000758D01*
X029509Y000762D01*
X029659Y000762D01*
X029688Y000758D01*
X029715Y000751D01*
X029741Y000741D01*
X029766Y000727D01*
X029789Y000710D01*
X029809Y000690D01*
X029827Y000668D01*
X029841Y000643D01*
X029853Y000617D01*
X029860Y000590D01*
X029864Y000562D01*
X029865Y000534D01*
X029864Y000534D02*
X031519Y000534D01*
X031518Y000533D02*
X031563Y000534D01*
X031606Y000540D01*
X031650Y000549D01*
X031692Y000562D01*
X031733Y000578D01*
X031772Y000598D01*
X031810Y000621D01*
X031845Y000648D01*
X031878Y000677D01*
X031908Y000710D01*
X031935Y000744D01*
X031959Y000781D01*
X031980Y000820D01*
X031998Y000861D01*
X032011Y000903D01*
X032021Y000946D01*
X032028Y000989D01*
X032030Y001033D01*
X032030Y001034D02*
X032030Y014435D01*
X032027Y014478D01*
X032021Y014522D01*
X032011Y014565D01*
X031997Y014607D01*
X031980Y014647D01*
X031959Y014686D01*
X031935Y014723D01*
X031908Y014758D01*
X031877Y014790D01*
X031845Y014819D01*
X031809Y014845D01*
X031772Y014869D01*
X031733Y014888D01*
X031692Y014905D01*
X031649Y014917D01*
X031606Y014926D01*
X031563Y014932D01*
X031518Y014933D01*
X031519Y014933D02*
X001034Y014933D01*
X000990Y014931D01*
X000947Y014926D01*
X000905Y014916D01*
X000863Y014903D01*
X000823Y014887D01*
X000784Y014867D01*
X000748Y014843D01*
X000713Y014817D01*
X000681Y014788D01*
X000651Y014756D01*
X000625Y014721D01*
X000601Y014684D01*
X000581Y014646D01*
X000564Y014606D01*
X000551Y014564D01*
X000542Y014522D01*
X000536Y014478D01*
X000534Y014435D01*
X000534Y001034D01*
X000536Y000990D01*
X000542Y000947D01*
X000551Y000905D01*
X000564Y000863D01*
X000581Y000823D01*
X000601Y000784D01*
X000624Y000747D01*
X000651Y000713D01*
X000680Y000680D01*
X000713Y000651D01*
X000747Y000624D01*
X000784Y000601D01*
X000823Y000581D01*
X000863Y000564D01*
X000905Y000551D01*
X000947Y000542D01*
X000990Y000536D01*
X001034Y000534D01*
X003249Y001912D02*
X007340Y001912D01*
X007340Y003486D01*
X004184Y003486D01*
X004150Y003488D01*
X004117Y003493D01*
X004084Y003502D01*
X004053Y003515D01*
X004023Y003531D01*
X003995Y003551D01*
X003970Y003573D01*
X003947Y003598D01*
X003927Y003626D01*
X003911Y003655D01*
X003898Y003687D01*
X003888Y003719D01*
X003882Y003752D01*
X003880Y003786D01*
X003880Y010336D01*
X005130Y011586D01*
X007340Y011586D01*
X007340Y013161D01*
X003175Y013161D01*
X003130Y013155D01*
X003086Y013146D01*
X003043Y013134D01*
X003002Y013117D01*
X002962Y013097D01*
X002923Y013073D01*
X002887Y013047D01*
X002854Y013017D01*
X002823Y012984D01*
X002795Y012949D01*
X002771Y012912D01*
X002749Y012872D01*
X002732Y012831D01*
X002718Y012788D01*
X002707Y012745D01*
X002701Y012700D01*
X002698Y012656D01*
X002699Y012611D01*
X002699Y002387D01*
X002704Y002345D01*
X002712Y002303D01*
X002724Y002262D01*
X002739Y002222D01*
X002757Y002184D01*
X002779Y002147D01*
X002803Y002112D01*
X002830Y002080D01*
X002860Y002049D01*
X002892Y002022D01*
X002926Y001997D01*
X002963Y001974D01*
X003001Y001955D01*
X003040Y001940D01*
X003081Y001927D01*
X003122Y001918D01*
X003164Y001912D01*
X003207Y001910D01*
X003249Y001911D01*
X008521Y001912D02*
X008521Y003486D01*
X010680Y003486D01*
X011980Y004786D01*
X011980Y011286D01*
X011978Y011320D01*
X011972Y011353D01*
X011963Y011385D01*
X011950Y011416D01*
X011934Y011446D01*
X011915Y011473D01*
X011892Y011498D01*
X011867Y011521D01*
X011840Y011540D01*
X011810Y011556D01*
X011779Y011569D01*
X011747Y011578D01*
X011714Y011584D01*
X011680Y011586D01*
X008521Y011586D01*
X008521Y013161D01*
X019741Y013161D01*
X020291Y012686D02*
X020291Y009857D01*
X019373Y009857D01*
X019350Y009861D01*
X019328Y009868D01*
X019307Y009878D01*
X019288Y009891D01*
X019271Y009907D01*
X019257Y009925D01*
X019245Y009945D01*
X019236Y009966D01*
X019230Y009988D01*
X019227Y010011D01*
X019228Y010034D01*
X019228Y010097D01*
X019228Y010120D01*
X019224Y010143D01*
X019218Y010165D01*
X019208Y010186D01*
X019196Y010205D01*
X019181Y010222D01*
X019163Y010237D01*
X019144Y010250D01*
X019123Y010259D01*
X019101Y010265D01*
X019078Y010269D01*
X018938Y010269D01*
X018938Y010270D02*
X018915Y010273D01*
X018893Y010280D01*
X018872Y010290D01*
X018852Y010303D01*
X018835Y010319D01*
X018819Y010336D01*
X018807Y010356D01*
X018798Y010378D01*
X018791Y010400D01*
X018788Y010423D01*
X018789Y010447D01*
X018788Y010447D02*
X018788Y011397D01*
X017688Y011397D01*
X017688Y010897D01*
X017688Y010896D02*
X017670Y010836D01*
X017648Y010777D01*
X017622Y010720D01*
X017593Y010664D01*
X017561Y010611D01*
X017525Y010559D01*
X017487Y010509D01*
X017446Y010462D01*
X017401Y010417D01*
X017355Y010376D01*
X017305Y010337D01*
X017254Y010301D01*
X017200Y010268D01*
X017200Y010269D02*
X017150Y010231D01*
X017102Y010190D01*
X017057Y010146D01*
X017015Y010100D01*
X016975Y010051D01*
X016939Y009999D01*
X016906Y009946D01*
X016876Y009891D01*
X016849Y009834D01*
X016826Y009775D01*
X016807Y009715D01*
X016791Y009654D01*
X016779Y009593D01*
X016770Y009530D01*
X016766Y009467D01*
X016765Y009405D01*
X016768Y009342D01*
X016775Y009279D01*
X016786Y009217D01*
X016800Y009156D01*
X016818Y009096D01*
X016840Y009037D01*
X016865Y008979D01*
X016894Y008923D01*
X016926Y008869D01*
X016961Y008817D01*
X016999Y008767D01*
X017040Y008719D01*
X017085Y008674D01*
X017131Y008632D01*
X017180Y008593D01*
X017232Y008557D01*
X017285Y008524D01*
X017341Y008494D01*
X017398Y008468D01*
X017456Y008445D01*
X017516Y008426D01*
X017577Y008410D01*
X017639Y008398D01*
X017701Y008390D01*
X017764Y008386D01*
X017827Y008385D01*
X017890Y008389D01*
X017952Y008396D01*
X018014Y008407D01*
X018076Y008421D01*
X018136Y008439D01*
X018195Y008461D01*
X018252Y008487D01*
X018253Y008486D02*
X018473Y008486D01*
X018623Y008336D01*
X018623Y008137D01*
X018622Y008137D02*
X018624Y008103D01*
X018630Y008070D01*
X018639Y008037D01*
X018652Y008006D01*
X018668Y007976D01*
X018688Y007948D01*
X018711Y007923D01*
X018736Y007900D01*
X018764Y007880D01*
X018794Y007864D01*
X018825Y007851D01*
X018858Y007842D01*
X018891Y007836D01*
X018925Y007834D01*
X018959Y007836D01*
X018992Y007842D01*
X019025Y007851D01*
X019056Y007864D01*
X019086Y007880D01*
X019114Y007900D01*
X019139Y007923D01*
X019162Y007948D01*
X019182Y007976D01*
X019198Y008006D01*
X019211Y008037D01*
X019220Y008070D01*
X019226Y008103D01*
X019228Y008137D01*
X019228Y008808D01*
X019231Y008831D01*
X019238Y008853D01*
X019248Y008874D01*
X019261Y008894D01*
X019276Y008911D01*
X019294Y008926D01*
X019314Y008938D01*
X019335Y008948D01*
X019358Y008954D01*
X019381Y008957D01*
X019404Y008956D01*
X019404Y008957D02*
X020291Y008957D01*
X020291Y004942D01*
X018913Y004942D01*
X018913Y004998D01*
X018905Y005061D01*
X018893Y005124D01*
X018877Y005187D01*
X018858Y005248D01*
X018835Y005308D01*
X018808Y005366D01*
X018778Y005423D01*
X018744Y005478D01*
X018707Y005531D01*
X018667Y005581D01*
X018624Y005629D01*
X018579Y005674D01*
X018530Y005716D01*
X018480Y005756D01*
X018426Y005792D01*
X018371Y005825D01*
X018314Y005854D01*
X018255Y005880D01*
X018195Y005903D01*
X018134Y005922D01*
X018071Y005937D01*
X018008Y005948D01*
X017944Y005955D01*
X017880Y005959D01*
X017816Y005958D01*
X017751Y005954D01*
X017751Y005955D02*
X016819Y005955D01*
X016795Y005970D01*
X016772Y005988D01*
X016752Y006008D01*
X016734Y006031D01*
X016719Y006055D01*
X016699Y006105D01*
X016676Y006153D01*
X016649Y006200D01*
X016619Y006245D01*
X016585Y006287D01*
X016549Y006327D01*
X016511Y006365D01*
X016469Y006399D01*
X016426Y006431D01*
X016380Y006460D01*
X016332Y006485D01*
X016283Y006507D01*
X016233Y006525D01*
X016181Y006540D01*
X016128Y006551D01*
X016075Y006559D01*
X016021Y006563D01*
X015967Y006563D01*
X015913Y006559D01*
X015860Y006551D01*
X015807Y006540D01*
X015755Y006525D01*
X015705Y006507D01*
X015656Y006485D01*
X015608Y006460D01*
X015562Y006431D01*
X015519Y006399D01*
X015477Y006365D01*
X015439Y006327D01*
X015403Y006287D01*
X015369Y006245D01*
X015339Y006200D01*
X015312Y006153D01*
X015289Y006105D01*
X015269Y006055D01*
X015169Y005955D02*
X014319Y005955D01*
X014319Y005954D02*
X014281Y005950D01*
X014244Y005943D01*
X014208Y005933D01*
X014173Y005919D01*
X014139Y005901D01*
X014108Y005881D01*
X014078Y005857D01*
X014051Y005830D01*
X014027Y005802D01*
X014006Y005770D01*
X013988Y005737D01*
X013973Y005702D01*
X013962Y005666D01*
X013954Y005629D01*
X013950Y005592D01*
X013949Y005554D01*
X013949Y005555D02*
X013949Y003149D01*
X013951Y003119D01*
X013956Y003089D01*
X013965Y003060D01*
X013978Y003033D01*
X013993Y003007D01*
X014012Y002983D01*
X014033Y002962D01*
X014057Y002943D01*
X014083Y002928D01*
X014110Y002915D01*
X014139Y002906D01*
X014169Y002901D01*
X014199Y002899D01*
X018559Y002899D01*
X018913Y003247D02*
X018913Y003367D01*
X020291Y003367D01*
X020291Y002462D01*
X020291Y002461D02*
X020292Y002419D01*
X020290Y002376D01*
X020284Y002334D01*
X020275Y002293D01*
X020262Y002252D01*
X020247Y002213D01*
X020228Y002175D01*
X020205Y002138D01*
X020180Y002104D01*
X020153Y002072D01*
X020122Y002042D01*
X020090Y002015D01*
X020055Y001991D01*
X020018Y001969D01*
X019980Y001951D01*
X019940Y001936D01*
X019899Y001924D01*
X019857Y001916D01*
X019815Y001911D01*
X019815Y001912D02*
X008521Y001912D01*
X015168Y005955D02*
X015192Y005970D01*
X015215Y005988D01*
X015235Y006008D01*
X015253Y006031D01*
X015268Y006055D01*
X018559Y002899D02*
X018596Y002901D01*
X018632Y002906D01*
X018668Y002915D01*
X018702Y002928D01*
X018735Y002945D01*
X018766Y002964D01*
X018795Y002987D01*
X018821Y003013D01*
X018844Y003041D01*
X018865Y003072D01*
X018882Y003105D01*
X018895Y003139D01*
X018905Y003174D01*
X018911Y003211D01*
X018913Y003247D01*
X023047Y003367D02*
X023047Y002275D01*
X023046Y002275D02*
X023051Y002237D01*
X023060Y002199D01*
X023072Y002162D01*
X023088Y002127D01*
X023107Y002093D01*
X023130Y002061D01*
X023155Y002032D01*
X023184Y002005D01*
X023214Y001981D01*
X023247Y001961D01*
X023282Y001943D01*
X023318Y001929D01*
X023356Y001919D01*
X023394Y001913D01*
X023433Y001910D01*
X023472Y001911D01*
X023472Y001912D02*
X023572Y001912D01*
X023572Y001884D01*
X023576Y001856D01*
X023583Y001829D01*
X023594Y001803D01*
X023608Y001779D01*
X023625Y001757D01*
X023645Y001737D01*
X023667Y001720D01*
X023691Y001706D01*
X023717Y001695D01*
X023744Y001688D01*
X023772Y001684D01*
X023922Y001684D01*
X023950Y001688D01*
X023977Y001695D01*
X024003Y001706D01*
X024027Y001720D01*
X024049Y001737D01*
X024069Y001757D01*
X024086Y001779D01*
X024100Y001803D01*
X024111Y001829D01*
X024118Y001856D01*
X024122Y001884D01*
X024122Y001912D01*
X029309Y001912D01*
X029309Y001884D01*
X029313Y001856D01*
X029320Y001829D01*
X029331Y001803D01*
X029345Y001779D01*
X029362Y001757D01*
X029382Y001737D01*
X029404Y001720D01*
X029428Y001706D01*
X029454Y001695D01*
X029481Y001688D01*
X029509Y001684D01*
X029659Y001684D01*
X029659Y001683D02*
X029688Y001687D01*
X029715Y001694D01*
X029741Y001704D01*
X029766Y001718D01*
X029789Y001735D01*
X029809Y001755D01*
X029827Y001777D01*
X029841Y001802D01*
X029853Y001828D01*
X029860Y001855D01*
X029864Y001883D01*
X029865Y001911D01*
X029864Y001912D02*
X029864Y008502D01*
X029865Y008502D02*
X029860Y008544D01*
X029852Y008586D01*
X029840Y008627D01*
X029825Y008667D01*
X029807Y008705D01*
X029785Y008742D01*
X029761Y008777D01*
X029734Y008809D01*
X029704Y008840D01*
X029672Y008867D01*
X029638Y008892D01*
X029601Y008915D01*
X029563Y008934D01*
X029524Y008949D01*
X029483Y008962D01*
X029442Y008971D01*
X029400Y008977D01*
X029357Y008979D01*
X029315Y008978D01*
X029314Y008977D02*
X023522Y008977D01*
X023522Y008978D02*
X023477Y008972D01*
X023433Y008963D01*
X023390Y008951D01*
X023349Y008934D01*
X023309Y008914D01*
X023270Y008890D01*
X023234Y008864D01*
X023201Y008834D01*
X023170Y008801D01*
X023142Y008766D01*
X023118Y008729D01*
X023096Y008689D01*
X023079Y008648D01*
X023065Y008605D01*
X023054Y008562D01*
X023048Y008517D01*
X023045Y008473D01*
X023046Y008428D01*
X023047Y008427D02*
X023047Y004942D01*
X024425Y004942D01*
X024425Y005745D01*
X024431Y005797D01*
X024441Y005849D01*
X024454Y005900D01*
X024471Y005950D01*
X024492Y005998D01*
X024516Y006045D01*
X024544Y006090D01*
X024575Y006132D01*
X024609Y006173D01*
X024646Y006210D01*
X024685Y006245D01*
X024727Y006277D01*
X024771Y006306D01*
X024817Y006331D01*
X024865Y006353D01*
X024915Y006372D01*
X024965Y006386D01*
X025017Y006397D01*
X025069Y006404D01*
X025069Y006405D02*
X025919Y006405D01*
X025942Y006420D01*
X025965Y006438D01*
X025985Y006458D01*
X026003Y006481D01*
X026018Y006505D01*
X026019Y006505D02*
X026039Y006555D01*
X026062Y006603D01*
X026089Y006650D01*
X026119Y006695D01*
X026153Y006737D01*
X026189Y006777D01*
X026227Y006815D01*
X026269Y006849D01*
X026312Y006881D01*
X026358Y006910D01*
X026406Y006935D01*
X026455Y006957D01*
X026505Y006975D01*
X026557Y006990D01*
X026610Y007001D01*
X026663Y007009D01*
X026717Y007013D01*
X026771Y007013D01*
X026825Y007009D01*
X026878Y007001D01*
X026931Y006990D01*
X026983Y006975D01*
X027033Y006957D01*
X027082Y006935D01*
X027130Y006910D01*
X027176Y006881D01*
X027219Y006849D01*
X027261Y006815D01*
X027299Y006777D01*
X027335Y006737D01*
X027369Y006695D01*
X027399Y006650D01*
X027426Y006603D01*
X027449Y006555D01*
X027469Y006505D01*
X027491Y006470D01*
X027515Y006438D01*
X027542Y006407D01*
X027571Y006378D01*
X027602Y006351D01*
X027634Y006327D01*
X027669Y006305D01*
X028601Y006305D01*
X028601Y006304D02*
X028643Y006297D01*
X028684Y006286D01*
X028724Y006272D01*
X028762Y006254D01*
X028799Y006233D01*
X028834Y006208D01*
X028866Y006181D01*
X028896Y006151D01*
X028924Y006119D01*
X028948Y006084D01*
X028969Y006048D01*
X028988Y006009D01*
X029002Y005969D01*
X029013Y005928D01*
X029021Y005887D01*
X029024Y005845D01*
X029025Y005845D02*
X029025Y003231D01*
X029024Y003231D02*
X029004Y003187D01*
X028980Y003145D01*
X028953Y003105D01*
X028923Y003067D01*
X028890Y003032D01*
X028854Y002999D01*
X028816Y002969D01*
X028776Y002942D01*
X028733Y002919D01*
X028689Y002899D01*
X028644Y002882D01*
X028597Y002869D01*
X028550Y002860D01*
X028502Y002855D01*
X028453Y002853D01*
X028405Y002855D01*
X028357Y002861D01*
X028310Y002871D01*
X028263Y002884D01*
X028218Y002901D01*
X028121Y002995D02*
X025331Y002995D01*
X025330Y002995D02*
X025316Y002971D01*
X025299Y002949D01*
X025278Y002930D01*
X025255Y002914D01*
X025231Y002901D01*
X024425Y003231D02*
X024425Y003367D01*
X023047Y003367D01*
X024425Y003231D02*
X024445Y003187D01*
X024469Y003145D01*
X024496Y003105D01*
X024526Y003067D01*
X024559Y003032D01*
X024595Y002999D01*
X024633Y002969D01*
X024673Y002942D01*
X024716Y002919D01*
X024760Y002899D01*
X024805Y002882D01*
X024852Y002869D01*
X024899Y002860D01*
X024947Y002855D01*
X024996Y002853D01*
X025044Y002855D01*
X025092Y002861D01*
X025139Y002871D01*
X025186Y002884D01*
X025231Y002901D01*
X028121Y002995D02*
X028135Y002971D01*
X028152Y002949D01*
X028171Y002930D01*
X028194Y002914D01*
X028218Y002901D01*
X020291Y012685D02*
X020286Y012727D01*
X020278Y012769D01*
X020266Y012810D01*
X020251Y012850D01*
X020233Y012888D01*
X020211Y012925D01*
X020187Y012960D01*
X020160Y012992D01*
X020130Y013023D01*
X020098Y013050D01*
X020064Y013075D01*
X020027Y013098D01*
X019989Y013117D01*
X019950Y013132D01*
X019909Y013145D01*
X019868Y013154D01*
X019826Y013160D01*
X019783Y013162D01*
X019741Y013161D01*
D11*
X030325Y012065D02*
X030327Y012113D01*
X030333Y012161D01*
X030343Y012208D01*
X030356Y012254D01*
X030374Y012299D01*
X030394Y012343D01*
X030419Y012385D01*
X030447Y012424D01*
X030477Y012461D01*
X030511Y012495D01*
X030548Y012527D01*
X030586Y012556D01*
X030627Y012581D01*
X030670Y012603D01*
X030715Y012621D01*
X030761Y012635D01*
X030808Y012646D01*
X030856Y012653D01*
X030904Y012656D01*
X030952Y012655D01*
X031000Y012650D01*
X031048Y012641D01*
X031094Y012629D01*
X031139Y012612D01*
X031183Y012592D01*
X031225Y012569D01*
X031265Y012542D01*
X031303Y012512D01*
X031338Y012479D01*
X031370Y012443D01*
X031400Y012405D01*
X031426Y012364D01*
X031448Y012321D01*
X031468Y012277D01*
X031483Y012232D01*
X031495Y012185D01*
X031503Y012137D01*
X031507Y012089D01*
X031507Y012041D01*
X031503Y011993D01*
X031495Y011945D01*
X031483Y011898D01*
X031468Y011853D01*
X031448Y011809D01*
X031426Y011766D01*
X031400Y011725D01*
X031370Y011687D01*
X031338Y011651D01*
X031303Y011618D01*
X031265Y011588D01*
X031225Y011561D01*
X031183Y011538D01*
X031139Y011518D01*
X031094Y011501D01*
X031048Y011489D01*
X031000Y011480D01*
X030952Y011475D01*
X030904Y011474D01*
X030856Y011477D01*
X030808Y011484D01*
X030761Y011495D01*
X030715Y011509D01*
X030670Y011527D01*
X030627Y011549D01*
X030586Y011574D01*
X030548Y011603D01*
X030511Y011635D01*
X030477Y011669D01*
X030447Y011706D01*
X030419Y011745D01*
X030394Y011787D01*
X030374Y011831D01*
X030356Y011876D01*
X030343Y011922D01*
X030333Y011969D01*
X030327Y012017D01*
X030325Y012065D01*
X030325Y002565D02*
X030327Y002613D01*
X030333Y002661D01*
X030343Y002708D01*
X030356Y002754D01*
X030374Y002799D01*
X030394Y002843D01*
X030419Y002885D01*
X030447Y002924D01*
X030477Y002961D01*
X030511Y002995D01*
X030548Y003027D01*
X030586Y003056D01*
X030627Y003081D01*
X030670Y003103D01*
X030715Y003121D01*
X030761Y003135D01*
X030808Y003146D01*
X030856Y003153D01*
X030904Y003156D01*
X030952Y003155D01*
X031000Y003150D01*
X031048Y003141D01*
X031094Y003129D01*
X031139Y003112D01*
X031183Y003092D01*
X031225Y003069D01*
X031265Y003042D01*
X031303Y003012D01*
X031338Y002979D01*
X031370Y002943D01*
X031400Y002905D01*
X031426Y002864D01*
X031448Y002821D01*
X031468Y002777D01*
X031483Y002732D01*
X031495Y002685D01*
X031503Y002637D01*
X031507Y002589D01*
X031507Y002541D01*
X031503Y002493D01*
X031495Y002445D01*
X031483Y002398D01*
X031468Y002353D01*
X031448Y002309D01*
X031426Y002266D01*
X031400Y002225D01*
X031370Y002187D01*
X031338Y002151D01*
X031303Y002118D01*
X031265Y002088D01*
X031225Y002061D01*
X031183Y002038D01*
X031139Y002018D01*
X031094Y002001D01*
X031048Y001989D01*
X031000Y001980D01*
X030952Y001975D01*
X030904Y001974D01*
X030856Y001977D01*
X030808Y001984D01*
X030761Y001995D01*
X030715Y002009D01*
X030670Y002027D01*
X030627Y002049D01*
X030586Y002074D01*
X030548Y002103D01*
X030511Y002135D01*
X030477Y002169D01*
X030447Y002206D01*
X030419Y002245D01*
X030394Y002287D01*
X030374Y002331D01*
X030356Y002376D01*
X030343Y002422D01*
X030333Y002469D01*
X030327Y002517D01*
X030325Y002565D01*
X001046Y002565D02*
X001048Y002613D01*
X001054Y002661D01*
X001064Y002708D01*
X001077Y002754D01*
X001095Y002799D01*
X001115Y002843D01*
X001140Y002885D01*
X001168Y002924D01*
X001198Y002961D01*
X001232Y002995D01*
X001269Y003027D01*
X001307Y003056D01*
X001348Y003081D01*
X001391Y003103D01*
X001436Y003121D01*
X001482Y003135D01*
X001529Y003146D01*
X001577Y003153D01*
X001625Y003156D01*
X001673Y003155D01*
X001721Y003150D01*
X001769Y003141D01*
X001815Y003129D01*
X001860Y003112D01*
X001904Y003092D01*
X001946Y003069D01*
X001986Y003042D01*
X002024Y003012D01*
X002059Y002979D01*
X002091Y002943D01*
X002121Y002905D01*
X002147Y002864D01*
X002169Y002821D01*
X002189Y002777D01*
X002204Y002732D01*
X002216Y002685D01*
X002224Y002637D01*
X002228Y002589D01*
X002228Y002541D01*
X002224Y002493D01*
X002216Y002445D01*
X002204Y002398D01*
X002189Y002353D01*
X002169Y002309D01*
X002147Y002266D01*
X002121Y002225D01*
X002091Y002187D01*
X002059Y002151D01*
X002024Y002118D01*
X001986Y002088D01*
X001946Y002061D01*
X001904Y002038D01*
X001860Y002018D01*
X001815Y002001D01*
X001769Y001989D01*
X001721Y001980D01*
X001673Y001975D01*
X001625Y001974D01*
X001577Y001977D01*
X001529Y001984D01*
X001482Y001995D01*
X001436Y002009D01*
X001391Y002027D01*
X001348Y002049D01*
X001307Y002074D01*
X001269Y002103D01*
X001232Y002135D01*
X001198Y002169D01*
X001168Y002206D01*
X001140Y002245D01*
X001115Y002287D01*
X001095Y002331D01*
X001077Y002376D01*
X001064Y002422D01*
X001054Y002469D01*
X001048Y002517D01*
X001046Y002565D01*
X001046Y012065D02*
X001048Y012113D01*
X001054Y012161D01*
X001064Y012208D01*
X001077Y012254D01*
X001095Y012299D01*
X001115Y012343D01*
X001140Y012385D01*
X001168Y012424D01*
X001198Y012461D01*
X001232Y012495D01*
X001269Y012527D01*
X001307Y012556D01*
X001348Y012581D01*
X001391Y012603D01*
X001436Y012621D01*
X001482Y012635D01*
X001529Y012646D01*
X001577Y012653D01*
X001625Y012656D01*
X001673Y012655D01*
X001721Y012650D01*
X001769Y012641D01*
X001815Y012629D01*
X001860Y012612D01*
X001904Y012592D01*
X001946Y012569D01*
X001986Y012542D01*
X002024Y012512D01*
X002059Y012479D01*
X002091Y012443D01*
X002121Y012405D01*
X002147Y012364D01*
X002169Y012321D01*
X002189Y012277D01*
X002204Y012232D01*
X002216Y012185D01*
X002224Y012137D01*
X002228Y012089D01*
X002228Y012041D01*
X002224Y011993D01*
X002216Y011945D01*
X002204Y011898D01*
X002189Y011853D01*
X002169Y011809D01*
X002147Y011766D01*
X002121Y011725D01*
X002091Y011687D01*
X002059Y011651D01*
X002024Y011618D01*
X001986Y011588D01*
X001946Y011561D01*
X001904Y011538D01*
X001860Y011518D01*
X001815Y011501D01*
X001769Y011489D01*
X001721Y011480D01*
X001673Y011475D01*
X001625Y011474D01*
X001577Y011477D01*
X001529Y011484D01*
X001482Y011495D01*
X001436Y011509D01*
X001391Y011527D01*
X001348Y011549D01*
X001307Y011574D01*
X001269Y011603D01*
X001232Y011635D01*
X001198Y011669D01*
X001168Y011706D01*
X001140Y011745D01*
X001115Y011787D01*
X001095Y011831D01*
X001077Y011876D01*
X001064Y011922D01*
X001054Y011969D01*
X001048Y012017D01*
X001046Y012065D01*
D12*
X001637Y012065D03*
X001637Y002565D03*
X030916Y002565D03*
X030916Y012065D03*
D13*
X007930Y012359D03*
X007930Y002714D03*
D14*
X023754Y004159D03*
D15*
X019609Y004159D03*
D16*
X023847Y001234D03*
X029584Y001234D03*
D17*
X014396Y003427D03*
X014396Y003874D03*
X014396Y004377D03*
X014396Y004824D03*
X009655Y004357D03*
X009230Y004357D03*
X009230Y003910D03*
X009655Y003910D03*
X006630Y003910D03*
X006205Y003910D03*
X006205Y004357D03*
X006630Y004357D03*
D18*
X015699Y004832D03*
X016183Y004832D03*
X017380Y004832D03*
X017864Y004832D03*
X025642Y004832D03*
X026126Y004832D03*
X027323Y004832D03*
X027807Y004832D03*
D19*
X026921Y004832D03*
X026528Y004832D03*
X016979Y004832D03*
X016585Y004832D03*
D20*
X015321Y004833D02*
X014849Y004833D01*
X014849Y004831D02*
X015321Y004831D01*
X015321Y004828D02*
X014849Y004828D01*
X014849Y004826D02*
X015321Y004826D01*
X015321Y004823D02*
X014849Y004823D01*
X014849Y004821D02*
X015321Y004821D01*
X015321Y004818D02*
X014849Y004818D01*
X014849Y004816D02*
X015321Y004816D01*
X015321Y004814D02*
X014849Y004814D01*
X014849Y004811D02*
X015321Y004811D01*
X015321Y004809D02*
X014849Y004809D01*
X014849Y004806D02*
X015321Y004806D01*
X015321Y004804D02*
X014849Y004804D01*
X014849Y004801D02*
X015321Y004801D01*
X015321Y004799D02*
X014849Y004799D01*
X014849Y004796D02*
X015321Y004796D01*
X015321Y004794D02*
X014849Y004794D01*
X014849Y004792D02*
X015321Y004792D01*
X015321Y004789D02*
X014849Y004789D01*
X014849Y004787D02*
X015321Y004787D01*
X015321Y004784D02*
X014849Y004784D01*
X014849Y004782D02*
X015321Y004782D01*
X015321Y004779D02*
X014849Y004779D01*
X014849Y004777D02*
X015321Y004777D01*
X015321Y004775D02*
X014849Y004775D01*
X014849Y004772D02*
X015321Y004772D01*
X015321Y004770D02*
X014849Y004770D01*
X014849Y004767D02*
X015321Y004767D01*
X015321Y004765D02*
X014849Y004765D01*
X014849Y004762D02*
X015321Y004762D01*
X015321Y004760D02*
X014849Y004760D01*
X014849Y004757D02*
X015321Y004757D01*
X015321Y004755D02*
X014849Y004755D01*
X014849Y004753D02*
X015321Y004753D01*
X015321Y004750D02*
X014849Y004750D01*
X014849Y004748D02*
X015321Y004748D01*
X015321Y004745D02*
X014849Y004745D01*
X014849Y004743D02*
X015321Y004743D01*
X015321Y004740D02*
X014849Y004740D01*
X014849Y004738D02*
X015321Y004738D01*
X015321Y004736D02*
X014849Y004736D01*
X014849Y004733D02*
X015321Y004733D01*
X015321Y004731D02*
X014849Y004731D01*
X014849Y004728D02*
X015321Y004728D01*
X015321Y004726D02*
X014849Y004726D01*
X014849Y004723D02*
X015321Y004723D01*
X015321Y004721D02*
X014849Y004721D01*
X014849Y004718D02*
X015321Y004718D01*
X015321Y004716D02*
X014849Y004716D01*
X014849Y004714D02*
X015321Y004714D01*
X015321Y004711D02*
X014849Y004711D01*
X014849Y004709D02*
X015321Y004709D01*
X015321Y004706D02*
X014849Y004706D01*
X014849Y004704D02*
X015321Y004704D01*
X015321Y004701D02*
X014849Y004701D01*
X014849Y004699D02*
X015321Y004699D01*
X015321Y004697D02*
X014849Y004697D01*
X014849Y004694D02*
X015321Y004694D01*
X015321Y004692D02*
X014849Y004692D01*
X014849Y004689D02*
X015321Y004689D01*
X015321Y004687D02*
X014849Y004687D01*
X014849Y004684D02*
X015321Y004684D01*
X015321Y004682D02*
X014849Y004682D01*
X014849Y004679D02*
X015321Y004679D01*
X015321Y004677D02*
X014849Y004677D01*
X014849Y004675D02*
X015321Y004675D01*
X015321Y004672D02*
X014849Y004672D01*
X014849Y004670D02*
X015321Y004670D01*
X015321Y004667D02*
X014849Y004667D01*
X014849Y004665D02*
X015321Y004665D01*
X015321Y004662D02*
X014849Y004662D01*
X014849Y004660D02*
X015321Y004660D01*
X015321Y004659D02*
X015316Y004613D01*
X015303Y004569D01*
X015281Y004529D01*
X015251Y004493D01*
X015216Y004464D01*
X015175Y004443D01*
X015131Y004429D01*
X015085Y004425D01*
X015032Y004431D01*
X015136Y004431D01*
X015144Y004433D02*
X015025Y004433D01*
X015018Y004436D02*
X015152Y004436D01*
X015160Y004438D02*
X015011Y004438D01*
X015004Y004441D02*
X015168Y004441D01*
X015176Y004443D02*
X014997Y004443D01*
X014990Y004445D02*
X015180Y004445D01*
X015185Y004448D02*
X014983Y004448D01*
X014938Y004476D01*
X014901Y004513D01*
X014872Y004557D01*
X014855Y004607D01*
X014849Y004659D01*
X014849Y004896D01*
X015321Y004896D01*
X015321Y004659D01*
X015321Y004658D02*
X014849Y004658D01*
X014849Y004655D02*
X015321Y004655D01*
X015320Y004653D02*
X014849Y004653D01*
X014850Y004650D02*
X015320Y004650D01*
X015320Y004648D02*
X014850Y004648D01*
X014850Y004645D02*
X015320Y004645D01*
X015319Y004643D02*
X014850Y004643D01*
X014851Y004640D02*
X015319Y004640D01*
X015319Y004638D02*
X014851Y004638D01*
X014851Y004636D02*
X015319Y004636D01*
X015318Y004633D02*
X014852Y004633D01*
X014852Y004631D02*
X015318Y004631D01*
X015318Y004628D02*
X014852Y004628D01*
X014852Y004626D02*
X015318Y004626D01*
X015317Y004623D02*
X014853Y004623D01*
X014853Y004621D02*
X015317Y004621D01*
X015317Y004619D02*
X014853Y004619D01*
X014854Y004616D02*
X015317Y004616D01*
X015316Y004614D02*
X014854Y004614D01*
X014854Y004611D02*
X015316Y004611D01*
X015315Y004609D02*
X014854Y004609D01*
X014855Y004606D02*
X015314Y004606D01*
X015313Y004604D02*
X014856Y004604D01*
X014857Y004601D02*
X015313Y004601D01*
X015312Y004599D02*
X014858Y004599D01*
X014858Y004597D02*
X015311Y004597D01*
X015310Y004594D02*
X014859Y004594D01*
X014860Y004592D02*
X015310Y004592D01*
X015309Y004589D02*
X014861Y004589D01*
X014862Y004587D02*
X015308Y004587D01*
X015307Y004584D02*
X014863Y004584D01*
X014864Y004582D02*
X015307Y004582D01*
X015306Y004580D02*
X014864Y004580D01*
X014865Y004577D02*
X015305Y004577D01*
X015304Y004575D02*
X014866Y004575D01*
X014867Y004572D02*
X015304Y004572D01*
X015303Y004570D02*
X014868Y004570D01*
X014869Y004567D02*
X015302Y004567D01*
X015300Y004565D02*
X014870Y004565D01*
X014870Y004562D02*
X015299Y004562D01*
X015298Y004560D02*
X014871Y004560D01*
X014872Y004558D02*
X015296Y004558D01*
X015295Y004555D02*
X014874Y004555D01*
X014875Y004553D02*
X015294Y004553D01*
X015292Y004550D02*
X014877Y004550D01*
X014878Y004548D02*
X015291Y004548D01*
X015290Y004545D02*
X014880Y004545D01*
X014881Y004543D02*
X015289Y004543D01*
X015287Y004541D02*
X014883Y004541D01*
X014884Y004538D02*
X015286Y004538D01*
X015285Y004536D02*
X014886Y004536D01*
X014888Y004533D02*
X015283Y004533D01*
X015282Y004531D02*
X014889Y004531D01*
X014891Y004528D02*
X015280Y004528D01*
X015278Y004526D02*
X014892Y004526D01*
X014894Y004523D02*
X015276Y004523D01*
X015274Y004521D02*
X014895Y004521D01*
X014897Y004519D02*
X015272Y004519D01*
X015270Y004516D02*
X014898Y004516D01*
X014900Y004514D02*
X015268Y004514D01*
X015266Y004511D02*
X014902Y004511D01*
X014905Y004509D02*
X015264Y004509D01*
X015262Y004506D02*
X014907Y004506D01*
X014909Y004504D02*
X015260Y004504D01*
X015258Y004502D02*
X014912Y004502D01*
X014914Y004499D02*
X015256Y004499D01*
X015254Y004497D02*
X014917Y004497D01*
X014919Y004494D02*
X015252Y004494D01*
X015250Y004492D02*
X014922Y004492D01*
X014924Y004489D02*
X015247Y004489D01*
X015244Y004487D02*
X014927Y004487D01*
X014929Y004484D02*
X015241Y004484D01*
X015238Y004482D02*
X014932Y004482D01*
X014934Y004480D02*
X015235Y004480D01*
X015232Y004477D02*
X014936Y004477D01*
X014940Y004475D02*
X015229Y004475D01*
X015226Y004472D02*
X014943Y004472D01*
X014947Y004470D02*
X015223Y004470D01*
X015220Y004467D02*
X014951Y004467D01*
X014955Y004465D02*
X015217Y004465D01*
X015213Y004463D02*
X014959Y004463D01*
X014963Y004460D02*
X015208Y004460D01*
X015203Y004458D02*
X014967Y004458D01*
X014971Y004455D02*
X015199Y004455D01*
X015194Y004453D02*
X014975Y004453D01*
X014979Y004450D02*
X015190Y004450D01*
X015121Y004428D02*
X015054Y004428D01*
X015032Y004431D02*
X014983Y004448D01*
X015076Y004426D02*
X015095Y004426D01*
X015321Y004835D02*
X014849Y004835D01*
X014849Y004838D02*
X015321Y004838D01*
X015321Y004840D02*
X014849Y004840D01*
X014849Y004843D02*
X015321Y004843D01*
X015321Y004845D02*
X014849Y004845D01*
X014849Y004848D02*
X015321Y004848D01*
X015321Y004850D02*
X014849Y004850D01*
X014849Y004853D02*
X015321Y004853D01*
X015321Y004855D02*
X014849Y004855D01*
X014849Y004857D02*
X015321Y004857D01*
X015321Y004860D02*
X014849Y004860D01*
X014849Y004862D02*
X015321Y004862D01*
X015321Y004865D02*
X014849Y004865D01*
X014849Y004867D02*
X015321Y004867D01*
X015321Y004870D02*
X014849Y004870D01*
X014849Y004872D02*
X015321Y004872D01*
X015321Y004874D02*
X014849Y004874D01*
X014849Y004877D02*
X015321Y004877D01*
X015321Y004879D02*
X014849Y004879D01*
X014849Y004882D02*
X015321Y004882D01*
X015321Y004884D02*
X014849Y004884D01*
X014849Y004887D02*
X015321Y004887D01*
X015321Y004889D02*
X014849Y004889D01*
X014849Y004892D02*
X015321Y004892D01*
X015321Y004894D02*
X014849Y004894D01*
X014849Y004896D02*
X014854Y004948D01*
X014872Y004999D01*
X015297Y004999D01*
X015295Y005001D02*
X014873Y005001D01*
X014872Y004999D02*
X014900Y005044D01*
X014937Y005081D01*
X014982Y005110D01*
X015032Y005128D01*
X015085Y005134D01*
X015131Y005129D01*
X015176Y005115D01*
X015216Y005093D01*
X015252Y005064D01*
X015282Y005027D01*
X015303Y004986D01*
X015317Y004942D01*
X015321Y004896D01*
X015321Y004899D02*
X014849Y004899D01*
X014849Y004901D02*
X015320Y004901D01*
X015320Y004904D02*
X014849Y004904D01*
X014850Y004906D02*
X015320Y004906D01*
X015320Y004909D02*
X014850Y004909D01*
X014850Y004911D02*
X015320Y004911D01*
X015319Y004913D02*
X014851Y004913D01*
X014851Y004916D02*
X015319Y004916D01*
X015319Y004918D02*
X014851Y004918D01*
X014851Y004921D02*
X015319Y004921D01*
X015318Y004923D02*
X014852Y004923D01*
X014852Y004926D02*
X015318Y004926D01*
X015318Y004928D02*
X014852Y004928D01*
X014852Y004931D02*
X015318Y004931D01*
X015317Y004933D02*
X014853Y004933D01*
X014853Y004935D02*
X015317Y004935D01*
X015317Y004938D02*
X014853Y004938D01*
X014853Y004940D02*
X015317Y004940D01*
X015316Y004943D02*
X014854Y004943D01*
X014854Y004945D02*
X015316Y004945D01*
X015315Y004948D02*
X014854Y004948D01*
X014855Y004950D02*
X015314Y004950D01*
X015313Y004952D02*
X014856Y004952D01*
X014857Y004955D02*
X015313Y004955D01*
X015312Y004957D02*
X014857Y004957D01*
X014858Y004960D02*
X015311Y004960D01*
X015311Y004962D02*
X014859Y004962D01*
X014860Y004965D02*
X015310Y004965D01*
X015309Y004967D02*
X014861Y004967D01*
X014862Y004970D02*
X015308Y004970D01*
X015308Y004972D02*
X014862Y004972D01*
X014863Y004974D02*
X015307Y004974D01*
X015306Y004977D02*
X014864Y004977D01*
X014865Y004979D02*
X015305Y004979D01*
X015305Y004982D02*
X014866Y004982D01*
X014867Y004984D02*
X015304Y004984D01*
X015303Y004987D02*
X014868Y004987D01*
X014868Y004989D02*
X015302Y004989D01*
X015301Y004991D02*
X014869Y004991D01*
X014870Y004994D02*
X015299Y004994D01*
X015298Y004996D02*
X014871Y004996D01*
X014875Y005004D02*
X015294Y005004D01*
X015293Y005006D02*
X014876Y005006D01*
X014878Y005008D02*
X015292Y005008D01*
X015290Y005011D02*
X014879Y005011D01*
X014881Y005013D02*
X015289Y005013D01*
X015288Y005016D02*
X014882Y005016D01*
X014884Y005018D02*
X015286Y005018D01*
X015285Y005021D02*
X014885Y005021D01*
X014887Y005023D02*
X015284Y005023D01*
X015283Y005026D02*
X014888Y005026D01*
X014890Y005028D02*
X015281Y005028D01*
X015279Y005030D02*
X014892Y005030D01*
X014893Y005033D02*
X015277Y005033D01*
X015275Y005035D02*
X014895Y005035D01*
X014896Y005038D02*
X015273Y005038D01*
X015271Y005040D02*
X014898Y005040D01*
X014899Y005043D02*
X015269Y005043D01*
X015267Y005045D02*
X014901Y005045D01*
X014904Y005047D02*
X015265Y005047D01*
X015263Y005050D02*
X014906Y005050D01*
X014908Y005052D02*
X015261Y005052D01*
X015259Y005055D02*
X014911Y005055D01*
X014913Y005057D02*
X015257Y005057D01*
X015255Y005060D02*
X014916Y005060D01*
X014918Y005062D02*
X015253Y005062D01*
X015251Y005065D02*
X014920Y005065D01*
X014923Y005067D02*
X015248Y005067D01*
X015245Y005069D02*
X014925Y005069D01*
X014928Y005072D02*
X015242Y005072D01*
X015239Y005074D02*
X014930Y005074D01*
X014933Y005077D02*
X015236Y005077D01*
X015233Y005079D02*
X014935Y005079D01*
X014938Y005082D02*
X015230Y005082D01*
X015227Y005084D02*
X014941Y005084D01*
X014945Y005086D02*
X015224Y005086D01*
X015222Y005089D02*
X014949Y005089D01*
X014953Y005091D02*
X015219Y005091D01*
X015215Y005094D02*
X014957Y005094D01*
X014961Y005096D02*
X015211Y005096D01*
X015206Y005099D02*
X014964Y005099D01*
X014968Y005101D02*
X015202Y005101D01*
X015197Y005104D02*
X014972Y005104D01*
X014976Y005106D02*
X015193Y005106D01*
X015188Y005108D02*
X014980Y005108D01*
X014985Y005111D02*
X015184Y005111D01*
X015179Y005113D02*
X014992Y005113D01*
X014999Y005116D02*
X015174Y005116D01*
X015166Y005118D02*
X015006Y005118D01*
X015013Y005121D02*
X015158Y005121D01*
X015150Y005123D02*
X015019Y005123D01*
X015026Y005125D02*
X015142Y005125D01*
X015134Y005128D02*
X015035Y005128D01*
X015056Y005130D02*
X015117Y005130D01*
X015094Y005133D02*
X015077Y005133D01*
X015085Y003638D02*
X015131Y003633D01*
X015176Y003619D01*
X015216Y003597D01*
X014956Y003597D01*
X014952Y003595D02*
X015219Y003595D01*
X015216Y003597D02*
X015252Y003567D01*
X015282Y003531D01*
X015303Y003490D01*
X014867Y003490D01*
X014867Y003488D02*
X015304Y003488D01*
X015303Y003490D02*
X015317Y003446D01*
X015321Y003399D01*
X015321Y003163D01*
X015316Y003117D01*
X014854Y003117D01*
X014854Y003115D02*
X015316Y003115D01*
X015316Y003117D02*
X015303Y003073D01*
X015281Y003033D01*
X015251Y002997D01*
X015216Y002968D01*
X015175Y002947D01*
X014998Y002947D01*
X014991Y002949D02*
X015180Y002949D01*
X015184Y002951D02*
X014984Y002951D01*
X014983Y002952D02*
X014938Y002980D01*
X014901Y003017D01*
X014872Y003061D01*
X014855Y003111D01*
X014849Y003163D01*
X014849Y003399D01*
X014854Y003452D01*
X014872Y003502D01*
X015297Y003502D01*
X015298Y003500D02*
X014871Y003500D01*
X014872Y003502D02*
X014900Y003548D01*
X014937Y003585D01*
X015231Y003585D01*
X015234Y003583D02*
X014935Y003583D01*
X014937Y003585D02*
X014982Y003614D01*
X015032Y003631D01*
X015136Y003631D01*
X015144Y003629D02*
X015025Y003629D01*
X015018Y003627D02*
X015152Y003627D01*
X015159Y003624D02*
X015011Y003624D01*
X015004Y003622D02*
X015167Y003622D01*
X015175Y003619D02*
X014998Y003619D01*
X014991Y003617D02*
X015180Y003617D01*
X015184Y003614D02*
X014984Y003614D01*
X014979Y003612D02*
X015189Y003612D01*
X015193Y003610D02*
X014975Y003610D01*
X014972Y003607D02*
X015198Y003607D01*
X015202Y003605D02*
X014968Y003605D01*
X014964Y003602D02*
X015207Y003602D01*
X015212Y003600D02*
X014960Y003600D01*
X014948Y003592D02*
X015222Y003592D01*
X015225Y003590D02*
X014945Y003590D01*
X014941Y003588D02*
X015228Y003588D01*
X015237Y003580D02*
X014932Y003580D01*
X014930Y003578D02*
X015240Y003578D01*
X015243Y003575D02*
X014927Y003575D01*
X014925Y003573D02*
X015246Y003573D01*
X015249Y003571D02*
X014922Y003571D01*
X014920Y003568D02*
X015251Y003568D01*
X015254Y003566D02*
X014918Y003566D01*
X014915Y003563D02*
X015256Y003563D01*
X015258Y003561D02*
X014913Y003561D01*
X014910Y003558D02*
X015260Y003558D01*
X015262Y003556D02*
X014908Y003556D01*
X014906Y003553D02*
X015264Y003553D01*
X015266Y003551D02*
X014903Y003551D01*
X014901Y003549D02*
X015268Y003549D01*
X015270Y003546D02*
X014899Y003546D01*
X014897Y003544D02*
X015272Y003544D01*
X015274Y003541D02*
X014896Y003541D01*
X014894Y003539D02*
X015276Y003539D01*
X015278Y003536D02*
X014893Y003536D01*
X014891Y003534D02*
X015280Y003534D01*
X015281Y003532D02*
X014890Y003532D01*
X014888Y003529D02*
X015283Y003529D01*
X015284Y003527D02*
X014887Y003527D01*
X014885Y003524D02*
X015285Y003524D01*
X015287Y003522D02*
X014884Y003522D01*
X014882Y003519D02*
X015288Y003519D01*
X015289Y003517D02*
X014881Y003517D01*
X014879Y003514D02*
X015291Y003514D01*
X015292Y003512D02*
X014878Y003512D01*
X014876Y003510D02*
X015293Y003510D01*
X015294Y003507D02*
X014875Y003507D01*
X014873Y003505D02*
X015296Y003505D01*
X015300Y003497D02*
X014870Y003497D01*
X014869Y003495D02*
X015301Y003495D01*
X015302Y003493D02*
X014868Y003493D01*
X014866Y003485D02*
X015305Y003485D01*
X015306Y003483D02*
X014865Y003483D01*
X014864Y003480D02*
X015306Y003480D01*
X015307Y003478D02*
X014863Y003478D01*
X014862Y003475D02*
X015308Y003475D01*
X015309Y003473D02*
X014861Y003473D01*
X014861Y003471D02*
X015309Y003471D01*
X015310Y003468D02*
X014860Y003468D01*
X014859Y003466D02*
X015311Y003466D01*
X015311Y003463D02*
X014858Y003463D01*
X014857Y003461D02*
X015312Y003461D01*
X015313Y003458D02*
X014856Y003458D01*
X014856Y003456D02*
X015314Y003456D01*
X015314Y003454D02*
X014855Y003454D01*
X014854Y003451D02*
X015315Y003451D01*
X015316Y003449D02*
X014854Y003449D01*
X014854Y003446D02*
X015317Y003446D01*
X015317Y003444D02*
X014853Y003444D01*
X014853Y003441D02*
X015317Y003441D01*
X015317Y003439D02*
X014853Y003439D01*
X014853Y003436D02*
X015318Y003436D01*
X015318Y003434D02*
X014852Y003434D01*
X014852Y003432D02*
X015318Y003432D01*
X015318Y003429D02*
X014852Y003429D01*
X014852Y003427D02*
X015318Y003427D01*
X015319Y003424D02*
X014851Y003424D01*
X014851Y003422D02*
X015319Y003422D01*
X015319Y003419D02*
X014851Y003419D01*
X014850Y003417D02*
X015319Y003417D01*
X015320Y003415D02*
X014850Y003415D01*
X014850Y003412D02*
X015320Y003412D01*
X015320Y003410D02*
X014850Y003410D01*
X014849Y003407D02*
X015320Y003407D01*
X015321Y003405D02*
X014849Y003405D01*
X014849Y003402D02*
X015321Y003402D01*
X015321Y003400D02*
X014849Y003400D01*
X014849Y003397D02*
X015321Y003397D01*
X015321Y003395D02*
X014849Y003395D01*
X014849Y003393D02*
X015321Y003393D01*
X015321Y003390D02*
X014849Y003390D01*
X014849Y003388D02*
X015321Y003388D01*
X015321Y003385D02*
X014849Y003385D01*
X014849Y003383D02*
X015321Y003383D01*
X015321Y003380D02*
X014849Y003380D01*
X014849Y003378D02*
X015321Y003378D01*
X015321Y003376D02*
X014849Y003376D01*
X014849Y003373D02*
X015321Y003373D01*
X015321Y003371D02*
X014849Y003371D01*
X014849Y003368D02*
X015321Y003368D01*
X015321Y003366D02*
X014849Y003366D01*
X014849Y003363D02*
X015321Y003363D01*
X015321Y003361D02*
X014849Y003361D01*
X014849Y003358D02*
X015321Y003358D01*
X015321Y003356D02*
X014849Y003356D01*
X014849Y003354D02*
X015321Y003354D01*
X015321Y003351D02*
X014849Y003351D01*
X014849Y003349D02*
X015321Y003349D01*
X015321Y003346D02*
X014849Y003346D01*
X014849Y003344D02*
X015321Y003344D01*
X015321Y003341D02*
X014849Y003341D01*
X014849Y003339D02*
X015321Y003339D01*
X015321Y003337D02*
X014849Y003337D01*
X014849Y003334D02*
X015321Y003334D01*
X015321Y003332D02*
X014849Y003332D01*
X014849Y003329D02*
X015321Y003329D01*
X015321Y003327D02*
X014849Y003327D01*
X014849Y003324D02*
X015321Y003324D01*
X015321Y003322D02*
X014849Y003322D01*
X014849Y003319D02*
X015321Y003319D01*
X015321Y003317D02*
X014849Y003317D01*
X014849Y003315D02*
X015321Y003315D01*
X015321Y003312D02*
X014849Y003312D01*
X014849Y003310D02*
X015321Y003310D01*
X015321Y003307D02*
X014849Y003307D01*
X014849Y003305D02*
X015321Y003305D01*
X015321Y003302D02*
X014849Y003302D01*
X014849Y003300D02*
X015321Y003300D01*
X015321Y003298D02*
X014849Y003298D01*
X014849Y003295D02*
X015321Y003295D01*
X015321Y003293D02*
X014849Y003293D01*
X014849Y003290D02*
X015321Y003290D01*
X015321Y003288D02*
X014849Y003288D01*
X014849Y003285D02*
X015321Y003285D01*
X015321Y003283D02*
X014849Y003283D01*
X014849Y003280D02*
X015321Y003280D01*
X015321Y003278D02*
X014849Y003278D01*
X014849Y003276D02*
X015321Y003276D01*
X015321Y003273D02*
X014849Y003273D01*
X014849Y003271D02*
X015321Y003271D01*
X015321Y003268D02*
X014849Y003268D01*
X014849Y003266D02*
X015321Y003266D01*
X015321Y003263D02*
X014849Y003263D01*
X014849Y003261D02*
X015321Y003261D01*
X015321Y003259D02*
X014849Y003259D01*
X014849Y003256D02*
X015321Y003256D01*
X015321Y003254D02*
X014849Y003254D01*
X014849Y003251D02*
X015321Y003251D01*
X015321Y003249D02*
X014849Y003249D01*
X014849Y003246D02*
X015321Y003246D01*
X015321Y003244D02*
X014849Y003244D01*
X014849Y003241D02*
X015321Y003241D01*
X015321Y003239D02*
X014849Y003239D01*
X014849Y003237D02*
X015321Y003237D01*
X015321Y003234D02*
X014849Y003234D01*
X014849Y003232D02*
X015321Y003232D01*
X015321Y003229D02*
X014849Y003229D01*
X014849Y003227D02*
X015321Y003227D01*
X015321Y003224D02*
X014849Y003224D01*
X014849Y003222D02*
X015321Y003222D01*
X015321Y003220D02*
X014849Y003220D01*
X014849Y003217D02*
X015321Y003217D01*
X015321Y003215D02*
X014849Y003215D01*
X014849Y003212D02*
X015321Y003212D01*
X015321Y003210D02*
X014849Y003210D01*
X014849Y003207D02*
X015321Y003207D01*
X015321Y003205D02*
X014849Y003205D01*
X014849Y003202D02*
X015321Y003202D01*
X015321Y003200D02*
X014849Y003200D01*
X014849Y003198D02*
X015321Y003198D01*
X015321Y003195D02*
X014849Y003195D01*
X014849Y003193D02*
X015321Y003193D01*
X015321Y003190D02*
X014849Y003190D01*
X014849Y003188D02*
X015321Y003188D01*
X015321Y003185D02*
X014849Y003185D01*
X014849Y003183D02*
X015321Y003183D01*
X015321Y003181D02*
X014849Y003181D01*
X014849Y003178D02*
X015321Y003178D01*
X015321Y003176D02*
X014849Y003176D01*
X014849Y003173D02*
X015321Y003173D01*
X015321Y003171D02*
X014849Y003171D01*
X014849Y003168D02*
X015321Y003168D01*
X015321Y003166D02*
X014849Y003166D01*
X014849Y003163D02*
X015321Y003163D01*
X015321Y003161D02*
X014849Y003161D01*
X014849Y003159D02*
X015321Y003159D01*
X015320Y003156D02*
X014849Y003156D01*
X014850Y003154D02*
X015320Y003154D01*
X015320Y003151D02*
X014850Y003151D01*
X014850Y003149D02*
X015320Y003149D01*
X015319Y003146D02*
X014851Y003146D01*
X014851Y003144D02*
X015319Y003144D01*
X015319Y003142D02*
X014851Y003142D01*
X014851Y003139D02*
X015319Y003139D01*
X015318Y003137D02*
X014852Y003137D01*
X014852Y003134D02*
X015318Y003134D01*
X015318Y003132D02*
X014852Y003132D01*
X014853Y003129D02*
X015318Y003129D01*
X015317Y003127D02*
X014853Y003127D01*
X014853Y003125D02*
X015317Y003125D01*
X015317Y003122D02*
X014853Y003122D01*
X014854Y003120D02*
X015317Y003120D01*
X015315Y003112D02*
X014855Y003112D01*
X014855Y003110D02*
X015314Y003110D01*
X015313Y003107D02*
X014856Y003107D01*
X014857Y003105D02*
X015313Y003105D01*
X015312Y003103D02*
X014858Y003103D01*
X014859Y003100D02*
X015311Y003100D01*
X015310Y003098D02*
X014859Y003098D01*
X014860Y003095D02*
X015310Y003095D01*
X015309Y003093D02*
X014861Y003093D01*
X014862Y003090D02*
X015308Y003090D01*
X015307Y003088D02*
X014863Y003088D01*
X014864Y003086D02*
X015307Y003086D01*
X015306Y003083D02*
X014865Y003083D01*
X014865Y003081D02*
X015305Y003081D01*
X015304Y003078D02*
X014866Y003078D01*
X014867Y003076D02*
X015304Y003076D01*
X015303Y003073D02*
X014868Y003073D01*
X014869Y003071D02*
X015301Y003071D01*
X015300Y003068D02*
X014870Y003068D01*
X014871Y003066D02*
X015299Y003066D01*
X015297Y003064D02*
X014871Y003064D01*
X014872Y003061D02*
X015296Y003061D01*
X015295Y003059D02*
X014874Y003059D01*
X014875Y003056D02*
X015294Y003056D01*
X015292Y003054D02*
X014877Y003054D01*
X014879Y003051D02*
X015291Y003051D01*
X015290Y003049D02*
X014880Y003049D01*
X014882Y003047D02*
X015288Y003047D01*
X015287Y003044D02*
X014883Y003044D01*
X014885Y003042D02*
X015286Y003042D01*
X015284Y003039D02*
X014886Y003039D01*
X014888Y003037D02*
X015283Y003037D01*
X015282Y003034D02*
X014889Y003034D01*
X014891Y003032D02*
X015280Y003032D01*
X015278Y003029D02*
X014892Y003029D01*
X014894Y003027D02*
X015276Y003027D01*
X015274Y003025D02*
X014896Y003025D01*
X014897Y003022D02*
X015272Y003022D01*
X015270Y003020D02*
X014899Y003020D01*
X014900Y003017D02*
X015268Y003017D01*
X015266Y003015D02*
X014902Y003015D01*
X014905Y003012D02*
X015264Y003012D01*
X015262Y003010D02*
X014907Y003010D01*
X014910Y003008D02*
X015260Y003008D01*
X015258Y003005D02*
X014912Y003005D01*
X014915Y003003D02*
X015256Y003003D01*
X015254Y003000D02*
X014917Y003000D01*
X014920Y002998D02*
X015252Y002998D01*
X015249Y002995D02*
X014922Y002995D01*
X014925Y002993D02*
X015246Y002993D01*
X015243Y002990D02*
X014927Y002990D01*
X014930Y002988D02*
X015240Y002988D01*
X015237Y002986D02*
X014932Y002986D01*
X014934Y002983D02*
X015234Y002983D01*
X015231Y002981D02*
X014937Y002981D01*
X014940Y002978D02*
X015228Y002978D01*
X015225Y002976D02*
X014944Y002976D01*
X014948Y002973D02*
X015222Y002973D01*
X015219Y002971D02*
X014952Y002971D01*
X014956Y002969D02*
X015216Y002969D01*
X015212Y002966D02*
X014960Y002966D01*
X014964Y002964D02*
X015207Y002964D01*
X015203Y002961D02*
X014968Y002961D01*
X014972Y002959D02*
X015198Y002959D01*
X015193Y002956D02*
X014975Y002956D01*
X014979Y002954D02*
X015189Y002954D01*
X015175Y002947D02*
X015131Y002933D01*
X015085Y002929D01*
X015032Y002935D01*
X014983Y002952D01*
X015005Y002944D02*
X015167Y002944D01*
X015159Y002942D02*
X015012Y002942D01*
X015019Y002939D02*
X015151Y002939D01*
X015143Y002937D02*
X015026Y002937D01*
X015035Y002934D02*
X015134Y002934D01*
X015116Y002932D02*
X015057Y002932D01*
X015080Y002930D02*
X015091Y002930D01*
X015032Y003631D02*
X015085Y003638D01*
X015074Y003636D02*
X015098Y003636D01*
X015121Y003634D02*
X015053Y003634D01*
X018249Y003399D02*
X018249Y003163D01*
X018255Y003111D01*
X018273Y003061D01*
X018697Y003061D01*
X018696Y003059D02*
X018275Y003059D01*
X018273Y003061D02*
X018301Y003017D01*
X018669Y003017D01*
X018667Y003015D02*
X018303Y003015D01*
X018301Y003017D02*
X018339Y002980D01*
X018383Y002952D01*
X018433Y002935D01*
X018486Y002929D01*
X018532Y002933D01*
X018576Y002947D01*
X018399Y002947D01*
X018406Y002944D02*
X018568Y002944D01*
X018576Y002947D02*
X018616Y002968D01*
X018652Y002997D01*
X018682Y003033D01*
X018704Y003073D01*
X018717Y003117D01*
X018255Y003117D01*
X018255Y003115D02*
X018716Y003115D01*
X018717Y003117D02*
X018722Y003163D01*
X018722Y003399D01*
X018717Y003446D01*
X018254Y003446D01*
X018254Y003444D02*
X018718Y003444D01*
X018717Y003446D02*
X018704Y003490D01*
X018268Y003490D01*
X018267Y003488D02*
X018705Y003488D01*
X018704Y003490D02*
X018682Y003531D01*
X018653Y003567D01*
X018617Y003597D01*
X018576Y003619D01*
X018398Y003619D01*
X018392Y003617D02*
X018581Y003617D01*
X018585Y003614D02*
X018385Y003614D01*
X018383Y003614D02*
X018433Y003631D01*
X018486Y003638D01*
X018532Y003633D01*
X018576Y003619D01*
X018568Y003622D02*
X018405Y003622D01*
X018412Y003624D02*
X018560Y003624D01*
X018552Y003627D02*
X018419Y003627D01*
X018426Y003629D02*
X018544Y003629D01*
X018537Y003631D02*
X018433Y003631D01*
X018454Y003634D02*
X018522Y003634D01*
X018498Y003636D02*
X018474Y003636D01*
X018383Y003614D02*
X018338Y003585D01*
X018632Y003585D01*
X018635Y003583D02*
X018335Y003583D01*
X018333Y003580D02*
X018638Y003580D01*
X018641Y003578D02*
X018331Y003578D01*
X018328Y003575D02*
X018643Y003575D01*
X018646Y003573D02*
X018326Y003573D01*
X018323Y003571D02*
X018649Y003571D01*
X018652Y003568D02*
X018321Y003568D01*
X018318Y003566D02*
X018655Y003566D01*
X018656Y003563D02*
X018316Y003563D01*
X018314Y003561D02*
X018658Y003561D01*
X018660Y003558D02*
X018311Y003558D01*
X018309Y003556D02*
X018662Y003556D01*
X018664Y003553D02*
X018306Y003553D01*
X018304Y003551D02*
X018666Y003551D01*
X018668Y003549D02*
X018302Y003549D01*
X018301Y003548D02*
X018338Y003585D01*
X018342Y003588D02*
X018629Y003588D01*
X018626Y003590D02*
X018345Y003590D01*
X018349Y003592D02*
X018623Y003592D01*
X018620Y003595D02*
X018353Y003595D01*
X018357Y003597D02*
X018617Y003597D01*
X018612Y003600D02*
X018361Y003600D01*
X018365Y003602D02*
X018608Y003602D01*
X018603Y003605D02*
X018368Y003605D01*
X018372Y003607D02*
X018599Y003607D01*
X018594Y003610D02*
X018376Y003610D01*
X018380Y003612D02*
X018590Y003612D01*
X018670Y003546D02*
X018300Y003546D01*
X018301Y003548D02*
X018272Y003502D01*
X018698Y003502D01*
X018699Y003500D02*
X018272Y003500D01*
X018272Y003502D02*
X018255Y003452D01*
X018249Y003399D01*
X018249Y003400D02*
X018722Y003400D01*
X018722Y003402D02*
X018250Y003402D01*
X018250Y003405D02*
X018721Y003405D01*
X018721Y003407D02*
X018250Y003407D01*
X018250Y003410D02*
X018721Y003410D01*
X018721Y003412D02*
X018251Y003412D01*
X018251Y003415D02*
X018720Y003415D01*
X018720Y003417D02*
X018251Y003417D01*
X018252Y003419D02*
X018720Y003419D01*
X018720Y003422D02*
X018252Y003422D01*
X018252Y003424D02*
X018719Y003424D01*
X018719Y003427D02*
X018252Y003427D01*
X018253Y003429D02*
X018719Y003429D01*
X018719Y003432D02*
X018253Y003432D01*
X018253Y003434D02*
X018719Y003434D01*
X018718Y003436D02*
X018253Y003436D01*
X018254Y003439D02*
X018718Y003439D01*
X018718Y003441D02*
X018254Y003441D01*
X018255Y003449D02*
X018717Y003449D01*
X018716Y003451D02*
X018255Y003451D01*
X018256Y003454D02*
X018715Y003454D01*
X018714Y003456D02*
X018256Y003456D01*
X018257Y003458D02*
X018714Y003458D01*
X018713Y003461D02*
X018258Y003461D01*
X018259Y003463D02*
X018712Y003463D01*
X018711Y003466D02*
X018260Y003466D01*
X018261Y003468D02*
X018711Y003468D01*
X018710Y003471D02*
X018261Y003471D01*
X018262Y003473D02*
X018709Y003473D01*
X018709Y003475D02*
X018263Y003475D01*
X018264Y003478D02*
X018708Y003478D01*
X018707Y003480D02*
X018265Y003480D01*
X018266Y003483D02*
X018706Y003483D01*
X018706Y003485D02*
X018266Y003485D01*
X018269Y003493D02*
X018703Y003493D01*
X018702Y003495D02*
X018270Y003495D01*
X018271Y003497D02*
X018700Y003497D01*
X018697Y003505D02*
X018274Y003505D01*
X018275Y003507D02*
X018695Y003507D01*
X018694Y003510D02*
X018277Y003510D01*
X018278Y003512D02*
X018693Y003512D01*
X018691Y003514D02*
X018280Y003514D01*
X018281Y003517D02*
X018690Y003517D01*
X018689Y003519D02*
X018283Y003519D01*
X018284Y003522D02*
X018687Y003522D01*
X018686Y003524D02*
X018286Y003524D01*
X018287Y003527D02*
X018685Y003527D01*
X018684Y003529D02*
X018289Y003529D01*
X018291Y003532D02*
X018682Y003532D01*
X018680Y003534D02*
X018292Y003534D01*
X018294Y003536D02*
X018678Y003536D01*
X018676Y003539D02*
X018295Y003539D01*
X018297Y003541D02*
X018674Y003541D01*
X018672Y003544D02*
X018298Y003544D01*
X018249Y003397D02*
X018722Y003397D01*
X018722Y003395D02*
X018249Y003395D01*
X018249Y003393D02*
X018722Y003393D01*
X018722Y003390D02*
X018249Y003390D01*
X018249Y003388D02*
X018722Y003388D01*
X018722Y003385D02*
X018249Y003385D01*
X018249Y003383D02*
X018722Y003383D01*
X018722Y003380D02*
X018249Y003380D01*
X018249Y003378D02*
X018722Y003378D01*
X018722Y003376D02*
X018249Y003376D01*
X018249Y003373D02*
X018722Y003373D01*
X018722Y003371D02*
X018249Y003371D01*
X018249Y003368D02*
X018722Y003368D01*
X018722Y003366D02*
X018249Y003366D01*
X018249Y003363D02*
X018722Y003363D01*
X018722Y003361D02*
X018249Y003361D01*
X018249Y003358D02*
X018722Y003358D01*
X018722Y003356D02*
X018249Y003356D01*
X018249Y003354D02*
X018722Y003354D01*
X018722Y003351D02*
X018249Y003351D01*
X018249Y003349D02*
X018722Y003349D01*
X018722Y003346D02*
X018249Y003346D01*
X018249Y003344D02*
X018722Y003344D01*
X018722Y003341D02*
X018249Y003341D01*
X018249Y003339D02*
X018722Y003339D01*
X018722Y003337D02*
X018249Y003337D01*
X018249Y003334D02*
X018722Y003334D01*
X018722Y003332D02*
X018249Y003332D01*
X018249Y003329D02*
X018722Y003329D01*
X018722Y003327D02*
X018249Y003327D01*
X018249Y003324D02*
X018722Y003324D01*
X018722Y003322D02*
X018249Y003322D01*
X018249Y003319D02*
X018722Y003319D01*
X018722Y003317D02*
X018249Y003317D01*
X018249Y003315D02*
X018722Y003315D01*
X018722Y003312D02*
X018249Y003312D01*
X018249Y003310D02*
X018722Y003310D01*
X018722Y003307D02*
X018249Y003307D01*
X018249Y003305D02*
X018722Y003305D01*
X018722Y003302D02*
X018249Y003302D01*
X018249Y003300D02*
X018722Y003300D01*
X018722Y003298D02*
X018249Y003298D01*
X018249Y003295D02*
X018722Y003295D01*
X018722Y003293D02*
X018249Y003293D01*
X018249Y003290D02*
X018722Y003290D01*
X018722Y003288D02*
X018249Y003288D01*
X018249Y003285D02*
X018722Y003285D01*
X018722Y003283D02*
X018249Y003283D01*
X018249Y003280D02*
X018722Y003280D01*
X018722Y003278D02*
X018249Y003278D01*
X018249Y003276D02*
X018722Y003276D01*
X018722Y003273D02*
X018249Y003273D01*
X018249Y003271D02*
X018722Y003271D01*
X018722Y003268D02*
X018249Y003268D01*
X018249Y003266D02*
X018722Y003266D01*
X018722Y003263D02*
X018249Y003263D01*
X018249Y003261D02*
X018722Y003261D01*
X018722Y003259D02*
X018249Y003259D01*
X018249Y003256D02*
X018722Y003256D01*
X018722Y003254D02*
X018249Y003254D01*
X018249Y003251D02*
X018722Y003251D01*
X018722Y003249D02*
X018249Y003249D01*
X018249Y003246D02*
X018722Y003246D01*
X018722Y003244D02*
X018249Y003244D01*
X018249Y003241D02*
X018722Y003241D01*
X018722Y003239D02*
X018249Y003239D01*
X018249Y003237D02*
X018722Y003237D01*
X018722Y003234D02*
X018249Y003234D01*
X018249Y003232D02*
X018722Y003232D01*
X018722Y003229D02*
X018249Y003229D01*
X018249Y003227D02*
X018722Y003227D01*
X018722Y003224D02*
X018249Y003224D01*
X018249Y003222D02*
X018722Y003222D01*
X018722Y003220D02*
X018249Y003220D01*
X018249Y003217D02*
X018722Y003217D01*
X018722Y003215D02*
X018249Y003215D01*
X018249Y003212D02*
X018722Y003212D01*
X018722Y003210D02*
X018249Y003210D01*
X018249Y003207D02*
X018722Y003207D01*
X018722Y003205D02*
X018249Y003205D01*
X018249Y003202D02*
X018722Y003202D01*
X018722Y003200D02*
X018249Y003200D01*
X018249Y003198D02*
X018722Y003198D01*
X018722Y003195D02*
X018249Y003195D01*
X018249Y003193D02*
X018722Y003193D01*
X018722Y003190D02*
X018249Y003190D01*
X018249Y003188D02*
X018722Y003188D01*
X018722Y003185D02*
X018249Y003185D01*
X018249Y003183D02*
X018722Y003183D01*
X018722Y003181D02*
X018249Y003181D01*
X018249Y003178D02*
X018722Y003178D01*
X018722Y003176D02*
X018249Y003176D01*
X018249Y003173D02*
X018722Y003173D01*
X018722Y003171D02*
X018249Y003171D01*
X018249Y003168D02*
X018722Y003168D01*
X018722Y003166D02*
X018249Y003166D01*
X018249Y003163D02*
X018722Y003163D01*
X018722Y003161D02*
X018250Y003161D01*
X018250Y003159D02*
X018721Y003159D01*
X018721Y003156D02*
X018250Y003156D01*
X018250Y003154D02*
X018721Y003154D01*
X018721Y003151D02*
X018251Y003151D01*
X018251Y003149D02*
X018720Y003149D01*
X018720Y003146D02*
X018251Y003146D01*
X018252Y003144D02*
X018720Y003144D01*
X018720Y003142D02*
X018252Y003142D01*
X018252Y003139D02*
X018719Y003139D01*
X018719Y003137D02*
X018252Y003137D01*
X018253Y003134D02*
X018719Y003134D01*
X018719Y003132D02*
X018253Y003132D01*
X018253Y003129D02*
X018718Y003129D01*
X018718Y003127D02*
X018254Y003127D01*
X018254Y003125D02*
X018718Y003125D01*
X018718Y003122D02*
X018254Y003122D01*
X018254Y003120D02*
X018717Y003120D01*
X018716Y003112D02*
X018255Y003112D01*
X018256Y003110D02*
X018715Y003110D01*
X018714Y003107D02*
X018257Y003107D01*
X018258Y003105D02*
X018713Y003105D01*
X018713Y003103D02*
X018258Y003103D01*
X018259Y003100D02*
X018712Y003100D01*
X018711Y003098D02*
X018260Y003098D01*
X018261Y003095D02*
X018710Y003095D01*
X018710Y003093D02*
X018262Y003093D01*
X018263Y003090D02*
X018709Y003090D01*
X018708Y003088D02*
X018264Y003088D01*
X018264Y003086D02*
X018707Y003086D01*
X018707Y003083D02*
X018265Y003083D01*
X018266Y003081D02*
X018706Y003081D01*
X018705Y003078D02*
X018267Y003078D01*
X018268Y003076D02*
X018704Y003076D01*
X018704Y003073D02*
X018269Y003073D01*
X018270Y003071D02*
X018702Y003071D01*
X018701Y003068D02*
X018271Y003068D01*
X018271Y003066D02*
X018700Y003066D01*
X018698Y003064D02*
X018272Y003064D01*
X018276Y003056D02*
X018694Y003056D01*
X018693Y003054D02*
X018278Y003054D01*
X018279Y003051D02*
X018692Y003051D01*
X018690Y003049D02*
X018281Y003049D01*
X018282Y003047D02*
X018689Y003047D01*
X018688Y003044D02*
X018284Y003044D01*
X018286Y003042D02*
X018686Y003042D01*
X018685Y003039D02*
X018287Y003039D01*
X018289Y003037D02*
X018684Y003037D01*
X018682Y003034D02*
X018290Y003034D01*
X018292Y003032D02*
X018681Y003032D01*
X018679Y003029D02*
X018293Y003029D01*
X018295Y003027D02*
X018677Y003027D01*
X018675Y003025D02*
X018296Y003025D01*
X018298Y003022D02*
X018673Y003022D01*
X018671Y003020D02*
X018299Y003020D01*
X018306Y003012D02*
X018665Y003012D01*
X018663Y003010D02*
X018308Y003010D01*
X018311Y003008D02*
X018661Y003008D01*
X018659Y003005D02*
X018313Y003005D01*
X018316Y003003D02*
X018657Y003003D01*
X018655Y003000D02*
X018318Y003000D01*
X018320Y002998D02*
X018653Y002998D01*
X018650Y002995D02*
X018323Y002995D01*
X018325Y002993D02*
X018647Y002993D01*
X018644Y002990D02*
X018328Y002990D01*
X018330Y002988D02*
X018641Y002988D01*
X018638Y002986D02*
X018333Y002986D01*
X018335Y002983D02*
X018635Y002983D01*
X018632Y002981D02*
X018338Y002981D01*
X018341Y002978D02*
X018629Y002978D01*
X018626Y002976D02*
X018345Y002976D01*
X018349Y002973D02*
X018623Y002973D01*
X018620Y002971D02*
X018353Y002971D01*
X018357Y002969D02*
X018617Y002969D01*
X018613Y002966D02*
X018361Y002966D01*
X018364Y002964D02*
X018608Y002964D01*
X018603Y002961D02*
X018368Y002961D01*
X018372Y002959D02*
X018599Y002959D01*
X018594Y002956D02*
X018376Y002956D01*
X018380Y002954D02*
X018590Y002954D01*
X018585Y002951D02*
X018385Y002951D01*
X018392Y002949D02*
X018580Y002949D01*
X018560Y002942D02*
X018413Y002942D01*
X018420Y002939D02*
X018551Y002939D01*
X018543Y002937D02*
X018427Y002937D01*
X018436Y002934D02*
X018535Y002934D01*
X018517Y002932D02*
X018458Y002932D01*
X018481Y002930D02*
X018491Y002930D01*
X018486Y004425D02*
X018433Y004431D01*
X018537Y004431D01*
X018532Y004429D02*
X018486Y004425D01*
X018477Y004426D02*
X018496Y004426D01*
X018522Y004428D02*
X018454Y004428D01*
X018433Y004431D02*
X018383Y004448D01*
X018586Y004448D01*
X018590Y004450D02*
X018379Y004450D01*
X018376Y004453D02*
X018595Y004453D01*
X018600Y004455D02*
X018372Y004455D01*
X018368Y004458D02*
X018604Y004458D01*
X018609Y004460D02*
X018364Y004460D01*
X018360Y004463D02*
X018613Y004463D01*
X018616Y004464D02*
X018576Y004443D01*
X018532Y004429D01*
X018545Y004433D02*
X018426Y004433D01*
X018419Y004436D02*
X018553Y004436D01*
X018561Y004438D02*
X018412Y004438D01*
X018405Y004441D02*
X018569Y004441D01*
X018577Y004443D02*
X018397Y004443D01*
X018390Y004445D02*
X018581Y004445D01*
X018616Y004464D02*
X018652Y004493D01*
X018682Y004529D01*
X018704Y004569D01*
X018717Y004613D01*
X018722Y004659D01*
X018722Y004896D01*
X018249Y004896D01*
X018255Y004948D01*
X018272Y004999D01*
X018273Y004999D02*
X018698Y004999D01*
X018696Y005001D02*
X018274Y005001D01*
X018272Y004999D02*
X018301Y005044D01*
X018338Y005081D01*
X018383Y005110D01*
X018433Y005128D01*
X018486Y005134D01*
X018532Y005129D01*
X018576Y005115D01*
X018617Y005093D01*
X018653Y005064D01*
X018682Y005027D01*
X018704Y004986D01*
X018717Y004942D01*
X018722Y004896D01*
X018722Y004894D02*
X018249Y004894D01*
X018249Y004896D02*
X018249Y004659D01*
X018255Y004607D01*
X018273Y004557D01*
X018301Y004513D01*
X018339Y004476D01*
X018383Y004448D01*
X018356Y004465D02*
X018617Y004465D01*
X018620Y004467D02*
X018352Y004467D01*
X018348Y004470D02*
X018623Y004470D01*
X018626Y004472D02*
X018344Y004472D01*
X018340Y004475D02*
X018629Y004475D01*
X018632Y004477D02*
X018337Y004477D01*
X018335Y004480D02*
X018635Y004480D01*
X018638Y004482D02*
X018332Y004482D01*
X018330Y004484D02*
X018641Y004484D01*
X018644Y004487D02*
X018327Y004487D01*
X018325Y004489D02*
X018647Y004489D01*
X018650Y004492D02*
X018323Y004492D01*
X018320Y004494D02*
X018653Y004494D01*
X018655Y004497D02*
X018318Y004497D01*
X018315Y004499D02*
X018657Y004499D01*
X018659Y004502D02*
X018313Y004502D01*
X018310Y004504D02*
X018661Y004504D01*
X018663Y004506D02*
X018308Y004506D01*
X018305Y004509D02*
X018665Y004509D01*
X018667Y004511D02*
X018303Y004511D01*
X018301Y004514D02*
X018669Y004514D01*
X018671Y004516D02*
X018299Y004516D01*
X018298Y004519D02*
X018673Y004519D01*
X018675Y004521D02*
X018296Y004521D01*
X018295Y004523D02*
X018677Y004523D01*
X018679Y004526D02*
X018293Y004526D01*
X018291Y004528D02*
X018681Y004528D01*
X018683Y004531D02*
X018290Y004531D01*
X018288Y004533D02*
X018684Y004533D01*
X018685Y004536D02*
X018287Y004536D01*
X018285Y004538D02*
X018687Y004538D01*
X018688Y004541D02*
X018284Y004541D01*
X018282Y004543D02*
X018689Y004543D01*
X018691Y004545D02*
X018281Y004545D01*
X018279Y004548D02*
X018692Y004548D01*
X018693Y004550D02*
X018278Y004550D01*
X018276Y004553D02*
X018695Y004553D01*
X018696Y004555D02*
X018274Y004555D01*
X018273Y004558D02*
X018697Y004558D01*
X018699Y004560D02*
X018272Y004560D01*
X018271Y004562D02*
X018700Y004562D01*
X018701Y004565D02*
X018270Y004565D01*
X018270Y004567D02*
X018702Y004567D01*
X018704Y004570D02*
X018269Y004570D01*
X018268Y004572D02*
X018704Y004572D01*
X018705Y004575D02*
X018267Y004575D01*
X018266Y004577D02*
X018706Y004577D01*
X018707Y004580D02*
X018265Y004580D01*
X018264Y004582D02*
X018707Y004582D01*
X018708Y004584D02*
X018263Y004584D01*
X018263Y004587D02*
X018709Y004587D01*
X018710Y004589D02*
X018262Y004589D01*
X018261Y004592D02*
X018710Y004592D01*
X018711Y004594D02*
X018260Y004594D01*
X018259Y004597D02*
X018712Y004597D01*
X018713Y004599D02*
X018258Y004599D01*
X018257Y004601D02*
X018713Y004601D01*
X018714Y004604D02*
X018257Y004604D01*
X018256Y004606D02*
X018715Y004606D01*
X018716Y004609D02*
X018255Y004609D01*
X018255Y004611D02*
X018716Y004611D01*
X018717Y004614D02*
X018255Y004614D01*
X018254Y004616D02*
X018717Y004616D01*
X018718Y004619D02*
X018254Y004619D01*
X018254Y004621D02*
X018718Y004621D01*
X018718Y004623D02*
X018254Y004623D01*
X018253Y004626D02*
X018718Y004626D01*
X018719Y004628D02*
X018253Y004628D01*
X018253Y004631D02*
X018719Y004631D01*
X018719Y004633D02*
X018252Y004633D01*
X018252Y004636D02*
X018719Y004636D01*
X018720Y004638D02*
X018252Y004638D01*
X018252Y004640D02*
X018720Y004640D01*
X018720Y004643D02*
X018251Y004643D01*
X018251Y004645D02*
X018720Y004645D01*
X018721Y004648D02*
X018251Y004648D01*
X018250Y004650D02*
X018721Y004650D01*
X018721Y004653D02*
X018250Y004653D01*
X018250Y004655D02*
X018721Y004655D01*
X018722Y004658D02*
X018250Y004658D01*
X018249Y004660D02*
X018722Y004660D01*
X018722Y004662D02*
X018249Y004662D01*
X018249Y004665D02*
X018722Y004665D01*
X018722Y004667D02*
X018249Y004667D01*
X018249Y004670D02*
X018722Y004670D01*
X018722Y004672D02*
X018249Y004672D01*
X018249Y004675D02*
X018722Y004675D01*
X018722Y004677D02*
X018249Y004677D01*
X018249Y004679D02*
X018722Y004679D01*
X018722Y004682D02*
X018249Y004682D01*
X018249Y004684D02*
X018722Y004684D01*
X018722Y004687D02*
X018249Y004687D01*
X018249Y004689D02*
X018722Y004689D01*
X018722Y004692D02*
X018249Y004692D01*
X018249Y004694D02*
X018722Y004694D01*
X018722Y004697D02*
X018249Y004697D01*
X018249Y004699D02*
X018722Y004699D01*
X018722Y004701D02*
X018249Y004701D01*
X018249Y004704D02*
X018722Y004704D01*
X018722Y004706D02*
X018249Y004706D01*
X018249Y004709D02*
X018722Y004709D01*
X018722Y004711D02*
X018249Y004711D01*
X018249Y004714D02*
X018722Y004714D01*
X018722Y004716D02*
X018249Y004716D01*
X018249Y004718D02*
X018722Y004718D01*
X018722Y004721D02*
X018249Y004721D01*
X018249Y004723D02*
X018722Y004723D01*
X018722Y004726D02*
X018249Y004726D01*
X018249Y004728D02*
X018722Y004728D01*
X018722Y004731D02*
X018249Y004731D01*
X018249Y004733D02*
X018722Y004733D01*
X018722Y004736D02*
X018249Y004736D01*
X018249Y004738D02*
X018722Y004738D01*
X018722Y004740D02*
X018249Y004740D01*
X018249Y004743D02*
X018722Y004743D01*
X018722Y004745D02*
X018249Y004745D01*
X018249Y004748D02*
X018722Y004748D01*
X018722Y004750D02*
X018249Y004750D01*
X018249Y004753D02*
X018722Y004753D01*
X018722Y004755D02*
X018249Y004755D01*
X018249Y004757D02*
X018722Y004757D01*
X018722Y004760D02*
X018249Y004760D01*
X018249Y004762D02*
X018722Y004762D01*
X018722Y004765D02*
X018249Y004765D01*
X018249Y004767D02*
X018722Y004767D01*
X018722Y004770D02*
X018249Y004770D01*
X018249Y004772D02*
X018722Y004772D01*
X018722Y004775D02*
X018249Y004775D01*
X018249Y004777D02*
X018722Y004777D01*
X018722Y004779D02*
X018249Y004779D01*
X018249Y004782D02*
X018722Y004782D01*
X018722Y004784D02*
X018249Y004784D01*
X018249Y004787D02*
X018722Y004787D01*
X018722Y004789D02*
X018249Y004789D01*
X018249Y004792D02*
X018722Y004792D01*
X018722Y004794D02*
X018249Y004794D01*
X018249Y004796D02*
X018722Y004796D01*
X018722Y004799D02*
X018249Y004799D01*
X018249Y004801D02*
X018722Y004801D01*
X018722Y004804D02*
X018249Y004804D01*
X018249Y004806D02*
X018722Y004806D01*
X018722Y004809D02*
X018249Y004809D01*
X018249Y004811D02*
X018722Y004811D01*
X018722Y004814D02*
X018249Y004814D01*
X018249Y004816D02*
X018722Y004816D01*
X018722Y004818D02*
X018249Y004818D01*
X018249Y004821D02*
X018722Y004821D01*
X018722Y004823D02*
X018249Y004823D01*
X018249Y004826D02*
X018722Y004826D01*
X018722Y004828D02*
X018249Y004828D01*
X018249Y004831D02*
X018722Y004831D01*
X018722Y004833D02*
X018249Y004833D01*
X018249Y004835D02*
X018722Y004835D01*
X018722Y004838D02*
X018249Y004838D01*
X018249Y004840D02*
X018722Y004840D01*
X018722Y004843D02*
X018249Y004843D01*
X018249Y004845D02*
X018722Y004845D01*
X018722Y004848D02*
X018249Y004848D01*
X018249Y004850D02*
X018722Y004850D01*
X018722Y004853D02*
X018249Y004853D01*
X018249Y004855D02*
X018722Y004855D01*
X018722Y004857D02*
X018249Y004857D01*
X018249Y004860D02*
X018722Y004860D01*
X018722Y004862D02*
X018249Y004862D01*
X018249Y004865D02*
X018722Y004865D01*
X018722Y004867D02*
X018249Y004867D01*
X018249Y004870D02*
X018722Y004870D01*
X018722Y004872D02*
X018249Y004872D01*
X018249Y004874D02*
X018722Y004874D01*
X018722Y004877D02*
X018249Y004877D01*
X018249Y004879D02*
X018722Y004879D01*
X018722Y004882D02*
X018249Y004882D01*
X018249Y004884D02*
X018722Y004884D01*
X018722Y004887D02*
X018249Y004887D01*
X018249Y004889D02*
X018722Y004889D01*
X018722Y004892D02*
X018249Y004892D01*
X018250Y004899D02*
X018721Y004899D01*
X018721Y004901D02*
X018250Y004901D01*
X018250Y004904D02*
X018721Y004904D01*
X018721Y004906D02*
X018251Y004906D01*
X018251Y004909D02*
X018721Y004909D01*
X018720Y004911D02*
X018251Y004911D01*
X018251Y004913D02*
X018720Y004913D01*
X018720Y004916D02*
X018252Y004916D01*
X018252Y004918D02*
X018720Y004918D01*
X018719Y004921D02*
X018252Y004921D01*
X018252Y004923D02*
X018719Y004923D01*
X018719Y004926D02*
X018253Y004926D01*
X018253Y004928D02*
X018719Y004928D01*
X018719Y004931D02*
X018253Y004931D01*
X018253Y004933D02*
X018718Y004933D01*
X018718Y004935D02*
X018254Y004935D01*
X018254Y004938D02*
X018718Y004938D01*
X018718Y004940D02*
X018254Y004940D01*
X018254Y004943D02*
X018717Y004943D01*
X018716Y004945D02*
X018255Y004945D01*
X018255Y004948D02*
X018716Y004948D01*
X018715Y004950D02*
X018256Y004950D01*
X018257Y004952D02*
X018714Y004952D01*
X018714Y004955D02*
X018257Y004955D01*
X018258Y004957D02*
X018713Y004957D01*
X018712Y004960D02*
X018259Y004960D01*
X018260Y004962D02*
X018711Y004962D01*
X018711Y004965D02*
X018261Y004965D01*
X018262Y004967D02*
X018710Y004967D01*
X018709Y004970D02*
X018262Y004970D01*
X018263Y004972D02*
X018708Y004972D01*
X018708Y004974D02*
X018264Y004974D01*
X018265Y004977D02*
X018707Y004977D01*
X018706Y004979D02*
X018266Y004979D01*
X018267Y004982D02*
X018706Y004982D01*
X018705Y004984D02*
X018267Y004984D01*
X018268Y004987D02*
X018704Y004987D01*
X018703Y004989D02*
X018269Y004989D01*
X018270Y004991D02*
X018701Y004991D01*
X018700Y004994D02*
X018271Y004994D01*
X018272Y004996D02*
X018699Y004996D01*
X018695Y005004D02*
X018276Y005004D01*
X018277Y005006D02*
X018694Y005006D01*
X018692Y005008D02*
X018279Y005008D01*
X018280Y005011D02*
X018691Y005011D01*
X018690Y005013D02*
X018282Y005013D01*
X018283Y005016D02*
X018689Y005016D01*
X018687Y005018D02*
X018285Y005018D01*
X018286Y005021D02*
X018686Y005021D01*
X018685Y005023D02*
X018288Y005023D01*
X018289Y005026D02*
X018683Y005026D01*
X018682Y005028D02*
X018291Y005028D01*
X018292Y005030D02*
X018680Y005030D01*
X018678Y005033D02*
X018294Y005033D01*
X018295Y005035D02*
X018676Y005035D01*
X018674Y005038D02*
X018297Y005038D01*
X018298Y005040D02*
X018672Y005040D01*
X018670Y005043D02*
X018300Y005043D01*
X018302Y005045D02*
X018668Y005045D01*
X018666Y005047D02*
X018304Y005047D01*
X018307Y005050D02*
X018664Y005050D01*
X018662Y005052D02*
X018309Y005052D01*
X018312Y005055D02*
X018660Y005055D01*
X018658Y005057D02*
X018314Y005057D01*
X018316Y005060D02*
X018656Y005060D01*
X018654Y005062D02*
X018319Y005062D01*
X018321Y005065D02*
X018652Y005065D01*
X018649Y005067D02*
X018324Y005067D01*
X018326Y005069D02*
X018646Y005069D01*
X018643Y005072D02*
X018329Y005072D01*
X018331Y005074D02*
X018640Y005074D01*
X018637Y005077D02*
X018333Y005077D01*
X018336Y005079D02*
X018634Y005079D01*
X018631Y005082D02*
X018338Y005082D01*
X018342Y005084D02*
X018628Y005084D01*
X018625Y005086D02*
X018346Y005086D01*
X018350Y005089D02*
X018622Y005089D01*
X018619Y005091D02*
X018354Y005091D01*
X018358Y005094D02*
X018616Y005094D01*
X018612Y005096D02*
X018361Y005096D01*
X018365Y005099D02*
X018607Y005099D01*
X018603Y005101D02*
X018369Y005101D01*
X018373Y005104D02*
X018598Y005104D01*
X018593Y005106D02*
X018377Y005106D01*
X018381Y005108D02*
X018589Y005108D01*
X018584Y005111D02*
X018386Y005111D01*
X018393Y005113D02*
X018580Y005113D01*
X018575Y005116D02*
X018400Y005116D01*
X018406Y005118D02*
X018567Y005118D01*
X018559Y005121D02*
X018413Y005121D01*
X018420Y005123D02*
X018551Y005123D01*
X018543Y005125D02*
X018427Y005125D01*
X018436Y005128D02*
X018535Y005128D01*
X018518Y005130D02*
X018457Y005130D01*
X018478Y005133D02*
X018494Y005133D01*
X024792Y004896D02*
X024792Y004659D01*
X024798Y004607D01*
X024815Y004557D01*
X024844Y004513D01*
X024881Y004476D01*
X024926Y004448D01*
X024975Y004431D01*
X025079Y004431D01*
X025074Y004429D02*
X025118Y004443D01*
X025159Y004464D01*
X025194Y004493D01*
X025224Y004529D01*
X025246Y004569D01*
X025259Y004613D01*
X025264Y004659D01*
X025264Y004896D01*
X024792Y004896D01*
X024797Y004948D01*
X024815Y004999D01*
X025240Y004999D01*
X025238Y005001D02*
X024816Y005001D01*
X024815Y004999D02*
X024843Y005044D01*
X024880Y005081D01*
X024925Y005110D01*
X024975Y005128D01*
X025028Y005134D01*
X025074Y005129D01*
X025118Y005115D01*
X025159Y005093D01*
X025195Y005064D01*
X025225Y005027D01*
X025246Y004986D01*
X025260Y004942D01*
X025264Y004896D01*
X025264Y004894D02*
X024792Y004894D01*
X024792Y004892D02*
X025264Y004892D01*
X025264Y004889D02*
X024792Y004889D01*
X024792Y004887D02*
X025264Y004887D01*
X025264Y004884D02*
X024792Y004884D01*
X024792Y004882D02*
X025264Y004882D01*
X025264Y004879D02*
X024792Y004879D01*
X024792Y004877D02*
X025264Y004877D01*
X025264Y004874D02*
X024792Y004874D01*
X024792Y004872D02*
X025264Y004872D01*
X025264Y004870D02*
X024792Y004870D01*
X024792Y004867D02*
X025264Y004867D01*
X025264Y004865D02*
X024792Y004865D01*
X024792Y004862D02*
X025264Y004862D01*
X025264Y004860D02*
X024792Y004860D01*
X024792Y004857D02*
X025264Y004857D01*
X025264Y004855D02*
X024792Y004855D01*
X024792Y004853D02*
X025264Y004853D01*
X025264Y004850D02*
X024792Y004850D01*
X024792Y004848D02*
X025264Y004848D01*
X025264Y004845D02*
X024792Y004845D01*
X024792Y004843D02*
X025264Y004843D01*
X025264Y004840D02*
X024792Y004840D01*
X024792Y004838D02*
X025264Y004838D01*
X025264Y004835D02*
X024792Y004835D01*
X024792Y004833D02*
X025264Y004833D01*
X025264Y004831D02*
X024792Y004831D01*
X024792Y004828D02*
X025264Y004828D01*
X025264Y004826D02*
X024792Y004826D01*
X024792Y004823D02*
X025264Y004823D01*
X025264Y004821D02*
X024792Y004821D01*
X024792Y004818D02*
X025264Y004818D01*
X025264Y004816D02*
X024792Y004816D01*
X024792Y004814D02*
X025264Y004814D01*
X025264Y004811D02*
X024792Y004811D01*
X024792Y004809D02*
X025264Y004809D01*
X025264Y004806D02*
X024792Y004806D01*
X024792Y004804D02*
X025264Y004804D01*
X025264Y004801D02*
X024792Y004801D01*
X024792Y004799D02*
X025264Y004799D01*
X025264Y004796D02*
X024792Y004796D01*
X024792Y004794D02*
X025264Y004794D01*
X025264Y004792D02*
X024792Y004792D01*
X024792Y004789D02*
X025264Y004789D01*
X025264Y004787D02*
X024792Y004787D01*
X024792Y004784D02*
X025264Y004784D01*
X025264Y004782D02*
X024792Y004782D01*
X024792Y004779D02*
X025264Y004779D01*
X025264Y004777D02*
X024792Y004777D01*
X024792Y004775D02*
X025264Y004775D01*
X025264Y004772D02*
X024792Y004772D01*
X024792Y004770D02*
X025264Y004770D01*
X025264Y004767D02*
X024792Y004767D01*
X024792Y004765D02*
X025264Y004765D01*
X025264Y004762D02*
X024792Y004762D01*
X024792Y004760D02*
X025264Y004760D01*
X025264Y004757D02*
X024792Y004757D01*
X024792Y004755D02*
X025264Y004755D01*
X025264Y004753D02*
X024792Y004753D01*
X024792Y004750D02*
X025264Y004750D01*
X025264Y004748D02*
X024792Y004748D01*
X024792Y004745D02*
X025264Y004745D01*
X025264Y004743D02*
X024792Y004743D01*
X024792Y004740D02*
X025264Y004740D01*
X025264Y004738D02*
X024792Y004738D01*
X024792Y004736D02*
X025264Y004736D01*
X025264Y004733D02*
X024792Y004733D01*
X024792Y004731D02*
X025264Y004731D01*
X025264Y004728D02*
X024792Y004728D01*
X024792Y004726D02*
X025264Y004726D01*
X025264Y004723D02*
X024792Y004723D01*
X024792Y004721D02*
X025264Y004721D01*
X025264Y004718D02*
X024792Y004718D01*
X024792Y004716D02*
X025264Y004716D01*
X025264Y004714D02*
X024792Y004714D01*
X024792Y004711D02*
X025264Y004711D01*
X025264Y004709D02*
X024792Y004709D01*
X024792Y004706D02*
X025264Y004706D01*
X025264Y004704D02*
X024792Y004704D01*
X024792Y004701D02*
X025264Y004701D01*
X025264Y004699D02*
X024792Y004699D01*
X024792Y004697D02*
X025264Y004697D01*
X025264Y004694D02*
X024792Y004694D01*
X024792Y004692D02*
X025264Y004692D01*
X025264Y004689D02*
X024792Y004689D01*
X024792Y004687D02*
X025264Y004687D01*
X025264Y004684D02*
X024792Y004684D01*
X024792Y004682D02*
X025264Y004682D01*
X025264Y004679D02*
X024792Y004679D01*
X024792Y004677D02*
X025264Y004677D01*
X025264Y004675D02*
X024792Y004675D01*
X024792Y004672D02*
X025264Y004672D01*
X025264Y004670D02*
X024792Y004670D01*
X024792Y004667D02*
X025264Y004667D01*
X025264Y004665D02*
X024792Y004665D01*
X024792Y004662D02*
X025264Y004662D01*
X025264Y004660D02*
X024792Y004660D01*
X024792Y004658D02*
X025264Y004658D01*
X025264Y004655D02*
X024792Y004655D01*
X024792Y004653D02*
X025263Y004653D01*
X025263Y004650D02*
X024793Y004650D01*
X024793Y004648D02*
X025263Y004648D01*
X025263Y004645D02*
X024793Y004645D01*
X024793Y004643D02*
X025262Y004643D01*
X025262Y004640D02*
X024794Y004640D01*
X024794Y004638D02*
X025262Y004638D01*
X025262Y004636D02*
X024794Y004636D01*
X024795Y004633D02*
X025261Y004633D01*
X025261Y004631D02*
X024795Y004631D01*
X024795Y004628D02*
X025261Y004628D01*
X025261Y004626D02*
X024795Y004626D01*
X024796Y004623D02*
X025260Y004623D01*
X025260Y004621D02*
X024796Y004621D01*
X024796Y004619D02*
X025260Y004619D01*
X025260Y004616D02*
X024797Y004616D01*
X024797Y004614D02*
X025259Y004614D01*
X025259Y004611D02*
X024797Y004611D01*
X024797Y004609D02*
X025258Y004609D01*
X025257Y004606D02*
X024798Y004606D01*
X024799Y004604D02*
X025256Y004604D01*
X025256Y004601D02*
X024800Y004601D01*
X024801Y004599D02*
X025255Y004599D01*
X025254Y004597D02*
X024801Y004597D01*
X024802Y004594D02*
X025253Y004594D01*
X025253Y004592D02*
X024803Y004592D01*
X024804Y004589D02*
X025252Y004589D01*
X025251Y004587D02*
X024805Y004587D01*
X024806Y004584D02*
X025250Y004584D01*
X025250Y004582D02*
X024807Y004582D01*
X024807Y004580D02*
X025249Y004580D01*
X025248Y004577D02*
X024808Y004577D01*
X024809Y004575D02*
X025247Y004575D01*
X025247Y004572D02*
X024810Y004572D01*
X024811Y004570D02*
X025246Y004570D01*
X025245Y004567D02*
X024812Y004567D01*
X024813Y004565D02*
X025243Y004565D01*
X025242Y004562D02*
X024813Y004562D01*
X024814Y004560D02*
X025241Y004560D01*
X025239Y004558D02*
X024815Y004558D01*
X024817Y004555D02*
X025238Y004555D01*
X025237Y004553D02*
X024818Y004553D01*
X024820Y004550D02*
X025235Y004550D01*
X025234Y004548D02*
X024821Y004548D01*
X024823Y004545D02*
X025233Y004545D01*
X025232Y004543D02*
X024824Y004543D01*
X024826Y004541D02*
X025230Y004541D01*
X025229Y004538D02*
X024827Y004538D01*
X024829Y004536D02*
X025228Y004536D01*
X025226Y004533D02*
X024831Y004533D01*
X024832Y004531D02*
X025225Y004531D01*
X025223Y004528D02*
X024834Y004528D01*
X024835Y004526D02*
X025221Y004526D01*
X025219Y004523D02*
X024837Y004523D01*
X024838Y004521D02*
X025217Y004521D01*
X025215Y004519D02*
X024840Y004519D01*
X024841Y004516D02*
X025213Y004516D01*
X025211Y004514D02*
X024843Y004514D01*
X024845Y004511D02*
X025209Y004511D01*
X025207Y004509D02*
X024848Y004509D01*
X024850Y004506D02*
X025205Y004506D01*
X025203Y004504D02*
X024852Y004504D01*
X024855Y004502D02*
X025201Y004502D01*
X025199Y004499D02*
X024857Y004499D01*
X024860Y004497D02*
X025197Y004497D01*
X025195Y004494D02*
X024862Y004494D01*
X024865Y004492D02*
X025193Y004492D01*
X025190Y004489D02*
X024867Y004489D01*
X024870Y004487D02*
X025187Y004487D01*
X025184Y004484D02*
X024872Y004484D01*
X024875Y004482D02*
X025181Y004482D01*
X025178Y004480D02*
X024877Y004480D01*
X024879Y004477D02*
X025175Y004477D01*
X025172Y004475D02*
X024883Y004475D01*
X024886Y004472D02*
X025169Y004472D01*
X025166Y004470D02*
X024890Y004470D01*
X024894Y004467D02*
X025163Y004467D01*
X025160Y004465D02*
X024898Y004465D01*
X024902Y004463D02*
X025156Y004463D01*
X025151Y004460D02*
X024906Y004460D01*
X024910Y004458D02*
X025146Y004458D01*
X025142Y004455D02*
X024914Y004455D01*
X024918Y004453D02*
X025137Y004453D01*
X025133Y004450D02*
X024922Y004450D01*
X024926Y004448D02*
X025128Y004448D01*
X025123Y004445D02*
X024933Y004445D01*
X024940Y004443D02*
X025119Y004443D01*
X025111Y004441D02*
X024947Y004441D01*
X024954Y004438D02*
X025103Y004438D01*
X025095Y004436D02*
X024961Y004436D01*
X024968Y004433D02*
X025087Y004433D01*
X025074Y004429D02*
X025028Y004425D01*
X024975Y004431D01*
X024996Y004428D02*
X025064Y004428D01*
X025038Y004426D02*
X025019Y004426D01*
X024792Y004899D02*
X025264Y004899D01*
X025263Y004901D02*
X024792Y004901D01*
X024792Y004904D02*
X025263Y004904D01*
X025263Y004906D02*
X024793Y004906D01*
X024793Y004909D02*
X025263Y004909D01*
X025263Y004911D02*
X024793Y004911D01*
X024794Y004913D02*
X025262Y004913D01*
X025262Y004916D02*
X024794Y004916D01*
X024794Y004918D02*
X025262Y004918D01*
X025262Y004921D02*
X024794Y004921D01*
X024795Y004923D02*
X025261Y004923D01*
X025261Y004926D02*
X024795Y004926D01*
X024795Y004928D02*
X025261Y004928D01*
X025261Y004931D02*
X024795Y004931D01*
X024796Y004933D02*
X025260Y004933D01*
X025260Y004935D02*
X024796Y004935D01*
X024796Y004938D02*
X025260Y004938D01*
X025260Y004940D02*
X024796Y004940D01*
X024797Y004943D02*
X025259Y004943D01*
X025259Y004945D02*
X024797Y004945D01*
X024797Y004948D02*
X025258Y004948D01*
X025257Y004950D02*
X024798Y004950D01*
X024799Y004952D02*
X025256Y004952D01*
X025256Y004955D02*
X024800Y004955D01*
X024800Y004957D02*
X025255Y004957D01*
X025254Y004960D02*
X024801Y004960D01*
X024802Y004962D02*
X025254Y004962D01*
X025253Y004965D02*
X024803Y004965D01*
X024804Y004967D02*
X025252Y004967D01*
X025251Y004970D02*
X024805Y004970D01*
X024805Y004972D02*
X025251Y004972D01*
X025250Y004974D02*
X024806Y004974D01*
X024807Y004977D02*
X025249Y004977D01*
X025248Y004979D02*
X024808Y004979D01*
X024809Y004982D02*
X025248Y004982D01*
X025247Y004984D02*
X024810Y004984D01*
X024811Y004987D02*
X025246Y004987D01*
X025245Y004989D02*
X024811Y004989D01*
X024812Y004991D02*
X025244Y004991D01*
X025242Y004994D02*
X024813Y004994D01*
X024814Y004996D02*
X025241Y004996D01*
X025237Y005004D02*
X024818Y005004D01*
X024819Y005006D02*
X025236Y005006D01*
X025235Y005008D02*
X024821Y005008D01*
X024822Y005011D02*
X025233Y005011D01*
X025232Y005013D02*
X024824Y005013D01*
X024825Y005016D02*
X025231Y005016D01*
X025229Y005018D02*
X024827Y005018D01*
X024828Y005021D02*
X025228Y005021D01*
X025227Y005023D02*
X024830Y005023D01*
X024831Y005026D02*
X025226Y005026D01*
X025224Y005028D02*
X024833Y005028D01*
X024835Y005030D02*
X025222Y005030D01*
X025220Y005033D02*
X024836Y005033D01*
X024838Y005035D02*
X025218Y005035D01*
X025216Y005038D02*
X024839Y005038D01*
X024841Y005040D02*
X025214Y005040D01*
X025212Y005043D02*
X024842Y005043D01*
X024844Y005045D02*
X025210Y005045D01*
X025208Y005047D02*
X024847Y005047D01*
X024849Y005050D02*
X025206Y005050D01*
X025204Y005052D02*
X024851Y005052D01*
X024854Y005055D02*
X025202Y005055D01*
X025200Y005057D02*
X024856Y005057D01*
X024859Y005060D02*
X025198Y005060D01*
X025196Y005062D02*
X024861Y005062D01*
X024863Y005065D02*
X025194Y005065D01*
X025191Y005067D02*
X024866Y005067D01*
X024868Y005069D02*
X025188Y005069D01*
X025185Y005072D02*
X024871Y005072D01*
X024873Y005074D02*
X025182Y005074D01*
X025179Y005077D02*
X024876Y005077D01*
X024878Y005079D02*
X025176Y005079D01*
X025173Y005082D02*
X024881Y005082D01*
X024884Y005084D02*
X025170Y005084D01*
X025167Y005086D02*
X024888Y005086D01*
X024892Y005089D02*
X025165Y005089D01*
X025162Y005091D02*
X024896Y005091D01*
X024900Y005094D02*
X025158Y005094D01*
X025154Y005096D02*
X024904Y005096D01*
X024907Y005099D02*
X025149Y005099D01*
X025145Y005101D02*
X024911Y005101D01*
X024915Y005104D02*
X025140Y005104D01*
X025136Y005106D02*
X024919Y005106D01*
X024923Y005108D02*
X025131Y005108D01*
X025127Y005111D02*
X024928Y005111D01*
X024935Y005113D02*
X025122Y005113D01*
X025117Y005116D02*
X024942Y005116D01*
X024949Y005118D02*
X025109Y005118D01*
X025101Y005121D02*
X024956Y005121D01*
X024962Y005123D02*
X025093Y005123D01*
X025085Y005125D02*
X024969Y005125D01*
X024978Y005128D02*
X025077Y005128D01*
X025060Y005130D02*
X024999Y005130D01*
X025020Y005133D02*
X025037Y005133D01*
X025028Y003638D02*
X025074Y003633D01*
X025118Y003619D01*
X024941Y003619D01*
X024947Y003622D02*
X025110Y003622D01*
X025102Y003624D02*
X024954Y003624D01*
X024961Y003627D02*
X025095Y003627D01*
X025087Y003629D02*
X024968Y003629D01*
X024975Y003631D02*
X025079Y003631D01*
X025064Y003634D02*
X024996Y003634D01*
X025017Y003636D02*
X025041Y003636D01*
X025028Y003638D02*
X024975Y003631D01*
X024925Y003614D01*
X024880Y003585D01*
X025174Y003585D01*
X025177Y003583D02*
X024878Y003583D01*
X024880Y003585D02*
X024843Y003548D01*
X024815Y003502D01*
X025240Y003502D01*
X025241Y003500D02*
X024814Y003500D01*
X024815Y003502D02*
X024797Y003452D01*
X024792Y003399D01*
X024792Y003163D01*
X024798Y003111D01*
X024815Y003061D01*
X024844Y003017D01*
X024881Y002980D01*
X024926Y002952D01*
X024975Y002935D01*
X025028Y002929D01*
X025074Y002933D01*
X025118Y002947D01*
X024941Y002947D01*
X024934Y002949D02*
X025123Y002949D01*
X025127Y002951D02*
X024927Y002951D01*
X024922Y002954D02*
X025132Y002954D01*
X025136Y002956D02*
X024918Y002956D01*
X024915Y002959D02*
X025141Y002959D01*
X025146Y002961D02*
X024911Y002961D01*
X024907Y002964D02*
X025150Y002964D01*
X025155Y002966D02*
X024903Y002966D01*
X024899Y002969D02*
X025159Y002969D01*
X025159Y002968D02*
X025118Y002947D01*
X025110Y002944D02*
X024948Y002944D01*
X024955Y002942D02*
X025102Y002942D01*
X025094Y002939D02*
X024962Y002939D01*
X024969Y002937D02*
X025086Y002937D01*
X025077Y002934D02*
X024978Y002934D01*
X025000Y002932D02*
X025059Y002932D01*
X025034Y002930D02*
X025023Y002930D01*
X024895Y002971D02*
X025162Y002971D01*
X025165Y002973D02*
X024891Y002973D01*
X024887Y002976D02*
X025168Y002976D01*
X025171Y002978D02*
X024883Y002978D01*
X024880Y002981D02*
X025174Y002981D01*
X025177Y002983D02*
X024877Y002983D01*
X024875Y002986D02*
X025180Y002986D01*
X025183Y002988D02*
X024873Y002988D01*
X024870Y002990D02*
X025186Y002990D01*
X025189Y002993D02*
X024868Y002993D01*
X024865Y002995D02*
X025192Y002995D01*
X025194Y002997D02*
X025159Y002968D01*
X025194Y002997D02*
X025224Y003033D01*
X025246Y003073D01*
X025259Y003117D01*
X024797Y003117D01*
X024797Y003115D02*
X025259Y003115D01*
X025259Y003117D02*
X025264Y003163D01*
X025264Y003399D01*
X025260Y003446D01*
X025246Y003490D01*
X024810Y003490D01*
X024810Y003488D02*
X025247Y003488D01*
X025246Y003490D02*
X025225Y003531D01*
X025195Y003567D01*
X025159Y003597D01*
X024899Y003597D01*
X024895Y003595D02*
X025162Y003595D01*
X025159Y003597D02*
X025118Y003619D01*
X025123Y003617D02*
X024934Y003617D01*
X024927Y003614D02*
X025127Y003614D01*
X025132Y003612D02*
X024922Y003612D01*
X024918Y003610D02*
X025136Y003610D01*
X025141Y003607D02*
X024914Y003607D01*
X024911Y003605D02*
X025145Y003605D01*
X025150Y003602D02*
X024907Y003602D01*
X024903Y003600D02*
X025155Y003600D01*
X025165Y003592D02*
X024891Y003592D01*
X024888Y003590D02*
X025168Y003590D01*
X025171Y003588D02*
X024884Y003588D01*
X024875Y003580D02*
X025180Y003580D01*
X025183Y003578D02*
X024873Y003578D01*
X024870Y003575D02*
X025186Y003575D01*
X025189Y003573D02*
X024868Y003573D01*
X024865Y003571D02*
X025192Y003571D01*
X025194Y003568D02*
X024863Y003568D01*
X024861Y003566D02*
X025197Y003566D01*
X025199Y003563D02*
X024858Y003563D01*
X024856Y003561D02*
X025201Y003561D01*
X025203Y003558D02*
X024853Y003558D01*
X024851Y003556D02*
X025205Y003556D01*
X025207Y003553D02*
X024849Y003553D01*
X024846Y003551D02*
X025209Y003551D01*
X025211Y003549D02*
X024844Y003549D01*
X024842Y003546D02*
X025213Y003546D01*
X025215Y003544D02*
X024840Y003544D01*
X024839Y003541D02*
X025217Y003541D01*
X025219Y003539D02*
X024837Y003539D01*
X024836Y003536D02*
X025221Y003536D01*
X025223Y003534D02*
X024834Y003534D01*
X024833Y003532D02*
X025224Y003532D01*
X025226Y003529D02*
X024831Y003529D01*
X024830Y003527D02*
X025227Y003527D01*
X025228Y003524D02*
X024828Y003524D01*
X024827Y003522D02*
X025230Y003522D01*
X025231Y003519D02*
X024825Y003519D01*
X024824Y003517D02*
X025232Y003517D01*
X025234Y003514D02*
X024822Y003514D01*
X024821Y003512D02*
X025235Y003512D01*
X025236Y003510D02*
X024819Y003510D01*
X024818Y003507D02*
X025237Y003507D01*
X025239Y003505D02*
X024816Y003505D01*
X024813Y003497D02*
X025243Y003497D01*
X025244Y003495D02*
X024812Y003495D01*
X024811Y003493D02*
X025245Y003493D01*
X025248Y003485D02*
X024809Y003485D01*
X024808Y003483D02*
X025249Y003483D01*
X025249Y003480D02*
X024807Y003480D01*
X024806Y003478D02*
X025250Y003478D01*
X025251Y003475D02*
X024805Y003475D01*
X024804Y003473D02*
X025251Y003473D01*
X025252Y003471D02*
X024804Y003471D01*
X024803Y003468D02*
X025253Y003468D01*
X025254Y003466D02*
X024802Y003466D01*
X024801Y003463D02*
X025254Y003463D01*
X025255Y003461D02*
X024800Y003461D01*
X024799Y003458D02*
X025256Y003458D01*
X025257Y003456D02*
X024799Y003456D01*
X024798Y003454D02*
X025257Y003454D01*
X025258Y003451D02*
X024797Y003451D01*
X024797Y003449D02*
X025259Y003449D01*
X025260Y003446D02*
X024797Y003446D01*
X024796Y003444D02*
X025260Y003444D01*
X025260Y003441D02*
X024796Y003441D01*
X024796Y003439D02*
X025260Y003439D01*
X025261Y003436D02*
X024796Y003436D01*
X024795Y003434D02*
X025261Y003434D01*
X025261Y003432D02*
X024795Y003432D01*
X024795Y003429D02*
X025261Y003429D01*
X025261Y003427D02*
X024795Y003427D01*
X024794Y003424D02*
X025262Y003424D01*
X025262Y003422D02*
X024794Y003422D01*
X024794Y003419D02*
X025262Y003419D01*
X025262Y003417D02*
X024793Y003417D01*
X024793Y003415D02*
X025263Y003415D01*
X025263Y003412D02*
X024793Y003412D01*
X024793Y003410D02*
X025263Y003410D01*
X025263Y003407D02*
X024792Y003407D01*
X024792Y003405D02*
X025264Y003405D01*
X025264Y003402D02*
X024792Y003402D01*
X024792Y003400D02*
X025264Y003400D01*
X025264Y003397D02*
X024792Y003397D01*
X024792Y003395D02*
X025264Y003395D01*
X025264Y003393D02*
X024792Y003393D01*
X024792Y003390D02*
X025264Y003390D01*
X025264Y003388D02*
X024792Y003388D01*
X024792Y003385D02*
X025264Y003385D01*
X025264Y003383D02*
X024792Y003383D01*
X024792Y003380D02*
X025264Y003380D01*
X025264Y003378D02*
X024792Y003378D01*
X024792Y003376D02*
X025264Y003376D01*
X025264Y003373D02*
X024792Y003373D01*
X024792Y003371D02*
X025264Y003371D01*
X025264Y003368D02*
X024792Y003368D01*
X024792Y003366D02*
X025264Y003366D01*
X025264Y003363D02*
X024792Y003363D01*
X024792Y003361D02*
X025264Y003361D01*
X025264Y003358D02*
X024792Y003358D01*
X024792Y003356D02*
X025264Y003356D01*
X025264Y003354D02*
X024792Y003354D01*
X024792Y003351D02*
X025264Y003351D01*
X025264Y003349D02*
X024792Y003349D01*
X024792Y003346D02*
X025264Y003346D01*
X025264Y003344D02*
X024792Y003344D01*
X024792Y003341D02*
X025264Y003341D01*
X025264Y003339D02*
X024792Y003339D01*
X024792Y003337D02*
X025264Y003337D01*
X025264Y003334D02*
X024792Y003334D01*
X024792Y003332D02*
X025264Y003332D01*
X025264Y003329D02*
X024792Y003329D01*
X024792Y003327D02*
X025264Y003327D01*
X025264Y003324D02*
X024792Y003324D01*
X024792Y003322D02*
X025264Y003322D01*
X025264Y003319D02*
X024792Y003319D01*
X024792Y003317D02*
X025264Y003317D01*
X025264Y003315D02*
X024792Y003315D01*
X024792Y003312D02*
X025264Y003312D01*
X025264Y003310D02*
X024792Y003310D01*
X024792Y003307D02*
X025264Y003307D01*
X025264Y003305D02*
X024792Y003305D01*
X024792Y003302D02*
X025264Y003302D01*
X025264Y003300D02*
X024792Y003300D01*
X024792Y003298D02*
X025264Y003298D01*
X025264Y003295D02*
X024792Y003295D01*
X024792Y003293D02*
X025264Y003293D01*
X025264Y003290D02*
X024792Y003290D01*
X024792Y003288D02*
X025264Y003288D01*
X025264Y003285D02*
X024792Y003285D01*
X024792Y003283D02*
X025264Y003283D01*
X025264Y003280D02*
X024792Y003280D01*
X024792Y003278D02*
X025264Y003278D01*
X025264Y003276D02*
X024792Y003276D01*
X024792Y003273D02*
X025264Y003273D01*
X025264Y003271D02*
X024792Y003271D01*
X024792Y003268D02*
X025264Y003268D01*
X025264Y003266D02*
X024792Y003266D01*
X024792Y003263D02*
X025264Y003263D01*
X025264Y003261D02*
X024792Y003261D01*
X024792Y003259D02*
X025264Y003259D01*
X025264Y003256D02*
X024792Y003256D01*
X024792Y003254D02*
X025264Y003254D01*
X025264Y003251D02*
X024792Y003251D01*
X024792Y003249D02*
X025264Y003249D01*
X025264Y003246D02*
X024792Y003246D01*
X024792Y003244D02*
X025264Y003244D01*
X025264Y003241D02*
X024792Y003241D01*
X024792Y003239D02*
X025264Y003239D01*
X025264Y003237D02*
X024792Y003237D01*
X024792Y003234D02*
X025264Y003234D01*
X025264Y003232D02*
X024792Y003232D01*
X024792Y003229D02*
X025264Y003229D01*
X025264Y003227D02*
X024792Y003227D01*
X024792Y003224D02*
X025264Y003224D01*
X025264Y003222D02*
X024792Y003222D01*
X024792Y003220D02*
X025264Y003220D01*
X025264Y003217D02*
X024792Y003217D01*
X024792Y003215D02*
X025264Y003215D01*
X025264Y003212D02*
X024792Y003212D01*
X024792Y003210D02*
X025264Y003210D01*
X025264Y003207D02*
X024792Y003207D01*
X024792Y003205D02*
X025264Y003205D01*
X025264Y003202D02*
X024792Y003202D01*
X024792Y003200D02*
X025264Y003200D01*
X025264Y003198D02*
X024792Y003198D01*
X024792Y003195D02*
X025264Y003195D01*
X025264Y003193D02*
X024792Y003193D01*
X024792Y003190D02*
X025264Y003190D01*
X025264Y003188D02*
X024792Y003188D01*
X024792Y003185D02*
X025264Y003185D01*
X025264Y003183D02*
X024792Y003183D01*
X024792Y003181D02*
X025264Y003181D01*
X025264Y003178D02*
X024792Y003178D01*
X024792Y003176D02*
X025264Y003176D01*
X025264Y003173D02*
X024792Y003173D01*
X024792Y003171D02*
X025264Y003171D01*
X025264Y003168D02*
X024792Y003168D01*
X024792Y003166D02*
X025264Y003166D01*
X025264Y003163D02*
X024792Y003163D01*
X024792Y003161D02*
X025264Y003161D01*
X025264Y003159D02*
X024792Y003159D01*
X024792Y003156D02*
X025263Y003156D01*
X025263Y003154D02*
X024793Y003154D01*
X024793Y003151D02*
X025263Y003151D01*
X025263Y003149D02*
X024793Y003149D01*
X024794Y003146D02*
X025262Y003146D01*
X025262Y003144D02*
X024794Y003144D01*
X024794Y003142D02*
X025262Y003142D01*
X025262Y003139D02*
X024794Y003139D01*
X024795Y003137D02*
X025261Y003137D01*
X025261Y003134D02*
X024795Y003134D01*
X024795Y003132D02*
X025261Y003132D01*
X025261Y003129D02*
X024796Y003129D01*
X024796Y003127D02*
X025260Y003127D01*
X025260Y003125D02*
X024796Y003125D01*
X024796Y003122D02*
X025260Y003122D01*
X025260Y003120D02*
X024797Y003120D01*
X024798Y003112D02*
X025258Y003112D01*
X025257Y003110D02*
X024798Y003110D01*
X024799Y003107D02*
X025256Y003107D01*
X025256Y003105D02*
X024800Y003105D01*
X024801Y003103D02*
X025255Y003103D01*
X025254Y003100D02*
X024802Y003100D01*
X024802Y003098D02*
X025253Y003098D01*
X025252Y003095D02*
X024803Y003095D01*
X024804Y003093D02*
X025252Y003093D01*
X025251Y003090D02*
X024805Y003090D01*
X024806Y003088D02*
X025250Y003088D01*
X025249Y003086D02*
X024807Y003086D01*
X024808Y003083D02*
X025249Y003083D01*
X025248Y003081D02*
X024808Y003081D01*
X024809Y003078D02*
X025247Y003078D01*
X025246Y003076D02*
X024810Y003076D01*
X024811Y003073D02*
X025246Y003073D01*
X025244Y003071D02*
X024812Y003071D01*
X024813Y003068D02*
X025243Y003068D01*
X025242Y003066D02*
X024814Y003066D01*
X024814Y003064D02*
X025240Y003064D01*
X025239Y003061D02*
X024815Y003061D01*
X024817Y003059D02*
X025238Y003059D01*
X025237Y003056D02*
X024818Y003056D01*
X024820Y003054D02*
X025235Y003054D01*
X025234Y003051D02*
X024822Y003051D01*
X024823Y003049D02*
X025233Y003049D01*
X025231Y003047D02*
X024825Y003047D01*
X024826Y003044D02*
X025230Y003044D01*
X025229Y003042D02*
X024828Y003042D01*
X024829Y003039D02*
X025227Y003039D01*
X025226Y003037D02*
X024831Y003037D01*
X024832Y003034D02*
X025225Y003034D01*
X025223Y003032D02*
X024834Y003032D01*
X024835Y003029D02*
X025221Y003029D01*
X025219Y003027D02*
X024837Y003027D01*
X024839Y003025D02*
X025217Y003025D01*
X025215Y003022D02*
X024840Y003022D01*
X024842Y003020D02*
X025213Y003020D01*
X025211Y003017D02*
X024843Y003017D01*
X024845Y003015D02*
X025209Y003015D01*
X025207Y003012D02*
X024848Y003012D01*
X024850Y003010D02*
X025205Y003010D01*
X025203Y003008D02*
X024853Y003008D01*
X024855Y003005D02*
X025201Y003005D01*
X025199Y003003D02*
X024858Y003003D01*
X024860Y003000D02*
X025197Y003000D01*
X025195Y002998D02*
X024863Y002998D01*
X028192Y003163D02*
X028198Y003111D01*
X028216Y003061D01*
X028640Y003061D01*
X028639Y003059D02*
X028218Y003059D01*
X028216Y003061D02*
X028244Y003017D01*
X028612Y003017D01*
X028610Y003015D02*
X028246Y003015D01*
X028244Y003017D02*
X028282Y002980D01*
X028326Y002952D01*
X028376Y002935D01*
X028429Y002929D01*
X028474Y002933D01*
X028519Y002947D01*
X028342Y002947D01*
X028349Y002944D02*
X028511Y002944D01*
X028519Y002947D02*
X028559Y002968D01*
X028595Y002997D01*
X028625Y003033D01*
X028647Y003073D01*
X028660Y003117D01*
X028198Y003117D01*
X028198Y003115D02*
X028659Y003115D01*
X028660Y003117D02*
X028665Y003163D01*
X028665Y003399D01*
X028660Y003446D01*
X028197Y003446D01*
X028197Y003444D02*
X028661Y003444D01*
X028660Y003446D02*
X028647Y003490D01*
X028211Y003490D01*
X028210Y003488D02*
X028648Y003488D01*
X028647Y003490D02*
X028625Y003531D01*
X028596Y003567D01*
X028560Y003597D01*
X028519Y003619D01*
X028341Y003619D01*
X028335Y003617D02*
X028524Y003617D01*
X028528Y003614D02*
X028328Y003614D01*
X028326Y003614D02*
X028376Y003631D01*
X028429Y003638D01*
X028475Y003633D01*
X028519Y003619D01*
X028511Y003622D02*
X028348Y003622D01*
X028355Y003624D02*
X028503Y003624D01*
X028495Y003627D02*
X028362Y003627D01*
X028369Y003629D02*
X028487Y003629D01*
X028480Y003631D02*
X028376Y003631D01*
X028396Y003634D02*
X028465Y003634D01*
X028441Y003636D02*
X028417Y003636D01*
X028326Y003614D02*
X028281Y003585D01*
X028575Y003585D01*
X028578Y003583D02*
X028278Y003583D01*
X028276Y003580D02*
X028581Y003580D01*
X028584Y003578D02*
X028274Y003578D01*
X028271Y003575D02*
X028586Y003575D01*
X028589Y003573D02*
X028269Y003573D01*
X028266Y003571D02*
X028592Y003571D01*
X028595Y003568D02*
X028264Y003568D01*
X028261Y003566D02*
X028598Y003566D01*
X028599Y003563D02*
X028259Y003563D01*
X028257Y003561D02*
X028601Y003561D01*
X028603Y003558D02*
X028254Y003558D01*
X028252Y003556D02*
X028605Y003556D01*
X028607Y003553D02*
X028249Y003553D01*
X028247Y003551D02*
X028609Y003551D01*
X028611Y003549D02*
X028245Y003549D01*
X028243Y003548D02*
X028281Y003585D01*
X028285Y003588D02*
X028572Y003588D01*
X028569Y003590D02*
X028288Y003590D01*
X028292Y003592D02*
X028566Y003592D01*
X028563Y003595D02*
X028296Y003595D01*
X028300Y003597D02*
X028560Y003597D01*
X028555Y003600D02*
X028304Y003600D01*
X028308Y003602D02*
X028551Y003602D01*
X028546Y003605D02*
X028311Y003605D01*
X028315Y003607D02*
X028542Y003607D01*
X028537Y003610D02*
X028319Y003610D01*
X028323Y003612D02*
X028533Y003612D01*
X028613Y003546D02*
X028243Y003546D01*
X028243Y003548D02*
X028215Y003502D01*
X028641Y003502D01*
X028642Y003500D02*
X028215Y003500D01*
X028215Y003502D02*
X028198Y003452D01*
X028192Y003399D01*
X028192Y003163D01*
X028665Y003163D01*
X028665Y003161D02*
X028193Y003161D01*
X028193Y003159D02*
X028664Y003159D01*
X028664Y003156D02*
X028193Y003156D01*
X028193Y003154D02*
X028664Y003154D01*
X028664Y003151D02*
X028194Y003151D01*
X028194Y003149D02*
X028663Y003149D01*
X028663Y003146D02*
X028194Y003146D01*
X028195Y003144D02*
X028663Y003144D01*
X028663Y003142D02*
X028195Y003142D01*
X028195Y003139D02*
X028662Y003139D01*
X028662Y003137D02*
X028195Y003137D01*
X028196Y003134D02*
X028662Y003134D01*
X028662Y003132D02*
X028196Y003132D01*
X028196Y003129D02*
X028661Y003129D01*
X028661Y003127D02*
X028197Y003127D01*
X028197Y003125D02*
X028661Y003125D01*
X028661Y003122D02*
X028197Y003122D01*
X028197Y003120D02*
X028660Y003120D01*
X028659Y003112D02*
X028198Y003112D01*
X028199Y003110D02*
X028658Y003110D01*
X028657Y003107D02*
X028200Y003107D01*
X028201Y003105D02*
X028656Y003105D01*
X028656Y003103D02*
X028201Y003103D01*
X028202Y003100D02*
X028655Y003100D01*
X028654Y003098D02*
X028203Y003098D01*
X028204Y003095D02*
X028653Y003095D01*
X028653Y003093D02*
X028205Y003093D01*
X028206Y003090D02*
X028652Y003090D01*
X028651Y003088D02*
X028207Y003088D01*
X028207Y003086D02*
X028650Y003086D01*
X028650Y003083D02*
X028208Y003083D01*
X028209Y003081D02*
X028649Y003081D01*
X028648Y003078D02*
X028210Y003078D01*
X028211Y003076D02*
X028647Y003076D01*
X028647Y003073D02*
X028212Y003073D01*
X028213Y003071D02*
X028645Y003071D01*
X028644Y003068D02*
X028214Y003068D01*
X028214Y003066D02*
X028643Y003066D01*
X028641Y003064D02*
X028215Y003064D01*
X028219Y003056D02*
X028637Y003056D01*
X028636Y003054D02*
X028221Y003054D01*
X028222Y003051D02*
X028635Y003051D01*
X028633Y003049D02*
X028224Y003049D01*
X028225Y003047D02*
X028632Y003047D01*
X028631Y003044D02*
X028227Y003044D01*
X028229Y003042D02*
X028629Y003042D01*
X028628Y003039D02*
X028230Y003039D01*
X028232Y003037D02*
X028627Y003037D01*
X028625Y003034D02*
X028233Y003034D01*
X028235Y003032D02*
X028624Y003032D01*
X028622Y003029D02*
X028236Y003029D01*
X028238Y003027D02*
X028620Y003027D01*
X028618Y003025D02*
X028239Y003025D01*
X028241Y003022D02*
X028616Y003022D01*
X028614Y003020D02*
X028242Y003020D01*
X028249Y003012D02*
X028608Y003012D01*
X028606Y003010D02*
X028251Y003010D01*
X028254Y003008D02*
X028604Y003008D01*
X028602Y003005D02*
X028256Y003005D01*
X028259Y003003D02*
X028600Y003003D01*
X028598Y003000D02*
X028261Y003000D01*
X028263Y002998D02*
X028596Y002998D01*
X028593Y002995D02*
X028266Y002995D01*
X028268Y002993D02*
X028590Y002993D01*
X028587Y002990D02*
X028271Y002990D01*
X028273Y002988D02*
X028584Y002988D01*
X028581Y002986D02*
X028276Y002986D01*
X028278Y002983D02*
X028578Y002983D01*
X028575Y002981D02*
X028281Y002981D01*
X028284Y002978D02*
X028572Y002978D01*
X028569Y002976D02*
X028288Y002976D01*
X028292Y002973D02*
X028566Y002973D01*
X028563Y002971D02*
X028296Y002971D01*
X028300Y002969D02*
X028560Y002969D01*
X028556Y002966D02*
X028304Y002966D01*
X028307Y002964D02*
X028551Y002964D01*
X028546Y002961D02*
X028311Y002961D01*
X028315Y002959D02*
X028542Y002959D01*
X028537Y002956D02*
X028319Y002956D01*
X028323Y002954D02*
X028533Y002954D01*
X028528Y002951D02*
X028328Y002951D01*
X028335Y002949D02*
X028523Y002949D01*
X028503Y002942D02*
X028356Y002942D01*
X028363Y002939D02*
X028494Y002939D01*
X028486Y002937D02*
X028370Y002937D01*
X028379Y002934D02*
X028478Y002934D01*
X028460Y002932D02*
X028401Y002932D01*
X028424Y002930D02*
X028434Y002930D01*
X028665Y003166D02*
X028192Y003166D01*
X028192Y003168D02*
X028665Y003168D01*
X028665Y003171D02*
X028192Y003171D01*
X028192Y003173D02*
X028665Y003173D01*
X028665Y003176D02*
X028192Y003176D01*
X028192Y003178D02*
X028665Y003178D01*
X028665Y003181D02*
X028192Y003181D01*
X028192Y003183D02*
X028665Y003183D01*
X028665Y003185D02*
X028192Y003185D01*
X028192Y003188D02*
X028665Y003188D01*
X028665Y003190D02*
X028192Y003190D01*
X028192Y003193D02*
X028665Y003193D01*
X028665Y003195D02*
X028192Y003195D01*
X028192Y003198D02*
X028665Y003198D01*
X028665Y003200D02*
X028192Y003200D01*
X028192Y003202D02*
X028665Y003202D01*
X028665Y003205D02*
X028192Y003205D01*
X028192Y003207D02*
X028665Y003207D01*
X028665Y003210D02*
X028192Y003210D01*
X028192Y003212D02*
X028665Y003212D01*
X028665Y003215D02*
X028192Y003215D01*
X028192Y003217D02*
X028665Y003217D01*
X028665Y003220D02*
X028192Y003220D01*
X028192Y003222D02*
X028665Y003222D01*
X028665Y003224D02*
X028192Y003224D01*
X028192Y003227D02*
X028665Y003227D01*
X028665Y003229D02*
X028192Y003229D01*
X028192Y003232D02*
X028665Y003232D01*
X028665Y003234D02*
X028192Y003234D01*
X028192Y003237D02*
X028665Y003237D01*
X028665Y003239D02*
X028192Y003239D01*
X028192Y003241D02*
X028665Y003241D01*
X028665Y003244D02*
X028192Y003244D01*
X028192Y003246D02*
X028665Y003246D01*
X028665Y003249D02*
X028192Y003249D01*
X028192Y003251D02*
X028665Y003251D01*
X028665Y003254D02*
X028192Y003254D01*
X028192Y003256D02*
X028665Y003256D01*
X028665Y003259D02*
X028192Y003259D01*
X028192Y003261D02*
X028665Y003261D01*
X028665Y003263D02*
X028192Y003263D01*
X028192Y003266D02*
X028665Y003266D01*
X028665Y003268D02*
X028192Y003268D01*
X028192Y003271D02*
X028665Y003271D01*
X028665Y003273D02*
X028192Y003273D01*
X028192Y003276D02*
X028665Y003276D01*
X028665Y003278D02*
X028192Y003278D01*
X028192Y003280D02*
X028665Y003280D01*
X028665Y003283D02*
X028192Y003283D01*
X028192Y003285D02*
X028665Y003285D01*
X028665Y003288D02*
X028192Y003288D01*
X028192Y003290D02*
X028665Y003290D01*
X028665Y003293D02*
X028192Y003293D01*
X028192Y003295D02*
X028665Y003295D01*
X028665Y003298D02*
X028192Y003298D01*
X028192Y003300D02*
X028665Y003300D01*
X028665Y003302D02*
X028192Y003302D01*
X028192Y003305D02*
X028665Y003305D01*
X028665Y003307D02*
X028192Y003307D01*
X028192Y003310D02*
X028665Y003310D01*
X028665Y003312D02*
X028192Y003312D01*
X028192Y003315D02*
X028665Y003315D01*
X028665Y003317D02*
X028192Y003317D01*
X028192Y003319D02*
X028665Y003319D01*
X028665Y003322D02*
X028192Y003322D01*
X028192Y003324D02*
X028665Y003324D01*
X028665Y003327D02*
X028192Y003327D01*
X028192Y003329D02*
X028665Y003329D01*
X028665Y003332D02*
X028192Y003332D01*
X028192Y003334D02*
X028665Y003334D01*
X028665Y003337D02*
X028192Y003337D01*
X028192Y003339D02*
X028665Y003339D01*
X028665Y003341D02*
X028192Y003341D01*
X028192Y003344D02*
X028665Y003344D01*
X028665Y003346D02*
X028192Y003346D01*
X028192Y003349D02*
X028665Y003349D01*
X028665Y003351D02*
X028192Y003351D01*
X028192Y003354D02*
X028665Y003354D01*
X028665Y003356D02*
X028192Y003356D01*
X028192Y003358D02*
X028665Y003358D01*
X028665Y003361D02*
X028192Y003361D01*
X028192Y003363D02*
X028665Y003363D01*
X028665Y003366D02*
X028192Y003366D01*
X028192Y003368D02*
X028665Y003368D01*
X028665Y003371D02*
X028192Y003371D01*
X028192Y003373D02*
X028665Y003373D01*
X028665Y003376D02*
X028192Y003376D01*
X028192Y003378D02*
X028665Y003378D01*
X028665Y003380D02*
X028192Y003380D01*
X028192Y003383D02*
X028665Y003383D01*
X028665Y003385D02*
X028192Y003385D01*
X028192Y003388D02*
X028665Y003388D01*
X028665Y003390D02*
X028192Y003390D01*
X028192Y003393D02*
X028665Y003393D01*
X028665Y003395D02*
X028192Y003395D01*
X028192Y003397D02*
X028665Y003397D01*
X028665Y003400D02*
X028192Y003400D01*
X028193Y003402D02*
X028665Y003402D01*
X028664Y003405D02*
X028193Y003405D01*
X028193Y003407D02*
X028664Y003407D01*
X028664Y003410D02*
X028193Y003410D01*
X028194Y003412D02*
X028664Y003412D01*
X028663Y003415D02*
X028194Y003415D01*
X028194Y003417D02*
X028663Y003417D01*
X028663Y003419D02*
X028195Y003419D01*
X028195Y003422D02*
X028663Y003422D01*
X028662Y003424D02*
X028195Y003424D01*
X028195Y003427D02*
X028662Y003427D01*
X028662Y003429D02*
X028196Y003429D01*
X028196Y003432D02*
X028662Y003432D01*
X028662Y003434D02*
X028196Y003434D01*
X028196Y003436D02*
X028661Y003436D01*
X028661Y003439D02*
X028197Y003439D01*
X028197Y003441D02*
X028661Y003441D01*
X028660Y003449D02*
X028198Y003449D01*
X028198Y003451D02*
X028659Y003451D01*
X028658Y003454D02*
X028199Y003454D01*
X028199Y003456D02*
X028657Y003456D01*
X028657Y003458D02*
X028200Y003458D01*
X028201Y003461D02*
X028656Y003461D01*
X028655Y003463D02*
X028202Y003463D01*
X028203Y003466D02*
X028654Y003466D01*
X028654Y003468D02*
X028204Y003468D01*
X028204Y003471D02*
X028653Y003471D01*
X028652Y003473D02*
X028205Y003473D01*
X028206Y003475D02*
X028652Y003475D01*
X028651Y003478D02*
X028207Y003478D01*
X028208Y003480D02*
X028650Y003480D01*
X028649Y003483D02*
X028209Y003483D01*
X028209Y003485D02*
X028649Y003485D01*
X028646Y003493D02*
X028212Y003493D01*
X028213Y003495D02*
X028645Y003495D01*
X028643Y003497D02*
X028214Y003497D01*
X028217Y003505D02*
X028639Y003505D01*
X028638Y003507D02*
X028218Y003507D01*
X028220Y003510D02*
X028637Y003510D01*
X028636Y003512D02*
X028221Y003512D01*
X028223Y003514D02*
X028634Y003514D01*
X028633Y003517D02*
X028224Y003517D01*
X028226Y003519D02*
X028632Y003519D01*
X028630Y003522D02*
X028227Y003522D01*
X028229Y003524D02*
X028629Y003524D01*
X028628Y003527D02*
X028230Y003527D01*
X028232Y003529D02*
X028627Y003529D01*
X028625Y003532D02*
X028234Y003532D01*
X028235Y003534D02*
X028623Y003534D01*
X028621Y003536D02*
X028237Y003536D01*
X028238Y003539D02*
X028619Y003539D01*
X028617Y003541D02*
X028240Y003541D01*
X028241Y003544D02*
X028615Y003544D01*
X028474Y004429D02*
X028429Y004425D01*
X028376Y004431D01*
X028480Y004431D01*
X028474Y004429D02*
X028519Y004443D01*
X028559Y004464D01*
X028595Y004493D01*
X028625Y004529D01*
X028647Y004569D01*
X028660Y004613D01*
X028665Y004659D01*
X028665Y004896D01*
X028192Y004896D01*
X028198Y004948D01*
X028215Y004999D01*
X028216Y004999D02*
X028641Y004999D01*
X028639Y005001D02*
X028217Y005001D01*
X028215Y004999D02*
X028243Y005044D01*
X028281Y005081D01*
X028326Y005110D01*
X028376Y005128D01*
X028429Y005134D01*
X028475Y005129D01*
X028519Y005115D01*
X028560Y005093D01*
X028596Y005064D01*
X028625Y005027D01*
X028647Y004986D01*
X028660Y004942D01*
X028665Y004896D01*
X028665Y004894D02*
X028192Y004894D01*
X028192Y004896D02*
X028192Y004659D01*
X028198Y004607D01*
X028216Y004557D01*
X028244Y004513D01*
X028282Y004476D01*
X028326Y004448D01*
X028529Y004448D01*
X028533Y004450D02*
X028322Y004450D01*
X028319Y004453D02*
X028538Y004453D01*
X028543Y004455D02*
X028315Y004455D01*
X028311Y004458D02*
X028547Y004458D01*
X028552Y004460D02*
X028307Y004460D01*
X028303Y004463D02*
X028556Y004463D01*
X028560Y004465D02*
X028299Y004465D01*
X028295Y004467D02*
X028563Y004467D01*
X028566Y004470D02*
X028291Y004470D01*
X028287Y004472D02*
X028569Y004472D01*
X028572Y004475D02*
X028283Y004475D01*
X028280Y004477D02*
X028575Y004477D01*
X028578Y004480D02*
X028278Y004480D01*
X028275Y004482D02*
X028581Y004482D01*
X028584Y004484D02*
X028273Y004484D01*
X028270Y004487D02*
X028587Y004487D01*
X028590Y004489D02*
X028268Y004489D01*
X028266Y004492D02*
X028593Y004492D01*
X028596Y004494D02*
X028263Y004494D01*
X028261Y004497D02*
X028598Y004497D01*
X028600Y004499D02*
X028258Y004499D01*
X028256Y004502D02*
X028602Y004502D01*
X028604Y004504D02*
X028253Y004504D01*
X028251Y004506D02*
X028606Y004506D01*
X028608Y004509D02*
X028248Y004509D01*
X028246Y004511D02*
X028610Y004511D01*
X028612Y004514D02*
X028244Y004514D01*
X028242Y004516D02*
X028614Y004516D01*
X028616Y004519D02*
X028241Y004519D01*
X028239Y004521D02*
X028618Y004521D01*
X028620Y004523D02*
X028238Y004523D01*
X028236Y004526D02*
X028622Y004526D01*
X028624Y004528D02*
X028234Y004528D01*
X028233Y004531D02*
X028626Y004531D01*
X028627Y004533D02*
X028231Y004533D01*
X028230Y004536D02*
X028628Y004536D01*
X028630Y004538D02*
X028228Y004538D01*
X028227Y004541D02*
X028631Y004541D01*
X028632Y004543D02*
X028225Y004543D01*
X028224Y004545D02*
X028634Y004545D01*
X028635Y004548D02*
X028222Y004548D01*
X028221Y004550D02*
X028636Y004550D01*
X028638Y004553D02*
X028219Y004553D01*
X028217Y004555D02*
X028639Y004555D01*
X028640Y004558D02*
X028216Y004558D01*
X028215Y004560D02*
X028641Y004560D01*
X028643Y004562D02*
X028214Y004562D01*
X028213Y004565D02*
X028644Y004565D01*
X028645Y004567D02*
X028213Y004567D01*
X028212Y004570D02*
X028647Y004570D01*
X028647Y004572D02*
X028211Y004572D01*
X028210Y004575D02*
X028648Y004575D01*
X028649Y004577D02*
X028209Y004577D01*
X028208Y004580D02*
X028650Y004580D01*
X028650Y004582D02*
X028207Y004582D01*
X028206Y004584D02*
X028651Y004584D01*
X028652Y004587D02*
X028206Y004587D01*
X028205Y004589D02*
X028653Y004589D01*
X028653Y004592D02*
X028204Y004592D01*
X028203Y004594D02*
X028654Y004594D01*
X028655Y004597D02*
X028202Y004597D01*
X028201Y004599D02*
X028656Y004599D01*
X028656Y004601D02*
X028200Y004601D01*
X028200Y004604D02*
X028657Y004604D01*
X028658Y004606D02*
X028199Y004606D01*
X028198Y004609D02*
X028659Y004609D01*
X028659Y004611D02*
X028198Y004611D01*
X028198Y004614D02*
X028660Y004614D01*
X028660Y004616D02*
X028197Y004616D01*
X028197Y004619D02*
X028661Y004619D01*
X028661Y004621D02*
X028197Y004621D01*
X028197Y004623D02*
X028661Y004623D01*
X028661Y004626D02*
X028196Y004626D01*
X028196Y004628D02*
X028662Y004628D01*
X028662Y004631D02*
X028196Y004631D01*
X028195Y004633D02*
X028662Y004633D01*
X028662Y004636D02*
X028195Y004636D01*
X028195Y004638D02*
X028663Y004638D01*
X028663Y004640D02*
X028195Y004640D01*
X028194Y004643D02*
X028663Y004643D01*
X028663Y004645D02*
X028194Y004645D01*
X028194Y004648D02*
X028664Y004648D01*
X028664Y004650D02*
X028193Y004650D01*
X028193Y004653D02*
X028664Y004653D01*
X028664Y004655D02*
X028193Y004655D01*
X028193Y004658D02*
X028665Y004658D01*
X028665Y004660D02*
X028192Y004660D01*
X028192Y004662D02*
X028665Y004662D01*
X028665Y004665D02*
X028192Y004665D01*
X028192Y004667D02*
X028665Y004667D01*
X028665Y004670D02*
X028192Y004670D01*
X028192Y004672D02*
X028665Y004672D01*
X028665Y004675D02*
X028192Y004675D01*
X028192Y004677D02*
X028665Y004677D01*
X028665Y004679D02*
X028192Y004679D01*
X028192Y004682D02*
X028665Y004682D01*
X028665Y004684D02*
X028192Y004684D01*
X028192Y004687D02*
X028665Y004687D01*
X028665Y004689D02*
X028192Y004689D01*
X028192Y004692D02*
X028665Y004692D01*
X028665Y004694D02*
X028192Y004694D01*
X028192Y004697D02*
X028665Y004697D01*
X028665Y004699D02*
X028192Y004699D01*
X028192Y004701D02*
X028665Y004701D01*
X028665Y004704D02*
X028192Y004704D01*
X028192Y004706D02*
X028665Y004706D01*
X028665Y004709D02*
X028192Y004709D01*
X028192Y004711D02*
X028665Y004711D01*
X028665Y004714D02*
X028192Y004714D01*
X028192Y004716D02*
X028665Y004716D01*
X028665Y004718D02*
X028192Y004718D01*
X028192Y004721D02*
X028665Y004721D01*
X028665Y004723D02*
X028192Y004723D01*
X028192Y004726D02*
X028665Y004726D01*
X028665Y004728D02*
X028192Y004728D01*
X028192Y004731D02*
X028665Y004731D01*
X028665Y004733D02*
X028192Y004733D01*
X028192Y004736D02*
X028665Y004736D01*
X028665Y004738D02*
X028192Y004738D01*
X028192Y004740D02*
X028665Y004740D01*
X028665Y004743D02*
X028192Y004743D01*
X028192Y004745D02*
X028665Y004745D01*
X028665Y004748D02*
X028192Y004748D01*
X028192Y004750D02*
X028665Y004750D01*
X028665Y004753D02*
X028192Y004753D01*
X028192Y004755D02*
X028665Y004755D01*
X028665Y004757D02*
X028192Y004757D01*
X028192Y004760D02*
X028665Y004760D01*
X028665Y004762D02*
X028192Y004762D01*
X028192Y004765D02*
X028665Y004765D01*
X028665Y004767D02*
X028192Y004767D01*
X028192Y004770D02*
X028665Y004770D01*
X028665Y004772D02*
X028192Y004772D01*
X028192Y004775D02*
X028665Y004775D01*
X028665Y004777D02*
X028192Y004777D01*
X028192Y004779D02*
X028665Y004779D01*
X028665Y004782D02*
X028192Y004782D01*
X028192Y004784D02*
X028665Y004784D01*
X028665Y004787D02*
X028192Y004787D01*
X028192Y004789D02*
X028665Y004789D01*
X028665Y004792D02*
X028192Y004792D01*
X028192Y004794D02*
X028665Y004794D01*
X028665Y004796D02*
X028192Y004796D01*
X028192Y004799D02*
X028665Y004799D01*
X028665Y004801D02*
X028192Y004801D01*
X028192Y004804D02*
X028665Y004804D01*
X028665Y004806D02*
X028192Y004806D01*
X028192Y004809D02*
X028665Y004809D01*
X028665Y004811D02*
X028192Y004811D01*
X028192Y004814D02*
X028665Y004814D01*
X028665Y004816D02*
X028192Y004816D01*
X028192Y004818D02*
X028665Y004818D01*
X028665Y004821D02*
X028192Y004821D01*
X028192Y004823D02*
X028665Y004823D01*
X028665Y004826D02*
X028192Y004826D01*
X028192Y004828D02*
X028665Y004828D01*
X028665Y004831D02*
X028192Y004831D01*
X028192Y004833D02*
X028665Y004833D01*
X028665Y004835D02*
X028192Y004835D01*
X028192Y004838D02*
X028665Y004838D01*
X028665Y004840D02*
X028192Y004840D01*
X028192Y004843D02*
X028665Y004843D01*
X028665Y004845D02*
X028192Y004845D01*
X028192Y004848D02*
X028665Y004848D01*
X028665Y004850D02*
X028192Y004850D01*
X028192Y004853D02*
X028665Y004853D01*
X028665Y004855D02*
X028192Y004855D01*
X028192Y004857D02*
X028665Y004857D01*
X028665Y004860D02*
X028192Y004860D01*
X028192Y004862D02*
X028665Y004862D01*
X028665Y004865D02*
X028192Y004865D01*
X028192Y004867D02*
X028665Y004867D01*
X028665Y004870D02*
X028192Y004870D01*
X028192Y004872D02*
X028665Y004872D01*
X028665Y004874D02*
X028192Y004874D01*
X028192Y004877D02*
X028665Y004877D01*
X028665Y004879D02*
X028192Y004879D01*
X028192Y004882D02*
X028665Y004882D01*
X028665Y004884D02*
X028192Y004884D01*
X028192Y004887D02*
X028665Y004887D01*
X028665Y004889D02*
X028192Y004889D01*
X028192Y004892D02*
X028665Y004892D01*
X028664Y004899D02*
X028193Y004899D01*
X028193Y004901D02*
X028664Y004901D01*
X028664Y004904D02*
X028193Y004904D01*
X028194Y004906D02*
X028664Y004906D01*
X028664Y004909D02*
X028194Y004909D01*
X028194Y004911D02*
X028663Y004911D01*
X028663Y004913D02*
X028194Y004913D01*
X028195Y004916D02*
X028663Y004916D01*
X028663Y004918D02*
X028195Y004918D01*
X028195Y004921D02*
X028662Y004921D01*
X028662Y004923D02*
X028195Y004923D01*
X028196Y004926D02*
X028662Y004926D01*
X028662Y004928D02*
X028196Y004928D01*
X028196Y004931D02*
X028662Y004931D01*
X028661Y004933D02*
X028196Y004933D01*
X028197Y004935D02*
X028661Y004935D01*
X028661Y004938D02*
X028197Y004938D01*
X028197Y004940D02*
X028661Y004940D01*
X028660Y004943D02*
X028197Y004943D01*
X028198Y004945D02*
X028659Y004945D01*
X028659Y004948D02*
X028198Y004948D01*
X028199Y004950D02*
X028658Y004950D01*
X028657Y004952D02*
X028200Y004952D01*
X028200Y004955D02*
X028657Y004955D01*
X028656Y004957D02*
X028201Y004957D01*
X028202Y004960D02*
X028655Y004960D01*
X028654Y004962D02*
X028203Y004962D01*
X028204Y004965D02*
X028654Y004965D01*
X028653Y004967D02*
X028205Y004967D01*
X028205Y004970D02*
X028652Y004970D01*
X028651Y004972D02*
X028206Y004972D01*
X028207Y004974D02*
X028651Y004974D01*
X028650Y004977D02*
X028208Y004977D01*
X028209Y004979D02*
X028649Y004979D01*
X028649Y004982D02*
X028210Y004982D01*
X028210Y004984D02*
X028648Y004984D01*
X028647Y004987D02*
X028211Y004987D01*
X028212Y004989D02*
X028646Y004989D01*
X028644Y004991D02*
X028213Y004991D01*
X028214Y004994D02*
X028643Y004994D01*
X028642Y004996D02*
X028215Y004996D01*
X028219Y005004D02*
X028638Y005004D01*
X028637Y005006D02*
X028220Y005006D01*
X028222Y005008D02*
X028635Y005008D01*
X028634Y005011D02*
X028223Y005011D01*
X028225Y005013D02*
X028633Y005013D01*
X028632Y005016D02*
X028226Y005016D01*
X028228Y005018D02*
X028630Y005018D01*
X028629Y005021D02*
X028229Y005021D01*
X028231Y005023D02*
X028628Y005023D01*
X028626Y005026D02*
X028232Y005026D01*
X028234Y005028D02*
X028625Y005028D01*
X028623Y005030D02*
X028235Y005030D01*
X028237Y005033D02*
X028621Y005033D01*
X028619Y005035D02*
X028238Y005035D01*
X028240Y005038D02*
X028617Y005038D01*
X028615Y005040D02*
X028241Y005040D01*
X028243Y005043D02*
X028613Y005043D01*
X028611Y005045D02*
X028245Y005045D01*
X028247Y005047D02*
X028609Y005047D01*
X028607Y005050D02*
X028250Y005050D01*
X028252Y005052D02*
X028605Y005052D01*
X028603Y005055D02*
X028255Y005055D01*
X028257Y005057D02*
X028601Y005057D01*
X028599Y005060D02*
X028259Y005060D01*
X028262Y005062D02*
X028597Y005062D01*
X028595Y005065D02*
X028264Y005065D01*
X028267Y005067D02*
X028592Y005067D01*
X028589Y005069D02*
X028269Y005069D01*
X028272Y005072D02*
X028586Y005072D01*
X028583Y005074D02*
X028274Y005074D01*
X028276Y005077D02*
X028580Y005077D01*
X028577Y005079D02*
X028279Y005079D01*
X028281Y005082D02*
X028574Y005082D01*
X028571Y005084D02*
X028285Y005084D01*
X028289Y005086D02*
X028568Y005086D01*
X028565Y005089D02*
X028293Y005089D01*
X028297Y005091D02*
X028562Y005091D01*
X028559Y005094D02*
X028301Y005094D01*
X028304Y005096D02*
X028555Y005096D01*
X028550Y005099D02*
X028308Y005099D01*
X028312Y005101D02*
X028545Y005101D01*
X028541Y005104D02*
X028316Y005104D01*
X028320Y005106D02*
X028536Y005106D01*
X028532Y005108D02*
X028324Y005108D01*
X028329Y005111D02*
X028527Y005111D01*
X028523Y005113D02*
X028336Y005113D01*
X028343Y005116D02*
X028518Y005116D01*
X028510Y005118D02*
X028349Y005118D01*
X028356Y005121D02*
X028502Y005121D01*
X028494Y005123D02*
X028363Y005123D01*
X028370Y005125D02*
X028486Y005125D01*
X028478Y005128D02*
X028379Y005128D01*
X028400Y005130D02*
X028461Y005130D01*
X028437Y005133D02*
X028421Y005133D01*
X028326Y004448D02*
X028376Y004431D01*
X028369Y004433D02*
X028488Y004433D01*
X028496Y004436D02*
X028362Y004436D01*
X028355Y004438D02*
X028504Y004438D01*
X028512Y004441D02*
X028348Y004441D01*
X028340Y004443D02*
X028520Y004443D01*
X028524Y004445D02*
X028333Y004445D01*
X028397Y004428D02*
X028465Y004428D01*
X028439Y004426D02*
X028420Y004426D01*
D21*
X027984Y006334D03*
X026724Y006894D03*
X025534Y006384D03*
X017169Y005955D03*
X015969Y006455D03*
X014819Y005955D03*
D22*
X011380Y005936D03*
X011380Y007936D03*
X004480Y007936D03*
D23*
X005582Y008799D03*
X006029Y008799D03*
X006482Y008799D03*
X006929Y008799D03*
X007382Y008799D03*
X007829Y008799D03*
X010489Y009399D03*
X010935Y009399D03*
X010935Y009818D03*
X010489Y009818D03*
X004785Y006899D03*
X004339Y006899D03*
X004339Y006518D03*
X004785Y006518D03*
X004785Y006118D03*
X004339Y006118D03*
X006194Y004868D03*
X006641Y004868D03*
X007439Y006179D03*
X007885Y006179D03*
X009139Y006229D03*
X009585Y006229D03*
X017504Y008729D03*
X017504Y009089D03*
X017951Y009089D03*
X017951Y008729D03*
X017951Y009449D03*
X017951Y009809D03*
X017504Y009809D03*
X017504Y009449D03*
X025951Y005605D03*
X026398Y005605D03*
X027051Y005605D03*
X027498Y005605D03*
D24*
X018237Y010886D03*
X018237Y010986D03*
X018237Y011136D03*
X018237Y011286D03*
X018237Y011386D03*
X004480Y005086D03*
X004480Y004086D03*
D25*
X007733Y005136D03*
X008127Y005136D03*
D26*
X008580Y004450D03*
X007280Y004450D03*
D27*
X018928Y008999D03*
X018928Y009799D03*
D28*
X018788Y008339D02*
X019068Y008339D01*
X019068Y008059D01*
X018788Y008059D01*
X018788Y008339D01*
X018788Y008178D02*
X019068Y008178D01*
X019068Y008297D02*
X018788Y008297D01*
D29*
X031242Y001321D03*
X001321Y001321D03*
X001321Y014146D03*
D30*
X007099Y010267D03*
X007849Y010267D03*
X007849Y009557D03*
X007099Y009557D03*
D31*
G36*
X010882Y004297D02*
X011058Y004473D01*
X011196Y004335D01*
X011020Y004159D01*
X010882Y004297D01*
G37*
G36*
X010571Y003986D02*
X010747Y004162D01*
X010885Y004024D01*
X010709Y003848D01*
X010571Y003986D01*
G37*
D32*
X010437Y010388D03*
X010437Y010762D03*
X010437Y011136D03*
X011461Y011136D03*
X011461Y010762D03*
X011461Y010388D03*
D33*
X007907Y011054D03*
X006617Y011054D03*
D34*
X009149Y011104D03*
X009149Y009707D03*
X009299Y008361D03*
X009299Y006963D03*
D35*
X009089Y005668D03*
X009635Y005668D03*
X005935Y010318D03*
X005389Y010318D03*
X005389Y011054D03*
X005935Y011054D03*
D36*
X006842Y006179D03*
X005985Y005805D03*
X006842Y005431D03*
D37*
X005518Y005281D03*
X005518Y003992D03*
D38*
X005862Y006799D03*
X005862Y007299D03*
X005862Y007799D03*
X005862Y008299D03*
X007949Y008299D03*
X007949Y007799D03*
X007949Y007299D03*
X007949Y006799D03*
D39*
X006905Y007549D03*
D40*
X010218Y006229D03*
X010218Y005682D03*
M02*
